<?xml version="1.0" encoding="UTF-8" standalone="no"?>
<svg width="310px" height="261px" viewBox="0 0 310 261" version="1.1" xmlns="http://www.w3.org/2000/svg" xmlns:xlink="http://www.w3.org/1999/xlink">
    <!-- Generator: Sketch 3.8.3 (29802) - http://www.bohemiancoding.com/sketch -->
    <title>Artboard 31</title>
    <desc>Created with Sketch.</desc>
    <defs></defs>
    <g id="Page-1" stroke="none" stroke-width="1" fill="none" fill-rule="evenodd">
        <g id="Artboard-31">
            <g id="Page-1" transform="translate(37.000000, 24.000000)">
                <polygon id="Fill-1" fill="#9A67A8" points="102.4839 120.6699 94.8599 120.6699 94.8599 117.1699 98.8489 117.1699 97.0239 68.9329 52.4449 70.6199 52.3119 67.1229 100.3899 65.3029"></polygon>
                <polygon id="Fill-2" fill="#9A67A8" points="47.1821 122.6948 45.4751 77.5918 48.9731 77.4588 50.5471 119.0648 56.2671 118.8488 56.4001 122.3458"></polygon>
                <g id="Group-135" transform="translate(0.000000, 0.061000)">
                    <path d="M83.8892,180.9893 C68.0282,180.9893 54.6282,166.9303 54.6282,150.2893 L58.1282,150.2893 C58.1282,157.1803 60.8932,164.0983 65.7152,169.2683 C70.6602,174.5703 77.1142,177.4893 83.8892,177.4893 C87.0912,177.4893 90.2762,176.3843 93.0102,175.3483 L94.2502,178.6223 C91.2262,179.7673 87.6822,180.9893 83.8892,180.9893" id="Fill-3" fill="#EC6A5A"></path>
                    <path d="M43.3225,151.6831 L39.8225,151.6831 L39.8225,133.6251 C39.8225,128.5791 43.9285,124.4731 48.9755,124.4731 C54.0225,124.4731 58.1275,128.5791 58.1275,133.6251 L58.1275,150.1861 L54.6275,150.1861 L54.6275,133.6251 C54.6275,130.5081 52.0925,127.9731 48.9755,127.9731 C45.8585,127.9731 43.3225,130.5081 43.3225,133.6251 L43.3225,151.6831 Z" id="Fill-5" fill="#EC6A5A"></path>
                    <path d="M87.6843,140.6396 L84.1843,140.6396 L84.1843,124.1906 C84.1843,121.0736 81.6483,118.5376 78.5313,118.5376 C75.4143,118.5376 72.8793,121.0736 72.8793,124.1906 L72.8793,140.6396 L69.3793,140.6396 L69.3793,124.1906 C69.3793,119.1436 73.4853,115.0376 78.5313,115.0376 C83.5783,115.0376 87.6843,119.1436 87.6843,124.1906 L87.6843,140.6396 Z" id="Fill-7" fill="#EC6A5A"></path>
                    <path d="M101.4011,140.6396 L97.9011,140.6396 L97.9011,125.3996 C97.9011,122.5826 95.6091,120.2916 92.7931,120.2916 C89.9761,120.2916 87.6841,122.5826 87.6841,125.3996 L87.6841,140.6396 L84.1841,140.6396 L84.1841,125.3996 C84.1841,120.6536 88.0461,116.7916 92.7931,116.7916 C97.5391,116.7916 101.4011,120.6536 101.4011,125.3996 L101.4011,140.6396 Z" id="Fill-9" fill="#EC6A5A"></path>
                    <path d="M113.1504,151.5161 L109.6504,151.5161 L109.6504,127.4741 C109.6504,125.1691 107.7754,123.2941 105.4704,123.2941 C103.1654,123.2941 101.2904,125.1691 101.2904,127.4741 L101.2904,140.6511 L97.7904,140.6511 L97.7904,127.4741 C97.7904,123.2401 101.2354,119.7941 105.4704,119.7941 C109.7054,119.7941 113.1504,123.2401 113.1504,127.4741 L113.1504,151.5161 Z" id="Fill-11" fill="#EC6A5A"></path>
                    <polygon id="Fill-13" fill="#EC6A5A" points="51.3054 209.9712 47.8194 209.6572 51.2534 171.5952 54.7394 171.9092"></polygon>
                    <polygon id="Fill-15" fill="#EC6A5A" points="103.7539 213 101.0439 173.126 104.5349 172.889 107.2459 212.763"></polygon>
                    <path d="M76.4766,182.2759 C66.3846,182.2759 57.2236,179.3559 50.6806,174.0539 C43.5646,168.2879 39.8026,160.1079 39.8026,150.3969 L43.3026,150.3969 C43.3026,170.0009 59.9646,178.7759 76.4766,178.7759 C92.9886,178.7759 109.6506,170.0009 109.6506,150.3969 L113.1506,150.3969 C113.1506,160.1079 109.3896,168.2879 102.2736,174.0539 C95.7306,179.3559 86.5686,182.2759 76.4766,182.2759" id="Fill-17" fill="#EC6A5A"></path>
                    <path d="M63.6816,109.8286 C60.7786,109.8286 58.4176,107.4676 58.4176,104.5646 L61.9176,104.5646 C61.9176,105.5366 62.7086,106.3286 63.6816,106.3286 C64.6546,106.3286 65.4456,105.5366 65.4456,104.5646 L68.9456,104.5646 C68.9456,107.4676 66.5846,109.8286 63.6816,109.8286" id="Fill-19" fill="#EC6A5A"></path>
                    <path d="M68.9458,104.625 L65.4458,104.625 L65.4458,101.413 C65.4458,100.44 64.6538,99.648 63.6818,99.648 C62.7088,99.648 61.9168,100.44 61.9168,101.413 L61.9168,104.625 L58.4168,104.625 L58.4168,101.413 C58.4168,98.51 60.7788,96.148 63.6818,96.148 C66.5838,96.148 68.9458,98.51 68.9458,101.413 L68.9458,104.625 Z" id="Fill-21" fill="#EC6A5A"></path>
                    <path d="M46.4395,145.4946 C42.7805,145.4946 39.8035,142.5176 39.8035,138.8586 L43.3035,138.8586 C43.3035,140.5876 44.7105,141.9946 46.4395,141.9946 C48.1685,141.9946 49.5755,140.5876 49.5755,138.8586 L53.0755,138.8586 C53.0755,142.5176 50.0985,145.4946 46.4395,145.4946" id="Fill-23" fill="#EC6A5A"></path>
                    <path d="M53.0757,138.9434 L49.5757,138.9434 L49.5757,134.4774 C49.5757,132.7474 48.1687,131.3404 46.4397,131.3404 C44.7097,131.3404 43.3027,132.7474 43.3027,134.4774 L43.3027,138.9434 L39.8027,138.9434 L39.8027,134.4774 C39.8027,130.8174 42.7797,127.8404 46.4397,127.8404 C50.0987,127.8404 53.0757,130.8174 53.0757,134.4774 L53.0757,138.9434 Z" id="Fill-25" fill="#EC6A5A"></path>
                    <path d="M137.8628,135.0103 C137.7178,135.0103 137.5718,135.0073 137.4258,135.0003 C134.9618,134.8863 132.6888,133.8203 131.0268,131.9963 C128.9558,129.7253 128.1518,126.5843 128.8758,123.5943 L132.2778,124.4173 C131.8278,126.2763 132.3268,128.2283 133.6128,129.6383 C134.6458,130.7713 136.0568,131.4333 137.5878,131.5043 C139.1148,131.5773 140.5858,131.0463 141.7178,130.0123 L148.2418,124.0653 L150.5998,126.6523 L144.0758,132.5993 C142.3608,134.1633 140.1688,135.0103 137.8628,135.0103" id="Fill-27" fill="#F08650"></path>
                    <path d="M151.1733,141.7041 C148.8133,141.7041 146.4613,140.7511 144.7503,138.8741 C143.1873,137.1591 142.3853,134.9381 142.4923,132.6211 C142.5993,130.3031 143.6023,128.1651 145.3173,126.6021 L148.1783,123.9951 L150.5353,126.5811 L147.6753,129.1891 C146.6513,130.1221 146.0523,131.3981 145.9883,132.7821 C145.9243,134.1661 146.4033,135.4921 147.3363,136.5161 C149.2633,138.6291 152.5503,138.7811 154.6633,136.8541 L161.3463,130.7621 L163.7043,133.3491 L157.0223,139.4411 C155.3593,140.9561 153.2633,141.7041 151.1733,141.7041" id="Fill-29" fill="#F08650"></path>
                    <path d="M198.6504,141.291 L195.2844,140.331 C197.5194,132.496 196.5694,124.26 192.6084,117.14 C188.6484,110.019 182.1524,104.867 174.3174,102.633 C172.3284,102.065 170.2814,101.698 168.2344,101.542 L168.5004,98.052 C170.7824,98.226 173.0624,98.635 175.2774,99.267 C184.0124,101.758 191.2534,107.501 195.6674,115.438 C200.0824,123.375 201.1414,132.557 198.6504,141.291" id="Fill-31" fill="#F08650"></path>
                    <polygon id="Fill-33" fill="#9A67A8" points="156.2373 127.292 113.1513 124.863 116.2313 70.246 170.8483 73.325 168.7873 109.871 165.2923 109.673 167.1563 76.623 119.5283 73.937 116.8423 121.565 156.4343 123.798"></polygon>
                    <path d="M163.3105,147.1548 C161.2055,147.1548 159.1085,146.3048 157.5815,144.6308 C156.1875,143.1008 155.4725,141.1198 155.5675,139.0528 C155.6635,136.9858 156.5585,135.0798 158.0875,133.6848 L161.3225,130.7358 L163.6805,133.3228 L160.4455,136.2718 C158.7145,137.8498 158.5905,140.5418 160.1675,142.2718 C161.7465,144.0038 164.4385,144.1278 166.1685,142.5498 L170.0105,139.0468 L172.3695,141.6328 L168.5265,145.1358 C167.0435,146.4878 165.1745,147.1548 163.3105,147.1548" id="Fill-35" fill="#F08650"></path>
                    <path d="M164.218,126.3076 C162.759,126.3076 161.292,125.8256 160.075,124.8346 L162.285,122.1206 C163.597,123.1896 165.536,122.9926 166.604,121.6796 C167.122,121.0436 167.362,120.2436 167.278,119.4286 C167.195,118.6126 166.799,117.8776 166.163,117.3596 L168.373,114.6456 C169.734,115.7546 170.582,117.3266 170.76,119.0716 C170.939,120.8176 170.426,122.5286 169.318,123.8896 C168.022,125.4816 166.127,126.3076 164.218,126.3076" id="Fill-37" fill="#F08650"></path>
                    <path d="M160.1396,124.8877 L156.7236,122.1057 C153.9146,119.8177 153.4906,115.6717 155.7786,112.8627 C158.0656,110.0537 162.2126,109.6287 165.0216,111.9167 L168.4376,114.6987 L166.2276,117.4127 L162.8116,114.6307 C161.4986,113.5617 159.5606,113.7597 158.4926,115.0727 C157.4226,116.3847 157.6216,118.3227 158.9336,119.3917 L162.3496,122.1737 L160.1396,124.8877 Z" id="Fill-39" fill="#F08650"></path>
                    <path d="M153.2075,125.0137 C150.2095,122.1237 149.0565,117.8427 150.1975,113.8407 C151.0205,110.9547 152.9175,108.5627 155.5395,107.1047 C158.1615,105.6467 161.1945,105.2967 164.0795,106.1197 C165.6275,106.5607 167.0315,107.3087 168.2525,108.3427 L165.9915,111.0137 C165.1525,110.3047 164.1865,109.7897 163.1195,109.4857 C161.1335,108.9197 159.0455,109.1597 157.2405,110.1637 C155.4355,111.1677 154.1295,112.8137 153.5635,114.8007 C152.7775,117.5557 153.5725,120.5037 155.6365,122.4937 L153.2075,125.0137 Z" id="Fill-41" fill="#F08650"></path>
                    <path d="M185.0237,151.1411 C183.7057,151.1411 182.3807,150.9571 181.0777,150.5861 C178.8917,149.9621 176.9417,148.8681 175.2837,147.3311 L177.6627,144.7641 C178.9137,145.9221 180.3857,146.7481 182.0377,147.2201 C184.8147,148.0121 187.7327,147.6751 190.2557,146.2721 C192.7787,144.8691 194.6047,142.5671 195.3967,139.7901 C196.7987,134.8741 194.5307,129.5961 190.0027,127.2411 L191.6187,124.1361 C197.6137,127.2551 200.6187,134.2421 198.7627,140.7501 C197.7137,144.4261 195.2967,147.4731 191.9567,149.3301 C189.8007,150.5301 187.4257,151.1411 185.0237,151.1411" id="Fill-43" fill="#F08650"></path>
                    <polygon id="Fill-45" fill="#F08650" points="175.2297 147.2754 153.1777 124.9824 155.6667 122.5214 177.7177 144.8144"></polygon>
                    <polygon id="Fill-47" fill="#F08650" points="190.6343 127.5957 165.3453 110.5267 167.3033 107.6247 192.5923 124.6947"></polygon>
                    <path d="M112.2937,56.0762 L160.6247,56.9322 L161.4817,8.6012 L113.1497,7.7442 L112.2937,56.0762 Z M164.0627,60.4932 L108.7317,59.5142 L109.7127,4.1832 L165.0427,5.1632 L164.0627,60.4932 Z" id="Fill-49" fill="#9A67A8"></path>
                    <polygon id="Fill-51" fill="#F08650" points="196.9568 120.5972 196.9188 117.0972 236.0358 116.6712 236.0738 120.1712"></polygon>
                    <polygon id="Fill-53" fill="#F08650" points="228.4006 157.3638 187.1106 150.8848 187.6536 147.4268 228.9426 153.9058"></polygon>
                    <path d="M72.4067,62.2783 C70.3167,62.2783 68.2207,61.5303 66.5587,60.0153 L62.3237,56.1543 L64.6817,53.5683 L68.9167,57.4293 C71.0297,59.3553 74.3167,59.2033 76.2437,57.0903 C76.8417,56.4343 77.2627,55.6343 77.4627,54.7763 L80.8717,55.5693 C80.5367,57.0083 79.8307,58.3503 78.8297,59.4483 C77.1187,61.3253 74.7667,62.2783 72.4067,62.2783" id="Fill-55" fill="#F08650"></path>
                    <path d="M28.4319,63.3662 C26.0919,55.1612 26.9059,46.4442 30.7239,38.8202 C34.5189,31.2452 40.9429,25.3942 48.8129,22.3452 L50.0769,25.6092 C43.0199,28.3432 37.2579,33.5912 33.8539,40.3872 C30.4289,47.2262 29.6989,55.0462 31.7979,62.4062 L28.4319,63.3662 Z" id="Fill-57" fill="#F08650"></path>
                    <path d="M60.2698,67.729 C58.4058,67.729 56.5368,67.062 55.0538,65.71 L54.0238,64.772 L56.3818,62.185 L57.4108,63.123 C59.1428,64.701 61.8338,64.578 63.4118,62.846 C64.1768,62.008 64.5688,60.922 64.5168,59.789 C64.4638,58.655 63.9738,57.61 63.1348,56.846 L62.3488,56.129 L64.7058,53.542 L65.4928,54.259 C67.0218,55.654 67.9168,57.56 68.0128,59.627 C68.1078,61.694 67.3928,63.675 65.9988,65.205 C64.4728,66.878 62.3738,67.729 60.2698,67.729" id="Fill-59" fill="#F08650"></path>
                    <polygon id="Fill-61" fill="#9A67A8" points="62.062 57.7852 61.878 54.2902 100.725 52.2512 98.039 4.6302 50.417 7.3162 52.275 38.3592 48.781 38.5682 46.714 4.0192 101.337 0.9392 104.417 55.5632"></polygon>
                    <path d="M62.8647,48.3828 C60.9557,48.3828 59.0607,47.5568 57.7637,45.9648 C56.6557,44.6038 56.1437,42.8928 56.3227,41.1468 C56.5007,39.4018 57.3487,37.8298 58.7097,36.7208 L60.9197,39.4348 C60.2837,39.9528 59.8877,40.6878 59.8037,41.5038 C59.7207,42.3188 59.9597,43.1188 60.4777,43.7548 C61.5467,45.0668 63.4847,45.2648 64.7977,44.1958 L67.0077,46.9098 C65.7907,47.9008 64.3227,48.3828 62.8647,48.3828" id="Fill-63" fill="#F08650"></path>
                    <path d="M66.9426,46.9629 L64.7326,44.2489 L68.1486,41.4669 C69.4606,40.3979 69.6596,38.4599 68.5906,37.1479 C67.5216,35.8349 65.5836,35.6369 64.2706,36.7059 L60.8546,39.4879 L58.6446,36.7739 L62.0606,33.9919 C64.8706,31.7039 69.0166,32.1289 71.3046,34.9379 C73.5916,37.7459 73.1676,41.8929 70.3586,44.1809 L66.9426,46.9629 Z" id="Fill-65" fill="#F08650"></path>
                    <path d="M42.0588,73.2163 C39.6568,73.2163 37.2818,72.6053 35.1248,71.4053 C31.7848,69.5483 29.3688,66.5013 28.3198,62.8253 C26.4638,56.3173 29.4688,49.3303 35.4638,46.2113 L37.0798,49.3163 C32.5518,51.6713 30.2838,56.9493 31.6858,61.8653 C32.4778,64.6423 34.3038,66.9443 36.8268,68.3473 C39.3498,69.7503 42.2678,70.0873 45.0448,69.2953 C46.6978,68.8233 48.1698,67.9973 49.4198,66.8393 L51.7988,69.4063 C50.1418,70.9423 48.1918,72.0363 46.0048,72.6603 C44.7028,73.0323 43.3768,73.2163 42.0588,73.2163" id="Fill-67" fill="#F08650"></path>
                    <polygon id="Fill-69" fill="#F08650" points="51.8528 69.3506 49.3648 66.8896 71.4158 44.5966 73.9048 47.0576"></polygon>
                    <polygon id="Fill-71" fill="#F08650" points="36.4482 49.6709 34.4902 46.7699 59.7792 29.6999 61.7372 32.6019"></polygon>
                    <polygon id="Fill-73" fill="#F08650" points="2.7671 82.9976 0.000100000001 80.8536 28.1351 44.5346 30.9021 46.6776"></polygon>
                    <polygon id="Fill-75" fill="#F08650" points="31.6445 106.7568 28.6445 104.9528 52.6185 65.0808 55.6175 66.8838"></polygon>
                    <path d="M173.6189,54.8882 L221.9499,55.7442 L222.8069,7.4132 L174.4749,6.5572 L173.6189,54.8882 Z M225.3879,59.3062 L170.0569,58.3262 L171.0379,2.9952 L226.3679,3.9752 L225.3879,59.3062 Z" id="Fill-77" fill="#9A67A8"></path>
                    <path d="M159.9985,86.46 C159.9665,86.46 159.9335,86.459 159.9015,86.458 L124.4545,84.511 C123.4895,84.458 122.7495,83.633 122.8025,82.668 C122.8555,81.703 123.6775,80.968 124.6465,81.016 L160.0925,82.962 C161.0585,83.016 161.7975,83.841 161.7445,84.806 C161.6935,85.738 160.9215,86.46 159.9985,86.46" id="Fill-79" fill="#33526E"></path>
                    <path d="M159.7214,91.5034 C159.6894,91.5034 159.6564,91.5024 159.6244,91.5014 L124.1774,89.5544 C123.2124,89.5014 122.4734,88.6764 122.5264,87.7114 C122.5784,86.7464 123.4024,86.0174 124.3694,86.0594 L159.8154,88.0054 C160.7814,88.0594 161.5204,88.8844 161.4674,89.8494 C161.4164,90.7814 160.6444,91.5034 159.7214,91.5034" id="Fill-81" fill="#33526E"></path>
                    <path d="M152.5164,107.2949 C152.4844,107.2949 152.4514,107.2939 152.4194,107.2929 L123.2134,105.6889 C122.2474,105.6359 121.5084,104.8109 121.5614,103.8459 C121.6144,102.8809 122.4334,102.1489 123.4044,102.1939 L152.6104,103.7969 C153.5764,103.8509 154.3154,104.6759 154.2624,105.6409 C154.2114,106.5729 153.4394,107.2949 152.5164,107.2949" id="Fill-83" fill="#33526E"></path>
                    <path d="M140.7568,111.7085 C140.7248,111.7085 140.6918,111.7075 140.6598,111.7065 L122.9358,110.7325 C121.9708,110.6795 121.2318,109.8545 121.2848,108.8895 C121.3378,107.9245 122.1588,107.1975 123.1278,107.2375 L140.8508,108.2105 C141.8168,108.2645 142.5558,109.0895 142.5028,110.0545 C142.4518,110.9865 141.6798,111.7085 140.7568,111.7085" id="Fill-85" fill="#33526E"></path>
                    <path d="M143.967,95.6011 C143.935,95.6011 143.902,95.6001 143.87,95.5991 L123.906,94.5021 C122.941,94.4491 122.202,93.6241 122.255,92.6591 C122.307,91.6941 123.128,90.9651 124.098,91.0071 L144.061,92.1031 C145.027,92.1571 145.766,92.9821 145.713,93.9471 C145.662,94.8791 144.89,95.6011 143.967,95.6011" id="Fill-87" fill="#33526E"></path>
                    <path d="M56.2849,81.5278 C55.3469,81.5278 54.5699,80.7838 54.5369,79.8388 C54.5039,78.8728 55.2589,78.0628 56.2249,78.0288 L91.7039,76.7928 C92.6639,76.7638 93.4799,77.5148 93.5139,78.4808 C93.5469,79.4468 92.7919,80.2568 91.8259,80.2908 L56.3469,81.5268 C56.3269,81.5278 56.3059,81.5278 56.2849,81.5278" id="Fill-89" fill="#33526E"></path>
                    <path d="M56.2849,86.5757 C55.3469,86.5757 54.5699,85.8317 54.5369,84.8867 C54.5039,83.9207 55.2589,83.1107 56.2249,83.0767 L73.9649,82.4587 C73.9849,82.4587 74.0059,82.4577 74.0269,82.4577 C74.9649,82.4577 75.7419,83.2017 75.7749,84.1467 C75.8079,85.1127 75.0519,85.9237 74.0859,85.9567 L56.3469,86.5747 C56.3269,86.5757 56.3059,86.5757 56.2849,86.5757" id="Fill-91" fill="#33526E"></path>
                    <path d="M56.2849,91.624 C55.3509,91.624 54.5759,90.886 54.5379,89.944 C54.4989,88.979 55.2499,88.165 56.2159,88.125 L86.8649,86.89 C87.8319,86.846 88.6449,87.602 88.6839,88.568 C88.7229,89.533 87.9709,90.348 87.0059,90.387 L56.3569,91.623 C56.3329,91.624 56.3089,91.624 56.2849,91.624" id="Fill-93" fill="#33526E"></path>
                    <path d="M68.7488,96.1719 C67.8078,96.1719 67.0308,95.4249 67.0008,94.4779 C66.9698,93.5119 67.7278,92.7039 68.6938,92.6729 L91.7088,91.9379 C92.6828,91.9199 93.4828,92.6649 93.5138,93.6309 C93.5448,94.5969 92.7868,95.4049 91.8208,95.4359 L68.8058,96.1709 C68.7868,96.1719 68.7678,96.1719 68.7488,96.1719" id="Fill-95" fill="#33526E"></path>
                    <path d="M72.3342,101.1611 C71.4052,101.1611 70.6312,100.4301 70.5872,99.4921 C70.5422,98.5271 71.2892,97.7081 72.2542,97.6631 L86.8542,96.9861 C87.8172,96.9431 88.6382,97.6881 88.6832,98.6531 C88.7282,99.6191 87.9812,100.4371 87.0162,100.4821 L72.4172,101.1591 C72.3892,101.1611 72.3612,101.1611 72.3342,101.1611" id="Fill-97" fill="#33526E"></path>
                    <path d="M72.3345,106.3145 C71.4005,106.3145 70.6255,105.5765 70.5875,104.6345 C70.5485,103.6685 71.2995,102.8545 72.2655,102.8155 L91.6945,102.0345 C92.6605,101.9925 93.4745,102.7465 93.5135,103.7125 C93.5525,104.6785 92.8005,105.4925 91.8345,105.5315 L72.4065,106.3135 C72.3825,106.3145 72.3585,106.3145 72.3345,106.3145" id="Fill-99" fill="#33526E"></path>
                    <path d="M56.9133,16.729 C55.9983,16.729 55.2283,16.018 55.1683,15.092 C55.1063,14.127 55.8373,13.295 56.8023,13.232 L92.2283,10.94 C93.1963,10.884 94.0253,11.609 94.0873,12.574 C94.1503,13.538 93.4183,14.371 92.4543,14.433 L57.0283,16.726 C56.9893,16.728 56.9513,16.729 56.9133,16.729" id="Fill-101" fill="#33526E"></path>
                    <path d="M57.064,21.7749 C56.149,21.7749 55.379,21.0639 55.319,20.1379 C55.257,19.1729 55.988,18.3409 56.953,18.2779 L81.937,16.6619 C82.901,16.6029 83.734,17.3309 83.796,18.2959 C83.859,19.2599 83.127,20.0919 82.163,20.1549 L57.179,21.7719 C57.14,21.7739 57.102,21.7749 57.064,21.7749" id="Fill-103" fill="#33526E"></path>
                    <path d="M68.0264,31.2617 C67.1144,31.2617 66.3454,30.5547 66.2824,29.6307 C66.2164,28.6667 66.9444,27.8317 67.9094,27.7657 L92.6734,26.0777 C93.6374,26.0247 94.4724,26.7407 94.5384,27.7047 C94.6044,28.6697 93.8754,29.5047 92.9114,29.5707 L68.1474,31.2577 C68.1064,31.2607 68.0664,31.2617 68.0264,31.2617" id="Fill-105" fill="#33526E"></path>
                    <path d="M74.7766,36.0161 C73.8706,36.0161 73.1046,35.3181 73.0336,34.4001 C72.9596,33.4361 73.6806,32.5951 74.6446,32.5211 L88.0896,31.4881 C89.0536,31.4031 89.8946,32.1351 89.9686,33.0981 C90.0426,34.0621 89.3216,34.9031 88.3586,34.9771 L74.9126,36.0111 C74.8676,36.0151 74.8216,36.0161 74.7766,36.0161" id="Fill-107" fill="#33526E"></path>
                    <path d="M138.8894,18.1196 L138.8584,18.1196 L118.8914,17.7756 C117.9254,17.7586 117.1554,16.9616 117.1714,15.9956 C117.1884,15.0296 117.9804,14.2436 118.9514,14.2766 L138.9194,14.6196 C139.8854,14.6366 140.6554,15.4336 140.6384,16.3996 C140.6224,17.3556 139.8414,18.1196 138.8894,18.1196" id="Fill-109" fill="#33526E"></path>
                    <path d="M154.1423,23.5039 L154.1073,23.5039 L118.6143,22.8169 C117.6483,22.7979 116.8803,21.9999 116.8983,21.0329 C116.9173,20.0659 117.6983,19.2929 118.6823,19.3169 L154.1753,20.0039 C155.1423,20.0229 155.9103,20.8209 155.8913,21.7879 C155.8723,22.7429 155.0933,23.5039 154.1423,23.5039" id="Fill-111" fill="#33526E"></path>
                    <path d="M147.0068,28.4116 L146.9718,28.4116 L118.3408,27.8566 C117.3748,27.8386 116.6068,27.0396 116.6248,26.0736 C116.6438,25.1066 117.4318,24.3286 118.4088,24.3576 L147.0398,24.9116 C148.0068,24.9306 148.7748,25.7286 148.7558,26.6956 C148.7368,27.6506 147.9578,28.4116 147.0068,28.4116" id="Fill-113" fill="#33526E"></path>
                    <path d="M153.5957,33.5854 L153.5607,33.5854 L118.0677,32.8974 C117.1017,32.8784 116.3337,32.0804 116.3517,31.1144 C116.3707,30.1474 117.1657,29.3644 118.1357,29.3984 L153.6287,30.0854 C154.5957,30.1044 155.3637,30.9024 155.3447,31.8694 C155.3257,32.8244 154.5467,33.5854 153.5957,33.5854" id="Fill-115" fill="#33526E"></path>
                    <path d="M153.0491,43.6665 L153.0141,43.6665 L117.5211,42.9795 C116.5551,42.9605 115.7871,42.1625 115.8051,41.1955 C115.8241,40.2405 116.6031,39.4795 117.5541,39.4795 L117.5891,39.4795 L153.0821,40.1665 C154.0491,40.1855 154.8171,40.9835 154.7981,41.9505 C154.7791,42.9055 154.0001,43.6665 153.0491,43.6665" id="Fill-117" fill="#33526E"></path>
                    <path d="M216.5632,18.7837 L216.5402,18.7837 L181.0432,18.3267 C180.0762,18.3147 179.3032,17.5207 179.3162,16.5547 C179.3282,15.5877 180.1252,14.8357 181.0882,14.8267 L216.5852,15.2837 C217.5522,15.2967 218.3252,16.0897 218.3122,17.0557 C218.3002,18.0147 217.5192,18.7837 216.5632,18.7837" id="Fill-119" fill="#33526E"></path>
                    <path d="M216.3225,23.8257 L216.2995,23.8257 L180.8025,23.3687 C179.8355,23.3567 179.0625,22.5627 179.0755,21.5967 C179.0875,20.6297 179.8755,19.8717 180.8475,19.8687 L216.3445,20.3257 C217.3115,20.3387 218.0845,21.1317 218.0715,22.0977 C218.0595,23.0567 217.2785,23.8257 216.3225,23.8257" id="Fill-121" fill="#33526E"></path>
                    <path d="M197.6123,28.8682 L197.5643,28.8682 L180.5373,28.4112 C179.5713,28.3852 178.8093,27.5812 178.8353,26.6152 C178.8613,25.6492 179.6673,24.8932 180.6313,24.9122 L197.6583,25.3682 C198.6243,25.3942 199.3863,26.1992 199.3603,27.1652 C199.3353,28.1152 198.5573,28.8682 197.6123,28.8682" id="Fill-123" fill="#33526E"></path>
                    <path d="M208.0269,33.4541 L180.3439,33.4541 C179.3779,33.4541 178.5939,32.6701 178.5939,31.7041 C178.5939,30.7381 179.3779,29.9541 180.3439,29.9541 L208.0269,29.9541 C208.9939,29.9541 209.7769,30.7381 209.7769,31.7041 C209.7769,32.6701 208.9939,33.4541 208.0269,33.4541" id="Fill-125" fill="#33526E"></path>
                    <path d="M215.6008,38.9531 L215.5778,38.9531 L180.0808,38.4961 C179.1138,38.4841 178.3408,37.6901 178.3538,36.7241 C178.3658,35.7571 179.1608,34.9791 180.1258,34.9961 L215.6228,35.4531 C216.5898,35.4661 217.3628,36.2591 217.3498,37.2251 C217.3378,38.1841 216.5568,38.9531 215.6008,38.9531" id="Fill-127" fill="#33526E"></path>
                    <path d="M205.2656,44.1069 L205.2256,44.1069 L179.8236,43.5389 C178.8576,43.5169 178.0916,42.7159 178.1136,41.7499 C178.1346,40.7829 178.9286,40.0139 179.9016,40.0399 L205.3036,40.6069 C206.2706,40.6289 207.0366,41.4299 207.0146,42.3959 C206.9936,43.3489 206.2136,44.1069 205.2656,44.1069" id="Fill-129" fill="#33526E"></path>
                    <path d="M58.074,150.834 L54.574,150.834 L54.574,100.78 C54.574,95.734 58.68,91.628 63.727,91.628 C68.773,91.628 72.879,95.734 72.879,100.78 L72.879,140.64 L69.379,140.64 L69.379,100.78 C69.379,97.664 66.844,95.128 63.727,95.128 C60.61,95.128 58.074,97.664 58.074,100.78 L58.074,150.834 Z" id="Fill-131" fill="#EC6A5A"></path>
                    <path d="M73.875,47.0889 L71.446,44.5689 C73.51,42.5789 74.305,39.6309 73.519,36.8759 C72.35,32.7759 68.062,30.3889 63.963,31.5609 C62.896,31.8649 61.93,32.3799 61.091,33.0889 L58.83,30.4179 C60.05,29.3849 61.454,28.6369 63.003,28.1949 C68.959,26.4959 75.187,29.9599 76.885,35.9159 C78.026,39.9179 76.873,44.1989 73.875,47.0889" id="Fill-133" fill="#F08650"></path>
                </g>
            </g>
        </g>
    </g>
</svg>