<?xml version="1.0" encoding="UTF-8" standalone="no"?>
<svg width="237px" height="213px" viewBox="0 0 237 213" version="1.1" xmlns="http://www.w3.org/2000/svg" xmlns:xlink="http://www.w3.org/1999/xlink">
    <!-- Generator: Sketch 3.8.2 (29753) - http://www.bohemiancoding.com/sketch -->
    <title>Page 1</title>
    <desc>Created with Sketch.</desc>
    <defs></defs>
    <g id="Page-1" stroke="none" stroke-width="1" fill="none" fill-rule="evenodd">
        <g id="Home-Copy-14" transform="translate(-132.000000, -284.000000)" stroke-width="3.5">
            <g id="Page-1" transform="translate(133.000000, 286.000000)">
                <polyline id="Stroke-1" stroke="#9A67A8" points="51.4874837 66.37105 97.9138446 64.61805 99.8780059 116.42005 94.0591779 116.42005"></polyline>
                <polyline id="Stroke-2" stroke="#9A67A8" points="55.451031 118.0974 47.9661732 118.3799 46.3226913 75.0254"></polyline>
                <g id="Group-135" transform="translate(0.000000, 0.061000)">
                    <path d="M92.8270675,174.48545 C89.7926386,175.63195 86.5021673,176.73945 83.0648849,176.73945 C67.8386259,176.73945 55.4954752,162.98395 55.4954752,147.78945" id="Stroke-3" stroke="#EC6A5A"></path>
                    <path d="M40.6587414,149.183 L40.6587414,131.1255 C40.6587414,127.037 43.9802786,123.723 48.076958,123.723 C52.1741384,123.723 55.4956756,127.037 55.4956756,131.1255 L55.4956756,147.6865" id="Stroke-5" stroke="#EC6A5A"></path>
                    <path d="M70.2779941,138.1399 L70.2779941,121.6904 C70.2779941,117.6019 73.5995312,114.2879 77.6962106,114.2879 C81.7933911,114.2879 85.1149282,117.6019 85.1149282,121.6904 L85.1149282,138.1399" id="Stroke-7" stroke="#EC6A5A"></path>
                    <path d="M85.1146777,138.1399 L85.1146777,122.8999 C85.1146777,119.1119 88.1916968,116.0414 91.9877393,116.0414 C95.7832807,116.0414 98.8608008,119.1119 98.8608008,122.8999 L98.8608008,138.1399" id="Stroke-9" stroke="#EC6A5A"></path>
                    <path d="M98.7495652,138.15145 L98.7495652,124.97445 C98.7495652,121.69945 101.410202,119.04445 104.692155,119.04445 C107.974109,119.04445 110.634746,121.69945 110.634746,124.97445 L110.634746,149.01595" id="Stroke-11" stroke="#EC6A5A"></path>
                    <path d="M52.1067456,169.2525 L48.6654548,207.314" id="Stroke-13" stroke="#EC6A5A"></path>
                    <path d="M102.005664,170.50775 L104.721417,210.38125" id="Stroke-15" stroke="#EC6A5A"></path>
                    <path d="M110.634645,147.8972 C110.634645,167.1852 94.965448,178.0262 75.6369979,178.0262 C56.3080467,178.0262 40.6388493,167.1852 40.6388493,147.8972" id="Stroke-17" stroke="#EC6A5A"></path>
                    <path d="M66.3364433,102.0643 C66.3364433,104.0053 64.7596025,105.5788 62.8144815,105.5788 C60.8698616,105.5788 59.2930208,104.0053 59.2930208,102.0643" id="Stroke-19" stroke="#EC6A5A"></path>
                    <path d="M59.2929206,102.1252 L59.2929206,98.9132 C59.2929206,96.9722 60.8697614,95.3987 62.8148824,95.3987 C64.7595023,95.3987 66.3363431,96.9722 66.3363431,98.9132 L66.3363431,102.1252" id="Stroke-21" stroke="#EC6A5A"></path>
                    <path d="M50.4325486,136.35855 C50.4325486,139.05705 48.2404042,141.24505 45.5356739,141.24505 C42.8314446,141.24505 40.6393002,139.05705 40.6393002,136.35855" id="Stroke-23" stroke="#EC6A5A"></path>
                    <path d="M40.6390998,136.4432 L40.6390998,131.9772 C40.6390998,129.2782 42.8312442,127.0907 45.5359745,127.0907 C48.2402038,127.0907 50.4323482,129.2782 50.4323482,131.9772 L50.4323482,136.4432" id="Stroke-25" stroke="#EC6A5A"></path>
                    <path d="M129.851509,121.5058 C129.284808,123.8418 129.853513,126.4078 131.598711,128.3178 C134.390125,131.3733 139.135679,131.5918 142.197666,128.8063 C142.882617,128.1833 145.872953,125.4628 148.736019,122.8583" id="Stroke-27" stroke="#F08650"></path>
                    <path d="M148.671582,122.788 C147.515132,123.84 146.491964,124.771 145.805009,125.396 C142.967998,127.977 142.765068,132.364 145.351548,135.195 C147.938028,138.026 152.334342,138.229 155.171353,135.648 C155.856805,135.024 159.037544,132.1305 161.868041,129.556" id="Stroke-29" stroke="#F08650"></path>
                    <path d="M167.722695,97.29715 C169.864232,97.45965 172.021302,97.83915 174.166848,98.44965 C191.332716,103.33515 201.279289,121.18165 196.383918,138.31115" id="Stroke-31" stroke="#F08650"></path>
                    <polyline id="Stroke-33" stroke="#9A67A8" points="155.66575 123.0451 114.238982 120.7141 117.127602 69.5916 168.358642 72.4746 166.392476 107.2721"></polyline>
                    <path d="M161.84414,129.5293 C160.537873,130.7178 159.343342,131.8043 158.602272,132.4788 C156.149074,134.7103 155.973703,138.5038 158.209941,140.9513 C160.446178,143.3993 164.247732,143.5743 166.70093,141.3428 C167.009083,141.0623 168.522289,139.6853 170.551588,137.8398" id="Stroke-35" stroke="#F08650"></path>
                    <path d="M166.62086,113.50315 C168.689242,115.18415 169.000402,118.22015 167.315833,120.28415 C165.631264,122.34865 162.588818,122.65915 160.520436,120.97815" id="Stroke-37" stroke="#F08650"></path>
                    <path d="M160.585173,121.03065 C160.585173,121.03065 158.356451,119.21965 157.16192,118.24865 C155.093538,116.56765 154.782379,113.53165 156.466948,111.46715 C158.151517,109.40315 161.193963,109.09265 163.262345,110.77365 C165.330727,112.45465 166.685597,113.55565 166.685597,113.55565" id="Stroke-39" stroke="#F08650"></path>
                    <path d="M153.747887,121.254 C151.301203,118.9 150.203377,115.3095 151.20049,111.8205 C152.64004,106.7845 157.897679,103.8665 162.944371,105.3025 C164.284711,105.684 165.475734,106.3345 166.474851,107.1785" id="Stroke-41" stroke="#F08650"></path>
                    <path d="M190.213795,123.1888 C195.406797,125.8843 198.163638,131.9343 196.495604,137.7703 C194.589566,144.4403 187.625311,148.3053 180.941651,146.4028 C178.974483,145.8433 177.25033,144.8463 175.845855,143.5478" id="Stroke-43" stroke="#F08650"></path>
                    <path d="M153.747737,121.25165 L175.846556,143.54515" id="Stroke-45" stroke="#F08650"></path>
                    <path d="M165.675558,106.57565 L191.01825,123.64515" id="Stroke-47" stroke="#F08650"></path>
                    <polygon id="Stroke-49" stroke="#9A67A8" points="161.686256 56.2132 109.745211 55.2947 110.665661 3.4637 162.606706 4.3822"></polygon>
                    <path d="M196.353603,116.3472 L235.554155,115.9207" id="Stroke-51" stroke="#F08650"></path>
                    <path d="M186.777715,146.65615 L228.154879,153.13465" id="Stroke-53" stroke="#F08650"></path>
                    <path d="M78.3329096,52.6729 C78.0723575,53.7914 77.5297079,54.8604 76.6994488,55.7694 C74.112969,58.6004 69.7161537,58.8029 66.8791431,56.2219 C66.390107,55.7774 64.6313809,54.1769 62.6356527,52.3614" id="Stroke-55" stroke="#F08650"></path>
                    <path d="M48.5475049,21.47735 C33.1483796,27.42985 24.55818,44.22735 29.1764645,60.38635" id="Stroke-57" stroke="#F08650"></path>
                    <path d="M62.6600544,52.3356 C62.958186,52.6066 63.2237486,52.8486 63.4482242,53.0526 C65.9014217,55.2846 66.0767932,59.0776 63.8405554,61.5256 C61.6043176,63.9736 57.8027635,64.1486 55.3500671,61.9171 C55.2157826,61.7951 54.853014,61.4646 54.3183813,60.9786" id="Stroke-59" stroke="#F08650"></path>
                    <polyline id="Stroke-61" stroke="#9A67A8" points="61.0996484 53.5377 101.786349 51.4072 98.897228 0.2847 47.6661877 3.1677 49.6328544 35.9642"></polyline>
                    <path d="M58.9394718,35.5783 C56.8710896,37.2593 56.5599304,40.2953 58.2444994,42.3593 C59.9290684,44.4238 62.9715142,44.7343 65.0398964,43.0533" id="Stroke-63" stroke="#F08650"></path>
                    <path d="M64.9751592,43.10585 C64.9751592,43.10585 67.2038811,41.29485 68.3984119,40.32385 C70.4667941,38.64285 70.7779533,35.60685 69.0933843,33.54235 C67.4088153,31.47835 64.3663694,31.16785 62.2979873,32.84885 C60.2296051,34.52985 58.8747346,35.63085 58.8747346,35.63085" id="Stroke-65" stroke="#F08650"></path>
                    <path d="M35.3464866,45.26395 C30.1534845,47.95945 27.3966437,54.00945 29.0646777,59.84545 C30.971217,66.51545 37.9349707,70.38045 44.618631,68.47795 C46.5857987,67.91845 48.3099516,66.92145 49.7144272,65.62295" id="Stroke-67" stroke="#F08650"></path>
                    <path d="M71.8125452,43.32685 L49.7137257,65.62035" id="Stroke-69" stroke="#F08650"></path>
                    <path d="M59.8847244,28.65085 L34.5420323,45.72035" id="Stroke-71" stroke="#F08650"></path>
                    <path d="M28.5787983,43.10585 L0.384063694,79.42585" id="Stroke-73" stroke="#F08650"></path>
                    <path d="M53.230727,63.4825 L29.2068289,103.355" id="Stroke-75" stroke="#F08650"></path>
                    <polygon id="Stroke-77" stroke="#9A67A8" points="223.141608 55.02545 171.200563 54.10695 172.121013 2.27595 224.062058 3.19445"></polygon>
                    <path d="M123.812665,80.2638 L159.334423,82.2098" id="Stroke-79" stroke="#33526E" stroke-linecap="round"></path>
                    <path d="M123.535177,85.30735 L159.056935,87.25335" id="Stroke-81" stroke="#33526E" stroke-linecap="round"></path>
                    <path d="M122.568579,101.44175 L151.836588,103.04525" id="Stroke-83" stroke="#33526E" stroke-linecap="round"></path>
                    <path d="M122.291091,106.4853 L140.052221,107.4583" id="Stroke-85" stroke="#33526E" stroke-linecap="round"></path>
                    <path d="M123.26295,90.25505 L143.268836,91.35105" id="Stroke-87" stroke="#33526E" stroke-linecap="round"></path>
                    <path d="M55.4034301,77.27785 L90.9572561,76.04235" id="Stroke-89" stroke="#33526E" stroke-linecap="round"></path>
                    <path d="M55.4034301,82.32595 L73.1800926,81.70795" id="Stroke-91" stroke="#33526E" stroke-linecap="round"></path>
                    <path d="M55.4034301,87.3741 L86.1175023,86.1386" id="Stroke-93" stroke="#33526E" stroke-linecap="round"></path>
                    <path d="M67.8936425,91.9219 L90.9570055,91.1864" id="Stroke-95" stroke="#33526E" stroke-linecap="round"></path>
                    <path d="M71.4870556,96.9113 L86.1175524,96.2348" id="Stroke-97" stroke="#33526E" stroke-linecap="round"></path>
                    <path d="M71.4870556,102.0643 L90.9573062,101.2828" id="Stroke-99" stroke="#33526E" stroke-linecap="round"></path>
                    <path d="M56.0338157,12.4789 L91.5350301,10.1864" id="Stroke-101" stroke="#33526E" stroke-linecap="round"></path>
                    <path d="M56.1845851,17.52475 L81.2221308,15.90825" id="Stroke-103" stroke="#33526E" stroke-linecap="round"></path>
                    <path d="M67.1703601,27.0117 L91.9869376,25.3242" id="Stroke-105" stroke="#33526E" stroke-linecap="round"></path>
                    <path d="M73.9351423,31.7661 L87.409189,30.7326" id="Stroke-107" stroke="#33526E" stroke-linecap="round"></path>
                    <path d="M118.171914,13.5261 L138.181307,13.8696" id="Stroke-109" stroke="#33526E" stroke-linecap="round"></path>
                    <path d="M117.898034,18.5668 L153.466892,19.2538" id="Stroke-111" stroke="#33526E" stroke-linecap="round"></path>
                    <path d="M117.624104,23.6075 L146.316392,24.162" id="Stroke-113" stroke="#33526E" stroke-linecap="round"></path>
                    <path d="M117.350173,28.6482 L152.919031,29.3352" id="Stroke-115" stroke="#33526E" stroke-linecap="round"></path>
                    <path d="M116.802313,38.72965 L152.37117,39.41665" id="Stroke-117" stroke="#33526E" stroke-linecap="round"></path>
                    <path d="M180.447955,14.07705 L216.02032,14.53355" id="Stroke-119" stroke="#33526E" stroke-linecap="round"></path>
                    <path d="M180.206844,19.11945 L215.779209,19.57595" id="Stroke-121" stroke="#33526E" stroke-linecap="round"></path>
                    <path d="M179.965733,24.1618 L197.028884,24.6183" id="Stroke-123" stroke="#33526E" stroke-linecap="round"></path>
                    <path d="M179.724623,29.2042 L207.466397,29.2042" id="Stroke-125" stroke="#33526E" stroke-linecap="round"></path>
                    <path d="M179.483512,34.2466 L215.055877,34.7031" id="Stroke-127" stroke="#33526E" stroke-linecap="round"></path>
                    <path d="M179.242451,39.28895 L204.698383,39.85695" id="Stroke-129" stroke="#33526E" stroke-linecap="round"></path>
                    <path d="M55.4413104,148.33395 L55.4413104,98.28045 C55.4413104,94.19195 58.7628476,90.87795 62.859527,90.87795 C66.9567074,90.87795 70.2782446,94.19195 70.2782446,98.28045 L70.2782446,138.13995" id="Stroke-131" stroke="#EC6A5A"></path>
                    <path d="M71.8123949,43.32915 C74.2590786,40.97515 75.3569045,37.38465 74.3597919,33.89565 C72.920242,28.85965 67.662603,25.94165 62.6159108,27.37765 C61.2755711,27.75915 60.0845478,28.40965 59.085431,29.25365" id="Stroke-133" stroke="#F08650"></path>
                </g>
            </g>
        </g>
    </g>
</svg>