<?xml version="1.0" encoding="UTF-8" standalone="no"?>
<svg width="310px" height="261px" viewBox="0 0 310 261" version="1.1" xmlns="http://www.w3.org/2000/svg" xmlns:xlink="http://www.w3.org/1999/xlink">
    <!-- Generator: Sketch 3.8.3 (29802) - http://www.bohemiancoding.com/sketch -->
    <title>Artboard 31</title>
    <desc>Created with Sketch.</desc>
    <defs>
        <polygon id="path-1" points="0 232.116 299.635 232.116 299.635 0 0 0"></polygon>
    </defs>
    <g id="Page-1" stroke="none" stroke-width="1" fill="none" fill-rule="evenodd">
        <g id="Artboard-31">
            <g id="Page-1" transform="translate(5.000000, 14.000000)">
                <path d="M88.3859,183.9544 C87.6239,183.9544 86.9229,183.4534 86.7039,182.6834 C84.3639,174.4784 85.1779,165.7614 88.9969,158.1384 C92.7909,150.5624 99.2149,144.7114 107.0849,141.6634 C107.9859,141.3134 108.9999,141.7624 109.3489,142.6624 C109.6979,143.5644 109.2499,144.5784 108.3489,144.9274 C101.2919,147.6614 95.5299,152.9094 92.1259,159.7054 C88.7009,166.5434 87.9709,174.3634 90.0699,181.7244 C90.3349,182.6534 89.7959,183.6214 88.8669,183.8874 C88.7069,183.9324 88.5449,183.9544 88.3859,183.9544 L88.3859,183.9544 Z" id="Fill-1" fill="#EC6A5A"></path>
                <mask id="mask-2" fill="white">
                    <use xlink:href="#path-1"></use>
                </mask>
                <g id="Clip-4"></g>
                <path d="M136.928,30.455 L163.1,30.455 L163.1,22 L136.928,22 L136.928,30.455 Z M164.85,33.955 L135.178,33.955 C134.211,33.955 133.428,33.171 133.428,32.205 L133.428,20.25 C133.428,19.284 134.211,18.5 135.178,18.5 L164.85,18.5 C165.817,18.5 166.6,19.284 166.6,20.25 L166.6,32.205 C166.6,33.171 165.817,33.955 164.85,33.955 L164.85,33.955 Z" id="Fill-3" fill="#80B9C2" mask="url(#mask-2)"></path>
                <path d="M277.778,87.212 L280.515,87.212 L280.515,79.591 L277.778,79.591 L277.778,87.212 Z M282.265,76.091 L276.028,76.091 C275.062,76.091 274.278,76.875 274.278,77.841 L274.278,88.962 C274.278,89.929 275.062,90.712 276.028,90.712 L282.265,90.712 C283.231,90.712 284.015,89.929 284.015,88.962 L284.015,77.841 C284.015,76.875 283.231,76.091 282.265,76.091 L282.265,76.091 Z" id="Fill-5" fill="#80B9C2" mask="url(#mask-2)"></path>
                <path d="M277.778,103.591 L280.515,103.591 L280.515,95.969 L277.778,95.969 L277.778,103.591 Z M282.265,92.47 L276.028,92.47 C275.062,92.47 274.278,93.253 274.278,94.22 L274.278,105.341 C274.278,106.307 275.062,107.091 276.028,107.091 L282.265,107.091 C283.231,107.091 284.015,106.307 284.015,105.341 L284.015,94.22 C284.015,93.253 283.231,92.47 282.265,92.47 L282.265,92.47 Z" id="Fill-6" fill="#80B9C2" mask="url(#mask-2)"></path>
                <path d="M247.393,87.212 L250.13,87.212 L250.13,79.591 L247.393,79.591 L247.393,87.212 Z M251.88,76.091 L245.643,76.091 C244.677,76.091 243.893,76.875 243.893,77.841 L243.893,88.962 C243.893,89.929 244.677,90.712 245.643,90.712 L251.88,90.712 C252.846,90.712 253.63,89.929 253.63,88.962 L253.63,77.841 C253.63,76.875 252.846,76.091 251.88,76.091 L251.88,76.091 Z" id="Fill-7" fill="#80B9C2" mask="url(#mask-2)"></path>
                <path d="M247.393,103.591 L250.13,103.591 L250.13,95.969 L247.393,95.969 L247.393,103.591 Z M251.88,92.47 L245.643,92.47 C244.677,92.47 243.893,93.253 243.893,94.22 L243.893,105.341 C243.893,106.307 244.677,107.091 245.643,107.091 L251.88,107.091 C252.846,107.091 253.63,106.307 253.63,105.341 L253.63,94.22 C253.63,93.253 252.846,92.47 251.88,92.47 L251.88,92.47 Z" id="Fill-8" fill="#80B9C2" mask="url(#mask-2)"></path>
                <path d="M217.433,87.212 L220.171,87.212 L220.171,79.591 L217.433,79.591 L217.433,87.212 Z M221.921,76.091 L215.683,76.091 C214.717,76.091 213.933,76.875 213.933,77.841 L213.933,88.962 C213.933,89.929 214.717,90.712 215.683,90.712 L221.921,90.712 C222.888,90.712 223.671,89.929 223.671,88.962 L223.671,77.841 C223.671,76.875 222.888,76.091 221.921,76.091 L221.921,76.091 Z" id="Fill-9" fill="#80B9C2" mask="url(#mask-2)"></path>
                <path d="M217.433,103.591 L220.171,103.591 L220.171,95.969 L217.433,95.969 L217.433,103.591 Z M221.921,92.47 L215.683,92.47 C214.717,92.47 213.933,93.253 213.933,94.22 L213.933,105.341 C213.933,106.307 214.717,107.091 215.683,107.091 L221.921,107.091 C222.888,107.091 223.671,106.307 223.671,105.341 L223.671,94.22 C223.671,93.253 222.888,92.47 221.921,92.47 L221.921,92.47 Z" id="Fill-10" fill="#80B9C2" mask="url(#mask-2)"></path>
                <path d="M184.462,87.212 L187.199,87.212 L187.199,79.591 L184.462,79.591 L184.462,87.212 Z M188.949,76.091 L182.711,76.091 C181.745,76.091 180.961,76.875 180.961,77.841 L180.961,88.962 C180.961,89.929 181.745,90.712 182.711,90.712 L188.949,90.712 C189.915,90.712 190.699,89.929 190.699,88.962 L190.699,77.841 C190.699,76.875 189.915,76.091 188.949,76.091 L188.949,76.091 Z" id="Fill-11" fill="#80B9C2" mask="url(#mask-2)"></path>
                <path d="M184.462,103.591 L187.199,103.591 L187.199,95.969 L184.462,95.969 L184.462,103.591 Z M188.949,92.47 L182.711,92.47 C181.745,92.47 180.961,93.253 180.961,94.22 L180.961,105.341 C180.961,106.307 181.745,107.091 182.711,107.091 L188.949,107.091 C189.915,107.091 190.699,106.307 190.699,105.341 L190.699,94.22 C190.699,93.253 189.915,92.47 188.949,92.47 L188.949,92.47 Z" id="Fill-12" fill="#80B9C2" mask="url(#mask-2)"></path>
                <path d="M183.1279,44.4163 L185.8289,42.4953 L188.5319,44.4183 L188.5319,54.4333 L183.1279,54.4333 L183.1279,44.4163 Z M181.3779,57.9333 L190.2819,57.9333 C191.2489,57.9333 192.0319,57.1493 192.0319,56.1833 L192.0319,43.5133 C192.0319,42.9083 191.7239,42.3743 191.2559,42.0603 L186.8429,38.9213 C186.2359,38.4903 185.4219,38.4903 184.8149,38.9213 L180.3639,42.0873 C179.9019,42.4163 179.6279,42.9473 179.6279,43.5133 L179.6279,56.1833 C179.6279,57.1493 180.4109,57.9333 181.3779,57.9333 L181.3779,57.9333 Z" id="Fill-13" fill="#80B9C2" mask="url(#mask-2)"></path>
                <path d="M296.0951,41.0955 L292.7121,41.0955 L292.7121,39.3985 C292.7161,39.3435 292.7181,39.2875 292.7161,39.2315 C292.7161,39.2045 292.7141,39.1785 292.7131,39.1505 C292.7321,38.2335 293.4831,37.4945 294.4041,37.4945 C295.3251,37.4945 296.0761,38.2355 296.0951,39.1525 C296.0931,39.1805 296.0921,39.2145 296.0911,39.2315 C296.0901,39.2865 296.0911,39.3425 296.0951,39.3975 L296.0951,41.0955 Z M292.7121,61.4835 L296.0951,61.4835 L296.0951,49.5615 L292.7121,49.5615 L292.7121,61.4835 Z M292.7121,110.4205 L296.0951,110.4205 L296.0951,72.1195 L292.7121,72.1195 L292.7121,110.4205 Z M269.2101,46.0615 L289.2121,46.0615 L289.2121,44.5955 L269.2101,44.5955 L269.2101,46.0615 Z M269.2101,61.7605 L289.2121,61.7605 L289.2121,49.5625 L269.2101,49.5625 L269.2101,61.7605 Z M269.4371,68.6195 L288.8601,68.6195 L288.8601,65.2595 L269.4371,65.2595 L269.4371,68.6195 Z M265.7101,40.7365 L262.3281,40.7365 L262.3281,39.3985 C262.3311,39.3435 262.3331,39.2875 262.3311,39.2315 C262.3311,39.2045 262.3291,39.1785 262.3281,39.1505 C262.3471,38.2335 263.0981,37.4945 264.0191,37.4945 C264.9401,37.4945 265.6921,38.2355 265.7101,39.1525 C265.7081,39.1805 265.7071,39.2145 265.7061,39.2315 C265.7051,39.2865 265.7061,39.3425 265.7101,39.3975 L265.7101,40.7365 Z M262.3271,61.4835 L265.7101,61.4835 L265.7101,49.9205 L262.3271,49.9205 L262.3271,61.4835 Z M262.3271,110.4205 L265.7101,110.4205 L265.7101,72.1195 L262.3271,72.1195 L262.3271,110.4205 Z M238.7001,46.0615 L258.8281,46.0615 L258.8281,44.5955 L238.7001,44.5955 L238.7001,46.0615 Z M238.7001,61.7605 L258.8281,61.7605 L258.8281,49.5625 L238.7001,49.5625 L238.7001,61.7605 Z M238.9251,68.6195 L258.6011,68.6195 L258.6011,65.2595 L238.9251,65.2595 L238.9251,68.6195 Z M235.1991,40.7365 L231.8161,40.7365 L231.8161,39.3985 C231.8201,39.3435 231.8221,39.2875 231.8201,39.2315 C231.8201,39.2045 231.8181,39.1785 231.8171,39.1505 C231.8361,38.2335 232.5871,37.4945 233.5081,37.4945 C234.4291,37.4945 235.1811,38.2355 235.1991,39.1525 C235.1971,39.1805 235.1961,39.2145 235.1951,39.2315 C235.1941,39.2865 235.1951,39.3425 235.1991,39.3975 L235.1991,40.7365 Z M231.8161,61.4835 L235.1991,61.4835 L235.1991,49.9205 L231.8161,49.9205 L231.8161,61.4835 Z M231.8161,110.4205 L235.1991,110.4205 L235.1991,72.1195 L231.8161,72.1195 L231.8161,110.4205 Z M208.5601,46.0615 L228.3161,46.0615 L228.3161,44.5955 L208.5601,44.5955 L208.5601,46.0615 Z M208.5601,61.7605 L228.3161,61.7605 L228.3161,49.5625 L208.5601,49.5625 L208.5601,61.7605 Z M208.7861,68.6195 L228.0901,68.6195 L228.0901,65.2595 L208.7861,65.2595 L208.7861,68.6195 Z M205.0601,15.5515 L205.0601,18.5005 L201.6781,18.5005 L201.6781,15.5525 C201.6821,15.4975 201.6831,15.4415 201.6821,15.3855 C201.6811,15.3585 201.6801,15.3325 201.6781,15.3045 C201.6971,14.3875 202.4481,13.6485 203.3691,13.6485 C204.2901,13.6485 205.0421,14.3885 205.0601,15.3065 C205.0581,15.3345 205.0571,15.3685 205.0561,15.3855 C205.0551,15.4415 205.0561,15.4965 205.0601,15.5515 L205.0601,15.5515 Z M205.0601,42.6955 C205.0561,42.7455 205.0451,42.7935 205.0451,42.8455 L205.0451,47.8115 C205.0451,47.8635 205.0561,47.9115 205.0601,47.9625 L205.0601,61.4835 L201.6781,61.4835 L201.6781,33.9545 L205.0601,33.9545 L205.0601,42.6955 Z M201.6771,110.4205 L205.0591,110.4205 L205.0591,73.8135 L201.6771,73.8135 L201.6771,110.4205 Z M201.6781,30.4555 L205.0591,30.4555 L205.0591,22.0005 L201.6781,22.0005 L201.6781,30.4555 Z M173.7091,68.6195 L197.9501,68.6195 L197.9501,65.2595 L173.7091,65.2595 L173.7091,68.6195 Z M169.9831,15.5515 L169.9831,18.5005 L166.6011,18.5005 L166.6011,15.5525 C166.6051,15.4975 166.6061,15.4415 166.6051,15.3855 C166.6041,15.3585 166.6031,15.3325 166.6011,15.3045 C166.6211,14.3875 167.3711,13.6485 168.2921,13.6485 C169.2131,13.6485 169.9651,14.3885 169.9831,15.3065 C169.9811,15.3345 169.9801,15.3685 169.9791,15.3855 C169.9781,15.4415 169.9791,15.4965 169.9831,15.5515 L169.9831,15.5515 Z M169.9831,61.7605 L166.6011,61.7605 L166.6011,33.9545 L167.5631,33.9545 L169.9831,33.9545 L169.9831,61.7605 Z M166.6011,22.0005 L169.9821,22.0005 L169.9821,30.4545 L168.0941,30.4545 L166.6011,29.4565 L166.6011,22.0005 Z M3.9321,68.6195 L162.8741,68.6195 L162.8741,65.2595 L3.9321,65.2595 L3.9321,68.6195 Z M299.5951,63.1425 L299.5951,39.2745 C299.5951,39.2585 299.5951,39.2415 299.5941,39.2255 C299.5951,39.2105 299.5951,39.1965 299.5951,39.1855 C299.5951,36.3235 297.2661,33.9945 294.4041,33.9945 C291.5411,33.9945 289.2121,36.3235 289.2121,39.1855 C289.2121,39.2015 289.2131,39.2175 289.2131,39.2315 C289.2131,39.2455 289.2121,39.2605 289.2121,39.2745 L289.2121,41.0955 L269.2101,41.0955 L269.2101,39.2745 C269.2101,39.2585 269.2101,39.2415 269.2091,39.2255 C269.2101,39.2105 269.2101,39.1965 269.2101,39.1855 C269.2101,36.3235 266.8811,33.9945 264.0191,33.9945 C261.1571,33.9945 258.8281,36.3235 258.8281,39.1855 L258.8281,39.2315 L258.8281,39.2745 L258.8281,41.0955 L238.6991,41.0955 L238.6991,39.2745 C238.6991,39.2585 238.6991,39.2415 238.6981,39.2255 C238.6991,39.2105 238.6991,39.1965 238.6991,39.1855 C238.6991,36.3235 236.3701,33.9945 233.5081,33.9945 C230.6451,33.9945 228.3161,36.3235 228.3161,39.1855 C228.3161,39.2015 228.3171,39.2175 228.3171,39.2315 C228.3171,39.2455 228.3161,39.2605 228.3161,39.2745 L228.3161,41.0955 L208.5601,41.0955 L208.5601,15.4285 C208.5601,15.4125 208.5601,15.3965 208.5591,15.3805 C208.5601,15.3645 208.5601,15.3505 208.5601,15.3405 C208.5601,12.4775 206.2311,10.1485 203.3691,10.1485 C200.5061,10.1485 198.1781,12.4775 198.1781,15.3405 L198.1781,15.3865 L198.1781,15.4285 L198.1781,20.2405 C198.1781,20.2435 198.1771,20.2465 198.1771,20.2505 L198.1771,32.2045 C198.1771,32.2085 198.1781,32.2115 198.1781,32.2145 L198.1781,61.7605 L173.4831,61.7605 L173.4831,15.4285 L173.4831,15.3805 L173.4831,15.3405 C173.4831,12.4775 171.1551,10.1485 168.2921,10.1485 C165.4301,10.1485 163.1011,12.4775 163.1011,15.3405 L163.1011,15.3865 L163.1011,15.4285 L163.1011,20.2405 C163.1011,20.2435 163.1001,20.2465 163.1001,20.2505 L163.1001,27.1165 L150.9751,19.0115 C150.1711,18.4735 149.0851,18.6905 148.5471,19.4935 C148.0101,20.2975 148.2261,21.3845 149.0301,21.9215 L161.7961,30.4545 L150.0021,30.4545 C149.0361,30.4545 148.2521,31.2385 148.2521,32.2045 C148.2521,33.1715 149.0361,33.9545 150.0021,33.9545 L163.1011,33.9545 L163.1011,61.7605 L2.1831,61.7605 C1.2161,61.7605 0.4331,62.5435 0.4331,63.5105 L0.4331,70.3695 C0.4331,71.3365 1.2161,72.1195 2.1831,72.1195 L163.1001,72.1195 L163.1001,87.7185 L166.6001,87.7185 L166.6001,73.8135 L169.9831,73.8135 L169.9831,87.7515 C171.2041,87.8135 172.3771,88.0445 173.4831,88.4275 L173.4831,72.1195 L198.1771,72.1195 L198.1771,112.1705 C198.1771,113.1375 198.9601,113.9205 199.9271,113.9205 L206.8091,113.9205 C207.7761,113.9205 208.5591,113.1375 208.5591,112.1705 L208.5591,72.1195 L228.3161,72.1195 L228.3161,112.1705 C228.3161,113.1375 229.1001,113.9205 230.0661,113.9205 L236.9491,113.9205 C237.9151,113.9205 238.6991,113.1375 238.6991,112.1705 L238.6991,72.1195 L258.8281,72.1195 L258.8281,112.1705 C258.8281,113.1375 259.6111,113.9205 260.5781,113.9205 L267.4601,113.9205 C268.4271,113.9205 269.2101,113.1375 269.2101,112.1705 L269.2101,72.1195 L289.2121,72.1195 L289.2121,112.1705 C289.2121,113.1375 289.9961,113.9205 290.9621,113.9205 L297.8451,113.9205 C298.8121,113.9205 299.5951,113.1375 299.5951,112.1705 L299.5951,70.7375 C299.6211,70.6195 299.6351,70.4965 299.6351,70.3695 L299.6351,63.5105 C299.6351,63.3835 299.6211,63.2605 299.5951,63.1425 L299.5951,63.1425 Z" id="Fill-14" fill="#80B9C2" mask="url(#mask-2)"></path>
                <path d="M150.0024,79.2488 C153.6044,79.2488 156.5354,82.1358 156.5354,85.6838 L156.5354,87.7178 L160.0354,87.7178 L160.0354,85.6838 C160.0354,80.2058 155.5344,75.7488 150.0024,75.7488 C149.0354,75.7488 148.2524,76.5328 148.2524,77.4988 C148.2524,78.4648 149.0354,79.2488 150.0024,79.2488" id="Fill-15" fill="#80B9C2" mask="url(#mask-2)"></path>
                <path d="M101.851,61.76 L198.266,61.76 L198.266,33.955 L101.851,33.955 L101.851,61.76 Z M200.016,65.26 L100.101,65.26 C99.135,65.26 98.351,64.476 98.351,63.51 L98.351,32.205 C98.351,31.239 99.135,30.455 100.101,30.455 L200.016,30.455 C200.983,30.455 201.766,31.239 201.766,32.205 L201.766,63.51 C201.766,64.476 200.983,65.26 200.016,65.26 L200.016,65.26 Z" id="Fill-16" fill="#80B9C2" mask="url(#mask-2)"></path>
                <path d="M93.0179,44.5955 L10.2659,44.5955 C9.2989,44.5955 8.5159,43.8115 8.5159,42.8455 C8.5159,41.8795 9.2989,41.0955 10.2659,41.0955 L93.0179,41.0955 C93.9849,41.0955 94.7679,41.8795 94.7679,42.8455 C94.7679,43.8115 93.9849,44.5955 93.0179,44.5955" id="Fill-17" fill="#80B9C2" mask="url(#mask-2)"></path>
                <path d="M93.0179,49.5618 L10.2659,49.5618 C9.2989,49.5618 8.5159,48.7778 8.5159,47.8118 C8.5159,46.8458 9.2989,46.0618 10.2659,46.0618 L93.0179,46.0618 C93.9849,46.0618 94.7679,46.8458 94.7679,47.8118 C94.7679,48.7778 93.9849,49.5618 93.0179,49.5618" id="Fill-18" fill="#80B9C2" mask="url(#mask-2)"></path>
                <path d="M19.513,87.212 L22.25,87.212 L22.25,79.591 L19.513,79.591 L19.513,87.212 Z M24,90.712 L17.763,90.712 C16.797,90.712 16.013,89.929 16.013,88.962 L16.013,77.841 C16.013,76.875 16.797,76.091 17.763,76.091 L24,76.091 C24.966,76.091 25.75,76.875 25.75,77.841 L25.75,88.962 C25.75,89.929 24.966,90.712 24,90.712 L24,90.712 Z" id="Fill-19" fill="#80B9C2" mask="url(#mask-2)"></path>
                <path d="M19.513,103.591 L22.25,103.591 L22.25,95.969 L19.513,95.969 L19.513,103.591 Z M24,107.091 L17.763,107.091 C16.797,107.091 16.013,106.307 16.013,105.341 L16.013,94.22 C16.013,93.253 16.797,92.47 17.763,92.47 L24,92.47 C24.966,92.47 25.75,93.253 25.75,94.22 L25.75,105.341 C25.75,106.307 24.966,107.091 24,107.091 L24,107.091 Z" id="Fill-20" fill="#80B9C2" mask="url(#mask-2)"></path>
                <path d="M49.898,87.212 L52.635,87.212 L52.635,79.591 L49.898,79.591 L49.898,87.212 Z M54.385,90.712 L48.148,90.712 C47.182,90.712 46.398,89.929 46.398,88.962 L46.398,77.841 C46.398,76.875 47.182,76.091 48.148,76.091 L54.385,76.091 C55.351,76.091 56.135,76.875 56.135,77.841 L56.135,88.962 C56.135,89.929 55.351,90.712 54.385,90.712 L54.385,90.712 Z" id="Fill-21" fill="#80B9C2" mask="url(#mask-2)"></path>
                <path d="M49.898,103.591 L52.635,103.591 L52.635,95.969 L49.898,95.969 L49.898,103.591 Z M54.385,107.091 L48.148,107.091 C47.182,107.091 46.398,106.307 46.398,105.341 L46.398,94.22 C46.398,93.253 47.182,92.47 48.148,92.47 L54.385,92.47 C55.351,92.47 56.135,93.253 56.135,94.22 L56.135,105.341 C56.135,106.307 55.351,107.091 54.385,107.091 L54.385,107.091 Z" id="Fill-22" fill="#80B9C2" mask="url(#mask-2)"></path>
                <path d="M79.857,87.212 L82.595,87.212 L82.595,79.591 L79.857,79.591 L79.857,87.212 Z M84.345,90.712 L78.107,90.712 C77.14,90.712 76.357,89.929 76.357,88.962 L76.357,77.841 C76.357,76.875 77.14,76.091 78.107,76.091 L84.345,76.091 C85.311,76.091 86.095,76.875 86.095,77.841 L86.095,88.962 C86.095,89.929 85.311,90.712 84.345,90.712 L84.345,90.712 Z" id="Fill-23" fill="#80B9C2" mask="url(#mask-2)"></path>
                <path d="M79.857,103.591 L82.595,103.591 L82.595,95.969 L79.857,95.969 L79.857,103.591 Z M84.345,107.091 L78.107,107.091 C77.14,107.091 76.357,106.307 76.357,105.341 L76.357,94.22 C76.357,93.253 77.14,92.47 78.107,92.47 L84.345,92.47 C85.311,92.47 86.095,93.253 86.095,94.22 L86.095,105.341 C86.095,106.307 85.311,107.091 84.345,107.091 L84.345,107.091 Z" id="Fill-24" fill="#80B9C2" mask="url(#mask-2)"></path>
                <path d="M111.4957,54.4334 L116.8997,54.4334 L116.8997,44.4164 L114.1987,42.4954 L111.4957,44.4174 L111.4957,54.4334 Z M118.6497,57.9334 L109.7457,57.9334 C108.7787,57.9334 107.9957,57.1494 107.9957,56.1834 L107.9957,43.5134 C107.9957,42.8994 108.3117,42.3594 108.7907,42.0464 L113.1847,38.9214 C113.7917,38.4904 114.6057,38.4904 115.2127,38.9214 L119.6637,42.0874 C120.1257,42.4154 120.3997,42.9474 120.3997,43.5134 L120.3997,56.1834 C120.3997,57.1494 119.6167,57.9334 118.6497,57.9334 L118.6497,57.9334 Z" id="Fill-25" fill="#80B9C2" mask="url(#mask-2)"></path>
                <path d="M146.837,54.4334 L152.241,54.4334 L152.241,44.4164 L149.54,42.4954 L146.837,44.4174 L146.837,54.4334 Z M153.991,57.9334 L145.087,57.9334 C144.12,57.9334 143.337,57.1494 143.337,56.1834 L143.337,43.5134 C143.337,42.8994 143.653,42.3594 144.132,42.0464 L148.526,38.9214 C149.133,38.4904 149.948,38.4904 150.555,38.9214 L155.005,42.0874 C155.467,42.4154 155.741,42.9474 155.741,43.5134 L155.741,56.1834 C155.741,57.1494 154.958,57.9334 153.991,57.9334 L153.991,57.9334 Z" id="Fill-26" fill="#80B9C2" mask="url(#mask-2)"></path>
                <path d="M3.933,110.421 L7.316,110.421 L7.316,68.131 L3.933,68.131 L3.933,110.421 Z M9.065,113.921 L2.183,113.921 C1.216,113.921 0.433,113.137 0.433,112.171 L0.433,66.381 C0.433,65.414 1.216,64.631 2.183,64.631 L9.065,64.631 C10.032,64.631 10.815,65.414 10.815,66.381 L10.815,112.171 C10.815,113.137 10.032,113.921 9.065,113.921 L9.065,113.921 Z" id="Fill-27" fill="#80B9C2" mask="url(#mask-2)"></path>
                <path d="M34.318,110.421 L37.701,110.421 L37.701,64.984 L34.318,64.984 L34.318,110.421 Z M39.45,113.921 L32.568,113.921 C31.601,113.921 30.818,113.137 30.818,112.171 L30.818,63.234 C30.818,62.267 31.601,61.484 32.568,61.484 L39.45,61.484 C40.417,61.484 41.2,62.267 41.2,63.234 L41.2,112.171 C41.2,113.137 40.417,113.921 39.45,113.921 L39.45,113.921 Z" id="Fill-28" fill="#80B9C2" mask="url(#mask-2)"></path>
                <path d="M64.829,110.421 L68.212,110.421 L68.212,64.984 L64.829,64.984 L64.829,110.421 Z M69.961,113.921 L63.079,113.921 C62.112,113.921 61.329,113.137 61.329,112.171 L61.329,63.234 C61.329,62.267 62.112,61.484 63.079,61.484 L69.961,61.484 C70.928,61.484 71.711,62.267 71.711,63.234 L71.711,112.171 C71.711,113.137 70.928,113.921 69.961,113.921 L69.961,113.921 Z" id="Fill-29" fill="#80B9C2" mask="url(#mask-2)"></path>
                <path d="M94.969,110.421 L98.352,110.421 L98.352,71.925 L94.969,71.925 L94.969,110.421 Z M100.101,113.921 L93.219,113.921 C92.252,113.921 91.469,113.137 91.469,112.171 L91.469,70.175 C91.469,69.209 92.252,68.425 93.219,68.425 L100.101,68.425 C101.068,68.425 101.851,69.209 101.851,70.175 L101.851,112.171 C101.851,113.137 101.068,113.921 100.101,113.921 L100.101,113.921 Z" id="Fill-30" fill="#80B9C2" mask="url(#mask-2)"></path>
                <polygon id="Fill-31" fill="#80B9C2" mask="url(#mask-2)" points="0.332 72.067 11.168 72.067 11.168 61.432 0.332 61.432"></polygon>
                <polygon id="Fill-32" fill="#80B9C2" mask="url(#mask-2)" points="30.591 72.067 41.427 72.067 41.427 61.933 30.591 61.933"></polygon>
                <polygon id="Fill-33" fill="#80B9C2" mask="url(#mask-2)" points="61.103 72.067 71.938 72.067 71.938 61.933 61.103 61.933"></polygon>
                <polygon id="Fill-34" fill="#80B9C2" mask="url(#mask-2)" points="91.242 72.067 102.078 72.067 102.078 60.932 91.242 60.932"></polygon>
                <path d="M34.3175,63.4856 L37.7005,63.4856 L37.7005,39.3966 C37.6965,39.3416 37.6945,39.2866 37.6965,39.2316 C37.6965,39.2146 37.6985,39.1806 37.6995,39.1526 C37.6815,38.2346 36.9305,37.4946 36.0085,37.4946 C35.0885,37.4946 34.3385,38.2326 34.3175,39.1476 C34.3195,39.1756 34.3205,39.2036 34.3215,39.2316 C34.3235,39.2886 34.3215,39.3446 34.3175,39.4016 L34.3175,63.4856 Z M39.4505,66.9856 L32.5675,66.9856 C31.6005,66.9856 30.8175,66.2016 30.8175,65.2356 L30.8175,39.2746 L30.8175,39.2316 L30.8175,39.1856 C30.8175,36.3226 33.1465,33.9946 36.0085,33.9946 C38.8715,33.9946 41.2005,36.3226 41.2005,39.1856 C41.2005,39.1966 41.1995,39.2106 41.1995,39.2256 C41.1995,39.2416 41.2005,39.2576 41.2005,39.2746 L41.2005,65.2356 C41.2005,66.2016 40.4165,66.9856 39.4505,66.9856 L39.4505,66.9856 Z" id="Fill-35" fill="#80B9C2" mask="url(#mask-2)"></path>
                <polygon id="Fill-36" fill="#80B9C2" mask="url(#mask-2)" points="32.568 48.171 39.451 48.171 39.451 42.486 32.568 42.486"></polygon>
                <path d="M34.318,46.421 L37.701,46.421 L37.701,44.236 L34.318,44.236 L34.318,46.421 Z M39.45,49.921 L32.568,49.921 C31.601,49.921 30.818,49.137 30.818,48.171 L30.818,42.486 C30.818,41.52 31.601,40.736 32.568,40.736 L39.45,40.736 C40.417,40.736 41.2,41.52 41.2,42.486 L41.2,48.171 C41.2,49.137 40.417,49.921 39.45,49.921 L39.45,49.921 Z" id="Fill-37" fill="#80B9C2" mask="url(#mask-2)"></path>
                <path d="M64.8287,61.4842 L68.2117,61.4842 L68.2117,39.3972 C68.2077,39.3422 68.2057,39.2872 68.2077,39.2312 C68.2077,39.2142 68.2097,39.1802 68.2107,39.1522 C68.1927,38.2352 67.4417,37.4942 66.5197,37.4942 C65.5997,37.4942 64.8487,38.2342 64.8287,39.1502 C64.8307,39.1782 64.8317,39.2042 64.8327,39.2312 C64.8337,39.2872 64.8327,39.3432 64.8287,39.3982 L64.8287,61.4842 Z M69.9617,64.9842 L63.0787,64.9842 C62.1117,64.9842 61.3287,64.2002 61.3287,63.2342 L61.3287,39.2742 L61.3287,39.2322 L61.3287,39.1862 C61.3287,36.3232 63.6577,33.9942 66.5197,33.9942 C69.3827,33.9942 71.7117,36.3232 71.7117,39.1862 C71.7117,39.1962 71.7107,39.2102 71.7107,39.2262 C71.7107,39.2422 71.7117,39.2582 71.7117,39.2742 L71.7117,63.2342 C71.7117,64.2002 70.9277,64.9842 69.9617,64.9842 L69.9617,64.9842 Z" id="Fill-38" fill="#80B9C2" mask="url(#mask-2)"></path>
                <path d="M94.9677,60.9837 L98.3507,60.9837 L98.3507,15.5517 C98.3467,15.4967 98.3447,15.4417 98.3467,15.3857 C98.3467,15.3687 98.3487,15.3347 98.3497,15.3067 C98.3317,14.3887 97.5807,13.6487 96.6587,13.6487 C95.7397,13.6487 94.9887,14.3867 94.9677,15.3017 C94.9697,15.3307 94.9707,15.3577 94.9717,15.3847 C94.9737,15.4417 94.9717,15.4997 94.9677,15.5557 L94.9677,60.9837 Z M100.1007,64.4837 L93.2177,64.4837 C92.2507,64.4837 91.4677,63.6997 91.4677,62.7337 L91.4677,15.4287 L91.4677,15.3857 L91.4677,15.3397 C91.4677,12.4777 93.7967,10.1487 96.6587,10.1487 C99.5217,10.1487 101.8507,12.4777 101.8507,15.3397 C101.8507,15.3507 101.8497,15.3647 101.8497,15.3797 C101.8497,15.3967 101.8507,15.4127 101.8507,15.4287 L101.8507,62.7337 C101.8507,63.6997 101.0667,64.4837 100.1007,64.4837 L100.1007,64.4837 Z" id="Fill-39" fill="#80B9C2" mask="url(#mask-2)"></path>
                <polygon id="Fill-40" fill="#80B9C2" mask="url(#mask-2)" points="63.079 48.171 69.962 48.171 69.962 42.486 63.079 42.486"></polygon>
                <path d="M64.829,46.421 L68.212,46.421 L68.212,44.236 L64.829,44.236 L64.829,46.421 Z M69.961,49.921 L63.079,49.921 C62.112,49.921 61.329,49.137 61.329,48.171 L61.329,42.486 C61.329,41.52 62.112,40.736 63.079,40.736 L69.961,40.736 C70.928,40.736 71.711,41.52 71.711,42.486 L71.711,48.171 C71.711,49.137 70.928,49.921 69.961,49.921 L69.961,49.921 Z" id="Fill-41" fill="#80B9C2" mask="url(#mask-2)"></path>
                <path d="M94.969,30.455 L98.352,30.455 L98.352,22 L94.969,22 L94.969,30.455 Z M100.101,33.955 L93.219,33.955 C92.252,33.955 91.469,33.171 91.469,32.205 L91.469,20.25 C91.469,19.284 92.252,18.5 93.219,18.5 L100.101,18.5 C101.068,18.5 101.851,19.284 101.851,20.25 L101.851,32.205 C101.851,33.171 101.068,33.955 100.101,33.955 L100.101,33.955 Z" id="Fill-42" fill="#80B9C2" mask="url(#mask-2)"></path>
                <path d="M3.9327,66.4876 L7.3157,66.4876 L7.3157,39.3966 C7.3117,39.3416 7.3097,39.2866 7.3117,39.2316 C7.3117,39.2146 7.3137,39.1806 7.3147,39.1526 C7.2967,38.2346 6.5457,37.4946 5.6237,37.4946 C4.7037,37.4946 3.9527,38.2336 3.9327,39.1496 C3.9347,39.1776 3.9357,39.2046 3.9367,39.2316 C3.9377,39.2866 3.9367,39.3426 3.9327,39.3986 L3.9327,66.4876 Z M9.0657,69.9876 L2.1827,69.9876 C1.2157,69.9876 0.4327,69.2036 0.4327,68.2376 L0.4327,39.2746 L0.4327,39.2316 L0.4327,39.1856 C0.4327,36.3226 2.7617,33.9946 5.6237,33.9946 C8.4867,33.9946 10.8157,36.3226 10.8157,39.1856 C10.8157,39.1966 10.8147,39.2106 10.8147,39.2256 C10.8147,39.2416 10.8157,39.2586 10.8157,39.2746 L10.8157,68.2376 C10.8157,69.2036 10.0317,69.9876 9.0657,69.9876 L9.0657,69.9876 Z" id="Fill-43" fill="#80B9C2" mask="url(#mask-2)"></path>
                <polygon id="Fill-44" fill="#80B9C2" mask="url(#mask-2)" points="2.183 48.171 9.066 48.171 9.066 42.486 2.183 42.486"></polygon>
                <path d="M3.933,46.421 L7.316,46.421 L7.316,44.236 L3.933,44.236 L3.933,46.421 Z M9.065,49.921 L2.183,49.921 C1.216,49.921 0.433,49.137 0.433,48.171 L0.433,42.486 C0.433,41.52 1.216,40.736 2.183,40.736 L9.065,40.736 C10.032,40.736 10.815,41.52 10.815,42.486 L10.815,48.171 C10.815,49.137 10.032,49.921 9.065,49.921 L9.065,49.921 Z" id="Fill-45" fill="#80B9C2" mask="url(#mask-2)"></path>
                <path d="M130.0443,61.4837 L133.4273,61.4837 L133.4273,15.5507 C133.4233,15.4967 133.4213,15.4417 133.4233,15.3857 C133.4233,15.3687 133.4253,15.3347 133.4263,15.3067 C133.4083,14.3887 132.6573,13.6487 131.7353,13.6487 C130.8153,13.6487 130.0643,14.3877 130.0443,15.3047 C130.0463,15.3327 130.0473,15.3587 130.0483,15.3857 C130.0493,15.4417 130.0483,15.4977 130.0443,15.5527 L130.0443,61.4837 Z M135.1773,64.9837 L128.2943,64.9837 C127.3273,64.9837 126.5443,64.1997 126.5443,63.2337 L126.5443,15.4287 L126.5443,15.3857 L126.5443,15.3397 C126.5443,12.4777 128.8733,10.1487 131.7353,10.1487 C134.5983,10.1487 136.9273,12.4777 136.9273,15.3397 C136.9273,15.3507 136.9263,15.3647 136.9263,15.3797 C136.9263,15.3967 136.9273,15.4127 136.9273,15.4287 L136.9273,63.2337 C136.9273,64.1997 136.1433,64.9837 135.1773,64.9837 L135.1773,64.9837 Z" id="Fill-46" fill="#80B9C2" mask="url(#mask-2)"></path>
                <path d="M130.045,30.455 L133.428,30.455 L133.428,22 L130.045,22 L130.045,30.455 Z M135.178,33.955 L128.295,33.955 C127.329,33.955 126.545,33.171 126.545,32.205 L126.545,20.25 C126.545,19.284 127.329,18.5 128.295,18.5 L135.178,18.5 C136.144,18.5 136.928,19.284 136.928,20.25 L136.928,32.205 C136.928,33.171 136.144,33.955 135.178,33.955 L135.178,33.955 Z" id="Fill-47" fill="#80B9C2" mask="url(#mask-2)"></path>
                <polygon id="Fill-48" fill="#80B9C2" mask="url(#mask-2)" points="126.319 70.175 137.154 70.175 137.154 63.434 126.319 63.434"></polygon>
                <path d="M150.0255,33.9549 L132.4645,33.9549 C131.6945,33.9549 131.0145,33.4509 130.7905,32.7129 C130.5665,31.9759 130.8515,31.1789 131.4925,30.7499 L149.0525,19.0109 C149.8565,18.4739 150.9435,18.6899 151.4805,19.4939 C152.0175,20.2969 151.8015,21.3839 150.9985,21.9209 L138.2315,30.4549 L150.0255,30.4549 C150.9925,30.4549 151.7755,31.2389 151.7755,32.2049 C151.7755,33.1709 150.9925,33.9549 150.0255,33.9549" id="Fill-49" fill="#80B9C2" mask="url(#mask-2)"></path>
                <path d="M143.4927,87.7181 L143.4927,85.6831 C143.4927,82.1351 146.4237,79.2491 150.0257,79.2491 C150.9927,79.2491 151.7757,78.4651 151.7757,77.4991 C151.7757,76.5321 150.9927,75.7491 150.0257,75.7491 C144.4937,75.7491 139.9927,80.2051 139.9927,85.6831 L139.9927,87.7181 L143.4927,87.7181 Z" id="Fill-50" fill="#80B9C2" mask="url(#mask-2)"></path>
                <path d="M130.0449,87.7181 L130.0449,73.8141 L133.4269,73.8141 L133.4269,87.7181 L136.9269,87.7181 L136.9269,72.0641 C136.9269,71.0971 136.1439,70.3141 135.1769,70.3141 L128.2949,70.3141 C127.3279,70.3141 126.5449,71.0971 126.5449,72.0641 L126.5449,87.7181 L130.0449,87.7181 Z" id="Fill-51" fill="#80B9C2" mask="url(#mask-2)"></path>
                <path d="M112.83,87.212 L115.567,87.212 L115.567,79.591 L112.83,79.591 L112.83,87.212 Z M119.066,87.718 L119.066,77.841 C119.066,76.875 118.283,76.091 117.316,76.091 L111.08,76.091 C110.113,76.091 109.33,76.875 109.33,77.841 L109.33,87.718 L119.066,87.718 Z" id="Fill-52" fill="#80B9C2" mask="url(#mask-2)"></path>
                <path d="M108.5234,110.4207 L1.7504,110.4207 C0.7834,110.4207 0.0004,111.2047 0.0004,112.1707 C0.0004,113.1367 0.7834,113.9207 1.7504,113.9207 L108.5234,113.9207 L108.5234,110.4207 Z" id="Fill-53" fill="#80B9C2" mask="url(#mask-2)"></path>
                <path d="M290.2955,110.4207 L183.5225,110.4207 C182.5555,110.4207 181.7725,111.2047 181.7725,112.1707 C181.7725,113.1367 182.5555,113.9207 183.5225,113.9207 L290.2955,113.9207 L290.2955,110.4207 Z" id="Fill-54" fill="#80B9C2" mask="url(#mask-2)"></path>
                <path d="M152.361,7.364 L161.598,7.364 L161.598,3.5 L152.361,3.5 L152.361,7.364 Z M163.348,10.864 L150.611,10.864 C149.644,10.864 148.861,10.08 148.861,9.114 L148.861,1.75 C148.861,0.783 149.644,0 150.611,0 L163.348,0 C164.315,0 165.098,0.783 165.098,1.75 L165.098,9.114 C165.098,10.08 164.315,10.864 163.348,10.864 L163.348,10.864 Z" id="Fill-55" fill="#80B9C2" mask="url(#mask-2)"></path>
                <path d="M150.5763,22.0003 L149.5393,22.0003 C148.5723,22.0003 147.7893,21.2163 147.7893,20.2503 L147.7893,1.7503 C147.7893,0.7833 148.5723,0.0003 149.5393,0.0003 L150.5763,0.0003 C151.5433,0.0003 152.3263,0.7833 152.3263,1.7503 L152.3263,20.2503 C152.3263,21.2163 151.5433,22.0003 150.5763,22.0003" id="Fill-56" fill="#80B9C2" mask="url(#mask-2)"></path>
                <path d="M191.7567,204.3015 C191.5427,204.3015 191.3247,204.2615 191.1127,204.1775 C190.2147,203.8225 189.7747,202.8055 190.1307,201.9065 C195.0587,189.4615 191.1647,174.9905 180.6607,166.7165 C179.9017,166.1175 179.7717,165.0175 180.3697,164.2585 C180.9677,163.4995 182.0677,163.3685 182.8267,163.9675 C194.5367,173.1915 198.8777,189.3225 193.3837,203.1955 C193.1117,203.8825 192.4537,204.3015 191.7567,204.3015" id="Fill-57" fill="#F08650" mask="url(#mask-2)"></path>
                <path d="M186.4266,164.0047 C185.4646,164.0047 184.4886,163.8247 183.5426,163.4437 C182.5336,163.0377 181.6406,162.4397 180.8876,161.6667 C180.2136,160.9737 180.2276,159.8657 180.9206,159.1917 C181.6126,158.5167 182.7206,158.5317 183.3946,159.2237 C183.8066,159.6467 184.2956,159.9737 184.8506,160.1977 C187.0226,161.0717 189.5016,160.0157 190.3766,157.8437 L190.8966,156.5507 C191.2576,155.6547 192.2786,155.2227 193.1736,155.5817 C194.0706,155.9427 194.5046,156.9617 194.1436,157.8587 L193.6246,159.1497 C192.4086,162.1677 189.4966,164.0047 186.4266,164.0047" id="Fill-58" fill="#F08650" mask="url(#mask-2)"></path>
                <path d="M180.3209,180.5711 L177.6499,178.3091 C179.3419,176.3121 180.2729,173.7681 180.2729,171.1461 L180.2729,153.6051 L183.7729,153.6051 L183.7729,171.1461 C183.7729,174.5951 182.5469,177.9431 180.3209,180.5711" id="Fill-59" fill="#9A67A8" mask="url(#mask-2)"></path>
                <path d="M200.2252,161.1712 C198.8162,161.1712 197.4212,160.9602 196.0542,160.5392 C195.1302,160.2552 194.6112,159.2762 194.8962,158.3522 C195.1802,157.4282 196.1602,156.9082 197.0832,157.1942 C198.7122,157.6952 200.3972,157.8012 202.0912,157.5092 C207.9642,156.4952 211.9172,150.8922 210.9032,145.0202 C210.0332,139.9822 205.7002,136.2112 200.5992,136.0522 C199.6332,136.0232 198.8742,135.2152 198.9042,134.2492 C198.9342,133.2842 199.7412,132.5312 200.7072,132.5542 C207.4622,132.7632 213.2012,137.7552 214.3522,144.4242 C215.6942,152.1982 210.4612,159.6152 202.6862,160.9582 C201.8632,161.1002 201.0422,161.1712 200.2252,161.1712" id="Fill-60" fill="#EC6A5A" mask="url(#mask-2)"></path>
                <path d="M212.7592,147.0081 C211.9232,147.0081 211.1842,146.4071 211.0372,145.5551 C208.5902,131.3811 196.3972,120.7401 182.0452,120.2541 C181.0792,120.2211 180.3232,119.4111 180.3552,118.4461 C180.3882,117.4791 181.1902,116.7261 182.1642,116.7561 C198.1652,117.2981 211.7582,129.1591 214.4862,144.9601 C214.6502,145.9121 214.0112,146.8181 213.0592,146.9821 C212.9582,146.9991 212.8582,147.0081 212.7592,147.0081" id="Fill-61" fill="#EC6A5A" mask="url(#mask-2)"></path>
                <path d="M242.9044,148.6946 C242.6544,148.6946 242.4004,148.6406 242.1584,148.5266 L205.0544,131.0116 C204.1804,130.5986 203.8064,129.5556 204.2184,128.6816 C204.6314,127.8076 205.6744,127.4346 206.5484,127.8466 L243.6524,145.3616 C244.5264,145.7746 244.9004,146.8176 244.4884,147.6916 C244.1894,148.3236 243.5604,148.6946 242.9044,148.6946" id="Fill-62" fill="#EC6A5A" mask="url(#mask-2)"></path>
                <path d="M231.3754,185.7342 C231.0464,185.7342 230.7134,185.6412 230.4174,185.4472 L191.5184,159.9242 C190.7104,159.3942 190.4854,158.3092 191.0154,157.5012 C191.5454,156.6932 192.6304,156.4682 193.4384,156.9982 L232.3374,182.5212 C233.1454,183.0512 233.3704,184.1362 232.8404,184.9442 C232.5044,185.4562 231.9454,185.7342 231.3754,185.7342" id="Fill-63" fill="#EC6A5A" mask="url(#mask-2)"></path>
                <path d="M110.2733,157.2049 L106.7733,157.2049 L106.7733,85.9679 L169.3283,85.9679 C177.2933,85.9679 183.7733,92.4479 183.7733,100.4129 L183.7733,131.2729 L180.2733,131.2729 L180.2733,100.4129 C180.2733,94.3779 175.3633,89.4679 169.3283,89.4679 L110.2733,89.4679 L110.2733,157.2049 Z" id="Fill-64" fill="#9A67A8" mask="url(#mask-2)"></path>
                <path d="M123.4566,112.4745 L125.0056,112.4745 C125.6526,112.4745 126.1376,112.3845 126.4616,112.2025 C126.7846,112.0205 126.9466,111.6635 126.9466,111.1295 C126.9466,110.5965 126.7746,110.2445 126.4326,110.0745 C126.0896,109.9035 125.5416,109.8185 124.7886,109.8185 L123.4566,109.8185 L123.4566,112.4745 Z M123.4566,107.7885 L124.5286,107.7885 C125.1556,107.7885 125.6216,107.7115 125.9256,107.5575 C126.2296,107.4035 126.3816,107.0715 126.3816,106.5595 C126.3816,106.0475 126.2416,105.7095 125.9616,105.5445 C125.6816,105.3795 125.2086,105.2975 124.5426,105.2975 L123.4566,105.2975 L123.4566,107.7885 Z M125.6286,114.6525 L121.1976,114.6525 L121.1976,103.1195 L125.1366,103.1195 C125.8216,103.1195 126.4126,103.2125 126.9096,103.3995 C127.4066,103.5865 127.7806,103.8395 128.0326,104.1585 C128.4856,104.7525 128.7126,105.4235 128.7126,106.1715 C128.7126,107.0735 128.4566,107.7455 127.9456,108.1845 C127.7716,108.3385 127.6506,108.4345 127.5836,108.4735 C127.5156,108.5125 127.3946,108.5755 127.2216,108.6635 C127.8486,108.8175 128.3486,109.1395 128.7196,109.6285 C129.0916,110.1185 129.2776,110.7255 129.2776,111.4515 C129.2776,112.2545 129.0366,112.9645 128.5536,113.5805 C127.9936,114.2955 127.0186,114.6525 125.6286,114.6525 L125.6286,114.6525 Z" id="Fill-65" fill="#9A67A8" mask="url(#mask-2)"></path>
                <path d="M123.7067,107.5389 L124.5287,107.5389 C125.1127,107.5389 125.5447,107.4699 125.8117,107.3339 C125.8917,107.2939 126.1317,107.1729 126.1317,106.5599 C126.1317,106.1449 126.0317,105.8759 125.8347,105.7599 C125.6697,105.6629 125.3117,105.5469 124.5427,105.5469 L123.7067,105.5469 L123.7067,107.5389 Z M124.5287,108.0389 L123.2067,108.0389 L123.2067,105.0469 L124.5427,105.0469 C125.2607,105.0469 125.7667,105.1399 126.0887,105.3299 C126.4487,105.5419 126.6317,105.9559 126.6317,106.5599 C126.6317,107.1709 126.4317,107.5809 126.0387,107.7809 C125.6957,107.9549 125.2017,108.0389 124.5287,108.0389 L124.5287,108.0389 Z M123.7067,112.2249 L125.0057,112.2249 C125.6067,112.2249 126.0557,112.1439 126.3387,111.9849 C126.5797,111.8499 126.6967,111.5699 126.6967,111.1299 C126.6967,110.4849 126.4137,110.3439 126.3207,110.2979 C126.0147,110.1449 125.4987,110.0679 124.7887,110.0679 L123.7067,110.0679 L123.7067,112.2249 Z M125.0057,112.7249 L123.2067,112.7249 L123.2067,109.5679 L124.7887,109.5679 C125.5877,109.5679 126.1617,109.6609 126.5437,109.8509 C126.9767,110.0659 127.1967,110.4969 127.1967,111.1299 C127.1967,111.7579 126.9907,112.1919 126.5837,112.4199 C126.2197,112.6249 125.7037,112.7249 125.0057,112.7249 L125.0057,112.7249 Z M121.4477,114.4029 L125.6287,114.4029 C126.9317,114.4029 127.8497,114.0739 128.3567,113.4259 C128.8017,112.8579 129.0277,112.1939 129.0277,111.4519 C129.0277,110.7849 128.8577,110.2229 128.5207,109.7789 C128.1817,109.3329 127.7377,109.0469 127.1617,108.9059 L126.5087,108.7459 L127.1077,108.4409 C127.2767,108.3549 127.3937,108.2939 127.4597,108.2559 C127.4837,108.2429 127.5617,108.1909 127.7797,107.9979 C128.2337,107.6069 128.4627,106.9939 128.4627,106.1719 C128.4627,105.4839 128.2517,104.8569 127.8337,104.3099 C127.6147,104.0319 127.2737,103.8039 126.8217,103.6339 C126.3547,103.4579 125.7877,103.3689 125.1367,103.3689 L121.4477,103.3689 L121.4477,114.4029 Z M125.6287,114.9029 L120.9477,114.9029 L120.9477,102.8689 L125.1367,102.8689 C125.8487,102.8689 126.4747,102.9689 126.9987,103.1659 C127.5357,103.3679 127.9497,103.6499 128.2287,104.0039 C128.7167,104.6429 128.9627,105.3719 128.9627,106.1719 C128.9627,107.1459 128.6757,107.8869 128.1087,108.3739 C127.9807,108.4879 127.8917,108.5599 127.8287,108.6079 C128.2637,108.8039 128.6287,109.0949 128.9187,109.4769 C129.3227,110.0089 129.5277,110.6739 129.5277,111.4519 C129.5277,112.3079 129.2667,113.0759 128.7507,113.7349 C128.1437,114.5099 127.0927,114.9029 125.6287,114.9029 L125.6287,114.9029 Z" id="Fill-66" fill="#9A67A8" mask="url(#mask-2)"></path>
                <path d="M134.6526,107.9867 L134.6526,109.6697 L138.7646,109.6697 L138.7646,108.0697 C138.7646,107.1457 138.5816,106.4277 138.2146,105.9157 C137.8476,105.4047 137.3436,105.1487 136.7016,105.1487 C136.0596,105.1487 135.5576,105.3937 135.1956,105.8827 C134.8336,106.3727 134.6526,107.0737 134.6526,107.9867 L134.6526,107.9867 Z M132.3936,114.6527 L132.3936,108.0697 C132.3936,106.3637 132.7746,105.0697 133.5376,104.1837 C134.2996,103.2987 135.3616,102.8557 136.7236,102.8557 C138.0846,102.8557 139.1436,103.2927 139.9016,104.1667 C140.6596,105.0417 141.0386,106.3097 141.0386,107.9697 L141.0386,114.6527 L138.7646,114.6527 L138.7646,111.9467 L134.6526,111.9467 L134.6526,114.6527 L132.3936,114.6527 Z" id="Fill-67" fill="#9A67A8" mask="url(#mask-2)"></path>
                <path d="M134.9027,109.4197 L138.5147,109.4197 L138.5147,108.0687 C138.5147,107.2027 138.3457,106.5277 138.0117,106.0617 C137.6917,105.6157 137.2627,105.3987 136.7017,105.3987 C136.1387,105.3987 135.7117,105.6057 135.3967,106.0317 C135.0687,106.4747 134.9027,107.1327 134.9027,107.9867 L134.9027,109.4197 Z M139.0147,109.9197 L134.4027,109.9197 L134.4027,107.9867 C134.4027,107.0227 134.6017,106.2657 134.9947,105.7337 C135.4047,105.1797 135.9787,104.8987 136.7017,104.8987 C137.4257,104.8987 138.0027,105.1917 138.4177,105.7697 C138.8137,106.3227 139.0147,107.0967 139.0147,108.0687 L139.0147,109.9197 Z M139.0147,114.4027 L140.7887,114.4027 L140.7887,107.9697 C140.7887,106.3787 140.4267,105.1547 139.7127,104.3307 C138.9977,103.5057 138.0197,103.1057 136.7237,103.1057 C135.4267,103.1057 134.4467,103.5117 133.7267,104.3467 C133.0077,105.1817 132.6437,106.4337 132.6437,108.0687 L132.6437,114.4027 L134.4027,114.4027 L134.4027,111.6967 L139.0147,111.6967 L139.0147,114.4027 Z M141.2887,114.9027 L138.5147,114.9027 L138.5147,112.1967 L134.9027,112.1967 L134.9027,114.9027 L132.1437,114.9027 L132.1437,108.0687 C132.1437,106.3107 132.5487,104.9487 133.3487,104.0207 C134.1567,103.0817 135.2927,102.6057 136.7237,102.6057 C138.1537,102.6057 139.2867,103.0757 140.0907,104.0027 C140.8857,104.9207 141.2887,106.2547 141.2887,107.9697 L141.2887,114.9027 Z" id="Fill-68" fill="#9A67A8" mask="url(#mask-2)"></path>
                <path d="M147.2456,105.4208 C147.0286,105.6248 146.9196,105.8938 146.9196,106.2298 C146.9196,106.5658 147.0526,106.8318 147.3176,107.0298 C147.5836,107.2278 148.1966,107.4618 149.1566,107.7308 C150.1176,108.0008 150.8626,108.4048 151.3936,108.9438 C151.9246,109.4828 152.1906,110.2698 152.1906,111.3028 C152.1906,112.3378 151.8496,113.1758 151.1696,113.8198 C150.4886,114.4628 149.5936,114.7848 148.4836,114.7848 C146.8806,114.7848 145.4376,114.1088 144.1536,112.7548 L145.5006,110.8748 C146.5916,111.9628 147.6006,112.5078 148.5266,112.5078 C148.9416,112.5078 149.2676,112.4058 149.5046,112.2028 C149.7406,111.9988 149.8596,111.7238 149.8596,111.3778 C149.8596,111.0308 149.7336,110.7558 149.4826,110.5528 C149.2316,110.3488 148.7346,110.1428 147.9916,109.9338 C146.8136,109.6148 145.9516,109.1998 145.4066,108.6878 C144.8606,108.1768 144.5886,107.3738 144.5886,106.2788 C144.5886,105.1848 144.9336,104.3398 145.6236,103.7458 C146.3136,103.1518 147.1756,102.8558 148.2086,102.8558 C148.8836,102.8558 149.5596,102.9868 150.2356,103.2518 C150.9116,103.5148 151.5006,103.8898 152.0026,104.3738 L150.8586,106.2538 C149.9796,105.4948 149.0726,105.1158 148.1356,105.1158 C147.7596,105.1158 147.4626,105.2178 147.2456,105.4208" id="Fill-69" fill="#9A67A8" mask="url(#mask-2)"></path>
                <path d="M144.4791,112.7307 C145.6721,113.9277 147.0191,114.5347 148.4841,114.5347 C149.5221,114.5347 150.3681,114.2327 150.9981,113.6377 C151.6321,113.0377 151.9401,112.2737 151.9401,111.3027 C151.9401,110.3417 151.6971,109.6067 151.2161,109.1187 C150.7191,108.6147 150.0031,108.2287 149.0891,107.9717 C148.0891,107.6907 147.4601,107.4477 147.1681,107.2297 C146.8381,106.9837 146.6701,106.6467 146.6701,106.2297 C146.6701,105.8237 146.8061,105.4897 147.0751,105.2377 C147.3391,104.9907 147.6961,104.8657 148.1361,104.8657 C149.0491,104.8657 149.9421,105.2057 150.7951,105.8777 L151.6821,104.4177 C151.2381,104.0227 150.7211,103.7097 150.1451,103.4837 C149.5011,103.2327 148.8501,103.1057 148.2081,103.1057 C147.2421,103.1057 146.4271,103.3847 145.7871,103.9357 C145.1491,104.4847 144.8381,105.2517 144.8381,106.2787 C144.8381,107.2967 145.0871,108.0457 145.5771,108.5047 C146.0901,108.9857 146.9241,109.3857 148.0571,109.6917 C148.8431,109.9137 149.3601,110.1317 149.6401,110.3577 C149.9511,110.6107 150.1091,110.9537 150.1091,111.3767 C150.1091,111.7977 149.9601,112.1397 149.6671,112.3917 C149.3851,112.6347 149.0021,112.7577 148.5271,112.7577 C147.5981,112.7577 146.5921,112.2527 145.5351,111.2557 L144.4791,112.7307 Z M148.4841,115.0347 C146.8171,115.0347 145.2991,114.3257 143.9731,112.9267 L143.8311,112.7777 L145.4691,110.4897 L145.6771,110.6977 C146.7151,111.7327 147.6731,112.2577 148.5271,112.2577 C148.8791,112.2577 149.1531,112.1747 149.3411,112.0127 C149.5211,111.8577 149.6091,111.6497 149.6091,111.3767 C149.6091,111.1077 149.5161,110.9017 149.3251,110.7467 C149.1721,110.6227 148.8051,110.4217 147.9231,110.1737 C146.7131,109.8467 145.8081,109.4077 145.2351,108.8697 C144.6401,108.3127 144.3381,107.4397 144.3381,106.2787 C144.3381,105.1137 144.7161,104.1977 145.4611,103.5567 C146.1941,102.9247 147.1191,102.6057 148.2081,102.6057 C148.9131,102.6057 149.6251,102.7447 150.3271,103.0187 C151.0291,103.2927 151.6511,103.6877 152.1761,104.1927 L152.3201,104.3327 L150.9181,106.6367 L150.6951,106.4427 C149.8671,105.7287 149.0061,105.3657 148.1361,105.3657 C147.8231,105.3657 147.5871,105.4427 147.4171,105.6037 C147.2501,105.7587 147.1701,105.9637 147.1701,106.2297 C147.1701,106.4877 147.2641,106.6777 147.4671,106.8287 C147.6321,106.9517 148.0701,107.1657 149.2251,107.4897 C150.2241,107.7707 151.0131,108.2007 151.5721,108.7687 C152.1481,109.3537 152.4401,110.2067 152.4401,111.3027 C152.4401,112.4037 152.0711,113.3117 151.3421,114.0017 C150.6161,114.6867 149.6541,115.0347 148.4841,115.0347 L148.4841,115.0347 Z" id="Fill-70" fill="#9A67A8" mask="url(#mask-2)"></path>
                <path d="M159.2017,105.2314 C158.2457,105.2314 157.7677,105.5504 157.7677,106.1884 C157.7677,107.0574 158.4097,107.4914 159.6937,107.4914 L161.3157,107.4914 L161.3157,109.7024 L159.7227,109.7024 C158.7667,109.7024 158.1247,109.8134 157.7967,110.0324 C157.4397,110.2524 157.2617,110.6164 157.2617,111.1224 C157.2617,112.0024 157.8987,112.4414 159.1727,112.4414 C159.6067,112.4414 160.0677,112.3544 160.5557,112.1774 C161.0427,112.0024 161.4557,111.7874 161.7937,111.5344 L162.3877,113.8274 C161.3827,114.4544 160.2467,114.7684 158.9767,114.7684 C157.7077,114.7684 156.7187,114.4574 156.0087,113.8354 C155.2997,113.2144 154.9447,112.3234 154.9447,111.1634 C154.9447,110.0024 155.4127,109.0984 156.3487,108.4484 C155.7117,107.8114 155.3937,107.0134 155.3937,106.0564 C155.3937,105.0994 155.7237,104.3264 156.3857,103.7384 C157.0467,103.1494 157.9317,102.8554 159.0427,102.8554 C159.4867,102.8554 159.9807,102.9244 160.5267,103.0614 C161.0717,103.1994 161.5277,103.3724 161.8947,103.5814 L161.4607,105.9074 C160.5817,105.4574 159.8287,105.2314 159.2017,105.2314" id="Fill-71" fill="#9A67A8" mask="url(#mask-2)"></path>
                <path d="M159.0424,103.1053 C158.0004,103.1053 157.1624,103.3813 156.5514,103.9243 C155.9404,104.4683 155.6434,105.1663 155.6434,106.0563 C155.6434,106.9523 155.9324,107.6773 156.5264,108.2723 L156.7374,108.4833 L156.4914,108.6543 C155.6194,109.2593 155.1944,110.0803 155.1944,111.1633 C155.1944,112.2583 155.5154,113.0713 156.1734,113.6473 C156.8334,114.2253 157.7764,114.5183 158.9774,114.5183 C160.1274,114.5183 161.1764,114.2463 162.0984,113.7093 L161.6404,111.9393 C161.3484,112.1203 161.0134,112.2783 160.6404,112.4133 C160.1284,112.5983 159.6344,112.6913 159.1724,112.6913 C157.3864,112.6913 157.0114,111.8383 157.0114,111.1223 C157.0114,110.5253 157.2314,110.0873 157.6664,109.8193 C158.0324,109.5743 158.7074,109.4523 159.7234,109.4523 L161.0654,109.4523 L161.0654,107.7413 L159.6944,107.7413 C157.8954,107.7413 157.5184,106.8973 157.5184,106.1883 C157.5184,105.6373 157.8104,104.9813 159.2014,104.9813 C159.7924,104.9813 160.4884,105.1683 161.2754,105.5383 L161.6154,103.7153 C161.2974,103.5543 160.9114,103.4163 160.4654,103.3033 C159.9424,103.1723 159.4634,103.1053 159.0424,103.1053 M158.9774,115.0183 C157.6514,115.0183 156.5974,114.6843 155.8444,114.0233 C155.0814,113.3563 154.6944,112.3933 154.6944,111.1633 C154.6944,110.0203 155.1254,109.0963 155.9774,108.4143 C155.4234,107.7673 155.1434,106.9753 155.1434,106.0563 C155.1434,105.0293 155.5054,104.1863 156.2194,103.5513 C156.9244,102.9233 157.8744,102.6053 159.0424,102.6053 C159.5044,102.6053 160.0244,102.6773 160.5874,102.8183 C161.1524,102.9613 161.6334,103.1453 162.0184,103.3643 L162.1734,103.4523 L161.6454,106.2833 L161.3464,106.1303 C160.5074,105.6993 159.7864,105.4813 159.2014,105.4813 C158.0184,105.4813 158.0184,105.9953 158.0184,106.1883 C158.0184,106.6403 158.1924,107.2413 159.6944,107.2413 L161.5654,107.2413 L161.5654,109.9523 L159.7234,109.9523 C158.6014,109.9523 158.1324,110.1083 157.9364,110.2403 C157.6474,110.4183 157.5114,110.7053 157.5114,111.1223 C157.5114,111.5813 157.6834,112.1913 159.1724,112.1913 C159.5764,112.1913 160.0134,112.1073 160.4704,111.9423 C160.9334,111.7753 161.3274,111.5713 161.6434,111.3343 L161.9424,111.1103 L162.6754,113.9423 L162.5194,114.0393 C161.4794,114.6893 160.2874,115.0183 158.9774,115.0183" id="Fill-72" fill="#9A67A8" mask="url(#mask-2)"></path>
                <path d="M167.8274,105.4208 C167.6104,105.6248 167.5014,105.8938 167.5014,106.2298 C167.5014,106.5658 167.6344,106.8318 167.8994,107.0298 C168.1654,107.2278 168.7784,107.4618 169.7384,107.7308 C170.6994,108.0008 171.4444,108.4048 171.9754,108.9438 C172.5064,109.4828 172.7724,110.2698 172.7724,111.3028 C172.7724,112.3378 172.4314,113.1758 171.7514,113.8198 C171.0704,114.4628 170.1754,114.7848 169.0654,114.7848 C167.4624,114.7848 166.0194,114.1088 164.7354,112.7548 L166.0824,110.8748 C167.1734,111.9628 168.1824,112.5078 169.1084,112.5078 C169.5234,112.5078 169.8494,112.4058 170.0864,112.2028 C170.3224,111.9988 170.4414,111.7238 170.4414,111.3778 C170.4414,111.0308 170.3154,110.7558 170.0644,110.5528 C169.8134,110.3488 169.3164,110.1428 168.5734,109.9338 C167.3954,109.6148 166.5334,109.1998 165.9884,108.6878 C165.4424,108.1768 165.1704,107.3738 165.1704,106.2788 C165.1704,105.1848 165.5154,104.3398 166.2054,103.7458 C166.8954,103.1518 167.7574,102.8558 168.7904,102.8558 C169.4654,102.8558 170.1414,102.9868 170.8174,103.2518 C171.4934,103.5148 172.0824,103.8898 172.5844,104.3738 L171.4404,106.2538 C170.5614,105.4948 169.6544,105.1158 168.7174,105.1158 C168.3414,105.1158 168.0444,105.2178 167.8274,105.4208" id="Fill-73" fill="#9A67A8" mask="url(#mask-2)"></path>
                <path d="M165.0609,112.7307 C166.2539,113.9277 167.6009,114.5347 169.0659,114.5347 C170.1039,114.5347 170.9499,114.2327 171.5799,113.6377 C172.2139,113.0377 172.5219,112.2737 172.5219,111.3027 C172.5219,110.3417 172.2789,109.6067 171.7979,109.1187 C171.3009,108.6147 170.5849,108.2287 169.6709,107.9717 C168.6709,107.6907 168.0419,107.4477 167.7499,107.2297 C167.4199,106.9837 167.2519,106.6467 167.2519,106.2297 C167.2519,105.8237 167.3879,105.4897 167.6569,105.2377 C167.9209,104.9907 168.2779,104.8657 168.7179,104.8657 C169.6309,104.8657 170.5239,105.2057 171.3769,105.8777 L172.2639,104.4177 C171.8199,104.0227 171.3029,103.7097 170.7269,103.4837 C170.0829,103.2327 169.4319,103.1057 168.7899,103.1057 C167.8239,103.1057 167.0089,103.3847 166.3689,103.9357 C165.7309,104.4847 165.4199,105.2517 165.4199,106.2787 C165.4199,107.2967 165.6689,108.0457 166.1589,108.5047 C166.6719,108.9857 167.5059,109.3857 168.6389,109.6917 C169.4249,109.9137 169.9419,110.1317 170.2219,110.3577 C170.5329,110.6107 170.6909,110.9537 170.6909,111.3767 C170.6909,111.7977 170.5419,112.1397 170.2489,112.3917 C169.9669,112.6347 169.5839,112.7577 169.1089,112.7577 C168.1799,112.7577 167.1739,112.2527 166.1169,111.2557 L165.0609,112.7307 Z M169.0659,115.0347 C167.3989,115.0347 165.8809,114.3257 164.5549,112.9267 L164.4129,112.7777 L166.0509,110.4897 L166.2589,110.6977 C167.2969,111.7327 168.2549,112.2577 169.1089,112.2577 C169.4609,112.2577 169.7349,112.1747 169.9229,112.0127 C170.1029,111.8577 170.1909,111.6497 170.1909,111.3767 C170.1909,111.1077 170.0979,110.9017 169.9069,110.7467 C169.7539,110.6227 169.3869,110.4217 168.5049,110.1737 C167.2949,109.8467 166.3899,109.4077 165.8169,108.8697 C165.2219,108.3127 164.9199,107.4397 164.9199,106.2787 C164.9199,105.1137 165.2979,104.1977 166.0429,103.5567 C166.7759,102.9247 167.7009,102.6057 168.7899,102.6057 C169.4949,102.6057 170.2069,102.7447 170.9089,103.0187 C171.6109,103.2927 172.2329,103.6877 172.7579,104.1927 L172.9019,104.3327 L171.4999,106.6367 L171.2769,106.4427 C170.4489,105.7287 169.5879,105.3657 168.7179,105.3657 C168.4049,105.3657 168.1689,105.4427 167.9989,105.6037 C167.8319,105.7587 167.7519,105.9637 167.7519,106.2297 C167.7519,106.4877 167.8459,106.6777 168.0489,106.8287 C168.2139,106.9517 168.6519,107.1657 169.8069,107.4897 C170.8059,107.7707 171.5949,108.2007 172.1539,108.7687 C172.7299,109.3537 173.0219,110.2067 173.0219,111.3027 C173.0219,112.4037 172.6529,113.3117 171.9239,114.0017 C171.1979,114.6867 170.2359,115.0347 169.0659,115.0347 L169.0659,115.0347 Z" id="Fill-74" fill="#9A67A8" mask="url(#mask-2)"></path>
                <path d="M125.8457,132.1762 C126.9557,132.1762 127.8637,131.6762 128.5677,130.6752 L130.0157,132.3742 C128.8667,133.8482 127.5127,134.5852 125.9547,134.5852 C124.3957,134.5852 123.1117,134.0242 122.1027,132.9022 C121.0937,131.7802 120.5897,130.3642 120.5897,128.6532 C120.5897,126.9432 121.1037,125.5152 122.1317,124.3712 C123.1597,123.2272 124.4167,122.6552 125.9037,122.6552 C127.5637,122.6552 128.9537,123.3762 130.0737,124.8172 L128.6697,126.6322 C127.9547,125.6202 127.0667,125.1142 126.0047,125.1142 C125.1557,125.1142 124.4287,125.4302 123.8257,126.0632 C123.2227,126.6952 122.9207,127.5482 122.9207,128.6202 C122.9207,129.6932 123.2057,130.5532 123.7747,131.2022 C124.3447,131.8512 125.0347,132.1762 125.8457,132.1762" id="Fill-75" fill="#9A67A8" mask="url(#mask-2)"></path>
                <path d="M125.9037,122.9056 C124.4777,122.9056 123.3047,123.4396 122.3177,124.5386 C121.3367,125.6296 120.8397,127.0136 120.8397,128.6536 C120.8397,130.2926 121.3277,131.6656 122.2887,132.7356 C123.2437,133.7966 124.4767,134.3346 125.9547,134.3346 C127.3687,134.3346 128.6257,133.6766 129.6917,132.3786 L128.5797,131.0736 C127.8557,131.9716 126.9377,132.4266 125.8457,132.4266 C124.9637,132.4266 124.2037,132.0696 123.5877,131.3676 C122.9797,130.6756 122.6707,129.7506 122.6707,128.6206 C122.6707,127.4866 122.9987,126.5676 123.6447,125.8906 C124.2947,125.2096 125.0887,124.8636 126.0057,124.8636 C127.0497,124.8636 127.9447,125.3206 128.6717,126.2206 L129.7567,124.8196 C128.7007,123.5316 127.4387,122.9056 125.9037,122.9056 M125.9547,134.8346 C124.3287,134.8346 122.9707,134.2406 121.9167,133.0696 C120.8707,131.9056 120.3397,130.4196 120.3397,128.6536 C120.3397,126.8866 120.8797,125.3906 121.9457,124.2046 C123.0187,123.0106 124.3497,122.4056 125.9037,122.4056 C127.6377,122.4056 129.1067,123.1656 130.2717,124.6636 L130.3907,124.8166 L128.6607,127.0526 L128.4657,126.7766 C127.7947,125.8256 126.9897,125.3636 126.0057,125.3636 C125.2197,125.3636 124.5657,125.6496 124.0067,126.2356 C123.4527,126.8166 123.1707,127.6186 123.1707,128.6206 C123.1707,129.6256 123.4377,130.4386 123.9627,131.0376 C124.4877,131.6356 125.1037,131.9266 125.8457,131.9266 C126.8787,131.9266 127.7027,131.4696 128.3637,130.5306 L128.5497,130.2666 L130.3387,132.3666 L130.2137,132.5276 C129.0197,134.0586 127.5877,134.8346 125.9547,134.8346" id="Fill-76" fill="#9A67A8" mask="url(#mask-2)"></path>
                <polygon id="Fill-77" fill="#9A67A8" mask="url(#mask-2)" points="137.7224 132.2421 137.7224 134.4531 131.9154 134.4531 131.9154 132.2421 133.6534 132.2421 133.6534 125.1311 131.9154 125.1311 131.9154 122.9191 137.7224 122.9191 137.7224 125.1311 135.9124 125.1311 135.9124 132.2421"></polygon>
                <path d="M132.1659,134.2029 L137.4729,134.2029 L137.4729,132.4919 L135.6629,132.4919 L135.6629,124.8809 L137.4729,124.8809 L137.4729,123.1689 L132.1659,123.1689 L132.1659,124.8809 L133.9039,124.8809 L133.9039,132.4919 L132.1659,132.4919 L132.1659,134.2029 Z M137.9729,134.7029 L131.6659,134.7029 L131.6659,131.9919 L133.4039,131.9919 L133.4039,125.3809 L131.6659,125.3809 L131.6659,122.6689 L137.9729,122.6689 L137.9729,125.3809 L136.1629,125.3809 L136.1629,131.9919 L137.9729,131.9919 L137.9729,134.7029 Z" id="Fill-78" fill="#9A67A8" mask="url(#mask-2)"></path>
                <path d="M143.0462,131.5326 C143.3792,131.9836 143.8672,132.2086 144.5092,132.2086 C145.1502,132.2086 145.6742,131.9316 146.0802,131.3756 C146.4852,130.8206 146.6882,130.0536 146.6882,129.0746 L146.6882,122.9196 L148.9472,122.9196 L148.9472,134.4526 L146.6882,134.4526 L146.6882,133.3966 C146.6202,133.4856 146.5212,133.5956 146.3912,133.7266 C146.2612,133.8586 145.9852,134.0346 145.5662,134.2546 C145.1462,134.4746 144.7192,134.5846 144.2842,134.5846 C143.1452,134.5846 142.1942,134.1476 141.4312,133.2736 C140.6692,132.3986 140.2882,131.1756 140.2882,129.6016 L140.2882,122.9196 L142.5462,122.9196 L142.5462,129.2886 C142.5462,130.3336 142.7132,131.0816 143.0462,131.5326" id="Fill-79" fill="#9A67A8" mask="url(#mask-2)"></path>
                <path d="M140.538,123.1692 L140.538,129.6022 C140.538,131.1062 140.902,132.2852 141.62,133.1082 C142.339,133.9342 143.211,134.3352 144.284,134.3352 C144.676,134.3352 145.068,134.2332 145.45,134.0332 C145.941,133.7762 146.136,133.6292 146.214,133.5512 C146.335,133.4282 146.427,133.3272 146.49,133.2452 L146.938,132.6582 L146.938,134.2032 L148.697,134.2032 L148.697,123.1692 L146.938,123.1692 L146.938,129.0742 C146.938,130.1022 146.717,130.9262 146.282,131.5232 C145.829,132.1442 145.232,132.4592 144.509,132.4592 C143.786,132.4592 143.226,132.1972 142.845,131.6812 C142.476,131.1812 142.297,130.3982 142.297,129.2882 L142.297,123.1692 L140.538,123.1692 Z M144.284,134.8352 C143.075,134.8352 142.052,134.3642 141.243,133.4372 C140.444,132.5202 140.038,131.2302 140.038,129.6022 L140.038,122.6692 L142.797,122.6692 L142.797,129.2882 C142.797,130.2732 142.948,130.9792 143.247,131.3842 C143.533,131.7712 143.945,131.9592 144.509,131.9592 C145.071,131.9592 145.519,131.7202 145.878,131.2282 C146.25,130.7192 146.438,129.9942 146.438,129.0742 L146.438,122.6692 L149.197,122.6692 L149.197,134.7032 L146.438,134.7032 L146.438,134.0172 C146.272,134.1472 146.022,134.2982 145.682,134.4762 C145.228,134.7142 144.758,134.8352 144.284,134.8352 L144.284,134.8352 Z" id="Fill-80" fill="#9A67A8" mask="url(#mask-2)"></path>
                <path d="M158.2386,131.2851 C158.7936,130.6911 159.0716,129.8271 159.0716,128.6951 C159.0716,127.5621 158.7936,126.6901 158.2386,126.0791 C157.6836,125.4691 156.8316,125.1631 155.6826,125.1631 L154.4236,125.1631 L154.4236,132.1761 L155.8566,132.1761 C156.8896,132.1761 157.6836,131.8791 158.2386,131.2851 M159.8966,124.4291 C160.8616,125.4361 161.3446,126.8361 161.3446,128.6281 C161.3446,130.4221 160.8736,131.8411 159.9326,132.8861 C158.9916,133.9311 157.5556,134.4531 155.6246,134.4531 L152.1646,134.4531 L152.1646,122.9191 L155.7406,122.9191 C157.5456,122.9191 158.9316,123.4231 159.8966,124.4291" id="Fill-81" fill="#9A67A8" mask="url(#mask-2)"></path>
                <path d="M154.6732,131.9261 L155.8572,131.9261 C156.8122,131.9261 157.5522,131.6531 158.0562,131.1141 C158.5642,130.5711 158.8212,129.7561 158.8212,128.6951 C158.8212,127.6311 158.5632,126.8081 158.0532,126.2471 C157.5502,125.6941 156.7532,125.4131 155.6832,125.4131 L154.6732,125.4131 L154.6732,131.9261 Z M155.8572,132.4261 L154.1732,132.4261 L154.1732,124.9131 L155.6832,124.9131 C156.9002,124.9131 157.8222,125.2491 158.4232,125.9111 C159.0192,126.5661 159.3212,127.5031 159.3212,128.6951 C159.3212,129.8871 159.0182,130.8161 158.4212,131.4551 C157.8192,132.0991 156.9562,132.4261 155.8572,132.4261 L155.8572,132.4261 Z M152.4142,134.2031 L155.6252,134.2031 C157.4732,134.2031 158.8602,133.7031 159.7472,132.7181 C160.6412,131.7261 161.0942,130.3491 161.0942,128.6281 C161.0942,126.9101 160.6312,125.5561 159.7162,124.6021 C158.8042,123.6511 157.4662,123.1691 155.7412,123.1691 L152.4142,123.1691 L152.4142,134.2031 Z M155.6252,134.7031 L151.9142,134.7031 L151.9142,122.6691 L155.7412,122.6691 C157.6082,122.6691 159.0672,123.2031 160.0772,124.2561 C161.0842,125.3061 161.5942,126.7771 161.5942,128.6281 C161.5942,130.4771 161.0982,131.9661 160.1182,133.0531 C159.1322,134.1481 157.6202,134.7031 155.6252,134.7031 L155.6252,134.7031 Z" id="Fill-82" fill="#9A67A8" mask="url(#mask-2)"></path>
                <path d="M165.865,127.787 L165.865,129.47 L169.977,129.47 L169.977,127.87 C169.977,126.946 169.794,126.228 169.427,125.716 C169.06,125.205 168.556,124.949 167.914,124.949 C167.272,124.949 166.77,125.194 166.408,125.683 C166.046,126.173 165.865,126.874 165.865,127.787 L165.865,127.787 Z M163.606,132.952 L163.606,127.87 C163.606,126.164 163.987,124.87 164.75,123.984 C165.512,123.099 166.574,122.656 167.936,122.656 C169.297,122.656 170.356,123.093 171.114,123.967 C171.872,124.842 172.251,126.11 172.251,127.77 L172.251,130.246 L165.865,131.747 L163.606,132.952 Z" id="Fill-83" fill="#9A67A8" mask="url(#mask-2)"></path>
                <path d="M166.1151,129.22 L169.7271,129.22 L169.7271,127.869 C169.7271,127.003 169.5581,126.328 169.2241,125.862 C168.9041,125.416 168.4751,125.199 167.9141,125.199 C167.3511,125.199 166.9241,125.406 166.6091,125.832 C166.2811,126.275 166.1151,126.933 166.1151,127.787 L166.1151,129.22 Z M170.2271,129.72 L165.6151,129.72 L165.6151,127.787 C165.6151,126.823 165.8141,126.066 166.2071,125.534 C166.6171,124.98 167.1911,124.699 167.9141,124.699 C168.6381,124.699 169.2151,124.992 169.6301,125.57 C170.0261,126.123 170.2271,126.897 170.2271,127.869 L170.2271,129.72 Z M167.9361,122.906 C166.6391,122.906 165.6591,123.312 164.9391,124.147 C164.2201,124.982 163.8561,126.234 163.8561,127.869 L163.8561,132.535 L165.8081,131.504 L172.0011,130.048 L172.0011,127.77 C172.0011,126.179 171.6391,124.955 170.9251,124.131 C170.2101,123.306 169.2321,122.906 167.9361,122.906 L167.9361,122.906 Z M163.3561,133.368 L163.3561,127.869 C163.3561,126.111 163.7611,124.749 164.5611,123.821 C165.3691,122.882 166.5051,122.406 167.9361,122.406 C169.3661,122.406 170.4991,122.876 171.3031,123.803 C172.0981,124.721 172.5011,126.055 172.5011,127.77 L172.5011,130.444 L165.9541,131.983 L163.3561,133.368 Z" id="Fill-84" fill="#9A67A8" mask="url(#mask-2)"></path>
                <path d="M128.1048,148.4946 C128.1048,147.3616 127.8268,146.4896 127.2718,145.8796 C126.7168,145.2686 125.8648,144.9636 124.7168,144.9636 L123.4568,144.9636 L123.4568,148.4736 C123.4568,148.4736 128.1048,149.6276 128.1048,148.4946 M128.9298,144.2286 C129.8958,145.2356 130.3778,146.6356 130.3778,148.4286 C130.3778,149.2566 130.2778,150.0046 130.0768,150.6736 C129.8428,151.4526 121.1978,149.3596 121.1978,149.3596 L121.1978,142.7196 L124.7738,142.7196 C126.5798,142.7196 127.9648,143.2226 128.9298,144.2286" id="Fill-85" fill="#9A67A8" mask="url(#mask-2)"></path>
                <path d="M123.7067,148.2762 C124.2487,148.4012 125.8317,148.7422 126.9247,148.7422 L126.9247,148.7422 C127.2587,148.7422 127.5137,148.7112 127.6817,148.6492 C127.8547,148.5852 127.8547,148.5212 127.8547,148.4942 C127.8547,147.4312 127.5967,146.6082 127.0867,146.0472 C126.5837,145.4942 125.7867,145.2132 124.7167,145.2132 L123.7067,145.2132 L123.7067,148.2762 Z M126.9247,149.2422 L126.9247,149.2422 C125.5327,149.2422 123.4827,148.7382 123.3967,148.7162 L123.2067,148.6692 L123.2067,144.7132 L124.7167,144.7132 C125.9337,144.7132 126.8557,145.0492 127.4567,145.7112 C128.0527,146.3662 128.3547,147.3022 128.3547,148.4942 C128.3547,148.6582 128.2897,148.9572 127.8547,149.1182 C127.6287,149.2022 127.3237,149.2422 126.9247,149.2422 L126.9247,149.2422 Z M121.4477,149.1622 C122.5007,149.4122 127.5987,150.5972 129.4107,150.5972 C129.6867,150.5972 129.8067,150.5682 129.8517,150.5522 C130.0357,149.9222 130.1277,149.2082 130.1277,148.4282 C130.1277,146.7102 129.6647,145.3562 128.7497,144.4012 C127.8377,143.4512 126.4997,142.9692 124.7747,142.9692 L121.4477,142.9692 L121.4477,149.1622 Z M129.4107,151.0972 C127.3367,151.0972 121.3917,149.6642 121.1387,149.6032 L120.9477,149.5562 L120.9477,142.4692 L124.7747,142.4692 C126.6417,142.4692 128.1007,143.0032 129.1107,144.0562 C130.1177,145.1062 130.6277,146.5772 130.6277,148.4282 C130.6277,149.2762 130.5237,150.0562 130.3167,150.7452 C130.2237,151.0552 129.8067,151.0972 129.4107,151.0972 L129.4107,151.0972 Z" id="Fill-86" fill="#9A67A8" mask="url(#mask-2)"></path>
                <path d="M134.5039,147.5868 L134.5039,149.2698 L138.6159,149.2698 L138.6159,147.6698 C138.6159,146.7458 138.4329,146.0278 138.0659,145.5158 C137.6989,145.0048 137.1949,144.7488 136.5529,144.7488 C135.9109,144.7488 135.4089,144.9938 135.0469,145.4828 C134.6849,145.9728 134.5039,146.6738 134.5039,147.5868 L134.5039,147.5868 Z M132.2449,154.2528 L132.2449,147.6698 C132.2449,145.9638 132.6259,144.6698 133.3889,143.7838 C134.1509,142.8988 135.2129,142.4558 136.5749,142.4558 C137.9359,142.4558 138.9949,142.8928 139.7529,143.7668 C140.5109,144.6418 140.8899,145.9098 140.8899,147.5698 L140.8899,154.2528 L138.6159,154.2528 L138.6159,151.5468 L134.5039,151.5468 L134.5039,154.2528 L132.2449,154.2528 Z" id="Fill-87" fill="#9A67A8" mask="url(#mask-2)"></path>
                <path d="M134.754,149.0198 L138.366,149.0198 L138.366,147.6688 C138.366,146.8028 138.197,146.1278 137.863,145.6618 C137.543,145.2158 137.114,144.9988 136.553,144.9988 C135.99,144.9988 135.563,145.2058 135.248,145.6318 C134.92,146.0748 134.754,146.7328 134.754,147.5868 L134.754,149.0198 Z M138.866,149.5198 L134.254,149.5198 L134.254,147.5868 C134.254,146.6228 134.453,145.8658 134.846,145.3338 C135.256,144.7798 135.83,144.4988 136.553,144.4988 C137.277,144.4988 137.854,144.7918 138.269,145.3698 C138.665,145.9228 138.866,146.6968 138.866,147.6688 L138.866,149.5198 Z M138.866,154.0028 L140.64,154.0028 L140.64,147.5698 C140.64,145.9788 140.278,144.7548 139.564,143.9308 C138.849,143.1058 137.871,142.7058 136.575,142.7058 C135.278,142.7058 134.298,143.1118 133.578,143.9468 C132.859,144.7818 132.495,146.0338 132.495,147.6688 L132.495,154.0028 L134.254,154.0028 L134.254,151.2968 L138.866,151.2968 L138.866,154.0028 Z M141.14,154.5028 L138.366,154.5028 L138.366,151.7968 L134.754,151.7968 L134.754,154.5028 L131.995,154.5028 L131.995,147.6688 C131.995,145.9108 132.4,144.5488 133.2,143.6208 C134.008,142.6818 135.144,142.2058 136.575,142.2058 C138.005,142.2058 139.138,142.6758 139.942,143.6028 C140.737,144.5208 141.14,145.8548 141.14,147.5698 L141.14,154.5028 Z" id="Fill-88" fill="#9A67A8" mask="url(#mask-2)"></path>
                <path d="M148.1289,144.8315 C147.4629,144.8315 146.9289,145.0875 146.5289,145.5985 C146.1279,146.1105 145.9279,146.8555 145.9279,147.8345 L145.9279,154.2525 L143.6689,154.2525 L143.6689,142.7195 L145.9279,142.7195 L145.9279,143.6435 C145.9949,143.5555 146.0949,143.4455 146.2249,143.3135 C146.3549,143.1815 146.6299,143.0055 147.0499,142.7855 C147.4699,142.5655 147.8969,142.4555 148.3319,142.4555 C149.4799,142.4555 150.4329,142.8815 151.1919,143.7345 C151.9489,144.5865 152.3279,145.7935 152.3279,147.3555 L152.3279,154.2525 L150.0689,154.2525 L150.0689,147.8345 C150.0689,145.8325 149.4219,144.8315 148.1289,144.8315" id="Fill-89" fill="#9A67A8" mask="url(#mask-2)"></path>
                <path d="M150.3192,154.0027 L152.0782,154.0027 L152.0782,147.3557 C152.0782,145.8647 151.7172,144.7017 151.0052,143.8997 C150.2892,143.0957 149.4152,142.7057 148.3312,142.7057 C147.9402,142.7057 147.5482,142.8067 147.1662,143.0067 C146.6742,143.2637 146.4792,143.4107 146.4022,143.4887 C146.2812,143.6117 146.1892,143.7137 146.1262,143.7957 L145.6782,144.3797 L145.6782,142.9687 L143.9192,142.9687 L143.9192,154.0027 L145.6782,154.0027 L145.6782,147.8347 C145.6782,146.8027 145.8982,145.9987 146.3322,145.4437 C146.7802,144.8717 147.3852,144.5817 148.1292,144.5817 C149.5822,144.5817 150.3192,145.6757 150.3192,147.8347 L150.3192,154.0027 Z M152.5782,154.5027 L149.8192,154.5027 L149.8192,147.8347 C149.8192,145.0817 148.5472,145.0817 148.1292,145.0817 C147.5382,145.0817 147.0792,145.3007 146.7252,145.7527 C146.3622,146.2167 146.1782,146.9177 146.1782,147.8347 L146.1782,154.5027 L143.4192,154.5027 L143.4192,142.4687 L146.1782,142.4687 L146.1782,143.0227 C146.3442,142.8937 146.5942,142.7417 146.9342,142.5637 C147.3882,142.3257 147.8582,142.2057 148.3312,142.2057 C149.5492,142.2057 150.5742,142.6637 151.3782,143.5677 C152.1742,144.4637 152.5782,145.7387 152.5782,147.3557 L152.5782,154.5027 Z" id="Fill-90" fill="#9A67A8" mask="url(#mask-2)"></path>
                <path d="M157.2359,147.5868 L157.2359,149.2698 L161.3479,149.2698 L161.3479,147.6698 C161.3479,146.7458 161.1649,146.0278 160.7979,145.5158 C160.4309,145.0048 159.9269,144.7488 159.2849,144.7488 C158.6429,144.7488 158.1409,144.9938 157.7789,145.4828 C157.4169,145.9728 157.2359,146.6738 157.2359,147.5868 L157.2359,147.5868 Z M154.9769,154.2528 L154.9769,147.6698 C154.9769,145.9638 155.3579,144.6698 156.1209,143.7838 C156.8829,142.8988 157.9449,142.4558 159.3069,142.4558 C160.6679,142.4558 161.7269,142.8928 162.4849,143.7668 C163.2429,144.6418 163.6219,145.9098 163.6219,147.5698 L163.6219,154.2528 L161.3479,154.2528 L161.3479,151.5468 L157.2359,151.5468 L157.2359,154.2528 L154.9769,154.2528 Z" id="Fill-91" fill="#9A67A8" mask="url(#mask-2)"></path>
                <path d="M157.486,149.0198 L161.098,149.0198 L161.098,147.6688 C161.098,146.8028 160.929,146.1278 160.595,145.6618 C160.275,145.2158 159.846,144.9988 159.285,144.9988 C158.722,144.9988 158.295,145.2058 157.98,145.6318 C157.652,146.0748 157.486,146.7328 157.486,147.5868 L157.486,149.0198 Z M161.598,149.5198 L156.986,149.5198 L156.986,147.5868 C156.986,146.6228 157.185,145.8658 157.578,145.3338 C157.988,144.7798 158.562,144.4988 159.285,144.4988 C160.009,144.4988 160.586,144.7918 161.001,145.3698 C161.397,145.9228 161.598,146.6968 161.598,147.6688 L161.598,149.5198 Z M161.598,154.0028 L163.372,154.0028 L163.372,147.5698 C163.372,145.9788 163.01,144.7548 162.296,143.9308 C161.581,143.1058 160.603,142.7058 159.307,142.7058 C158.01,142.7058 157.03,143.1118 156.31,143.9468 C155.591,144.7818 155.227,146.0338 155.227,147.6688 L155.227,154.0028 L156.986,154.0028 L156.986,151.2968 L161.598,151.2968 L161.598,154.0028 Z M163.872,154.5028 L161.098,154.5028 L161.098,151.7968 L157.486,151.7968 L157.486,154.5028 L154.727,154.5028 L154.727,147.6688 C154.727,145.9108 155.132,144.5488 155.932,143.6208 C156.74,142.6818 157.876,142.2058 159.307,142.2058 C160.737,142.2058 161.87,142.6758 162.674,143.6028 C163.469,144.5208 163.872,145.8548 163.872,147.5698 L163.872,154.5028 Z" id="Fill-92" fill="#9A67A8" mask="url(#mask-2)"></path>
                <path d="M173.6409,150.9032 C173.6409,151.9372 173.3009,152.7762 172.6199,153.4202 C171.9399,154.0632 171.0439,154.3842 169.9339,154.3842 C168.3319,154.3842 166.8879,153.7082 165.6049,152.3552 L166.9509,150.4742 C168.0419,151.5632 169.0509,152.1082 169.9779,152.1082 C170.3919,152.1082 170.7179,152.0062 170.9549,151.8022 C171.1919,151.5992 171.3099,151.3242 171.3099,150.9772 C171.3099,150.6312 171.1839,150.3562 170.9329,150.1532 C170.6819,149.9492 170.1849,149.7432 169.4419,149.5332 C168.2639,149.2152 167.4019,148.7992 166.8569,148.2882 C166.3119,147.7772 173.6409,149.8692 173.6409,150.9032" id="Fill-93" fill="#9A67A8" mask="url(#mask-2)"></path>
                <path d="M165.9296,152.3308 C167.1226,153.5278 168.4696,154.1348 169.9346,154.1348 C170.9726,154.1348 171.8186,153.8328 172.4486,153.2378 C173.0826,152.6378 173.3906,151.8738 173.3906,150.9028 C173.3696,150.7728 172.8016,150.2488 170.4606,149.4228 C169.4416,149.0638 168.4126,148.7638 167.7146,148.5978 C168.1876,148.8648 168.7866,149.0978 169.5076,149.2918 C170.2936,149.5138 170.8106,149.7318 171.0906,149.9578 C171.4016,150.2108 171.5596,150.5538 171.5596,150.9768 C171.5596,151.3978 171.4106,151.7398 171.1176,151.9918 C170.8356,152.2348 170.4526,152.3578 169.9776,152.3578 C169.0486,152.3578 168.0426,151.8528 166.9856,150.8558 L165.9296,152.3308 Z M169.9346,154.6348 C168.2676,154.6348 166.7496,153.9258 165.4236,152.5268 L165.2816,152.3778 L166.9196,150.0898 L167.1276,150.2978 C168.1656,151.3328 169.1236,151.8578 169.9776,151.8578 C170.3296,151.8578 170.6036,151.7748 170.7916,151.6128 C170.9716,151.4578 171.0596,151.2498 171.0596,150.9768 C171.0596,150.7078 170.9666,150.5018 170.7756,150.3468 C170.6226,150.2228 170.2556,150.0218 169.3736,149.7738 C168.1636,149.4468 167.2586,149.0078 166.6856,148.4698 C166.5386,148.3318 166.5806,148.1848 166.5966,148.1438 C166.6306,148.0598 166.7156,147.9588 166.9316,147.9588 C167.4196,147.9588 169.1406,148.4238 170.6896,148.9738 C173.8906,150.1108 173.8906,150.6858 173.8906,150.9028 C173.8906,152.0038 173.5216,152.9118 172.7926,153.6018 C172.0666,154.2868 171.1046,154.6348 169.9346,154.6348 L169.9346,154.6348 Z" id="Fill-94" fill="#9A67A8" mask="url(#mask-2)"></path>
                <path d="M134.4342,190.9637 C131.6122,190.9637 128.8242,189.6787 127.0142,187.2467 C126.4422,186.4787 125.9962,185.6347 125.6862,184.7367 C125.3722,183.8227 125.8572,182.8267 126.7712,182.5117 C127.6862,182.1967 128.6812,182.6837 128.9962,183.5967 C129.1872,184.1537 129.4652,184.6787 129.8212,185.1567 C131.7102,187.6927 135.3112,188.2217 137.8492,186.3317 C138.1162,186.1327 139.2822,185.1227 141.7502,182.8897 C142.4672,182.2407 143.5742,182.2967 144.2222,183.0127 C144.8712,183.7297 144.8152,184.8367 144.0992,185.4847 C141.7962,187.5687 140.3962,188.7977 139.9392,189.1387 C138.2862,190.3697 136.3522,190.9637 134.4342,190.9637" id="Fill-95" fill="#F08650" mask="url(#mask-2)"></path>
                <path d="M146.9745,198.9505 C146.5505,198.9505 146.1245,198.9195 145.6975,198.8575 C143.4015,198.5205 141.3745,197.3105 139.9885,195.4495 C137.7055,192.3835 137.8825,186.4405 141.7865,182.8165 C142.4955,182.1595 143.6025,182.2005 144.2595,182.9085 C144.9175,183.6175 144.8765,184.7245 144.1675,185.3825 C141.9855,187.4075 141.3065,191.3585 142.7955,193.3595 C143.6235,194.4705 144.8335,195.1935 146.2045,195.3935 C147.5745,195.5955 148.9425,195.2495 150.0535,194.4225 L157.3065,189.0225 C158.0825,188.4465 159.1775,188.6065 159.7555,189.3815 C160.3325,190.1565 160.1715,191.2525 159.3965,191.8295 L152.1435,197.2295 C150.6285,198.3575 148.8295,198.9505 146.9745,198.9505" id="Fill-96" fill="#F08650" mask="url(#mask-2)"></path>
                <path d="M158.4169,205.5716 C158.0389,205.5716 157.6589,205.5436 157.2779,205.4886 C155.2309,205.1886 153.4229,204.1096 152.1869,202.4486 C150.9509,200.7886 150.4349,198.7476 150.7349,196.6996 C151.0349,194.6516 152.1139,192.8436 153.7739,191.6076 L157.2859,188.9936 C158.0609,188.4166 159.1569,188.5776 159.7339,189.3526 C160.3119,190.1276 160.1509,191.2236 159.3749,191.8006 L155.8649,194.4156 C154.9539,195.0926 154.3629,196.0846 154.1979,197.2066 C154.0339,198.3296 154.3159,199.4486 154.9939,200.3596 C155.6719,201.2686 156.6629,201.8606 157.7849,202.0256 C158.9079,202.1886 160.0269,201.9066 160.9379,201.2286 L164.6909,198.4346 C165.4659,197.8576 166.5619,198.0186 167.1389,198.7936 C167.7169,199.5686 167.5559,200.6656 166.7809,201.2426 L163.0279,204.0366 C161.6759,205.0426 160.0719,205.5716 158.4169,205.5716" id="Fill-97" fill="#F08650" mask="url(#mask-2)"></path>
                <path d="M161.2618,184.9099 C159.5138,184.9099 157.8688,184.2309 156.6288,182.9979 C155.9438,182.3159 155.9408,181.2079 156.6228,180.5229 C157.3048,179.8369 158.4128,179.8349 159.0968,180.5159 C159.6768,181.0929 160.4448,181.4099 161.2618,181.4099 L161.2708,181.4099 C162.0908,181.4079 162.8608,181.0859 163.4388,180.5049 C164.6328,179.3049 164.6268,177.3569 163.4268,176.1629 C162.7418,175.4809 162.7388,174.3729 163.4208,173.6879 C164.1028,173.0029 165.2098,172.9989 165.8958,173.6809 C168.4638,176.2359 168.4748,180.4049 165.9198,182.9729 C164.6828,184.2179 163.0348,184.9049 161.2798,184.9099 L161.2618,184.9099 Z" id="Fill-98" fill="#F08650" mask="url(#mask-2)"></path>
                <path d="M156.6881,183.0569 L153.5641,179.9499 C150.9961,177.3949 150.9851,173.2269 153.5401,170.6589 C154.7771,169.4139 156.4251,168.7259 158.1801,168.7219 L158.1981,168.7219 C159.9461,168.7219 161.5911,169.3999 162.8311,170.6339 L165.9541,173.7409 C166.6401,174.4219 166.6431,175.5299 165.9611,176.2149 C165.2801,176.9009 164.1721,176.9049 163.4871,176.2219 L160.3631,173.1149 C159.7831,172.5389 159.0151,172.2219 158.1981,172.2219 L158.1891,172.2219 C157.3691,172.2239 156.5991,172.5449 156.0211,173.1269 C154.8271,174.3269 154.8331,176.2749 156.0331,177.4689 L159.1561,180.5759 L156.6881,183.0569 Z" id="Fill-99" fill="#F08650" mask="url(#mask-2)"></path>
                <path d="M151.1117,183.1121 C150.6157,183.1121 150.1237,182.9031 149.7777,182.4951 C147.0807,179.3221 146.3567,174.9471 147.8897,171.0781 C150.1697,165.3201 156.7087,162.4911 162.4677,164.7721 C163.9647,165.3641 165.2887,166.2481 166.4007,167.3971 C167.0727,168.0911 167.0547,169.1991 166.3597,169.8711 C165.6657,170.5441 164.5577,170.5251 163.8857,169.8311 C163.1217,169.0421 162.2107,168.4341 161.1787,168.0261 C157.2157,166.4561 152.7127,168.4041 151.1427,172.3671 C150.0887,175.0311 150.5867,178.0431 152.4447,180.2291 C153.0707,180.9651 152.9807,182.0701 152.2447,182.6951 C151.9147,182.9751 151.5127,183.1121 151.1117,183.1121" id="Fill-100" fill="#F08650" mask="url(#mask-2)"></path>
                <path d="M180.2284,211.7088 C178.4784,211.7088 176.7004,211.3858 174.9774,210.7028 C172.8634,209.8658 171.0324,208.5838 169.5344,206.8908 C168.8944,206.1668 168.9614,205.0618 169.6854,204.4208 C170.4094,203.7808 171.5154,203.8478 172.1554,204.5718 C173.2854,205.8478 174.6684,206.8158 176.2664,207.4488 C181.8064,209.6428 188.1004,206.9198 190.2954,201.3788 C192.1774,196.6258 190.4434,191.1498 186.1714,188.3578 C185.3624,187.8288 185.1354,186.7448 185.6644,185.9358 C186.1924,185.1258 187.2774,184.8988 188.0864,185.4278 C193.7434,189.1258 196.0404,196.3758 193.5494,202.6678 C191.3264,208.2798 185.9274,211.7088 180.2284,211.7088" id="Fill-101" fill="#F08650" mask="url(#mask-2)"></path>
                <path d="M187.8812,189.1765 C187.4872,189.1765 187.0912,189.0445 186.7642,188.7725 L163.2912,169.2815 C162.5472,168.6645 162.4452,167.5605 163.0622,166.8175 C163.6802,166.0735 164.7842,165.9715 165.5272,166.5895 L189.0002,186.0805 C189.7442,186.6975 189.8462,187.8015 189.2282,188.5445 C188.8822,188.9615 188.3832,189.1765 187.8812,189.1765" id="Fill-102" fill="#F08650" mask="url(#mask-2)"></path>
                <path d="M234.0416,200.9236 C233.8026,200.9236 233.5606,200.8746 233.3276,200.7706 L191.6756,182.1386 C190.7926,181.7436 190.3976,180.7086 190.7926,179.8266 C191.1866,178.9446 192.2216,178.5506 193.1046,178.9436 L234.7576,197.5756 C235.6396,197.9706 236.0346,199.0056 235.6396,199.8876 C235.3496,200.5376 234.7106,200.9236 234.0416,200.9236" id="Fill-103" fill="#F08650" mask="url(#mask-2)"></path>
                <path d="M215.861,232.116 C215.557,232.116 215.25,232.037 214.969,231.87 L180.499,211.41 C179.668,210.917 179.394,209.843 179.887,209.012 C180.38,208.18 181.453,207.906 182.285,208.4 L216.756,228.861 C217.587,229.354 217.861,230.428 217.368,231.259 C217.04,231.81 216.458,232.116 215.861,232.116" id="Fill-104" fill="#F08650" mask="url(#mask-2)"></path>
                <path d="M117.1564,190.4798 C115.2924,190.4798 113.4234,189.8128 111.9404,188.4608 L110.9104,187.5228 C110.1964,186.8718 110.1454,185.7648 110.7964,185.0498 C111.4474,184.3358 112.5544,184.2848 113.2684,184.9358 L114.2974,185.8738 C115.1364,186.6388 116.2224,187.0368 117.3554,186.9788 C118.4894,186.9258 119.5344,186.4358 120.2984,185.5968 C120.8034,185.0428 121.1544,184.3658 121.3114,183.6388 C121.5154,182.6938 122.4464,182.0928 123.3914,182.2978 C124.3364,182.5018 124.9364,183.4338 124.7324,184.3778 C124.4444,185.7088 123.8054,186.9458 122.8844,187.9558 C121.3584,189.6288 119.2604,190.4798 117.1564,190.4798" id="Fill-105" fill="#EC6A5A" mask="url(#mask-2)"></path>
                <path d="M100.3309,192.534 C97.9289,192.534 95.5539,191.923 93.3969,190.723 C90.0569,188.866 87.6409,185.819 86.5919,182.143 C84.7359,175.635 87.7409,168.648 93.7359,165.529 C94.5939,165.084 95.6499,165.417 96.0959,166.274 C96.5419,167.132 96.2089,168.188 95.3509,168.635 C90.8239,170.989 88.5559,176.267 89.9579,181.183 C90.7499,183.96 92.5749,186.262 95.0989,187.665 C97.6219,189.068 100.5399,189.405 103.3159,188.613 C104.9689,188.142 106.4409,187.315 107.6919,186.157 C108.4009,185.5 109.5079,185.543 110.1649,186.251 C110.8219,186.961 110.7789,188.068 110.0699,188.724 C108.4119,190.261 106.4629,191.355 104.2759,191.979 C102.9739,192.35 101.6479,192.534 100.3309,192.534" id="Fill-106" fill="#EC6A5A" mask="url(#mask-2)"></path>
                <path d="M59.6544,202.9934 C59.2794,202.9934 58.9034,202.8734 58.5834,202.6264 C57.8204,202.0354 57.6804,200.9354 58.2724,200.1714 L86.4064,163.8514 C86.9984,163.0874 88.0974,162.9484 88.8624,163.5404 C89.6264,164.1324 89.7654,165.2314 89.1744,165.9954 L61.0394,202.3154 C60.6944,202.7604 60.1774,202.9934 59.6544,202.9934" id="Fill-107" fill="#EC6A5A" mask="url(#mask-2)"></path>
                <path d="M88.4152,226.9231 C88.1082,226.9231 87.7972,226.8421 87.5152,226.6731 C86.6872,226.1741 86.4192,225.0991 86.9172,224.2711 L110.8902,184.3981 C111.3882,183.5701 112.4622,183.3021 113.2922,183.8001 C114.1202,184.2981 114.3882,185.3731 113.8902,186.2021 L89.9162,226.0741 C89.5882,226.6201 89.0092,226.9231 88.4152,226.9231" id="Fill-108" fill="#EC6A5A" mask="url(#mask-2)"></path>
                <polygon id="Fill-109" fill="#9A67A8" mask="url(#mask-2)" points="112.671 185.735 152.192 185.735 152.192 182.235 112.671 182.235"></polygon>
                <path d="M114.33,99.9778 L104.023,99.9778 C103.057,99.9778 102.273,99.1938 102.273,98.2278 C102.273,97.2618 103.057,96.4778 104.023,96.4778 L114.33,96.4778 C115.297,96.4778 116.08,97.2618 116.08,98.2278 C116.08,99.1938 115.297,99.9778 114.33,99.9778" id="Fill-110" fill="#9A67A8" mask="url(#mask-2)"></path>
                <path d="M114.33,110.2044 L104.023,110.2044 C103.057,110.2044 102.273,109.4204 102.273,108.4544 C102.273,107.4884 103.057,106.7044 104.023,106.7044 L114.33,106.7044 C115.297,106.7044 116.08,107.4884 116.08,108.4544 C116.08,109.4204 115.297,110.2044 114.33,110.2044" id="Fill-111" fill="#9A67A8" mask="url(#mask-2)"></path>
                <path d="M114.33,120.4309 L104.023,120.4309 C103.057,120.4309 102.273,119.6469 102.273,118.6809 C102.273,117.7149 103.057,116.9309 104.023,116.9309 L114.33,116.9309 C115.297,116.9309 116.08,117.7149 116.08,118.6809 C116.08,119.6469 115.297,120.4309 114.33,120.4309" id="Fill-112" fill="#9A67A8" mask="url(#mask-2)"></path>
                <path d="M114.33,130.657 L104.023,130.657 C103.057,130.657 102.273,129.873 102.273,128.907 C102.273,127.941 103.057,127.157 104.023,127.157 L114.33,127.157 C115.297,127.157 116.08,127.941 116.08,128.907 C116.08,129.873 115.297,130.657 114.33,130.657" id="Fill-113" fill="#9A67A8" mask="url(#mask-2)"></path>
                <path d="M114.33,140.8836 L104.023,140.8836 C103.057,140.8836 102.273,140.0996 102.273,139.1336 C102.273,138.1676 103.057,137.3836 104.023,137.3836 L114.33,137.3836 C115.297,137.3836 116.08,138.1676 116.08,139.1336 C116.08,140.0996 115.297,140.8836 114.33,140.8836" id="Fill-114" fill="#9A67A8" mask="url(#mask-2)"></path>
                <path d="M114.33,151.1097 L104.023,151.1097 C103.057,151.1097 102.273,150.3257 102.273,149.3597 C102.273,148.3937 103.057,147.6097 104.023,147.6097 L114.33,147.6097 C115.297,147.6097 116.08,148.3937 116.08,149.3597 C116.08,150.3257 115.297,151.1097 114.33,151.1097" id="Fill-115" fill="#9A67A8" mask="url(#mask-2)"></path>
                <path d="M104.3239,161.3362 L104.0229,161.3362 C103.0569,161.3362 102.2729,160.5522 102.2729,159.5862 C102.2729,158.6202 103.0569,157.8362 104.0229,157.8362 L104.3239,157.8362 C105.2909,157.8362 106.0739,158.6202 106.0739,159.5862 C106.0739,160.5522 105.2909,161.3362 104.3239,161.3362" id="Fill-116" fill="#9A67A8" mask="url(#mask-2)"></path>
                <path d="M174.1307,147.052 C173.6177,147.052 173.1017,146.991 172.5907,146.869 C171.6507,146.644 171.0707,145.7 171.2957,144.76 C171.5197,143.821 172.4647,143.239 173.4047,143.465 C174.2017,143.656 175.0257,143.525 175.7247,143.095 C176.4237,142.667 176.9137,141.991 177.1047,141.194 C177.2947,140.396 177.1637,139.572 176.7347,138.873 C176.3057,138.174 175.6297,137.684 174.8327,137.494 C173.8927,137.269 173.3127,136.325 173.5367,135.385 C173.7617,134.445 174.7057,133.864 175.6457,134.09 C177.3527,134.497 178.7987,135.546 179.7167,137.041 C180.6357,138.537 180.9167,140.301 180.5087,142.007 C180.0997,143.714 179.0517,145.16 177.5567,146.078 C176.5087,146.721 175.3297,147.052 174.1307,147.052" id="Fill-117" fill="#EC6A5A" mask="url(#mask-2)"></path>
                <path d="M172.6718,146.8889 L168.3868,145.8649 C164.8638,145.0219 162.6828,141.4699 163.5248,137.9469 C163.9328,136.2399 164.9808,134.7939 166.4768,133.8759 C167.9718,132.9569 169.7348,132.6769 171.4428,133.0839 L175.7268,134.1089 C176.6668,134.3329 177.2468,135.2779 177.0228,136.2179 C176.7978,137.1579 175.8528,137.7359 174.9138,137.5129 L170.6288,136.4889 C169.8308,136.2979 169.0068,136.4289 168.3078,136.8579 C167.6098,137.2869 167.1198,137.9629 166.9288,138.7609 C166.5358,140.4069 167.5548,142.0669 169.2008,142.4599 L173.4858,143.4849 L172.6718,146.8889 Z" id="Fill-118" fill="#EC6A5A" mask="url(#mask-2)"></path>
                <path d="M167.0287,150.0989 C166.8477,150.0989 166.6627,150.0709 166.4807,150.0109 C162.5257,148.7069 159.6287,145.3499 158.9207,141.2489 C158.4107,138.2929 159.0817,135.3149 160.8117,132.8629 C162.5407,130.4119 165.1217,128.7809 168.0787,128.2699 C169.6647,127.9959 171.2547,128.0609 172.8037,128.4629 C173.7387,128.7049 174.3007,129.6609 174.0577,130.5959 C173.8147,131.5319 172.8597,132.0929 171.9237,131.8499 C170.8617,131.5739 169.7677,131.5309 168.6737,131.7199 C166.6387,132.0709 164.8617,133.1939 163.6717,134.8809 C162.4807,136.5689 162.0187,138.6189 162.3697,140.6539 C162.8577,143.4769 164.8517,145.7889 167.5757,146.6859 C168.4937,146.9889 168.9927,147.9779 168.6907,148.8959 C168.4477,149.6319 167.7637,150.0989 167.0287,150.0989" id="Fill-119" fill="#EC6A5A" mask="url(#mask-2)"></path>
                <path d="M196.5677,160.615 C196.3727,160.615 196.1747,160.582 195.9807,160.513 L166.4407,149.995 C165.5297,149.671 165.0547,148.67 165.3787,147.76 C165.7027,146.849 166.7037,146.373 167.6137,146.698 L197.1547,157.216 C198.0657,157.54 198.5407,158.541 198.2167,159.451 C197.9617,160.168 197.2867,160.615 196.5677,160.615" id="Fill-120" fill="#EC6A5A" mask="url(#mask-2)"></path>
                <path d="M201.5763,136.1165 C201.4923,136.1165 201.4073,136.1105 201.3213,136.0975 L171.1313,131.6905 C170.1743,131.5515 169.5123,130.6625 169.6523,129.7065 C169.7913,128.7495 170.6803,128.0855 171.6363,128.2275 L201.8263,132.6355 C202.7833,132.7745 203.4453,133.6625 203.3053,134.6195 C203.1783,135.4905 202.4303,136.1165 201.5763,136.1165" id="Fill-121" fill="#EC6A5A" mask="url(#mask-2)"></path>
                <path d="M121.1427,167.7044 C120.9167,167.7044 120.6897,167.6924 120.4617,167.6694 C118.7157,167.4914 117.1437,166.6424 116.0357,165.2824 C113.7487,162.4734 114.1727,158.3274 116.9817,156.0384 C117.7307,155.4294 118.8327,155.5414 119.4437,156.2904 C120.0537,157.0394 119.9407,158.1424 119.1917,158.7524 C117.8797,159.8214 117.6807,161.7594 118.7497,163.0724 C119.2677,163.7074 120.0027,164.1044 120.8187,164.1874 C121.6297,164.2694 122.4337,164.0314 123.0687,163.5144 C123.8187,162.9054 124.9207,163.0164 125.5307,163.7664 C126.1417,164.5154 126.0287,165.6174 125.2797,166.2274 C124.0967,167.1914 122.6487,167.7044 121.1427,167.7044" id="Fill-122" fill="#EC6A5A" mask="url(#mask-2)"></path>
                <path d="M125.2145,166.2806 L123.0045,163.5666 L126.4205,160.7846 C127.0565,160.2666 127.4525,159.5316 127.5365,158.7166 C127.6195,157.9006 127.3805,157.1006 126.8625,156.4656 C126.3445,155.8296 125.6105,155.4336 124.7945,155.3496 C123.9785,155.2686 123.1785,155.5056 122.5435,156.0236 L119.1265,158.8056 C118.3775,159.4166 117.2755,159.3036 116.6645,158.5536 C116.0545,157.8036 116.1675,156.7016 116.9165,156.0916 L120.3325,153.3096 C121.6935,152.2016 123.4035,151.6916 125.1505,151.8676 C126.8965,152.0466 128.4675,152.8946 129.5765,154.2556 C130.6845,155.6156 131.1965,157.3266 131.0175,159.0726 C130.8395,160.8186 129.9915,162.3896 128.6305,163.4986 L125.2145,166.2806 Z" id="Fill-123" fill="#EC6A5A" mask="url(#mask-2)"></path>
                <path d="M130.9325,166.8968 C130.4735,166.8968 130.0155,166.7178 129.6725,166.3608 C129.0015,165.6658 129.0215,164.5578 129.7175,163.8868 C131.7825,161.8968 132.5775,158.9488 131.7915,156.1928 C131.2245,154.2068 129.9185,152.5608 128.1145,151.5568 C126.3095,150.5528 124.2215,150.3118 122.2355,150.8788 C121.1685,151.1828 120.2015,151.6968 119.3635,152.4068 C118.6255,153.0308 117.5215,152.9388 116.8965,152.2018 C116.2725,151.4638 116.3645,150.3598 117.1015,149.7348 C118.3225,148.7018 119.7265,147.9538 121.2755,147.5128 C124.1605,146.6888 127.1925,147.0398 129.8155,148.4978 C132.4375,149.9558 134.3345,152.3478 135.1575,155.2328 C136.2985,159.2348 135.1445,163.5168 132.1465,166.4068 C131.8075,166.7338 131.3695,166.8968 130.9325,166.8968" id="Fill-124" fill="#EC6A5A" mask="url(#mask-2)"></path>
                <path d="M108.8807,189.1878 C108.4357,189.1878 107.9907,189.0198 107.6497,188.6818 C106.9627,188.0018 106.9567,186.8948 107.6367,186.2078 L129.6887,163.9138 C130.3687,163.2268 131.4767,163.2208 132.1627,163.8998 C132.8497,164.5798 132.8567,165.6878 132.1767,166.3748 L110.1247,188.6678 C109.7827,189.0148 109.3317,189.1878 108.8807,189.1878" id="Fill-125" fill="#EC6A5A" mask="url(#mask-2)"></path>
                <path d="M93.7428,169.2879 C93.1808,169.2879 92.6288,169.0179 92.2908,168.5169 C91.7498,167.7159 91.9608,166.6279 92.7618,166.0869 L118.0508,149.0179 C118.8518,148.4759 119.9398,148.6889 120.4808,149.4899 C121.0208,150.2909 120.8098,151.3779 120.0088,151.9189 L94.7198,168.9889 C94.4198,169.1909 94.0798,169.2879 93.7428,169.2879" id="Fill-126" fill="#EC6A5A" mask="url(#mask-2)"></path>
                <path d="M170.8466,207.4783 C170.3366,207.4783 169.8316,207.2563 169.4856,206.8303 L149.7516,182.4613 C149.1426,181.7103 149.2586,180.6083 150.0096,180.0003 C150.7606,179.3923 151.8626,179.5083 152.4706,180.2583 L172.2056,204.6263 C172.8136,205.3783 172.6986,206.4793 171.9466,207.0883 C171.6226,207.3513 171.2336,207.4783 170.8466,207.4783" id="Fill-127" fill="#F08650" mask="url(#mask-2)"></path>
            </g>
        </g>
    </g>
</svg>