<?xml version="1.0" encoding="UTF-8" standalone="no"?>
<svg width="300px" height="233px" viewBox="0 0 300 233" version="1.1" xmlns="http://www.w3.org/2000/svg" xmlns:xlink="http://www.w3.org/1999/xlink">
    <!-- Generator: Sketch 3.8.2 (29753) - http://www.bohemiancoding.com/sketch -->
    <title>Page 1</title>
    <desc>Created with Sketch.</desc>
    <defs>
        <polygon id="path-1" points="0 232.614673 299.6355 232.614673 299.6355 0 0 0"></polygon>
    </defs>
    <g id="Page-1" stroke="none" stroke-width="1" fill="none" fill-rule="evenodd">
        <g id="Home-Copy-14" transform="translate(-490.000000, -300.000000)">
            <g id="Page-1" transform="translate(490.000000, 300.000000)">
                <path d="M107.7169,143.603362 C92.3504,149.568663 83.7784,166.402286 88.3869,182.596037 L107.7169,143.603362 L107.7169,143.603362 Z" id="Stroke-1" stroke="#EC6A5A" stroke-width="3.5" stroke-linecap="round"></path>
                <mask id="mask-2" fill="white">
                    <use xlink:href="#path-1"></use>
                </mask>
                <g id="Clip-4"></g>
                <polygon id="Stroke-3" stroke="#80B9C2" stroke-width="3.5" stroke-linecap="round" stroke-linejoin="round" mask="url(#mask-2)" points="135.178 32.2742581 164.85 32.2742581 164.85 20.2940495 135.178 20.2940495"></polygon>
                <polygon id="Stroke-5" stroke="#80B9C2" stroke-width="3.5" stroke-linecap="round" stroke-linejoin="round" mask="url(#mask-2)" points="206.795 47.9148215 296.238 47.9148215 296.238 42.9376409 206.795 42.9376409"></polygon>
                <polygon id="Stroke-6" stroke="#80B9C2" stroke-width="3.5" stroke-linecap="round" stroke-linejoin="round" mask="url(#mask-2)" points="276.028 89.1538172 282.2645 89.1538172 282.2645 78.0084 276.028 78.0084"></polygon>
                <polygon id="Stroke-7" stroke="#80B9C2" stroke-width="3.5" stroke-linecap="round" stroke-linejoin="round" mask="url(#mask-2)" points="276.028 105.56754 282.2645 105.56754 282.2645 94.4221226 276.028 94.4221226"></polygon>
                <polygon id="Stroke-8" stroke="#80B9C2" stroke-width="3.5" stroke-linecap="round" stroke-linejoin="round" mask="url(#mask-2)" points="245.6435 89.1538172 251.88 89.1538172 251.88 78.0084 245.6435 78.0084"></polygon>
                <polygon id="Stroke-9" stroke="#80B9C2" stroke-width="3.5" stroke-linecap="round" stroke-linejoin="round" mask="url(#mask-2)" points="245.6435 105.56754 251.88 105.56754 251.88 94.4221226 245.6435 94.4221226"></polygon>
                <polygon id="Stroke-10" stroke="#80B9C2" stroke-width="3.5" stroke-linecap="round" stroke-linejoin="round" mask="url(#mask-2)" points="215.6835 89.1538172 221.9215 89.1538172 221.9215 78.0084 215.6835 78.0084"></polygon>
                <polygon id="Stroke-11" stroke="#80B9C2" stroke-width="3.5" stroke-linecap="round" stroke-linejoin="round" mask="url(#mask-2)" points="215.6835 105.56754 221.9215 105.56754 221.9215 94.4221226 215.6835 94.4221226"></polygon>
                <polygon id="Stroke-12" stroke="#80B9C2" stroke-width="3.5" stroke-linecap="round" stroke-linejoin="round" mask="url(#mask-2)" points="182.712 89.1538172 188.949 89.1538172 188.949 78.0084 182.712 78.0084"></polygon>
                <polygon id="Stroke-13" stroke="#80B9C2" stroke-width="3.5" stroke-linecap="round" stroke-linejoin="round" mask="url(#mask-2)" points="182.712 105.56754 188.949 105.56754 188.949 94.4221226 182.712 94.4221226"></polygon>
                <polygon id="Stroke-14" stroke="#80B9C2" stroke-width="3.5" stroke-linecap="round" stroke-linejoin="round" mask="url(#mask-2)" points="190.2802 43.607328 185.8292 40.4345194 181.3782 43.607328 181.3782 56.3040742 190.2822 56.3040742 190.2822 43.607328"></polygon>
                <polygon id="Stroke-15" stroke="#80B9C2" stroke-width="3.5" stroke-linecap="round" stroke-linejoin="round" mask="url(#mask-2)" points="290.963 112.412228 297.8455 112.412228 297.8455 63.3699871 290.963 63.3699871"></polygon>
                <polygon id="Stroke-16" stroke="#80B9C2" stroke-width="3.5" stroke-linecap="round" stroke-linejoin="round" mask="url(#mask-2)" points="260.578 112.412228 267.4605 112.412228 267.4605 63.3699871 260.578 63.3699871"></polygon>
                <polygon id="Stroke-17" stroke="#80B9C2" stroke-width="3.5" stroke-linecap="round" stroke-linejoin="round" mask="url(#mask-2)" points="230.067 112.412228 236.9495 112.412228 236.9495 63.3699871 230.067 63.3699871"></polygon>
                <polygon id="Stroke-18" stroke="#80B9C2" stroke-width="3.5" stroke-linecap="round" stroke-linejoin="round" mask="url(#mask-2)" points="199.927 112.412228 206.8095 112.412228 206.8095 72.2189763 199.927 72.2189763"></polygon>
                <polygon id="Stroke-19" stroke="#80B9C2" stroke-width="3.5" stroke-linecap="round" stroke-linejoin="round" mask="url(#mask-2)" points="164.851 112.412228 171.7335 112.412228 171.7335 72.2189763 164.851 72.2189763"></polygon>
                <polygon id="Stroke-20" stroke="#80B9C2" stroke-width="3.5" stroke-linecap="round" stroke-linejoin="round" mask="url(#mask-2)" points="2.183 70.5218344 297.8855 70.5218344 297.8855 63.6470817 2.183 63.6470817"></polygon>
                <polygon id="Fill-21" fill="#80B9C2" mask="url(#mask-2)" points="288.86 70.5218344 297.8855 70.5218344 297.8855 63.6470817 288.86 63.6470817"></polygon>
                <polygon id="Fill-22" fill="#80B9C2" mask="url(#mask-2)" points="258.601 72.2219828 269.437 72.2219828 269.437 62.0656882 258.601 62.0656882"></polygon>
                <polygon id="Fill-23" fill="#80B9C2" mask="url(#mask-2)" points="228.0905 72.2219828 238.9255 72.2219828 238.9255 62.0656882 228.0905 62.0656882"></polygon>
                <polygon id="Fill-24" fill="#80B9C2" mask="url(#mask-2)" points="197.95 70.5068022 208.786 70.5068022 208.786 63.5704172 197.95 63.5704172"></polygon>
                <path d="M267.46045,39.2702209 C267.46045,37.3656338 265.91995,35.8213198 264.01895,35.8213198 C262.11845,35.8213198 260.57795,37.3656338 260.57795,39.2702209 C260.57795,39.3002854 260.58145,39.3288467 260.58245,39.3589112 L260.57795,39.3589112 L260.57795,63.3704381 L267.46045,63.3704381 L267.46045,39.3589112 L267.45595,39.3589112 C267.45695,39.3288467 267.46045,39.3002854 267.46045,39.2702209 L267.46045,39.2702209 Z" id="Stroke-25" stroke="#80B9C2" stroke-width="3.5" stroke-linecap="round" stroke-linejoin="round" mask="url(#mask-2)"></path>
                <polygon id="Fill-26" fill="#80B9C2" mask="url(#mask-2)" points="260.578 48.2750946 267.4605 48.2750946 267.4605 42.5778688 260.578 42.5778688"></polygon>
                <polygon id="Stroke-27" stroke="#80B9C2" stroke-width="3.5" stroke-linecap="round" stroke-linejoin="round" mask="url(#mask-2)" points="260.578 48.2750946 267.4605 48.2750946 267.4605 42.5778688 260.578 42.5778688"></polygon>
                <path d="M236.94925,39.2702209 C236.94925,37.3656338 235.40825,35.8213198 233.50775,35.8213198 C231.60725,35.8213198 230.06675,37.3656338 230.06675,39.2702209 C230.06675,39.3002854 230.07025,39.3288467 230.07125,39.3589112 L230.06675,39.3589112 L230.06675,63.3704381 L236.94925,63.3704381 L236.94925,39.3589112 L236.94475,39.3589112 C236.94575,39.3288467 236.94925,39.3002854 236.94925,39.2702209 L236.94925,39.2702209 Z" id="Stroke-28" stroke="#80B9C2" stroke-width="3.5" stroke-linecap="round" stroke-linejoin="round" mask="url(#mask-2)"></path>
                <path d="M206.8103,15.3732899 C206.8103,13.4687028 205.2693,11.9243888 203.3688,11.9243888 C201.4683,11.9243888 199.9278,13.4687028 199.9278,15.3732899 C199.9278,15.4033544 199.9313,15.4319157 199.9323,15.4619802 L199.9278,15.4619802 L199.9278,63.3702877 L206.8103,63.3702877 L206.8103,15.4619802 L206.8058,15.4619802 C206.8068,15.4319157 206.8103,15.4033544 206.8103,15.3732899 L206.8103,15.3732899 Z" id="Stroke-29" stroke="#80B9C2" stroke-width="3.5" stroke-linecap="round" stroke-linejoin="round" mask="url(#mask-2)"></path>
                <polygon id="Fill-30" fill="#80B9C2" mask="url(#mask-2)" points="230.0665 48.2750946 236.949 48.2750946 236.949 42.5778688 230.0665 42.5778688"></polygon>
                <polygon id="Stroke-31" stroke="#80B9C2" stroke-width="3.5" stroke-linecap="round" stroke-linejoin="round" mask="url(#mask-2)" points="230.0665 48.2750946 236.949 48.2750946 236.949 42.5778688 230.0665 42.5778688"></polygon>
                <polygon id="Stroke-32" stroke="#80B9C2" stroke-width="3.5" stroke-linecap="round" stroke-linejoin="round" mask="url(#mask-2)" points="199.927 32.2742581 206.8095 32.2742581 206.8095 20.2940495 199.927 20.2940495"></polygon>
                <path d="M297.84535,39.2702209 C297.84535,37.3656338 296.30435,35.8213198 294.40385,35.8213198 C292.50335,35.8213198 290.96285,37.3656338 290.96285,39.2702209 C290.96285,39.3002854 290.96635,39.3288467 290.96735,39.3589112 L290.96285,39.3589112 L290.96285,63.3704381 L297.84535,63.3704381 L297.84535,39.3589112 L297.84085,39.3589112 C297.84185,39.3288467 297.84535,39.3002854 297.84535,39.2702209 L297.84535,39.2702209 Z" id="Stroke-33" stroke="#80B9C2" stroke-width="3.5" stroke-linecap="round" stroke-linejoin="round" mask="url(#mask-2)"></path>
                <polygon id="Fill-34" fill="#80B9C2" mask="url(#mask-2)" points="290.963 48.2750946 297.8455 48.2750946 297.8455 42.5778688 290.963 42.5778688"></polygon>
                <path d="M171.73375,15.3732899 C171.73375,13.4687028 170.19325,11.9243888 168.29225,11.9243888 C166.39175,11.9243888 164.85125,13.4687028 164.85125,15.3732899 C164.85125,15.4033544 164.85475,15.4319157 164.85575,15.4619802 L164.85125,15.4619802 L164.85125,64.3729394 L171.73375,64.3729394 L171.73375,15.4619802 L171.72925,15.4619802 C171.73025,15.4319157 171.73375,15.4033544 171.73375,15.3732899 L171.73375,15.3732899 Z" id="Stroke-35" stroke="#80B9C2" stroke-width="3.5" stroke-linecap="round" stroke-linejoin="round" mask="url(#mask-2)"></path>
                <polygon id="Stroke-36" stroke="#80B9C2" stroke-width="3.5" stroke-linecap="round" stroke-linejoin="round" mask="url(#mask-2)" points="164.8505 32.2742581 171.733 32.2742581 171.733 20.2940495 164.8505 20.2940495"></polygon>
                <polygon id="Fill-37" fill="#80B9C2" mask="url(#mask-2)" points="162.8745 72.2219828 173.7095 72.2219828 173.7095 63.5699161 162.8745 63.5699161"></polygon>
                <path d="M150.02575,112.412078 L158.28525,112.412078 L158.28525,85.8676153 C158.28525,81.3378948 154.52275,77.6655142 150.00275,77.6655142" id="Stroke-38" stroke="#80B9C2" stroke-width="3.5" stroke-linecap="round" stroke-linejoin="round" mask="url(#mask-2)"></path>
                <polyline id="Stroke-39" stroke="#80B9C2" stroke-width="3.5" stroke-linecap="round" stroke-linejoin="round" mask="url(#mask-2)" points="150.0025 20.510514 167.563 32.2742581 150.0025 32.2742581"></polyline>
                <polygon id="Stroke-40" stroke="#80B9C2" stroke-width="3.5" stroke-linecap="round" stroke-linejoin="round" mask="url(#mask-2)" points="100.1015 63.6470817 200.016 63.6470817 200.016 32.2742581 100.1015 32.2742581"></polygon>
                <polyline id="Stroke-41" stroke="#80B9C2" stroke-width="3.5" stroke-linecap="round" stroke-linejoin="round" mask="url(#mask-2)" points="1.75 112.412178 297.8855 112.412178 297.8855 70.506752 2.3335 70.506752"></polyline>
                <path d="M93.018,42.9379415 L10.266,42.9379415" id="Stroke-42" stroke="#80B9C2" stroke-width="3.5" stroke-linecap="round" stroke-linejoin="round" mask="url(#mask-2)"></path>
                <path d="M10.266,47.9149217 L93.018,47.9149217" id="Stroke-43" stroke="#80B9C2" stroke-width="3.5" stroke-linecap="round" stroke-linejoin="round" mask="url(#mask-2)"></path>
                <polygon id="Stroke-44" stroke="#80B9C2" stroke-width="3.5" stroke-linecap="round" stroke-linejoin="round" mask="url(#mask-2)" points="17.7635 89.1538172 24 89.1538172 24 78.0084 17.7635 78.0084"></polygon>
                <polygon id="Stroke-45" stroke="#80B9C2" stroke-width="3.5" stroke-linecap="round" stroke-linejoin="round" mask="url(#mask-2)" points="17.7635 105.56754 24 105.56754 24 94.4221226 17.7635 94.4221226"></polygon>
                <polygon id="Stroke-46" stroke="#80B9C2" stroke-width="3.5" stroke-linecap="round" stroke-linejoin="round" mask="url(#mask-2)" points="48.1485 89.1538172 54.385 89.1538172 54.385 78.0084 48.1485 78.0084"></polygon>
                <polygon id="Stroke-47" stroke="#80B9C2" stroke-width="3.5" stroke-linecap="round" stroke-linejoin="round" mask="url(#mask-2)" points="48.1485 105.56754 54.385 105.56754 54.385 94.4221226 48.1485 94.4221226"></polygon>
                <polygon id="Stroke-48" stroke="#80B9C2" stroke-width="3.5" stroke-linecap="round" stroke-linejoin="round" mask="url(#mask-2)" points="78.107 89.1538172 84.345 89.1538172 84.345 78.0084 78.107 78.0084"></polygon>
                <polygon id="Stroke-49" stroke="#80B9C2" stroke-width="3.5" stroke-linecap="round" stroke-linejoin="round" mask="url(#mask-2)" points="78.107 105.56754 84.345 105.56754 84.345 94.4221226 78.107 94.4221226"></polygon>
                <polygon id="Stroke-50" stroke="#80B9C2" stroke-width="3.5" stroke-linecap="round" stroke-linejoin="round" mask="url(#mask-2)" points="111.0795 89.1538172 117.3165 89.1538172 117.3165 78.0084 111.0795 78.0084"></polygon>
                <polygon id="Stroke-51" stroke="#80B9C2" stroke-width="3.5" stroke-linecap="round" stroke-linejoin="round" mask="url(#mask-2)" points="109.74805 43.607328 114.19905 40.4345194 118.65005 43.607328 118.65005 56.3040742 109.74605 56.3040742 109.74605 43.607328"></polygon>
                <polygon id="Stroke-52" stroke="#80B9C2" stroke-width="3.5" stroke-linecap="round" stroke-linejoin="round" mask="url(#mask-2)" points="145.08945 43.607328 149.54045 40.4345194 153.99145 43.607328 153.99145 56.3040742 145.08745 56.3040742 145.08745 43.607328"></polygon>
                <polygon id="Stroke-53" stroke="#80B9C2" stroke-width="3.5" stroke-linecap="round" stroke-linejoin="round" mask="url(#mask-2)" points="2.183 112.412228 9.0655 112.412228 9.0655 66.5237548 2.183 66.5237548"></polygon>
                <polygon id="Stroke-54" stroke="#80B9C2" stroke-width="3.5" stroke-linecap="round" stroke-linejoin="round" mask="url(#mask-2)" points="32.568 112.412228 39.4505 112.412228 39.4505 63.3699871 32.568 63.3699871"></polygon>
                <polygon id="Stroke-55" stroke="#80B9C2" stroke-width="3.5" stroke-linecap="round" stroke-linejoin="round" mask="url(#mask-2)" points="63.079 112.412228 69.9615 112.412228 69.9615 63.3699871 63.079 63.3699871"></polygon>
                <polygon id="Stroke-56" stroke="#80B9C2" stroke-width="3.5" stroke-linecap="round" stroke-linejoin="round" mask="url(#mask-2)" points="93.219 112.412228 100.1015 112.412228 100.1015 70.3264151 93.219 70.3264151"></polygon>
                <polygon id="Stroke-57" stroke="#80B9C2" stroke-width="3.5" stroke-linecap="round" stroke-linejoin="round" mask="url(#mask-2)" points="128.295 112.412228 135.1775 112.412228 135.1775 72.2189763 128.295 72.2189763"></polygon>
                <polygon id="Fill-58" fill="#80B9C2" mask="url(#mask-2)" points="0.332 72.2219828 11.168 72.2219828 11.168 61.5646129 0.332 61.5646129"></polygon>
                <polygon id="Fill-59" fill="#80B9C2" mask="url(#mask-2)" points="30.591 72.2219828 41.427 72.2219828 41.427 62.0656882 30.591 62.0656882"></polygon>
                <polygon id="Fill-60" fill="#80B9C2" mask="url(#mask-2)" points="61.1025 72.2219828 71.9375 72.2219828 71.9375 62.0656882 61.1025 62.0656882"></polygon>
                <polygon id="Fill-61" fill="#80B9C2" mask="url(#mask-2)" points="91.242 72.2219828 102.078 72.2219828 102.078 61.0630366 91.242 61.0630366"></polygon>
                <path d="M32.5678,39.2702209 C32.5678,37.3656338 34.1083,35.8213198 36.0093,35.8213198 C37.9098,35.8213198 39.4503,37.3656338 39.4503,39.2702209 C39.4503,39.3002854 39.4468,39.3288467 39.4458,39.3589112 L39.4503,39.3589112 L39.4503,65.3762424 L32.5678,65.3762424 L32.5678,39.3589112 L32.5723,39.3589112 C32.5713,39.3288467 32.5678,39.3002854 32.5678,39.2702209 L32.5678,39.2702209 Z" id="Stroke-62" stroke="#80B9C2" stroke-width="3.5" stroke-linecap="round" stroke-linejoin="round" mask="url(#mask-2)"></path>
                <polygon id="Fill-63" fill="#80B9C2" mask="url(#mask-2)" points="32.568 48.2750946 39.4505 48.2750946 39.4505 42.5778688 32.568 42.5778688"></polygon>
                <polygon id="Stroke-64" stroke="#80B9C2" stroke-width="3.5" stroke-linecap="round" stroke-linejoin="round" mask="url(#mask-2)" points="32.568 48.2750946 39.4505 48.2750946 39.4505 42.5778688 32.568 42.5778688"></polygon>
                <path d="M63.079,39.2702209 C63.079,37.3656338 64.6195,35.8213198 66.5205,35.8213198 C68.421,35.8213198 69.9615,37.3656338 69.9615,39.2702209 C69.9615,39.3002854 69.958,39.3288467 69.957,39.3589112 L69.9615,39.3589112 L69.9615,63.3704381 L63.079,63.3704381 L63.079,39.3589112 L63.0835,39.3589112 C63.0825,39.3288467 63.079,39.3002854 63.079,39.2702209 L63.079,39.2702209 Z" id="Stroke-65" stroke="#80B9C2" stroke-width="3.5" stroke-linecap="round" stroke-linejoin="round" mask="url(#mask-2)"></path>
                <path d="M93.21795,15.3732899 C93.21795,13.4687028 94.75845,11.9243888 96.65945,11.9243888 C98.55995,11.9243888 100.10045,13.4687028 100.10045,15.3732899 C100.10045,15.4033544 100.09695,15.4319157 100.09595,15.4619802 L100.10045,15.4619802 L100.10045,62.8687114 L93.21795,62.8687114 L93.21795,15.4619802 L93.22245,15.4619802 C93.22145,15.4319157 93.21795,15.4033544 93.21795,15.3732899 L93.21795,15.3732899 Z" id="Stroke-66" stroke="#80B9C2" stroke-width="3.5" stroke-linecap="round" stroke-linejoin="round" mask="url(#mask-2)"></path>
                <polygon id="Fill-67" fill="#80B9C2" mask="url(#mask-2)" points="63.079 48.2750946 69.9615 48.2750946 69.9615 42.5778688 63.079 42.5778688"></polygon>
                <polygon id="Stroke-68" stroke="#80B9C2" stroke-width="3.5" stroke-linecap="round" stroke-linejoin="round" mask="url(#mask-2)" points="63.079 48.2750946 69.9615 48.2750946 69.9615 42.5778688 63.079 42.5778688"></polygon>
                <polygon id="Stroke-69" stroke="#80B9C2" stroke-width="3.5" stroke-linecap="round" stroke-linejoin="round" mask="url(#mask-2)" points="93.219 32.2742581 100.1015 32.2742581 100.1015 20.2940495 93.219 20.2940495"></polygon>
                <path d="M2.1829,39.2702209 C2.1829,37.3656338 3.7234,35.8213198 5.6244,35.8213198 C7.5249,35.8213198 9.0654,37.3656338 9.0654,39.2702209 C9.0654,39.3002854 9.0619,39.3288467 9.0609,39.3589112 L9.0654,39.3589112 L9.0654,68.3841972 L2.1829,68.3841972 L2.1829,39.3589112 L2.1874,39.3589112 C2.1864,39.3288467 2.1829,39.3002854 2.1829,39.2702209 L2.1829,39.2702209 Z" id="Stroke-70" stroke="#80B9C2" stroke-width="3.5" stroke-linecap="round" stroke-linejoin="round" mask="url(#mask-2)"></path>
                <polygon id="Fill-71" fill="#80B9C2" mask="url(#mask-2)" points="2.183 48.2750946 9.0655 48.2750946 9.0655 42.5778688 2.183 42.5778688"></polygon>
                <polygon id="Stroke-72" stroke="#80B9C2" stroke-width="3.5" stroke-linecap="round" stroke-linejoin="round" mask="url(#mask-2)" points="2.183 48.2750946 9.0655 48.2750946 9.0655 42.5778688 2.183 42.5778688"></polygon>
                <path d="M128.2945,15.3732899 C128.2945,13.4687028 129.8355,11.9243888 131.736,11.9243888 C133.6365,11.9243888 135.177,13.4687028 135.177,15.3732899 C135.177,15.4033544 135.1735,15.4319157 135.1725,15.4619802 L135.177,15.4619802 L135.177,63.3702877 L128.2945,63.3702877 L128.2945,15.4619802 L128.299,15.4619802 C128.298,15.4319157 128.2945,15.4033544 128.2945,15.3732899 L128.2945,15.3732899 Z" id="Stroke-73" stroke="#80B9C2" stroke-width="3.5" stroke-linecap="round" stroke-linejoin="round" mask="url(#mask-2)"></path>
                <polygon id="Stroke-74" stroke="#80B9C2" stroke-width="3.5" stroke-linecap="round" stroke-linejoin="round" mask="url(#mask-2)" points="128.2955 32.2742581 135.178 32.2742581 135.178 20.2940495 128.2955 20.2940495"></polygon>
                <polygon id="Fill-75" fill="#80B9C2" mask="url(#mask-2)" points="126.3185 70.3264151 137.1535 70.3264151 137.1535 63.5704172 126.3185 63.5704172"></polygon>
                <path d="M150.0025,112.412078 L141.743,112.412078 L141.743,85.8676153 C141.743,81.3378948 145.5055,77.6655142 150.0255,77.6655142" id="Stroke-76" stroke="#80B9C2" stroke-width="3.5" stroke-linecap="round" stroke-linejoin="round" mask="url(#mask-2)"></path>
                <polyline id="Stroke-77" stroke="#80B9C2" stroke-width="3.5" stroke-linecap="round" stroke-linejoin="round" mask="url(#mask-2)" points="150.02575 20.510514 132.46525 32.2742581 150.02575 32.2742581"></polyline>
                <polygon id="Stroke-78" stroke="#80B9C2" stroke-width="3.5" stroke-linecap="round" stroke-linejoin="round" mask="url(#mask-2)" points="150.6115 9.13309892 163.3485 9.13309892 163.3485 1.75326237 150.6115 1.75326237"></polygon>
                <polygon id="Stroke-79" stroke="#80B9C2" stroke-width="3.5" stroke-linecap="round" stroke-linejoin="round" mask="url(#mask-2)" points="149.5395 20.2940495 150.5765 20.2940495 150.5765 1.75376344 149.5395 1.75376344"></polygon>
                <path d="M181.7442,165.697173 C192.6547,174.310156 197.1332,189.3825 191.7572,202.986694" id="Stroke-80" stroke="#F08650" stroke-width="3.5" stroke-linecap="round" mask="url(#mask-2)"></path>
                <path d="M182.14135,160.790143 C182.70585,161.370889 183.39785,161.84641 184.19685,162.168601 C187.26935,163.408763 190.76285,161.917563 192.00035,158.838455 C192.06785,158.669593 192.25085,158.214115 192.52035,157.543175" id="Stroke-81" stroke="#F08650" stroke-width="3.5" stroke-linecap="round" mask="url(#mask-2)"></path>
                <path d="M182.02355,153.935834 L182.02355,171.514557 C182.02355,174.683357 180.88055,177.584082 178.98555,179.825892" id="Stroke-82" stroke="#9A67A8" stroke-width="3.5" mask="url(#mask-2)"></path>
                <path d="M200.65335,134.592675 C206.49185,134.773564 211.59535,139.039718 212.62785,145.03308 C213.80735,151.882779 209.22335,158.393751 202.38885,159.576288 C200.37735,159.924035 198.39485,159.771708 196.56885,159.209" id="Stroke-83" stroke="#EC6A5A" stroke-width="3.5" stroke-linecap="round" mask="url(#mask-2)"></path>
                <path d="M182.10475,118.76 C197.05925,119.267589 210.11575,130.211073 212.76175,145.570032" id="Stroke-84" stroke="#EC6A5A" stroke-width="3.5" stroke-linecap="round" mask="url(#mask-2)"></path>
                <path d="M205.80165,129.707743 L242.90565,147.259908" id="Stroke-85" stroke="#EC6A5A" stroke-width="3.5" stroke-linecap="round" mask="url(#mask-2)"></path>
                <path d="M192.4786,158.802077 L231.3771,184.380466" id="Stroke-86" stroke="#EC6A5A" stroke-width="3.5" stroke-linecap="round" mask="url(#mask-2)"></path>
                <g id="Group-89" mask="url(#mask-2)">
                    <g transform="translate(108.500000, 87.803920)">
                        <path d="M0.02355,69.7393553 L0.02355,0.10292086 L60.82855,0.10292086 C67.83955,0.10292086 73.52355,5.79914452 73.52355,12.8252219 L73.52355,43.7515875" id="Fill-87" stroke="none" fill="#FEFEFE" fill-rule="evenodd"></path>
                        <path d="M0.02355,69.7393553 L0.02355,0.10292086 L60.82855,0.10292086 C67.83955,0.10292086 73.52355,5.79914452 73.52355,12.8252219 L73.52355,43.7515875" id="Stroke-88" stroke="#9A67A8" stroke-width="3.5" fill="none"></path>
                    </g>
                </g>
                <path d="M123.45675,112.716631 L125.00625,112.716631 C125.65275,112.716631 126.13775,112.625937 126.46125,112.444046 C126.78475,112.262156 126.94625,111.903887 126.94625,111.36924 C126.94625,110.834592 126.77475,110.481835 126.43225,110.310969 C126.08975,110.140102 125.54175,110.054919 124.78925,110.054919 L123.45675,110.054919 L123.45675,112.716631 Z M123.45675,108.021055 L124.52825,108.021055 C125.15575,108.021055 125.62175,107.943889 125.92525,107.789057 C126.22975,107.634726 126.38175,107.301511 126.38175,106.788911 C126.38175,106.27581 126.24175,105.937584 125.96175,105.772229 C125.68175,105.606874 125.20875,105.524197 124.54275,105.524197 L123.45675,105.524197 L123.45675,108.021055 Z M125.62875,114.899315 L121.19775,114.899315 L121.19775,103.341012 L125.13625,103.341012 C125.82175,103.341012 126.41325,103.435214 126.91025,103.622616 C127.40725,103.810018 127.78125,104.063061 128.03225,104.382747 C128.48625,104.978526 128.71325,105.650468 128.71325,106.400577 C128.71325,107.304016 128.45675,107.97696 127.94575,108.417906 C127.77175,108.572238 127.65125,108.668444 127.58325,108.707027 C127.51575,108.74561 127.39525,108.808745 127.22175,108.897435 C127.84875,109.051767 128.34875,109.373958 128.72025,109.864511 C129.09175,110.355063 129.27775,110.964371 129.27775,111.691431 C129.27775,112.496659 129.03625,113.207184 128.55375,113.82501 C127.99375,114.541547 127.01875,114.899315 125.62875,114.899315 L125.62875,114.899315 Z" id="Fill-90" fill="#9A67A8" mask="url(#mask-2)"></path>
                <path d="M123.45675,112.716631 L125.00625,112.716631 C125.65275,112.716631 126.13775,112.625937 126.46125,112.444046 C126.78475,112.262156 126.94625,111.903887 126.94625,111.36924 C126.94625,110.834592 126.77475,110.481835 126.43225,110.310969 C126.08975,110.140102 125.54175,110.054919 124.78925,110.054919 L123.45675,110.054919 L123.45675,112.716631 L123.45675,112.716631 Z M123.45675,108.021055 L124.52825,108.021055 C125.15575,108.021055 125.62175,107.943889 125.92525,107.789057 C126.22975,107.634726 126.38175,107.301511 126.38175,106.788911 C126.38175,106.27581 126.24175,105.937584 125.96175,105.772229 C125.68175,105.606874 125.20875,105.524197 124.54275,105.524197 L123.45675,105.524197 L123.45675,108.021055 L123.45675,108.021055 Z M125.62875,114.899315 L121.19775,114.899315 L121.19775,103.341012 L125.13625,103.341012 C125.82175,103.341012 126.41325,103.435214 126.91025,103.622616 C127.40725,103.810018 127.78125,104.063061 128.03225,104.382747 C128.48625,104.978526 128.71325,105.650468 128.71325,106.400577 C128.71325,107.304016 128.45675,107.97696 127.94575,108.417906 C127.77175,108.572238 127.65125,108.668444 127.58325,108.707027 C127.51575,108.74561 127.39525,108.808745 127.22175,108.897435 C127.84875,109.051767 128.34875,109.373958 128.72025,109.864511 C129.09175,110.355063 129.27775,110.964371 129.27775,111.691431 C129.27775,112.496659 129.03625,113.207184 128.55375,113.82501 C127.99375,114.541547 127.01875,114.899315 125.62875,114.899315 L125.62875,114.899315 Z" id="Stroke-91" stroke="#9A67A8" stroke-width="0.5" mask="url(#mask-2)"></path>
                <path d="M134.6528,108.21918 L134.6528,109.905799 L138.7653,109.905799 L138.7653,108.301857 C138.7653,107.37587 138.5813,106.656827 138.2148,106.143726 C137.8478,105.631627 137.3433,105.375077 136.7018,105.375077 C136.0593,105.375077 135.5578,105.620103 135.1958,106.111156 C134.8338,106.601208 134.6528,107.304217 134.6528,108.21918 L134.6528,108.21918 Z M132.3938,114.899515 L132.3938,108.301857 C132.3938,106.593191 132.7753,105.295406 133.5378,104.408002 C134.3003,103.520597 135.3623,103.076645 136.7233,103.076645 C138.0843,103.076645 139.1438,103.514584 139.9018,104.390965 C140.6593,105.267346 141.0383,106.538574 141.0383,108.202645 L141.0383,114.899515 L138.7653,114.899515 L138.7653,112.187696 L134.6528,112.187696 L134.6528,114.899515 L132.3938,114.899515 Z" id="Fill-92" fill="#9A67A8" mask="url(#mask-2)"></path>
                <path d="M134.6528,108.21918 L134.6528,109.905799 L138.7653,109.905799 L138.7653,108.301857 C138.7653,107.37587 138.5813,106.656827 138.2148,106.143726 C137.8478,105.631627 137.3433,105.375077 136.7018,105.375077 C136.0593,105.375077 135.5578,105.620103 135.1958,106.111156 C134.8338,106.601208 134.6528,107.304217 134.6528,108.21918 L134.6528,108.21918 Z M132.3938,114.899515 L132.3938,108.301857 C132.3938,106.593191 132.7753,105.295406 133.5378,104.408002 C134.3003,103.520597 135.3623,103.076645 136.7233,103.076645 C138.0843,103.076645 139.1438,103.514584 139.9018,104.390965 C140.6593,105.267346 141.0383,106.538574 141.0383,108.202645 L141.0383,114.899515 L138.7653,114.899515 L138.7653,112.187696 L134.6528,112.187696 L134.6528,114.899515 L132.3938,114.899515 L132.3938,114.899515 Z" id="Stroke-93" stroke="#9A67A8" stroke-width="0.5" mask="url(#mask-2)"></path>
                <path d="M147.2458,105.647762 C147.0283,105.8517 146.9198,106.121779 146.9198,106.458001 C146.9198,106.794723 147.0523,107.061796 147.3183,107.260222 C147.5833,107.458648 148.1963,107.69265 149.1573,107.96273 C150.1178,108.23331 150.8633,108.638179 151.3943,109.178338 C151.9248,109.718497 152.1908,110.506689 152.1908,111.542912 C152.1908,112.579136 151.8503,113.41994 151.1698,114.064824 C150.4893,114.709207 149.5938,115.0319 148.4838,115.0319 C146.8813,115.0319 145.4378,114.353945 144.1543,112.998035 L145.5008,111.11299 C146.5918,112.204332 147.6003,112.750003 148.5273,112.750003 C148.9423,112.750003 149.2678,112.648285 149.5048,112.443846 C149.7413,112.239908 149.8593,111.964317 149.8593,111.617072 C149.8593,111.270328 149.7338,110.994736 149.4828,110.790798 C149.2318,110.58636 148.7348,110.379917 147.9913,110.169966 C146.8138,109.850781 145.9523,109.434889 145.4068,108.921788 C144.8613,108.409689 144.5888,107.604461 144.5888,106.508108 C144.5888,105.410753 144.9338,104.564938 145.6238,103.96916 C146.3143,103.374383 147.1758,103.076745 148.2088,103.076745 C148.8843,103.076745 149.5598,103.209029 150.2358,103.473596 C150.9118,103.737663 151.5003,104.112968 152.0023,104.598009 L150.8588,106.483054 C149.9798,105.721921 149.0723,105.342106 148.1363,105.342106 C147.7598,105.342106 147.4628,105.444325 147.2458,105.647762" id="Fill-94" fill="#9A67A8" mask="url(#mask-2)"></path>
                <path d="M147.2458,105.647762 C147.0283,105.8517 146.9198,106.121779 146.9198,106.458001 C146.9198,106.794723 147.0523,107.061796 147.3183,107.260222 C147.5833,107.458648 148.1963,107.69265 149.1573,107.96273 C150.1178,108.23331 150.8633,108.638179 151.3943,109.178338 C151.9248,109.718497 152.1908,110.506689 152.1908,111.542912 C152.1908,112.579136 151.8503,113.41994 151.1698,114.064824 C150.4893,114.709207 149.5938,115.0319 148.4838,115.0319 C146.8813,115.0319 145.4378,114.353945 144.1543,112.998035 L145.5008,111.11299 C146.5918,112.204332 147.6003,112.750003 148.5273,112.750003 C148.9423,112.750003 149.2678,112.648285 149.5048,112.443846 C149.7413,112.239908 149.8593,111.964317 149.8593,111.617072 C149.8593,111.270328 149.7338,110.994736 149.4828,110.790798 C149.2318,110.58636 148.7348,110.379917 147.9913,110.169966 C146.8138,109.850781 145.9523,109.434889 145.4068,108.921788 C144.8613,108.409689 144.5888,107.604461 144.5888,106.508108 C144.5888,105.410753 144.9338,104.564938 145.6238,103.96916 C146.3143,103.374383 147.1758,103.076745 148.2088,103.076745 C148.8843,103.076745 149.5598,103.209029 150.2358,103.473596 C150.9118,103.737663 151.5003,104.112968 152.0023,104.598009 L150.8588,106.483054 C149.9798,105.721921 149.0723,105.342106 148.1363,105.342106 C147.7598,105.342106 147.4628,105.444325 147.2458,105.647762 L147.2458,105.647762 Z" id="Stroke-95" stroke="#9A67A8" stroke-width="0.5" mask="url(#mask-2)"></path>
                <path d="M159.20185,105.457905 C158.24585,105.457905 157.76835,105.777591 157.76835,106.416963 C157.76835,107.287831 158.41035,107.723266 159.69385,107.723266 L161.31585,107.723266 L161.31585,109.93852 L159.72285,109.93852 C158.76735,109.93852 158.12535,110.049257 157.79735,110.26973 C157.43985,110.490203 157.26135,110.854485 157.26135,111.361072 C157.26135,112.242965 157.89885,112.683911 159.17285,112.683911 C159.60735,112.683911 160.06785,112.595722 160.55585,112.419343 C161.04285,112.242965 161.45585,112.028003 161.79385,111.773958 L162.38735,114.072391 C161.38335,114.700739 160.24635,115.015414 158.97735,115.015414 C157.70785,115.015414 156.71835,114.703745 156.00885,114.080909 C155.29935,113.458573 154.94485,112.565657 154.94485,111.40216 C154.94485,110.239165 155.41285,109.33272 156.34935,108.682324 C155.71235,108.042952 155.39335,107.243236 155.39335,106.284178 C155.39335,105.32512 155.72385,104.550958 156.38535,103.961694 C157.04635,103.371928 157.93235,103.076795 159.04235,103.076795 C159.48635,103.076795 159.98135,103.145943 160.52685,103.283238 C161.07185,103.421535 161.52785,103.594907 161.89485,103.804356 L161.46085,106.135859 C160.58235,105.683889 159.82935,105.457905 159.20185,105.457905" id="Fill-96" fill="#9A67A8" mask="url(#mask-2)"></path>
                <path d="M159.20185,105.457905 C158.24585,105.457905 157.76835,105.777591 157.76835,106.416963 C157.76835,107.287831 158.41035,107.723266 159.69385,107.723266 L161.31585,107.723266 L161.31585,109.93852 L159.72285,109.93852 C158.76735,109.93852 158.12535,110.049257 157.79735,110.26973 C157.43985,110.490203 157.26135,110.854485 157.26135,111.361072 C157.26135,112.242965 157.89885,112.683911 159.17285,112.683911 C159.60735,112.683911 160.06785,112.595722 160.55585,112.419343 C161.04285,112.242965 161.45585,112.028003 161.79385,111.773958 L162.38735,114.072391 C161.38335,114.700739 160.24635,115.015414 158.97735,115.015414 C157.70785,115.015414 156.71835,114.703745 156.00885,114.080909 C155.29935,113.458573 154.94485,112.565657 154.94485,111.40216 C154.94485,110.239165 155.41285,109.33272 156.34935,108.682324 C155.71235,108.042952 155.39335,107.243236 155.39335,106.284178 C155.39335,105.32512 155.72385,104.550958 156.38535,103.961694 C157.04635,103.371928 157.93235,103.076795 159.04235,103.076795 C159.48635,103.076795 159.98135,103.145943 160.52685,103.283238 C161.07185,103.421535 161.52785,103.594907 161.89485,103.804356 L161.46085,106.135859 C160.58235,105.683889 159.82935,105.457905 159.20185,105.457905 L159.20185,105.457905 Z" id="Stroke-97" stroke="#9A67A8" stroke-width="0.5" mask="url(#mask-2)"></path>
                <path d="M167.8276,105.647762 C167.6101,105.8517 167.5016,106.121779 167.5016,106.458001 C167.5016,106.794723 167.6341,107.061796 167.9001,107.260222 C168.1651,107.458648 168.7781,107.69265 169.7391,107.96273 C170.6996,108.23331 171.4451,108.638179 171.9761,109.178338 C172.5066,109.718497 172.7726,110.506689 172.7726,111.542912 C172.7726,112.579136 172.4321,113.41994 171.7516,114.064824 C171.0711,114.709207 170.1756,115.0319 169.0656,115.0319 C167.4631,115.0319 166.0196,114.353945 164.7361,112.998035 L166.0826,111.11299 C167.1736,112.204332 168.1821,112.750003 169.1091,112.750003 C169.5241,112.750003 169.8496,112.648285 170.0866,112.443846 C170.3231,112.239908 170.4411,111.964317 170.4411,111.617072 C170.4411,111.270328 170.3156,110.994736 170.0646,110.790798 C169.8136,110.58636 169.3166,110.379917 168.5731,110.169966 C167.3956,109.850781 166.5341,109.434889 165.9886,108.921788 C165.4431,108.409689 165.1706,107.604461 165.1706,106.508108 C165.1706,105.410753 165.5156,104.564938 166.2056,103.96916 C166.8961,103.374383 167.7576,103.076745 168.7906,103.076745 C169.4661,103.076745 170.1416,103.209029 170.8176,103.473596 C171.4936,103.737663 172.0821,104.112968 172.5841,104.598009 L171.4406,106.483054 C170.5616,105.721921 169.6541,105.342106 168.7181,105.342106 C168.3416,105.342106 168.0446,105.444325 167.8276,105.647762" id="Fill-98" fill="#9A67A8" mask="url(#mask-2)"></path>
                <path d="M167.8276,105.647762 C167.6101,105.8517 167.5016,106.121779 167.5016,106.458001 C167.5016,106.794723 167.6341,107.061796 167.9001,107.260222 C168.1651,107.458648 168.7781,107.69265 169.7391,107.96273 C170.6996,108.23331 171.4451,108.638179 171.9761,109.178338 C172.5066,109.718497 172.7726,110.506689 172.7726,111.542912 C172.7726,112.579136 172.4321,113.41994 171.7516,114.064824 C171.0711,114.709207 170.1756,115.0319 169.0656,115.0319 C167.4631,115.0319 166.0196,114.353945 164.7361,112.998035 L166.0826,111.11299 C167.1736,112.204332 168.1821,112.750003 169.1091,112.750003 C169.5241,112.750003 169.8496,112.648285 170.0866,112.443846 C170.3231,112.239908 170.4411,111.964317 170.4411,111.617072 C170.4411,111.270328 170.3156,110.994736 170.0646,110.790798 C169.8136,110.58636 169.3166,110.379917 168.5731,110.169966 C167.3956,109.850781 166.5341,109.434889 165.9886,108.921788 C165.4431,108.409689 165.1706,107.604461 165.1706,106.508108 C165.1706,105.410753 165.5156,104.564938 166.2056,103.96916 C166.8961,103.374383 167.7576,103.076745 168.7906,103.076745 C169.4661,103.076745 170.1416,103.209029 170.8176,103.473596 C171.4936,103.737663 172.0821,104.112968 172.5841,104.598009 L171.4406,106.483054 C170.5616,105.721921 169.6541,105.342106 168.7181,105.342106 C168.3416,105.342106 168.0446,105.444325 167.8276,105.647762 L167.8276,105.647762 Z" id="Stroke-99" stroke="#9A67A8" stroke-width="0.5" mask="url(#mask-2)"></path>
                <path d="M125.8459,132.46065 C126.9559,132.46065 127.8634,131.959074 128.5679,130.955921 L130.0159,132.659076 C128.8674,134.136246 127.5134,134.87433 125.9544,134.87433 C124.3954,134.87433 123.1114,134.312123 122.1029,133.188212 C121.0939,132.063799 120.5899,130.644252 120.5899,128.930074 C120.5899,127.215895 121.1039,125.785827 122.1319,124.639366 C123.1599,123.492906 124.4174,122.919676 125.9039,122.919676 C127.5644,122.919676 128.9539,123.641225 130.0744,125.085323 L128.6694,126.904728 C127.9549,125.890551 127.0669,125.383463 126.0054,125.383463 C125.1559,125.383463 124.4294,125.700644 123.8259,126.334003 C123.2224,126.967863 122.9209,127.822197 122.9209,128.897504 C122.9209,129.971809 123.2054,130.834661 123.7754,131.485057 C124.3449,132.135452 125.0349,132.46065 125.8459,132.46065" id="Fill-100" fill="#9A67A8" mask="url(#mask-2)"></path>
                <path d="M125.8459,132.46065 C126.9559,132.46065 127.8634,131.959074 128.5679,130.955921 L130.0159,132.659076 C128.8674,134.136246 127.5134,134.87433 125.9544,134.87433 C124.3954,134.87433 123.1114,134.312123 122.1029,133.188212 C121.0939,132.063799 120.5899,130.644252 120.5899,128.930074 C120.5899,127.215895 121.1039,125.785827 122.1319,124.639366 C123.1599,123.492906 124.4174,122.919676 125.9039,122.919676 C127.5644,122.919676 128.9539,123.641225 130.0744,125.085323 L128.6694,126.904728 C127.9549,125.890551 127.0669,125.383463 126.0054,125.383463 C125.1559,125.383463 124.4294,125.700644 123.8259,126.334003 C123.2224,126.967863 122.9209,127.822197 122.9209,128.897504 C122.9209,129.971809 123.2054,130.834661 123.7754,131.485057 C124.3449,132.135452 125.0349,132.46065 125.8459,132.46065 L125.8459,132.46065 Z" id="Stroke-101" stroke="#9A67A8" stroke-width="0.5" mask="url(#mask-2)"></path>
                <polygon id="Fill-102" fill="#9A67A8" mask="url(#mask-2)" points="137.7226 132.526742 137.7226 134.742497 131.9161 134.742497 131.9161 132.526742 133.6536 132.526742 133.6536 125.399949 131.9161 125.399949 131.9161 123.183693 137.7226 123.183693 137.7226 125.399949 135.9126 125.399949 135.9126 132.526742"></polygon>
                <polygon id="Stroke-103" stroke="#9A67A8" stroke-width="0.5" mask="url(#mask-2)" points="137.7226 132.526742 137.7226 134.742497 131.9161 134.742497 131.9161 132.526742 133.6536 132.526742 133.6536 125.399949 131.9161 125.399949 131.9161 123.183693 137.7226 123.183693 137.7226 125.399949 135.9126 125.399949 135.9126 132.526742"></polygon>
                <path d="M143.04635,131.815716 C143.37935,132.267686 143.86685,132.493671 144.50885,132.493671 C145.15085,132.493671 145.67435,132.215574 146.07985,131.65888 C146.48535,131.101684 146.68835,130.333035 146.68835,129.351929 L146.68835,123.183693 L148.94685,123.183693 L148.94685,134.742497 L146.68835,134.742497 L146.68835,133.684226 C146.62035,133.772415 146.52185,133.882652 146.39135,134.014936 C146.26085,134.146718 145.98585,134.323598 145.56585,134.54357 C145.14585,134.764544 144.71885,134.87428 144.28435,134.87428 C143.14535,134.87428 142.19435,134.43634 141.43185,133.559959 C140.66935,132.683579 140.28785,131.457448 140.28785,129.881065 L140.28785,123.183693 L142.54685,123.183693 L142.54685,129.566891 C142.54685,130.614639 142.71335,131.363746 143.04635,131.815716" id="Fill-104" fill="#9A67A8" mask="url(#mask-2)"></path>
                <path d="M143.04635,131.815716 C143.37935,132.267686 143.86685,132.493671 144.50885,132.493671 C145.15085,132.493671 145.67435,132.215574 146.07985,131.65888 C146.48535,131.101684 146.68835,130.333035 146.68835,129.351929 L146.68835,123.183693 L148.94685,123.183693 L148.94685,134.742497 L146.68835,134.742497 L146.68835,133.684226 C146.62035,133.772415 146.52185,133.882652 146.39135,134.014936 C146.26085,134.146718 145.98585,134.323598 145.56585,134.54357 C145.14585,134.764544 144.71885,134.87428 144.28435,134.87428 C143.14535,134.87428 142.19435,134.43634 141.43185,133.559959 C140.66935,132.683579 140.28785,131.457448 140.28785,129.881065 L140.28785,123.183693 L142.54685,123.183693 L142.54685,129.566891 C142.54685,130.614639 142.71335,131.363746 143.04635,131.815716 L143.04635,131.815716 Z" id="Stroke-105" stroke="#9A67A8" stroke-width="0.5" mask="url(#mask-2)"></path>
                <path d="M158.2387,131.567634 C158.7937,130.972357 159.0717,130.107 159.0717,128.971563 C159.0717,127.836628 158.7937,126.962752 158.2387,126.350939 C157.6837,125.738625 156.8317,125.432969 155.6832,125.432969 L154.4232,125.432969 L154.4232,132.46055 L155.8567,132.46055 C156.8897,132.46055 157.6837,132.16241 158.2387,131.567634 M159.8967,124.69689 C160.8622,125.706055 161.3447,127.109066 161.3447,128.905421 C161.3447,130.702277 160.8742,132.124329 159.9327,133.171576 C158.9917,134.218823 157.5557,134.742447 155.6252,134.742447 L152.1647,134.742447 L152.1647,123.184144 L155.7407,123.184144 C157.5462,123.184144 158.9312,123.688225 159.8967,124.69689" id="Fill-106" fill="#9A67A8" mask="url(#mask-2)"></path>
                <path d="M158.2387,131.567634 C158.7937,130.972357 159.0717,130.107 159.0717,128.971563 C159.0717,127.836628 158.7937,126.962752 158.2387,126.350939 C157.6837,125.738625 156.8317,125.432969 155.6832,125.432969 L154.4232,125.432969 L154.4232,132.46055 L155.8567,132.46055 C156.8897,132.46055 157.6837,132.16241 158.2387,131.567634 L158.2387,131.567634 Z M159.8967,124.69689 C160.8622,125.706055 161.3447,127.109066 161.3447,128.905421 C161.3447,130.702277 160.8742,132.124329 159.9327,133.171576 C158.9917,134.218823 157.5557,134.742447 155.6252,134.742447 L152.1647,134.742447 L152.1647,123.184144 L155.7407,123.184144 C157.5462,123.184144 158.9312,123.688225 159.8967,124.69689 L159.8967,124.69689 Z" id="Stroke-107" stroke="#9A67A8" stroke-width="0.5" mask="url(#mask-2)"></path>
                <path d="M165.8652,128.062061 L165.8652,129.748681 L169.9777,129.748681 L169.9777,128.144739 C169.9777,127.218752 169.7937,126.499709 169.4272,125.986608 C169.0602,125.474509 168.5557,125.217958 167.9142,125.217958 C167.2717,125.217958 166.7702,125.462984 166.4082,125.954038 C166.0462,126.444089 165.8652,127.147098 165.8652,128.062061 L165.8652,128.062061 Z M163.6062,133.238169 L163.6062,128.144739 C163.6062,126.436072 163.9877,125.138287 164.7502,124.250883 C165.5127,123.363478 166.5747,122.919526 167.9357,122.919526 C169.2967,122.919526 170.3562,123.357466 171.1142,124.233846 C171.8717,125.110227 172.2507,126.381455 172.2507,128.045526 L172.2507,130.526349 L165.8652,132.030577 L163.6062,133.238169 Z" id="Fill-108" fill="#9A67A8" mask="url(#mask-2)"></path>
                <path d="M165.8652,128.062061 L165.8652,129.748681 L169.9777,129.748681 L169.9777,128.144739 C169.9777,127.218752 169.7937,126.499709 169.4272,125.986608 C169.0602,125.474509 168.5557,125.217958 167.9142,125.217958 C167.2717,125.217958 166.7702,125.462984 166.4082,125.954038 C166.0462,126.444089 165.8652,127.147098 165.8652,128.062061 L165.8652,128.062061 Z M163.6062,133.238169 L163.6062,128.144739 C163.6062,126.436072 163.9877,125.138287 164.7502,124.250883 C165.5127,123.363478 166.5747,122.919526 167.9357,122.919526 C169.2967,122.919526 170.3562,123.357466 171.1142,124.233846 C171.8717,125.110227 172.2507,126.381455 172.2507,128.045526 L172.2507,130.526349 L165.8652,132.030577 L163.6062,133.238169 L163.6062,133.238169 Z" id="Stroke-109" stroke="#9A67A8" stroke-width="0.5" mask="url(#mask-2)"></path>
                <path d="M128.10495,148.814094 C128.10495,147.678657 127.82695,146.804782 127.27195,146.19347 C126.71695,145.581156 125.86545,145.2755 124.71645,145.2755 L123.45695,145.2755 L123.45695,148.793048 C123.45695,148.793048 128.10495,149.94953 128.10495,148.814094 M128.92995,144.53942 C129.89545,145.548085 130.37795,146.951096 130.37795,148.747451 C130.37795,149.577732 130.27795,150.327341 130.07695,150.997278 C129.84345,151.778455 121.19795,149.681455 121.19795,149.681455 L121.19795,143.026173 L124.77445,143.026173 C126.57945,143.026173 127.96495,143.530756 128.92995,144.53942" id="Fill-110" fill="#9A67A8" mask="url(#mask-2)"></path>
                <path d="M128.10495,148.814094 C128.10495,147.678657 127.82695,146.804782 127.27195,146.19347 C126.71695,145.581156 125.86545,145.2755 124.71645,145.2755 L123.45695,145.2755 L123.45695,148.793048 C123.45695,148.793048 128.10495,149.94953 128.10495,148.814094 L128.10495,148.814094 Z M128.92995,144.53942 C129.89545,145.548085 130.37795,146.951096 130.37795,148.747451 C130.37795,149.577732 130.27795,150.327341 130.07695,150.997278 C129.84345,151.778455 121.19795,149.681455 121.19795,149.681455 L121.19795,143.026173 L124.77445,143.026173 C126.57945,143.026173 127.96495,143.530756 128.92995,144.53942 L128.92995,144.53942 Z" id="Stroke-111" stroke="#9A67A8" stroke-width="0.5" mask="url(#mask-2)"></path>
                <path d="M134.5041,147.904442 L134.5041,149.591061 L138.6166,149.591061 L138.6166,147.987119 C138.6166,147.061132 138.4326,146.342089 138.0661,145.828988 C137.6991,145.316889 137.1946,145.060338 136.5531,145.060338 C135.9106,145.060338 135.4091,145.305364 135.0471,145.796418 C134.6851,146.286469 134.5041,146.989478 134.5041,147.904442 L134.5041,147.904442 Z M132.2451,154.584777 L132.2451,147.987119 C132.2451,146.278452 132.6266,144.980667 133.3891,144.093263 C134.1516,143.205859 135.2136,142.761906 136.5746,142.761906 C137.9356,142.761906 138.9951,143.199846 139.7531,144.076226 C140.5106,144.952607 140.8896,146.223835 140.8896,147.887906 L140.8896,154.584777 L138.6166,154.584777 L138.6166,151.872958 L134.5041,151.872958 L134.5041,154.584777 L132.2451,154.584777 Z" id="Fill-112" fill="#9A67A8" mask="url(#mask-2)"></path>
                <path d="M134.5041,147.904442 L134.5041,149.591061 L138.6166,149.591061 L138.6166,147.987119 C138.6166,147.061132 138.4326,146.342089 138.0661,145.828988 C137.6991,145.316889 137.1946,145.060338 136.5531,145.060338 C135.9106,145.060338 135.4091,145.305364 135.0471,145.796418 C134.6851,146.286469 134.5041,146.989478 134.5041,147.904442 L134.5041,147.904442 Z M132.2451,154.584777 L132.2451,147.987119 C132.2451,146.278452 132.6266,144.980667 133.3891,144.093263 C134.1516,143.205859 135.2136,142.761906 136.5746,142.761906 C137.9356,142.761906 138.9951,143.199846 139.7531,144.076226 C140.5106,144.952607 140.8896,146.223835 140.8896,147.887906 L140.8896,154.584777 L138.6166,154.584777 L138.6166,151.872958 L134.5041,151.872958 L134.5041,154.584777 L132.2451,154.584777 L132.2451,154.584777 Z" id="Stroke-113" stroke="#9A67A8" stroke-width="0.5" mask="url(#mask-2)"></path>
                <path d="M148.1291,145.143166 C147.4626,145.143166 146.9296,145.399717 146.5291,145.911815 C146.1286,146.424917 145.9281,147.171519 145.9281,148.152624 L145.9281,154.584927 L143.6691,154.584927 L143.6691,143.026123 L145.9281,143.026123 L145.9281,143.952611 C145.9956,143.864422 146.0946,143.754185 146.2246,143.621902 C146.3551,143.489618 146.6301,143.313239 147.0501,143.092766 C147.4701,142.872293 147.8976,142.762056 148.3316,142.762056 C149.4806,142.762056 150.4336,143.189474 151.1916,144.043807 C151.9491,144.89814 152.3281,146.107736 152.3281,147.673095 L152.3281,154.584927 L150.0691,154.584927 L150.0691,148.152624 C150.0691,146.146319 149.4226,145.143166 148.1291,145.143166" id="Fill-114" fill="#9A67A8" mask="url(#mask-2)"></path>
                <path d="M148.1291,145.143166 C147.4626,145.143166 146.9296,145.399717 146.5291,145.911815 C146.1286,146.424917 145.9281,147.171519 145.9281,148.152624 L145.9281,154.584927 L143.6691,154.584927 L143.6691,143.026123 L145.9281,143.026123 L145.9281,143.952611 C145.9956,143.864422 146.0946,143.754185 146.2246,143.621902 C146.3551,143.489618 146.6301,143.313239 147.0501,143.092766 C147.4701,142.872293 147.8976,142.762056 148.3316,142.762056 C149.4806,142.762056 150.4336,143.189474 151.1916,144.043807 C151.9491,144.89814 152.3281,146.107736 152.3281,147.673095 L152.3281,154.584927 L150.0691,154.584927 L150.0691,148.152624 C150.0691,146.146319 149.4226,145.143166 148.1291,145.143166 L148.1291,145.143166 Z" id="Stroke-115" stroke="#9A67A8" stroke-width="0.5" mask="url(#mask-2)"></path>
                <path d="M157.23605,147.904442 L157.23605,149.591061 L161.34855,149.591061 L161.34855,147.987119 C161.34855,147.061132 161.16455,146.342089 160.79805,145.828988 C160.43105,145.316889 159.92655,145.060338 159.28505,145.060338 C158.64255,145.060338 158.14105,145.305364 157.77905,145.796418 C157.41705,146.286469 157.23605,146.989478 157.23605,147.904442 L157.23605,147.904442 Z M154.97705,154.584777 L154.97705,147.987119 C154.97705,146.278452 155.35855,144.980667 156.12105,144.093263 C156.88355,143.205859 157.94555,142.761906 159.30655,142.761906 C160.66755,142.761906 161.72705,143.199846 162.48505,144.076226 C163.24255,144.952607 163.62155,146.223835 163.62155,147.887906 L163.62155,154.584777 L161.34855,154.584777 L161.34855,151.872958 L157.23605,151.872958 L157.23605,154.584777 L154.97705,154.584777 Z" id="Fill-116" fill="#9A67A8" mask="url(#mask-2)"></path>
                <path d="M157.23605,147.904442 L157.23605,149.591061 L161.34855,149.591061 L161.34855,147.987119 C161.34855,147.061132 161.16455,146.342089 160.79805,145.828988 C160.43105,145.316889 159.92655,145.060338 159.28505,145.060338 C158.64255,145.060338 158.14105,145.305364 157.77905,145.796418 C157.41705,146.286469 157.23605,146.989478 157.23605,147.904442 L157.23605,147.904442 Z M154.97705,154.584777 L154.97705,147.987119 C154.97705,146.278452 155.35855,144.980667 156.12105,144.093263 C156.88355,143.205859 157.94555,142.761906 159.30655,142.761906 C160.66755,142.761906 161.72705,143.199846 162.48505,144.076226 C163.24255,144.952607 163.62155,146.223835 163.62155,147.887906 L163.62155,154.584777 L161.34855,154.584777 L161.34855,151.872958 L157.23605,151.872958 L157.23605,154.584777 L154.97705,154.584777 L154.97705,154.584777 Z" id="Stroke-117" stroke="#9A67A8" stroke-width="0.5" mask="url(#mask-2)"></path>
                <path d="M173.64105,151.227974 C173.64105,152.264197 173.30055,153.105002 172.62005,153.749885 C171.93955,154.394268 171.04405,154.716961 169.93405,154.716961 C168.33155,154.716961 166.88855,154.039006 165.60455,152.683096 L166.95155,150.798552 C168.04205,151.889393 169.05105,152.435064 169.97755,152.435064 C170.39255,152.435064 170.71855,152.333346 170.95505,152.129408 C171.19155,151.92547 171.30955,151.649879 171.30955,151.302133 C171.30955,150.955389 171.18405,150.679797 170.93305,150.47586 C170.68255,150.271922 170.18505,150.065479 169.44205,149.855528 C168.26405,149.535842 167.40255,149.11995 166.85705,148.60735 C166.31155,148.09475 173.64105,150.192251 173.64105,151.227974" id="Fill-118" fill="#9A67A8" mask="url(#mask-2)"></path>
                <path d="M173.64105,151.227974 C173.64105,152.264197 173.30055,153.105002 172.62005,153.749885 C171.93955,154.394268 171.04405,154.716961 169.93405,154.716961 C168.33155,154.716961 166.88855,154.039006 165.60455,152.683096 L166.95155,150.798552 C168.04205,151.889393 169.05105,152.435064 169.97755,152.435064 C170.39255,152.435064 170.71855,152.333346 170.95505,152.129408 C171.19155,151.92547 171.30955,151.649879 171.30955,151.302133 C171.30955,150.955389 171.18405,150.679797 170.93305,150.47586 C170.68255,150.271922 170.18505,150.065479 169.44205,149.855528 C168.26405,149.535842 167.40255,149.11995 166.85705,148.60735 C166.31155,148.09475 173.64105,150.192251 173.64105,151.227974 L173.64105,151.227974 Z" id="Stroke-119" stroke="#9A67A8" stroke-width="0.5" mask="url(#mask-2)"></path>
                <path d="M127.3414,184.562958 C127.5864,185.276489 127.9439,185.964465 128.4174,186.601833 C130.8869,189.925465 135.5774,190.613943 138.8939,188.139132 C139.4534,187.721736 141.8049,185.599683 142.9249,184.583502" id="Stroke-120" stroke="#F08650" stroke-width="3.5" stroke-linecap="round" mask="url(#mask-2)"></path>
                <path d="M142.9774,184.495313 C140.2989,186.98716 139.2449,191.932272 141.3924,194.822975 C143.6804,197.902584 148.0259,198.539951 151.0989,196.247532 C151.8409,195.693343 155.2859,193.122827 158.3514,190.835919" id="Stroke-121" stroke="#F08650" stroke-width="3.5" stroke-linecap="round" mask="url(#mask-2)"></path>
                <path d="M158.3306,190.806957 C156.9161,191.862723 155.6221,192.827794 154.8191,193.42708 C152.1626,195.409333 151.6121,199.174413 153.5901,201.837127 C155.5686,204.499841 159.3256,205.051024 161.9826,203.06877 C162.2951,202.83577 163.7501,201.74994 165.7356,200.26826" id="Stroke-122" stroke="#F08650" stroke-width="3.5" stroke-linecap="round" mask="url(#mask-2)"></path>
                <path d="M164.66155,175.298627 C166.54905,177.180165 166.55705,180.238227 164.68005,182.129786 C162.80255,184.021346 159.75055,184.029363 157.86305,182.148326" id="Stroke-123" stroke="#F08650" stroke-width="3.5" stroke-linecap="round" mask="url(#mask-2)"></path>
                <path d="M157.92245,182.207253 C157.92245,182.207253 155.88895,180.180403 154.79895,179.093571 C152.91145,177.212534 152.90345,174.153971 154.78045,172.262412 C156.65795,170.370853 159.70945,170.362835 161.59695,172.243872 C163.48445,174.12541 164.72095,175.357554 164.72095,175.357554" id="Stroke-124" stroke="#F08650" stroke-width="3.5" stroke-linecap="round" mask="url(#mask-2)"></path>
                <path d="M151.1111,181.752477 C148.9146,179.162419 148.1806,175.473503 149.5166,172.092748 C151.4446,167.213277 156.9546,164.82415 161.8236,166.756797 C163.1166,167.269898 164.2346,168.036543 165.1431,168.977062" id="Stroke-125" stroke="#F08650" stroke-width="3.5" stroke-linecap="round" mask="url(#mask-2)"></path>
                <path d="M187.12905,187.29492 C192.01855,190.497794 194.15655,196.803826 191.92205,202.45846 C189.36855,208.920828 182.07055,212.085118 175.62205,209.526127 C173.72405,208.77251 172.11105,207.60751 170.84505,206.173933" id="Stroke-126" stroke="#F08650" stroke-width="3.5" stroke-linecap="round" mask="url(#mask-2)"></path>
                <path d="M164.40925,168.296752 L187.88225,187.829668" id="Stroke-127" stroke="#F08650" stroke-width="3.5" stroke-linecap="round" mask="url(#mask-2)"></path>
                <path d="M192.38985,180.929661 L234.04285,199.601229" id="Stroke-128" stroke="#F08650" stroke-width="3.5" stroke-linecap="round" mask="url(#mask-2)"></path>
                <path d="M181.3921,210.356609 L215.8631,230.86111" id="Stroke-129" stroke="#F08650" stroke-width="3.5" stroke-linecap="round" mask="url(#mask-2)"></path>
                <path d="M123.02175,184.404518 C122.80575,185.406167 122.33075,186.366228 121.59175,187.177969 C119.36025,189.631234 115.56675,189.80661 113.11925,187.570311 C112.98525,187.448049 112.62325,187.117339 112.08975,186.629793" id="Stroke-130" stroke="#EC6A5A" stroke-width="3.5" stroke-linecap="round" mask="url(#mask-2)"></path>
                <path d="M94.54385,167.441116 C89.36185,170.142412 86.61085,176.205423 88.27535,182.053974 C90.17735,188.738318 97.12685,192.61163 103.79635,190.705038 C105.75935,190.144335 107.47985,189.145191 108.88135,187.843898" id="Stroke-131" stroke="#EC6A5A" stroke-width="3.5" stroke-linecap="round" mask="url(#mask-2)"></path>
                <path d="M87.7905,165.278375 L59.6555,201.676482" id="Stroke-132" stroke="#EC6A5A" stroke-width="3.5" stroke-linecap="round" mask="url(#mask-2)"></path>
                <path d="M112.3902,185.698845 L88.4172,225.657093" id="Stroke-133" stroke="#EC6A5A" stroke-width="3.5" stroke-linecap="round" mask="url(#mask-2)"></path>
                <path d="M152.1923,184.381218 L112.6718,184.381218" id="Stroke-134" stroke="#9A67A8" stroke-width="3.5" mask="url(#mask-2)"></path>
                <path d="M104.02355,98.4393933 L114.33005,98.4393933" id="Stroke-135" stroke="#9A67A8" stroke-width="3.5" stroke-linecap="round" mask="url(#mask-2)"></path>
                <path d="M104.02355,108.687786 L114.33005,108.687786" id="Stroke-136" stroke="#9A67A8" stroke-width="3.5" stroke-linecap="round" mask="url(#mask-2)"></path>
                <path d="M104.02355,118.936178 L114.33005,118.936178" id="Stroke-137" stroke="#9A67A8" stroke-width="3.5" stroke-linecap="round" mask="url(#mask-2)"></path>
                <path d="M104.02355,129.18457 L114.33005,129.18457" id="Stroke-138" stroke="#9A67A8" stroke-width="3.5" stroke-linecap="round" mask="url(#mask-2)"></path>
                <path d="M104.02355,139.432912 L114.33005,139.432912" id="Stroke-139" stroke="#9A67A8" stroke-width="3.5" stroke-linecap="round" mask="url(#mask-2)"></path>
                <path d="M104.02355,149.681305 L114.33005,149.681305" id="Stroke-140" stroke="#9A67A8" stroke-width="3.5" stroke-linecap="round" mask="url(#mask-2)"></path>
                <path d="M104.02355,159.929697 L104.32405,159.929697" id="Stroke-141" stroke="#9A67A8" stroke-width="3.5" stroke-linecap="round" mask="url(#mask-2)"></path>
                <path d="M175.2394,136.083825 C177.8284,136.704157 179.4254,139.310249 178.8064,141.905318 C178.1874,144.499886 175.5869,146.10032 172.9974,145.479989" id="Stroke-142" stroke="#EC6A5A" stroke-width="3.5" stroke-linecap="round" mask="url(#mask-2)"></path>
                <path d="M173.07885,145.49933 C173.07885,145.49933 170.28935,144.830896 168.79385,144.472627 C166.20485,143.852296 164.60785,141.245702 165.22685,138.651135 C165.84585,136.056567 168.44685,134.456132 171.03585,135.076464 C173.62485,135.696795 175.32085,136.103167 175.32085,136.103167" id="Stroke-143" stroke="#EC6A5A" stroke-width="3.5" stroke-linecap="round" mask="url(#mask-2)"></path>
                <path d="M167.0285,148.667479 C163.807,147.603696 161.2625,144.837761 160.6455,141.254571 C159.7545,136.083475 163.2155,131.167425 168.376,130.274509 C169.747,130.0375 171.0995,130.108152 172.364,130.436356" id="Stroke-144" stroke="#EC6A5A" stroke-width="3.5" stroke-linecap="round" mask="url(#mask-2)"></path>
                <path d="M167.0274,148.665475 L196.5679,159.206595" id="Stroke-145" stroke="#EC6A5A" stroke-width="3.5" stroke-linecap="round" mask="url(#mask-2)"></path>
                <path d="M171.3839,130.239083 L201.5744,134.65556" id="Stroke-146" stroke="#EC6A5A" stroke-width="3.5" stroke-linecap="round" mask="url(#mask-2)"></path>
                <path d="M118.08685,157.734636 C116.02285,159.419251 115.71235,162.46178 117.39335,164.530219 C119.07435,166.599159 122.11035,166.910327 124.17435,165.225712" id="Stroke-147" stroke="#EC6A5A" stroke-width="3.5" stroke-linecap="round" mask="url(#mask-2)"></path>
                <path d="M124.10975,165.278375 C124.10975,165.278375 126.33375,163.46348 127.52575,162.490392 C129.58975,160.805777 129.90025,157.763248 128.21925,155.694308 C126.53825,153.625869 123.50225,153.314702 121.43825,154.999317 C119.37425,156.683932 118.02225,157.787299 118.02225,157.787299" id="Stroke-148" stroke="#EC6A5A" stroke-width="3.5" stroke-linecap="round" mask="url(#mask-2)"></path>
                <path d="M130.93255,165.502155 C133.37405,163.143092 134.46955,159.544871 133.47455,156.048368 C132.03805,151.001538 126.79155,148.077262 121.75555,149.516351 C120.41805,149.898671 119.22955,150.55057 118.23255,151.396385" id="Stroke-149" stroke="#EC6A5A" stroke-width="3.5" stroke-linecap="round" mask="url(#mask-2)"></path>
                <path d="M130.9327,165.49985 L108.8807,187.841293" id="Stroke-150" stroke="#EC6A5A" stroke-width="3.5" stroke-linecap="round" mask="url(#mask-2)"></path>
                <path d="M119.0301,150.792289 L93.7411,167.898497" id="Stroke-151" stroke="#EC6A5A" stroke-width="3.5" stroke-linecap="round" mask="url(#mask-2)"></path>
                <path d="M151.1112,181.750172 L170.8457,206.171077" id="Stroke-152" stroke="#F08650" stroke-width="3.5" stroke-linecap="round" mask="url(#mask-2)"></path>
            </g>
        </g>
    </g>
</svg>