<?xml version="1.0" encoding="UTF-8" standalone="no"?>
<svg width="308px" height="243px" viewBox="0 0 308 243" version="1.1" xmlns="http://www.w3.org/2000/svg" xmlns:xlink="http://www.w3.org/1999/xlink">
    <!-- Generator: Sketch 3.8.2 (29753) - http://www.bohemiancoding.com/sketch -->
    <title>Page 1</title>
    <desc>Created with Sketch.</desc>
    <defs>
        <path d="M0.39935,0.979964945 C0.687210144,0.897380435 0.977784686,0.819872767 1.271,0.747563941 C3.166,0.280085954 5.064,0.0561174004 6.932,0.0561174004 C12.2005815,0.0561174004 17.2305867,1.83585417 21.2845713,4.94840231 L0.39935,4.94840231 L0.39935,0.979964945 L0.39935,0.979964945 Z" id="path-1"></path>
        <path d="M28.3229714,5.21997044 C27.4795586,3.3982099 26.419925,1.72001822 25.1838249,0.20948826 L0.39925,0.20948826 L0.39925,5.21997044 L28.3229714,5.21997044 L28.3229714,5.21997044 Z" id="path-3"></path>
        <path d="M30.4970011,5.49103753 C30.4208154,4.01323741 30.2045176,2.52130579 29.8385,1.03115723 C29.7931732,0.846572783 29.7457992,0.663032724 29.6964081,0.480555346 L0.39935,0.480555346 L0.39935,5.49103753 L30.4970011,5.49103753 L30.4970011,5.49103753 Z" id="path-5"></path>
        <path d="M29.276542,5.26105639 C29.8235592,3.64845157 30.1994747,1.96930141 30.3880073,0.250574214 L0.39935,0.250574214 L0.39935,5.26105639 L29.276542,5.26105639 L29.276542,5.26105639 Z" id="path-7"></path>
    </defs>
    <g id="Page-1" stroke="none" stroke-width="1" fill="none" fill-rule="evenodd">
        <g id="Home-Copy-14" transform="translate(-866.000000, -256.000000)">
            <g id="Page-1" transform="translate(867.000000, 258.000000)">
                <g id="Group-107" transform="translate(27.000000, 17.193470)" stroke-width="3.5">
                    <path d="M28.5633,105.491844 C12.1978,107.427895 -0.2927,121.586515 0.1408,138.419731" id="Stroke-1" stroke="#F08650"></path>
                    <path d="M132.9176,135.314886 L143.2241,135.314886" id="Stroke-3" stroke="#9A67A8" stroke-linecap="round"></path>
                    <path d="M132.9176,145.562725 L143.2241,145.562725" id="Stroke-5" stroke="#9A67A8" stroke-linecap="round"></path>
                    <path d="M132.9176,155.810564 L143.2241,155.810564" id="Stroke-7" stroke="#9A67A8" stroke-linecap="round"></path>
                    <path d="M132.9176,166.058403 L143.2241,166.058403" id="Stroke-9" stroke="#9A67A8" stroke-linecap="round"></path>
                    <path d="M132.9176,176.306242 L143.2241,176.306242" id="Stroke-11" stroke="#9A67A8" stroke-linecap="round"></path>
                    <path d="M132.9176,186.55403 L143.2241,186.55403" id="Stroke-13" stroke="#9A67A8" stroke-linecap="round"></path>
                    <path d="M132.9176,196.801869 L143.2241,196.801869" id="Stroke-15" stroke="#9A67A8" stroke-linecap="round"></path>
                    <path d="M132.9176,207.049708 L143.2241,207.049708" id="Stroke-17" stroke="#9A67A8" stroke-linecap="round"></path>
                    <path d="M211.51855,169.023055 L211.51855,208.396426 C211.51855,215.474734 205.79255,221.212738 198.72905,221.212738 L138.01855,221.212738 L138.01855,124.783002 L198.63405,124.783002 C201.63755,124.783002 204.40155,125.813157 206.59255,127.53977" id="Stroke-19" stroke="#9A67A8"></path>
                    <path d="M77.7078,221.212788 L138.4183,221.212788 L138.4183,124.783052 L77.8028,124.783052 C70.6868,124.783052 64.9183,130.563646 64.9183,137.694564 L64.9183,208.396476 C64.9183,215.474784 70.6443,221.212788 77.7078,221.212788 L77.7078,221.212788 Z" id="Stroke-21" stroke="#9A67A8"></path>
                    <path d="M90.42265,139.735985 L125.92265,139.735985" id="Stroke-23" stroke="#33526E" stroke-linecap="round"></path>
                    <path d="M90.42265,144.797774 L125.92265,144.797774" id="Stroke-25" stroke="#33526E" stroke-linecap="round"></path>
                    <path d="M90.42265,149.859514 L116.78415,149.859514" id="Stroke-27" stroke="#33526E" stroke-linecap="round"></path>
                    <path d="M90.42265,159.336841 L125.92265,159.336841" id="Stroke-29" stroke="#33526E" stroke-linecap="round"></path>
                    <path d="M90.42265,164.39863 L103.60315,164.39863" id="Stroke-31" stroke="#33526E" stroke-linecap="round"></path>
                    <path d="M90.42265,174.425407 L125.92265,174.425407" id="Stroke-33" stroke="#33526E" stroke-linecap="round"></path>
                    <path d="M90.42265,179.487146 L125.92265,179.487146" id="Stroke-35" stroke="#33526E" stroke-linecap="round"></path>
                    <path d="M90.42265,184.548936 L125.92265,184.548936" id="Stroke-37" stroke="#33526E" stroke-linecap="round"></path>
                    <path d="M90.42265,189.513973 L122.75915,189.513973" id="Stroke-39" stroke="#33526E" stroke-linecap="round"></path>
                    <path d="M90.42265,199.088002 L125.92265,199.088002" id="Stroke-41" stroke="#33526E" stroke-linecap="round"></path>
                    <path d="M90.42265,204.149792 L116.78415,204.149792" id="Stroke-43" stroke="#33526E" stroke-linecap="round"></path>
                    <path d="M167.42455,139.735985 L171.20455,139.735985" id="Stroke-45" stroke="#33526E" stroke-linecap="round"></path>
                    <path d="M167.42455,144.797774 L173.88055,144.797774" id="Stroke-47" stroke="#33526E" stroke-linecap="round"></path>
                    <path d="M167.42455,159.384991 L180.60505,159.384991" id="Stroke-49" stroke="#33526E" stroke-linecap="round"></path>
                    <path d="M167.42455,169.411768 L202.92455,169.411768" id="Stroke-51" stroke="#33526E" stroke-linecap="round"></path>
                    <path d="M167.42455,174.473557 L202.92455,174.473557" id="Stroke-53" stroke="#33526E" stroke-linecap="round"></path>
                    <path d="M167.42455,179.535297 L196.41805,179.535297" id="Stroke-55" stroke="#33526E" stroke-linecap="round"></path>
                    <path d="M167.42455,189.562073 L202.92455,189.562073" id="Stroke-57" stroke="#33526E" stroke-linecap="round"></path>
                    <path d="M167.42455,194.623863 L202.92455,194.623863" id="Stroke-59" stroke="#33526E" stroke-linecap="round"></path>
                    <path d="M167.42455,199.589351 L187.41805,199.589351" id="Stroke-61" stroke="#33526E" stroke-linecap="round"></path>
                    <polyline id="Stroke-63" stroke="#50B9A7" stroke-linecap="round" stroke-linejoin="round" points="73.7055 143.29498 77.6775 147.217687 83.633 140.324265"></polyline>
                    <polyline id="Stroke-65" stroke="#50B9A7" stroke-linecap="round" stroke-linejoin="round" points="151.37765 143.29498 155.34965 147.217687 161.30515 140.324265"></polyline>
                    <polyline id="Stroke-67" stroke="#50B9A7" stroke-linecap="round" stroke-linejoin="round" points="151.37765 155.334618 155.34965 159.257324 161.30515 152.363903"></polyline>
                    <polyline id="Stroke-69" stroke="#50B9A7" stroke-linecap="round" stroke-linejoin="round" points="73.7055 180.445301 77.6775 184.368007 83.633 177.474586"></polyline>
                    <polyline id="Stroke-71" stroke="#50B9A7" stroke-linecap="round" stroke-linejoin="round" points="73.5628 202.058968 77.5348 205.981674 83.4903 199.088253"></polyline>
                    <path d="M74.7765,157.31466 L82.2765,165.902627" id="Stroke-73" stroke="#EC6A5A" stroke-linecap="round" stroke-linejoin="round"></path>
                    <path d="M82.2765,157.31466 L74.7765,165.902627" id="Stroke-75" stroke="#EC6A5A" stroke-linecap="round" stroke-linejoin="round"></path>
                    <polyline id="Stroke-77" stroke="#33526E" stroke-linecap="round" stroke-linejoin="round" points="192.40555 7.53361069 196.90555 7.53361069 196.90555 104.235917 39.90555 104.235917 39.90555 7.53361069 44.90555 7.53361069"></polyline>
                    <path d="M160.75215,0.458208595 C149.58665,-0.424137317 132.16565,0.794912998 118.40565,5.11394864 C88.16015,-2.48745388 44.90565,3.60980189 44.90565,3.60980189 L44.90565,100.039538 C44.90565,100.039538 96.40565,94.431305 118.40565,100.039538 C130.40565,94.431305 192.66365,100.039538 192.66365,100.039538 L192.66365,3.60980189 C192.66365,3.60980189 193.19615,3.60980189 189.54915,3.1413218" id="Stroke-79" stroke="#80B9C2"></path>
                    <path d="M67.90845,31.1452073 L103.40845,31.1452073" id="Stroke-81" stroke="#33526E" stroke-linecap="round"></path>
                    <path d="M56.40565,36.2069468 L103.40865,36.2069468" id="Stroke-83" stroke="#33526E" stroke-linecap="round"></path>
                    <path d="M56.40565,41.2687363 L103.40865,41.2687363" id="Stroke-85" stroke="#33526E" stroke-linecap="round"></path>
                    <path d="M56.40565,46.3304757 L91.30865,46.3304757" id="Stroke-87" stroke="#33526E" stroke-linecap="round"></path>
                    <path d="M56.40565,51.3922652 L103.40865,51.3922652" id="Stroke-89" stroke="#33526E" stroke-linecap="round"></path>
                    <path d="M56.40565,56.4540046 L103.40865,56.4540046" id="Stroke-91" stroke="#33526E" stroke-linecap="round"></path>
                    <path d="M56.40565,61.5157941 L103.40865,61.5157941" id="Stroke-93" stroke="#33526E" stroke-linecap="round"></path>
                    <path d="M56.40565,66.5775335 L103.40865,66.5775335" id="Stroke-95" stroke="#33526E" stroke-linecap="round"></path>
                    <path d="M56.40565,71.6393231 L88.16015,71.6393231" id="Stroke-97" stroke="#33526E" stroke-linecap="round"></path>
                    <path d="M56.40565,76.7010625 L103.40865,76.7010625" id="Stroke-99" stroke="#33526E" stroke-linecap="round"></path>
                    <path d="M56.40565,81.762852 L103.40865,81.762852" id="Stroke-101" stroke="#33526E" stroke-linecap="round"></path>
                    <path d="M56.40565,36.2069468 L91.30865,36.2069468" id="Stroke-103" stroke="#33526E" stroke-linecap="round"></path>
                    <path d="M118.40565,3.6099021 L118.40565,100.039638" id="Stroke-105" stroke="#80B9C2"></path>
                </g>
                <text id="L" font-family="MontserratAlternates-Bold, Montserrat Alternates" font-size="16.5" font-weight="bold" fill="#33526E">
                    <tspan x="80.69285" y="44.6839532">L</tspan>
                </text>
                <g id="Group-194" transform="translate(53.500000, 0.157830)">
                    <polygon id="Stroke-108" stroke="#33526E" stroke-width="0.5" points="36.1028 48.6819451 36.1028 46.3836369 31.1858 46.3836369 31.1858 37.1242658 28.6118 37.1242658 28.6118 48.6819451"></polygon>
                    <path d="M107.51115,53.2425862 L138.66215,53.2425862" id="Stroke-110" stroke="#33526E" stroke-width="3.5" stroke-linecap="round"></path>
                    <path d="M107.51115,48.1808468 L154.51415,48.1808468" id="Stroke-112" stroke="#33526E" stroke-width="3.5" stroke-linecap="round"></path>
                    <path d="M107.51115,43.1190572 L154.51415,43.1190572" id="Stroke-114" stroke="#33526E" stroke-width="3.5" stroke-linecap="round"></path>
                    <path d="M107.51115,38.0573178 L154.51415,38.0573178" id="Stroke-116" stroke="#33526E" stroke-width="3.5" stroke-linecap="round"></path>
                    <path d="M107.51115,58.3043757 L154.51415,58.3043757" id="Stroke-118" stroke="#33526E" stroke-width="3.5" stroke-linecap="round"></path>
                    <path d="M107.51115,63.3661151 L154.51415,63.3661151" id="Stroke-120" stroke="#33526E" stroke-width="3.5" stroke-linecap="round"></path>
                    <path d="M107.51115,68.4279046 L154.51415,68.4279046" id="Stroke-122" stroke="#33526E" stroke-width="3.5" stroke-linecap="round"></path>
                    <path d="M107.51115,73.489644 L154.51415,73.489644" id="Stroke-124" stroke="#33526E" stroke-width="3.5" stroke-linecap="round"></path>
                    <path d="M107.51115,78.5514335 L127.50215,78.5514335" id="Stroke-126" stroke="#33526E" stroke-width="3.5" stroke-linecap="round"></path>
                    <path d="M107.51115,83.613173 L154.51415,83.613173" id="Stroke-128" stroke="#33526E" stroke-width="3.5" stroke-linecap="round"></path>
                    <path d="M107.51115,88.6749625 L154.51415,88.6749625" id="Stroke-130" stroke="#33526E" stroke-width="3.5" stroke-linecap="round"></path>
                    <path d="M107.51115,93.7367019 L154.51415,93.7367019" id="Stroke-132" stroke="#33526E" stroke-width="3.5" stroke-linecap="round"></path>
                    <path d="M107.51115,98.7984914 L154.51415,98.7984914" id="Stroke-134" stroke="#33526E" stroke-width="3.5" stroke-linecap="round"></path>
                    <path d="M107.51115,53.2425862 L142.41415,53.2425862" id="Stroke-136" stroke="#33526E" stroke-width="3.5" stroke-linecap="round"></path>
                    <g id="Group-141" transform="translate(140.500000, 31.566038)">
                        <polyline id="Fill-138" fill="#FEFEFE" points="14.87315 0.167600629 14.87315 21.6765985 7.47715 13.3000744 0.08115 21.6765985 0.08115 0.167600629"></polyline>
                        <polyline id="Stroke-140" stroke="#EC6A5A" stroke-width="3.5" stroke-linecap="round" stroke-linejoin="round" points="14.87315 0.167600629 14.87315 21.6765985 7.47715 13.3000744 0.08115 21.6765985 0.08115 0.167600629"></polyline>
                    </g>
                    <path d="M154.153,174.663906 C154.409,175.961119 155.0105,177.206725 155.9645,178.255419 C158.7505,181.317325 163.486,181.536784 166.5415,178.744943 C167.2245,178.121138 170.4225,174.430417 170.4225,174.430417" id="Stroke-142" stroke="#F08650" stroke-width="3.5"></path>
                    <path d="M170.00405,174.660549 C169.25305,176.962364 169.72605,179.592366 171.47055,181.509878 C174.05155,184.346813 178.43855,184.550238 181.26955,181.963827" id="Stroke-144" stroke="#F08650" stroke-width="3.5"></path>
                    <path d="M207.92415,173.3705 C213.10615,176.071651 215.85715,182.134334 214.19265,187.982569 C212.29065,194.666552 205.34115,198.539655 198.67165,196.633166 C196.70865,196.072494 194.98815,195.073403 193.58665,193.772181" id="Stroke-146" stroke="#F08650" stroke-width="3.5"></path>
                    <path d="M176.43145,144.520544 C183.43795,143.875695 187.69045,144.497997 190.01445,145.162387 C208.60945,150.477005 219.38445,169.891121 214.08095,188.524603" id="Stroke-148" stroke="#F08650" stroke-width="3.5"></path>
                    <path d="M214.05095,166.514607 L253.16845,166.087213" id="Stroke-150" stroke="#F08650" stroke-width="3.5"></path>
                    <path d="M204.49535,196.887048 L245.78485,203.379129" id="Stroke-152" stroke="#F08650" stroke-width="3.5"></path>
                    <polyline id="Stroke-154" stroke="#80B9C2" stroke-width="3.5" stroke-linecap="round" stroke-linejoin="round" points="186.45195 158.629511 197.39945 157.722614 198.16195 166.464903"></polyline>
                    <polyline id="Stroke-156" stroke="#80B9C2" stroke-width="3.5" stroke-linecap="round" stroke-linejoin="round" points="173.95565 174.27389 147.96465 176.427395 146.76765 161.91754 169.76165 160.012554"></polyline>
                    <polygon id="Stroke-158" stroke="#80B9C2" stroke-width="3.5" stroke-linecap="round" stroke-linejoin="round" points="133.142 170.351133 146.782 161.916487 147.979 176.426343"></polygon>
                    <path d="M168.6276,167.410882 L147.3801,169.171565" id="Stroke-160" stroke="#80B9C2" stroke-width="3.5" stroke-linecap="round" stroke-linejoin="round"></path>
                    <polygon id="Fill-162" fill="#50B9A7" points="133.142 170.351133 140.9645 165.41681 142.0805 174.01129"></polygon>
                    <polygon id="Stroke-164" stroke="#50B9A7" stroke-width="3.5" stroke-linecap="round" stroke-linejoin="round" points="133.142 170.351133 140.9645 165.41681 142.0805 174.01129"></polygon>
                    <path d="M169.8924,159.844352 C169.8924,159.844352 156.8334,160.978225 152.7609,161.339981 C148.6884,161.701237 145.0949,158.685929 144.7339,154.604891 C144.3734,150.524355 147.3824,146.92282 151.4549,146.561564 C153.3064,146.39722 176.9319,144.520294 176.9319,144.520294" id="Stroke-166" stroke="#F08650" stroke-width="3.5"></path>
                    <path d="M155.5709,146.315048 C157.5044,146.14369 159.2104,147.574684 159.3814,149.512237 C159.5529,151.449791 158.1244,153.159367 156.1909,153.330726" id="Stroke-168" stroke="#F08650" stroke-width="3.5"></path>
                    <path d="M156.2516,153.325515 C156.2516,153.325515 154.1686,153.510401 153.0521,153.609609 C151.1186,153.780968 149.4126,152.349473 149.2416,150.41242 C149.0701,148.474867 150.4986,146.76529 152.4321,146.593431 C154.3651,146.422072 155.6316,146.309838 155.6316,146.309838" id="Stroke-170" stroke="#F08650" stroke-width="3.5"></path>
                    <path d="M184.38115,163.664544 C186.44515,165.349069 186.75565,168.391433 185.07465,170.45976 C183.39365,172.528588 180.35765,172.839739 178.29365,171.155215" id="Stroke-172" stroke="#F08650" stroke-width="3.5"></path>
                    <path d="M178.35825,171.207875 C178.35825,171.207875 176.13425,169.393079 174.94225,168.420043 C172.87825,166.735519 172.56775,163.693154 174.24875,161.624326 C175.92975,159.555999 178.96575,159.244848 181.02975,160.929372 C183.09375,162.613896 184.44575,163.717205 184.44575,163.717205" id="Stroke-174" stroke="#F08650" stroke-width="3.5"></path>
                    <path d="M171.53545,171.431644 C169.09395,169.072709 167.99845,165.474681 168.99345,161.978367 C170.42995,156.931809 175.67645,154.007692 180.71245,155.446702 C182.04995,155.829002 183.23845,156.480866 184.23545,157.326635" id="Stroke-176" stroke="#F08650" stroke-width="3.5"></path>
                    <path d="M174.08065,174.01119 L193.58715,193.769526" id="Stroke-178" stroke="#F08650" stroke-width="3.5"></path>
                    <path d="M171.31305,171.207875 L174.08055,174.01124" id="Stroke-180" stroke="#F08650" stroke-width="3.5"></path>
                    <path d="M183.43785,156.722571 L208.72685,173.827857" id="Stroke-182" stroke="#F08650" stroke-width="3.5"></path>
                    <polygon id="Fill-184" fill="#33526E" points="99.94635 126.239099 84.05985 126.239099 80.55785 121.271706 102.44785 121.271706"></polygon>
                    <polygon id="Stroke-186" stroke="#33526E" stroke-width="3.5" stroke-linecap="round" stroke-linejoin="round" points="99.94635 126.239099 84.05985 126.239099 80.55785 121.271706 102.44785 121.271706"></polygon>
                    <path d="M60.99805,127.523385 L123.08655,127.523385" id="Stroke-188" stroke="#33526E" stroke-width="3.5" stroke-linecap="round" stroke-linejoin="round"></path>
                    <polygon id="Stroke-190" stroke="#F08650" stroke-width="3.5" stroke-linecap="round" points="147.99625 0.277731027 152.24325 4.39484423 158.09425 3.56560943 159.11525 9.39831174 164.33575 12.1736178 161.74025 17.4937478 164.33575 22.8138778 159.11525 25.5891839 158.09425 31.4218862 152.24325 30.5926514 147.99625 34.7097646 143.74925 30.5926514 137.89825 31.4218862 136.87725 25.5891839 131.65725 22.8138778 134.25225 17.4937478 131.65725 12.1736178 136.87725 9.39831174 137.89825 3.56560943 143.74925 4.39484423"></polygon>
                    <path d="M46.83885,99.2365078 C49.95485,111.924552 42.21685,124.741866 29.55535,127.864399 C16.89385,130.987432 4.10385,123.23321 0.98735,110.545166 C-2.12865,97.857122 5.60935,85.0398075 18.27085,81.916774 C30.93235,78.7942415 43.72285,86.5484637 46.83885,99.2365078" id="Fill-192" fill="#FEFEFE"></path>
                </g>
                <g id="Group-207" transform="translate(70.500000, 81.327642)">
                    <g id="Group-197">
                        <mask id="mask-2" fill="white">
                            <use xlink:href="#path-1"></use>
                        </mask>
                        <g id="Clip-196"></g>
                        <path d="M84.51235,4.94840231 L2.89935,4.94840231 C1.51885,4.94840231 0.39935,3.82705639 0.39935,2.44316122 C0.39935,1.05926604 1.51885,-0.0620798742 2.89935,-0.0620798742 L84.51235,-0.0620798742 C85.89285,-0.0620798742 87.01235,1.05926604 87.01235,2.44316122 C87.01235,3.82705639 85.89285,4.94840231 84.51235,4.94840231" id="Fill-195" fill="#33526E" mask="url(#mask-2)"></path>
                    </g>
                    <g id="Group-200" transform="translate(0.000000, 8.517820)">
                        <mask id="mask-4" fill="white">
                            <use xlink:href="#path-3"></use>
                        </mask>
                        <g id="Clip-199"></g>
                        <path d="M58.03575,5.21997044 L2.89925,5.21997044 C1.51875,5.21997044 0.39925,4.09862453 0.39925,2.71472935 C0.39925,1.33083417 1.51875,0.20948826 2.89925,0.20948826 L58.03575,0.20948826 C59.41625,0.20948826 60.53575,1.33083417 60.53575,2.71472935 C60.53575,4.09862453 59.41625,5.21997044 58.03575,5.21997044" id="Fill-198" fill="#33526E" mask="url(#mask-4)"></path>
                    </g>
                    <g id="Group-203" transform="translate(0.000000, 17.035639)">
                        <mask id="mask-6" fill="white">
                            <use xlink:href="#path-5"></use>
                        </mask>
                        <g id="Clip-202"></g>
                        <path d="M84.51235,5.49103753 L2.89935,5.49103753 C1.51885,5.49103753 0.39935,4.36969161 0.39935,2.98579644 C0.39935,1.60190126 1.51885,0.480555346 2.89935,0.480555346 L84.51235,0.480555346 C85.89285,0.480555346 87.01235,1.60190126 87.01235,2.98579644 C87.01235,4.36969161 85.89285,5.49103753 84.51235,5.49103753" id="Fill-201" fill="#33526E" mask="url(#mask-6)"></path>
                    </g>
                    <g id="Group-206" transform="translate(0.000000, 26.054507)">
                        <mask id="mask-8" fill="white">
                            <use xlink:href="#path-7"></use>
                        </mask>
                        <g id="Clip-205"></g>
                        <path d="M84.51235,5.26105639 L2.89935,5.26105639 C1.51885,5.26105639 0.39935,4.13971048 0.39935,2.7558153 C0.39935,1.37192013 1.51885,0.250574214 2.89935,0.250574214 L84.51235,0.250574214 C85.89285,0.250574214 87.01235,1.37192013 87.01235,2.7558153 C87.01235,4.13971048 85.89285,5.26105639 84.51235,5.26105639" id="Fill-204" fill="#33526E" mask="url(#mask-8)"></path>
                    </g>
                </g>
                <g id="Group-236" transform="translate(0.000000, 81.327642)" stroke-width="3.5">
                    <path d="M100.33885,18.0666964 C103.45485,30.7547405 95.71685,43.5720549 83.05535,46.6945874 C70.39385,49.817621 57.60385,42.0633987 54.48735,29.3753547 C51.37135,16.6873107 59.10935,3.86999623 71.77085,0.746962683 C84.43235,-2.37556981 97.22285,5.37865241 100.33885,18.0666964 L100.33885,18.0666964 Z" id="Stroke-208" stroke="#9A67A8"></path>
                    <path d="M40.9757,60.3161845 C41.2037,59.2940461 41.6737,58.3099874 42.3932,57.4526939" id="Stroke-210" stroke="#9A67A8"></path>
                    <path d="M42.3961,57.5342145 L58.0266,37.234747" id="Stroke-212" stroke="#9A67A8"></path>
                    <path d="M63.80755,51.5319073 L68.81355,44.9857124" id="Stroke-214" stroke="#9A67A8"></path>
                    <path d="M69.47055,70.4716302 C69.80105,72.7468901 69.32055,75.1218587 67.83405,76.6375296 C65.31305,79.208909 61.28705,79.3998084 58.54305,77.1856763" id="Stroke-216" stroke="#F08650" stroke-linecap="round"></path>
                    <path d="M58.6137,76.84807 C60.4807,79.1899694 60.3497,82.6141329 58.2002,84.8062189 C55.8787,87.1736717 52.0817,87.2067409 49.7187,84.880374 C49.5147,84.6789526 49.1112,84.1548562 48.0232,83.0836151" id="Stroke-218" stroke="#F08650" stroke-linecap="round"></path>
                    <path d="M62.08895,57.6332717 C59.67095,58.748605 58.61295,61.6176071 59.72595,64.0406763 C60.83945,66.4637455 63.70195,67.5239635 66.11995,66.4086302" id="Stroke-220" stroke="#F08650"></path>
                    <path d="M66.04425,66.443453 C66.04425,66.443453 68.64925,65.2414384 70.04625,64.5970904 C72.46425,63.481757 73.52225,60.613256 72.40925,58.1896857 C71.29575,55.7666166 68.43325,54.7063985 66.01525,55.8222329 C63.59675,56.9375662 62.01325,57.6680945 62.01325,57.6680945" id="Stroke-222" stroke="#F08650"></path>
                    <path d="M72.5958,68.3652736 C75.5473,66.6912715 77.5033,63.4805545 77.4098,59.8459507 C77.2748,54.5999759 72.9218,50.4568082 67.6868,50.5920912 C66.2963,50.6281667 64.9833,50.9623658 63.8078,51.5320577" id="Stroke-224" stroke="#F08650"></path>
                    <path d="M36.87435,61.1488765 C31.18385,62.4696396 27.01085,67.6534845 27.16735,73.7327025 C27.34635,80.6807382 33.11185,86.1682182 40.04535,85.988843 C42.08585,85.9362329 44.00035,85.3986082 45.68135,84.4887046" id="Stroke-226" stroke="#F08650"></path>
                    <path d="M72.5965,68.3630189 L45.6815,84.4862495" id="Stroke-228" stroke="#F08650"></path>
                    <path d="M64.7301,51.1463507 L35.9836,61.3912836" id="Stroke-230" stroke="#F08650"></path>
                    <path d="M28.7581,63.2874004 L0.0726,85.5815409" id="Stroke-232" stroke="#F08650"></path>
                    <path d="M45.68175,84.4862495 L16.45375,115.991159" id="Stroke-234" stroke="#F08650"></path>
                </g>
            </g>
        </g>
    </g>
</svg>