<?xml version="1.0" encoding="UTF-8" standalone="no"?>
<svg width="310px" height="261px" viewBox="0 0 310 261" version="1.1" xmlns="http://www.w3.org/2000/svg" xmlns:xlink="http://www.w3.org/1999/xlink">
    <!-- Generator: Sketch 3.8.3 (29802) - http://www.bohemiancoding.com/sketch -->
    <title>Artboard 31</title>
    <desc>Created with Sketch.</desc>
    <defs>
        <polygon id="path-1" points="0 242 307.688 242 307.688 0.343 0 0.343"></polygon>
        <polygon id="path-3" points="39.688 4.416 39.688 0.49 0.5321 0.49 0.5321 4.416 39.688 4.416"></polygon>
        <path d="M0.8995,1.47693873 C1.18731134,1.39452156 1.47783588,1.31716811 1.771,1.245 C3.665,0.779 5.564,0.556 7.431,0.556 C12.7005114,0.555503532 17.7309368,2.33163839 21.7851212,5.438 L0.8995,5.438 L0.8995,1.47693873 L0.8995,1.47693873 Z" id="path-5"></path>
        <path d="M28.8233119,5.209 C27.979878,3.39107584 26.9202596,1.7163893 25.6841867,0.209 L0.8999,0.209 L0.8999,5.209 L28.8233119,5.209 L28.8233119,5.209 Z" id="path-7"></path>
        <path d="M30.9973851,5.9795 C30.9212271,4.50479657 30.7049661,3.01600168 30.339,1.529 C30.29366,1.34478274 30.2462726,1.1616076 30.1968681,0.979492864 L0.8995,0.9795 L0.8995,5.9795 L30.9973851,5.9795 L30.9973851,5.9795 Z" id="path-9"></path>
        <path d="M29.7768401,5.75 C30.3238642,4.14076001 30.6997865,2.46512118 30.8883361,0.75 L0.8995,0.75 L0.8995,5.75 L29.7768401,5.75 L29.7768401,5.75 Z" id="path-11"></path>
    </defs>
    <g id="Page-1" stroke="none" stroke-width="1" fill="none" fill-rule="evenodd">
        <g id="Artboard-31">
            <g id="Page-1" transform="translate(1.000000, 7.000000)">
                <g id="Group-107" transform="translate(0.000000, 0.657000)">
                    <path d="M26.3914,157.6753 C26.1714,149.1463 29.1344,140.9073 34.7334,134.4763 C40.2964,128.0873 47.9764,124.0223 56.3584,123.0333 L56.7684,126.5083 C49.2524,127.3963 42.3644,131.0423 37.3724,136.7753 C32.3504,142.5433 29.6934,149.9333 29.8904,157.5853 L26.3914,157.6753 L26.3914,157.6753 Z" id="Fill-1" fill="#F08650"></path>
                    <path d="M171.2244,156.2817 L160.9174,156.2817 C159.9514,156.2817 159.1674,155.4977 159.1674,154.5317 C159.1674,153.5657 159.9514,152.7817 160.9174,152.7817 L171.2244,152.7817 C172.1914,152.7817 172.9744,153.5657 172.9744,154.5317 C172.9744,155.4977 172.1914,156.2817 171.2244,156.2817" id="Fill-3" fill="#9A67A8"></path>
                    <path d="M171.2244,166.5083 L160.9174,166.5083 C159.9514,166.5083 159.1674,165.7243 159.1674,164.7583 C159.1674,163.7923 159.9514,163.0083 160.9174,163.0083 L171.2244,163.0083 C172.1914,163.0083 172.9744,163.7923 172.9744,164.7583 C172.9744,165.7243 172.1914,166.5083 171.2244,166.5083" id="Fill-5" fill="#9A67A8"></path>
                    <path d="M171.2244,176.7344 L160.9174,176.7344 C159.9514,176.7344 159.1674,175.9504 159.1674,174.9844 C159.1674,174.0184 159.9514,173.2344 160.9174,173.2344 L171.2244,173.2344 C172.1914,173.2344 172.9744,174.0184 172.9744,174.9844 C172.9744,175.9504 172.1914,176.7344 171.2244,176.7344" id="Fill-7" fill="#9A67A8"></path>
                    <path d="M171.2244,186.9609 L160.9174,186.9609 C159.9514,186.9609 159.1674,186.1769 159.1674,185.2109 C159.1674,184.2449 159.9514,183.4609 160.9174,183.4609 L171.2244,183.4609 C172.1914,183.4609 172.9744,184.2449 172.9744,185.2109 C172.9744,186.1769 172.1914,186.9609 171.2244,186.9609" id="Fill-9" fill="#9A67A8"></path>
                    <path d="M171.2244,197.1875 L160.9174,197.1875 C159.9514,197.1875 159.1674,196.4035 159.1674,195.4375 C159.1674,194.4715 159.9514,193.6875 160.9174,193.6875 L171.2244,193.6875 C172.1914,193.6875 172.9744,194.4715 172.9744,195.4375 C172.9744,196.4035 172.1914,197.1875 171.2244,197.1875" id="Fill-11" fill="#9A67A8"></path>
                    <path d="M171.2244,207.4136 L160.9174,207.4136 C159.9514,207.4136 159.1674,206.6296 159.1674,205.6636 C159.1674,204.6976 159.9514,203.9136 160.9174,203.9136 L171.2244,203.9136 C172.1914,203.9136 172.9744,204.6976 172.9744,205.6636 C172.9744,206.6296 172.1914,207.4136 171.2244,207.4136" id="Fill-13" fill="#9A67A8"></path>
                    <path d="M171.2244,217.6401 L160.9174,217.6401 C159.9514,217.6401 159.1674,216.8561 159.1674,215.8901 C159.1674,214.9241 159.9514,214.1401 160.9174,214.1401 L171.2244,214.1401 C172.1914,214.1401 172.9744,214.9241 172.9744,215.8901 C172.9744,216.8561 172.1914,217.6401 171.2244,217.6401" id="Fill-15" fill="#9A67A8"></path>
                    <path d="M171.2244,227.8667 L160.9174,227.8667 C159.9514,227.8667 159.1674,227.0827 159.1674,226.1167 C159.1674,225.1507 159.9514,224.3667 160.9174,224.3667 L171.2244,224.3667 C172.1914,224.3667 172.9744,225.1507 172.9744,226.1167 C172.9744,227.0827 172.1914,227.8667 171.2244,227.8667" id="Fill-17" fill="#9A67A8"></path>
                    <path d="M226.729,242 L164.269,242 L164.269,142.272 L226.634,142.272 C229.948,142.272 233.074,143.353 235.675,145.397 L233.511,148.148 C231.534,146.594 229.156,145.772 226.634,145.772 L167.769,145.772 L167.769,238.5 L226.729,238.5 C232.816,238.5 237.769,233.548 237.769,227.46 L237.769,188.169 L241.269,188.169 L241.269,227.46 C241.269,235.478 234.746,242 226.729,242" id="Fill-19" fill="#9A67A8"></path>
                    <path d="M105.803,145.772 C99.663,145.772 94.668,150.767 94.668,156.907 L94.668,227.46 C94.668,233.548 99.621,238.5 105.708,238.5 L164.668,238.5 L164.668,145.772 L105.803,145.772 Z M168.168,242 L105.708,242 C97.691,242 91.168,235.478 91.168,227.46 L91.168,156.907 C91.168,148.837 97.733,142.272 105.803,142.272 L168.168,142.272 L168.168,242 Z" id="Fill-21" fill="#9A67A8"></path>
                    <path d="M153.9229,160.6938 L118.4229,160.6938 C117.4559,160.6938 116.6729,159.9098 116.6729,158.9438 C116.6729,157.9778 117.4559,157.1938 118.4229,157.1938 L153.9229,157.1938 C154.8899,157.1938 155.6729,157.9778 155.6729,158.9438 C155.6729,159.9098 154.8899,160.6938 153.9229,160.6938" id="Fill-23" fill="#33526E"></path>
                    <path d="M153.9229,165.7446 L118.4229,165.7446 C117.4559,165.7446 116.6729,164.9606 116.6729,163.9946 C116.6729,163.0286 117.4559,162.2446 118.4229,162.2446 L153.9229,162.2446 C154.8899,162.2446 155.6729,163.0286 155.6729,163.9946 C155.6729,164.9606 154.8899,165.7446 153.9229,165.7446" id="Fill-25" fill="#33526E"></path>
                    <path d="M144.7842,170.7959 L118.4232,170.7959 C117.4562,170.7959 116.6732,170.0119 116.6732,169.0459 C116.6732,168.0799 117.4562,167.2959 118.4232,167.2959 L144.7842,167.2959 C145.7512,167.2959 146.5342,168.0799 146.5342,169.0459 C146.5342,170.0119 145.7512,170.7959 144.7842,170.7959" id="Fill-27" fill="#33526E"></path>
                    <path d="M153.9229,180.2534 L118.4229,180.2534 C117.4559,180.2534 116.6729,179.4694 116.6729,178.5034 C116.6729,177.5374 117.4559,176.7534 118.4229,176.7534 L153.9229,176.7534 C154.8899,176.7534 155.6729,177.5374 155.6729,178.5034 C155.6729,179.4694 154.8899,180.2534 153.9229,180.2534" id="Fill-29" fill="#33526E"></path>
                    <path d="M131.6035,185.3047 L118.4225,185.3047 C117.4565,185.3047 116.6725,184.5207 116.6725,183.5547 C116.6725,182.5887 117.4565,181.8047 118.4225,181.8047 L131.6035,181.8047 C132.5705,181.8047 133.3535,182.5887 133.3535,183.5547 C133.3535,184.5207 132.5705,185.3047 131.6035,185.3047" id="Fill-31" fill="#33526E"></path>
                    <path d="M153.9229,195.3105 L118.4229,195.3105 C117.4559,195.3105 116.6729,194.5265 116.6729,193.5605 C116.6729,192.5945 117.4559,191.8105 118.4229,191.8105 L153.9229,191.8105 C154.8899,191.8105 155.6729,192.5945 155.6729,193.5605 C155.6729,194.5265 154.8899,195.3105 153.9229,195.3105" id="Fill-33" fill="#33526E"></path>
                    <path d="M153.9229,200.3618 L118.4229,200.3618 C117.4559,200.3618 116.6729,199.5778 116.6729,198.6118 C116.6729,197.6458 117.4559,196.8618 118.4229,196.8618 L153.9229,196.8618 C154.8899,196.8618 155.6729,197.6458 155.6729,198.6118 C155.6729,199.5778 154.8899,200.3618 153.9229,200.3618" id="Fill-35" fill="#33526E"></path>
                    <path d="M153.9229,205.4126 L118.4229,205.4126 C117.4559,205.4126 116.6729,204.6286 116.6729,203.6626 C116.6729,202.6966 117.4559,201.9126 118.4229,201.9126 L153.9229,201.9126 C154.8899,201.9126 155.6729,202.6966 155.6729,203.6626 C155.6729,204.6286 154.8899,205.4126 153.9229,205.4126" id="Fill-37" fill="#33526E"></path>
                    <path d="M150.7595,210.3677 L118.4225,210.3677 C117.4565,210.3677 116.6725,209.5837 116.6725,208.6177 C116.6725,207.6517 117.4565,206.8677 118.4225,206.8677 L150.7595,206.8677 C151.7265,206.8677 152.5095,207.6517 152.5095,208.6177 C152.5095,209.5837 151.7265,210.3677 150.7595,210.3677" id="Fill-39" fill="#33526E"></path>
                    <path d="M153.9229,219.9214 L118.4229,219.9214 C117.4559,219.9214 116.6729,219.1374 116.6729,218.1714 C116.6729,217.2054 117.4559,216.4214 118.4229,216.4214 L153.9229,216.4214 C154.8899,216.4214 155.6729,217.2054 155.6729,218.1714 C155.6729,219.1374 154.8899,219.9214 153.9229,219.9214" id="Fill-41" fill="#33526E"></path>
                    <path d="M144.7842,224.9727 L118.4232,224.9727 C117.4562,224.9727 116.6732,224.1887 116.6732,223.2227 C116.6732,222.2567 117.4562,221.4727 118.4232,221.4727 L144.7842,221.4727 C145.7512,221.4727 146.5342,222.2567 146.5342,223.2227 C146.5342,224.1887 145.7512,224.9727 144.7842,224.9727" id="Fill-43" fill="#33526E"></path>
                    <path d="M199.2048,160.6938 L195.4248,160.6938 C194.4578,160.6938 193.6748,159.9098 193.6748,158.9438 C193.6748,157.9778 194.4578,157.1938 195.4248,157.1938 L199.2048,157.1938 C200.1718,157.1938 200.9548,157.9778 200.9548,158.9438 C200.9548,159.9098 200.1718,160.6938 199.2048,160.6938" id="Fill-45" fill="#33526E"></path>
                    <path d="M201.8804,165.7446 L195.4244,165.7446 C194.4584,165.7446 193.6744,164.9606 193.6744,163.9946 C193.6744,163.0286 194.4584,162.2446 195.4244,162.2446 L201.8804,162.2446 C202.8474,162.2446 203.6304,163.0286 203.6304,163.9946 C203.6304,164.9606 202.8474,165.7446 201.8804,165.7446" id="Fill-47" fill="#33526E"></path>
                    <path d="M208.6055,180.3013 L195.4245,180.3013 C194.4585,180.3013 193.6745,179.5173 193.6745,178.5513 C193.6745,177.5853 194.4585,176.8013 195.4245,176.8013 L208.6055,176.8013 C209.5725,176.8013 210.3555,177.5853 210.3555,178.5513 C210.3555,179.5173 209.5725,180.3013 208.6055,180.3013" id="Fill-49" fill="#33526E"></path>
                    <path d="M230.9246,190.3071 L195.4246,190.3071 C194.4576,190.3071 193.6746,189.5231 193.6746,188.5571 C193.6746,187.5911 194.4576,186.8071 195.4246,186.8071 L230.9246,186.8071 C231.8916,186.8071 232.6746,187.5911 232.6746,188.5571 C232.6746,189.5231 231.8916,190.3071 230.9246,190.3071" id="Fill-51" fill="#33526E"></path>
                    <path d="M230.9246,195.3584 L195.4246,195.3584 C194.4576,195.3584 193.6746,194.5744 193.6746,193.6084 C193.6746,192.6424 194.4576,191.8584 195.4246,191.8584 L230.9246,191.8584 C231.8916,191.8584 232.6746,192.6424 232.6746,193.6084 C232.6746,194.5744 231.8916,195.3584 230.9246,195.3584" id="Fill-53" fill="#33526E"></path>
                    <path d="M224.4185,200.4097 L195.4245,200.4097 C194.4585,200.4097 193.6745,199.6257 193.6745,198.6597 C193.6745,197.6937 194.4585,196.9097 195.4245,196.9097 L224.4185,196.9097 C225.3855,196.9097 226.1685,197.6937 226.1685,198.6597 C226.1685,199.6257 225.3855,200.4097 224.4185,200.4097" id="Fill-55" fill="#33526E"></path>
                    <path d="M230.9246,210.4155 L195.4246,210.4155 C194.4576,210.4155 193.6746,209.6315 193.6746,208.6655 C193.6746,207.6995 194.4576,206.9155 195.4246,206.9155 L230.9246,206.9155 C231.8916,206.9155 232.6746,207.6995 232.6746,208.6655 C232.6746,209.6315 231.8916,210.4155 230.9246,210.4155" id="Fill-57" fill="#33526E"></path>
                    <path d="M230.9246,215.4668 L195.4246,215.4668 C194.4576,215.4668 193.6746,214.6828 193.6746,213.7168 C193.6746,212.7508 194.4576,211.9668 195.4246,211.9668 L230.9246,211.9668 C231.8916,211.9668 232.6746,212.7508 232.6746,213.7168 C232.6746,214.6828 231.8916,215.4668 230.9246,215.4668" id="Fill-59" fill="#33526E"></path>
                    <path d="M215.4185,220.4219 L195.4245,220.4219 C194.4585,220.4219 193.6745,219.6379 193.6745,218.6719 C193.6745,217.7059 194.4585,216.9219 195.4245,216.9219 L215.4185,216.9219 C216.3855,216.9219 217.1685,217.7059 217.1685,218.6719 C217.1685,219.6379 216.3855,220.4219 215.4185,220.4219" id="Fill-61" fill="#33526E"></path>
                    <path d="M105.6775,168.1597 C105.2185,168.1597 104.7775,167.9797 104.4485,167.6567 L100.4775,163.7417 C99.7885,163.0627 99.7805,161.9547 100.4595,161.2667 C101.1375,160.5787 102.2455,160.5707 102.9345,161.2487 L105.5765,163.8527 L110.3105,158.3847 C110.9425,157.6547 112.0475,157.5757 112.7785,158.2067 C113.5095,158.8397 113.5885,159.9447 112.9565,160.6757 L107.0005,167.5557 C106.6835,167.9207 106.2295,168.1387 105.7465,168.1587 C105.7235,168.1597 105.7005,168.1597 105.6775,168.1597" id="Fill-63" fill="#50B9A7"></path>
                    <path d="M183.3496,168.1597 C182.8906,168.1597 182.4496,167.9797 182.1206,167.6567 L178.1496,163.7417 C177.4606,163.0627 177.4526,161.9547 178.1316,161.2667 C178.8096,160.5787 179.9176,160.5707 180.6066,161.2487 L183.2486,163.8527 L187.9826,158.3847 C188.6146,157.6547 189.7196,157.5757 190.4506,158.2067 C191.1816,158.8397 191.2606,159.9447 190.6286,160.6757 L184.6726,167.5557 C184.3556,167.9207 183.9016,168.1387 183.4186,168.1587 C183.3956,168.1597 183.3726,168.1597 183.3496,168.1597" id="Fill-65" fill="#50B9A7"></path>
                    <path d="M183.3496,180.1743 C182.8906,180.1743 182.4496,179.9943 182.1206,179.6713 L178.1496,175.7563 C177.4606,175.0773 177.4526,173.9693 178.1316,173.2813 C178.8096,172.5933 179.9176,172.5853 180.6066,173.2633 L183.2486,175.8673 L187.9826,170.3993 C188.6146,169.6693 189.7196,169.5903 190.4506,170.2213 C191.1816,170.8543 191.2606,171.9593 190.6286,172.6903 L184.6726,179.5703 C184.3556,179.9353 183.9016,180.1533 183.4186,180.1733 C183.3956,180.1743 183.3726,180.1743 183.3496,180.1743" id="Fill-67" fill="#50B9A7"></path>
                    <path d="M105.6775,205.2324 C105.2185,205.2324 104.7775,205.0524 104.4485,204.7294 L100.4775,200.8144 C99.7885,200.1354 99.7805,199.0274 100.4595,198.3394 C101.1375,197.6514 102.2455,197.6434 102.9345,198.3214 L105.5765,200.9254 L110.3105,195.4574 C110.9425,194.7274 112.0475,194.6484 112.7785,195.2794 C113.5095,195.9124 113.5885,197.0174 112.9565,197.7484 L107.0005,204.6284 C106.6835,204.9934 106.2295,205.2114 105.7465,205.2314 C105.7235,205.2324 105.7005,205.2324 105.6775,205.2324" id="Fill-69" fill="#50B9A7"></path>
                    <path d="M105.5349,226.8008 C105.0759,226.8008 104.6349,226.6208 104.3059,226.2978 L100.3349,222.3828 C99.6459,221.7038 99.6379,220.5958 100.3169,219.9078 C100.9949,219.2198 102.1029,219.2118 102.7919,219.8898 L105.4339,222.4938 L110.1669,217.0258 C110.7999,216.2958 111.9049,216.2158 112.6359,216.8478 C113.3669,217.4808 113.4459,218.5858 112.8129,219.3168 L106.8579,226.1968 C106.5419,226.5618 106.0869,226.7798 105.6039,226.7998 C105.5809,226.8008 105.5579,226.8008 105.5349,226.8008" id="Fill-71" fill="#50B9A7"></path>
                    <path d="M110.2774,186.8057 C109.7904,186.8057 109.3054,186.6037 108.9594,186.2077 L101.4594,177.6377 C100.8234,176.9107 100.8964,175.8047 101.6244,175.1687 C102.3514,174.5317 103.4574,174.6057 104.0934,175.3327 L111.5934,183.9037 C112.2304,184.6307 112.1564,185.7367 111.4294,186.3727 C111.0974,186.6627 110.6864,186.8057 110.2774,186.8057" id="Fill-73" fill="#EC6A5A"></path>
                    <path d="M102.7759,186.8057 C102.3669,186.8057 101.9559,186.6627 101.6239,186.3727 C100.8969,185.7367 100.8229,184.6307 101.4599,183.9037 L108.9599,175.3327 C109.5959,174.6057 110.7019,174.5317 111.4289,175.1687 C112.1569,175.8047 112.2299,176.9107 111.5939,177.6377 L104.0939,186.2077 C103.7479,186.6037 103.2629,186.8057 102.7759,186.8057" id="Fill-75" fill="#EC6A5A"></path>
                    <path d="M224.9058,125.2681 L67.9058,125.2681 C66.9388,125.2681 66.1558,124.4841 66.1558,123.5181 L66.1558,27.0181 C66.1558,26.0521 66.9388,25.2681 67.9058,25.2681 L72.9058,25.2681 C73.8718,25.2681 74.6558,26.0521 74.6558,27.0181 C74.6558,27.9841 73.8718,28.7681 72.9058,28.7681 L69.6558,28.7681 L69.6558,121.7681 L223.1558,121.7681 L223.1558,28.7681 L220.4058,28.7681 C219.4388,28.7681 218.6558,27.9841 218.6558,27.0181 C218.6558,26.0521 219.4388,25.2681 220.4058,25.2681 L224.9058,25.2681 C225.8728,25.2681 226.6558,26.0521 226.6558,27.0181 L226.6558,123.5181 C226.6558,124.4841 225.8728,125.2681 224.9058,125.2681" id="Fill-77" fill="#33526E"></path>
                    <path d="M71.1558,121.2808 L71.1558,21.5818 L72.6618,21.3698 C72.7708,21.3548 83.7308,19.8298 98.2448,19.2598 C111.5398,18.7388 130.6188,18.9338 146.3538,22.7878 C160.5608,18.4318 177.9028,17.3458 188.8898,18.2128 L188.6148,21.7018 C177.8418,20.8518 160.7738,21.9368 146.9288,26.2738 L146.4578,26.4208 L145.9798,26.3008 C119.5618,19.6758 82.5328,23.6738 74.6558,24.6418 L74.6558,117.3898 C84.2918,116.4268 126.1368,112.6488 146.2578,117.4908 C151.9228,115.2518 165.9918,114.5768 188.1068,115.4838 C201.5708,116.0348 214.2318,117.0328 218.9138,117.4248 L218.9138,24.5798 C218.5148,24.5258 217.9968,24.4568 217.3268,24.3708 L217.7718,20.8988 C219.0138,21.0578 219.9158,21.1818 220.4528,21.2668 C221.8378,21.4848 222.5058,22.1378 222.4368,23.2088 L222.4138,23.2308 L222.4138,121.2448 L220.5068,121.0738 C203.3208,119.5298 156.6388,116.4898 147.1458,120.9168 L146.5798,121.1808 L145.9748,121.0268 C124.5328,115.5718 73.6068,121.0148 73.0948,121.0708 L71.1558,121.2808 Z" id="Fill-79" fill="#80B9C2"></path>
                    <path d="M131.4087,52.3301 L95.9087,52.3301 C94.9417,52.3301 94.1587,51.5461 94.1587,50.5801 C94.1587,49.6141 94.9417,48.8301 95.9087,48.8301 L131.4087,48.8301 C132.3757,48.8301 133.1587,49.6141 133.1587,50.5801 C133.1587,51.5461 132.3757,52.3301 131.4087,52.3301" id="Fill-81" fill="#33526E"></path>
                    <path d="M131.4087,57.3813 L84.4057,57.3813 C83.4397,57.3813 82.6557,56.5973 82.6557,55.6313 C82.6557,54.6653 83.4397,53.8813 84.4057,53.8813 L131.4087,53.8813 C132.3757,53.8813 133.1587,54.6653 133.1587,55.6313 C133.1587,56.5973 132.3757,57.3813 131.4087,57.3813" id="Fill-83" fill="#33526E"></path>
                    <path d="M131.4087,62.4321 L84.4057,62.4321 C83.4397,62.4321 82.6557,61.6481 82.6557,60.6821 C82.6557,59.7161 83.4397,58.9321 84.4057,58.9321 L131.4087,58.9321 C132.3757,58.9321 133.1587,59.7161 133.1587,60.6821 C133.1587,61.6481 132.3757,62.4321 131.4087,62.4321" id="Fill-85" fill="#33526E"></path>
                    <path d="M119.3089,67.4834 L84.4059,67.4834 C83.4389,67.4834 82.6559,66.6994 82.6559,65.7334 C82.6559,64.7674 83.4389,63.9834 84.4059,63.9834 L119.3089,63.9834 C120.2759,63.9834 121.0589,64.7674 121.0589,65.7334 C121.0589,66.6994 120.2759,67.4834 119.3089,67.4834" id="Fill-87" fill="#33526E"></path>
                    <path d="M131.4087,72.5347 L84.4057,72.5347 C83.4397,72.5347 82.6557,71.7507 82.6557,70.7847 C82.6557,69.8187 83.4397,69.0347 84.4057,69.0347 L131.4087,69.0347 C132.3757,69.0347 133.1587,69.8187 133.1587,70.7847 C133.1587,71.7507 132.3757,72.5347 131.4087,72.5347" id="Fill-89" fill="#33526E"></path>
                    <path d="M131.4087,77.5859 L84.4057,77.5859 C83.4397,77.5859 82.6557,76.8019 82.6557,75.8359 C82.6557,74.8699 83.4397,74.0859 84.4057,74.0859 L131.4087,74.0859 C132.3757,74.0859 133.1587,74.8699 133.1587,75.8359 C133.1587,76.8019 132.3757,77.5859 131.4087,77.5859" id="Fill-91" fill="#33526E"></path>
                    <path d="M131.4087,82.6372 L84.4057,82.6372 C83.4397,82.6372 82.6557,81.8532 82.6557,80.8872 C82.6557,79.9212 83.4397,79.1372 84.4057,79.1372 L131.4087,79.1372 C132.3757,79.1372 133.1587,79.9212 133.1587,80.8872 C133.1587,81.8532 132.3757,82.6372 131.4087,82.6372" id="Fill-93" fill="#33526E"></path>
                    <path d="M131.4087,87.6885 L84.4057,87.6885 C83.4397,87.6885 82.6557,86.9045 82.6557,85.9385 C82.6557,84.9725 83.4397,84.1885 84.4057,84.1885 L131.4087,84.1885 C132.3757,84.1885 133.1587,84.9725 133.1587,85.9385 C133.1587,86.9045 132.3757,87.6885 131.4087,87.6885" id="Fill-95" fill="#33526E"></path>
                    <path d="M116.1602,92.7393 L84.4062,92.7393 C83.4392,92.7393 82.6562,91.9553 82.6562,90.9893 C82.6562,90.0233 83.4392,89.2393 84.4062,89.2393 L116.1602,89.2393 C117.1272,89.2393 117.9102,90.0233 117.9102,90.9893 C117.9102,91.9553 117.1272,92.7393 116.1602,92.7393" id="Fill-97" fill="#33526E"></path>
                    <path d="M131.4087,97.7905 L84.4057,97.7905 C83.4397,97.7905 82.6557,97.0065 82.6557,96.0405 C82.6557,95.0745 83.4397,94.2905 84.4057,94.2905 L131.4087,94.2905 C132.3757,94.2905 133.1587,95.0745 133.1587,96.0405 C133.1587,97.0065 132.3757,97.7905 131.4087,97.7905" id="Fill-99" fill="#33526E"></path>
                    <path d="M131.4087,102.8418 L84.4057,102.8418 C83.4397,102.8418 82.6557,102.0578 82.6557,101.0918 C82.6557,100.1258 83.4397,99.3418 84.4057,99.3418 L131.4087,99.3418 C132.3757,99.3418 133.1587,100.1258 133.1587,101.0918 C133.1587,102.0578 132.3757,102.8418 131.4087,102.8418" id="Fill-101" fill="#33526E"></path>
                    <path d="M119.3089,57.3813 L84.4059,57.3813 C83.4389,57.3813 82.6559,56.5973 82.6559,55.6313 C82.6559,54.6653 83.4389,53.8813 84.4059,53.8813 L119.3089,53.8813 C120.2759,53.8813 121.0589,54.6653 121.0589,55.6313 C121.0589,56.5973 120.2759,57.3813 119.3089,57.3813" id="Fill-103" fill="#33526E"></path>
                    <mask id="mask-2" fill="white">
                        <use xlink:href="#path-1"></use>
                    </mask>
                    <g id="Clip-106"></g>
                    <polygon id="Fill-105" fill="#80B9C2" mask="url(#mask-2)" points="144.656 119.331 148.156 119.331 148.156 23.103 144.656 23.103"></polygon>
                </g>
                <text id="L" font-family="MontserratAlternates-Bold, Montserrat Alternates" font-size="16.5" font-weight="bold" fill="#33526E">
                    <tspan x="81.6934" y="51.6234449">L</tspan>
                </text>
                <g id="Group-195" transform="translate(54.000000, 0.657000)">
                    <polygon id="Stroke-108" stroke="#33526E" points="36.6035 51.0801 36.6035 48.7861 31.6865 48.7861 31.6865 39.5471 29.1125 39.5471 29.1125 51.0801"></polygon>
                    <path d="M139.1621,57.3813 L108.0111,57.3813 C107.0451,57.3813 106.2611,56.5973 106.2611,55.6313 C106.2611,54.6653 107.0451,53.8813 108.0111,53.8813 L139.1621,53.8813 C140.1291,53.8813 140.9121,54.6653 140.9121,55.6313 C140.9121,56.5973 140.1291,57.3813 139.1621,57.3813" id="Fill-110" fill="#33526E"></path>
                    <path d="M155.0142,52.3301 L108.0112,52.3301 C107.0452,52.3301 106.2612,51.5461 106.2612,50.5801 C106.2612,49.6141 107.0452,48.8301 108.0112,48.8301 L155.0142,48.8301 C155.9812,48.8301 156.7642,49.6141 156.7642,50.5801 C156.7642,51.5461 155.9812,52.3301 155.0142,52.3301" id="Fill-112" fill="#33526E"></path>
                    <path d="M155.0142,47.2788 L108.0112,47.2788 C107.0452,47.2788 106.2612,46.4948 106.2612,45.5288 C106.2612,44.5628 107.0452,43.7788 108.0112,43.7788 L155.0142,43.7788 C155.9812,43.7788 156.7642,44.5628 156.7642,45.5288 C156.7642,46.4948 155.9812,47.2788 155.0142,47.2788" id="Fill-114" fill="#33526E"></path>
                    <path d="M155.0142,42.2275 L108.0112,42.2275 C107.0452,42.2275 106.2612,41.4435 106.2612,40.4775 C106.2612,39.5115 107.0452,38.7275 108.0112,38.7275 L155.0142,38.7275 C155.9812,38.7275 156.7642,39.5115 156.7642,40.4775 C156.7642,41.4435 155.9812,42.2275 155.0142,42.2275" id="Fill-116" fill="#33526E"></path>
                    <path d="M155.0142,62.4321 L108.0112,62.4321 C107.0452,62.4321 106.2612,61.6481 106.2612,60.6821 C106.2612,59.7161 107.0452,58.9321 108.0112,58.9321 L155.0142,58.9321 C155.9812,58.9321 156.7642,59.7161 156.7642,60.6821 C156.7642,61.6481 155.9812,62.4321 155.0142,62.4321" id="Fill-118" fill="#33526E"></path>
                    <path d="M155.0142,67.4834 L108.0112,67.4834 C107.0452,67.4834 106.2612,66.6994 106.2612,65.7334 C106.2612,64.7674 107.0452,63.9834 108.0112,63.9834 L155.0142,63.9834 C155.9812,63.9834 156.7642,64.7674 156.7642,65.7334 C156.7642,66.6994 155.9812,67.4834 155.0142,67.4834" id="Fill-120" fill="#33526E"></path>
                    <path d="M155.0142,72.5347 L108.0112,72.5347 C107.0452,72.5347 106.2612,71.7507 106.2612,70.7847 C106.2612,69.8187 107.0452,69.0347 108.0112,69.0347 L155.0142,69.0347 C155.9812,69.0347 156.7642,69.8187 156.7642,70.7847 C156.7642,71.7507 155.9812,72.5347 155.0142,72.5347" id="Fill-122" fill="#33526E"></path>
                    <path d="M155.0142,77.5859 L108.0112,77.5859 C107.0452,77.5859 106.2612,76.8019 106.2612,75.8359 C106.2612,74.8699 107.0452,74.0859 108.0112,74.0859 L155.0142,74.0859 C155.9812,74.0859 156.7642,74.8699 156.7642,75.8359 C156.7642,76.8019 155.9812,77.5859 155.0142,77.5859" id="Fill-124" fill="#33526E"></path>
                    <path d="M128.0024,82.6372 L108.0114,82.6372 C107.0444,82.6372 106.2614,81.8532 106.2614,80.8872 C106.2614,79.9212 107.0444,79.1372 108.0114,79.1372 L128.0024,79.1372 C128.9694,79.1372 129.7524,79.9212 129.7524,80.8872 C129.7524,81.8532 128.9694,82.6372 128.0024,82.6372" id="Fill-126" fill="#33526E"></path>
                    <path d="M155.0142,87.6885 L108.0112,87.6885 C107.0452,87.6885 106.2612,86.9045 106.2612,85.9385 C106.2612,84.9725 107.0452,84.1885 108.0112,84.1885 L155.0142,84.1885 C155.9812,84.1885 156.7642,84.9725 156.7642,85.9385 C156.7642,86.9045 155.9812,87.6885 155.0142,87.6885" id="Fill-128" fill="#33526E"></path>
                    <path d="M155.0142,92.7393 L108.0112,92.7393 C107.0452,92.7393 106.2612,91.9553 106.2612,90.9893 C106.2612,90.0233 107.0452,89.2393 108.0112,89.2393 L155.0142,89.2393 C155.9812,89.2393 156.7642,90.0233 156.7642,90.9893 C156.7642,91.9553 155.9812,92.7393 155.0142,92.7393" id="Fill-130" fill="#33526E"></path>
                    <path d="M155.0142,97.7905 L108.0112,97.7905 C107.0452,97.7905 106.2612,97.0065 106.2612,96.0405 C106.2612,95.0745 107.0452,94.2905 108.0112,94.2905 L155.0142,94.2905 C155.9812,94.2905 156.7642,95.0745 156.7642,96.0405 C156.7642,97.0065 155.9812,97.7905 155.0142,97.7905" id="Fill-132" fill="#33526E"></path>
                    <path d="M155.0142,102.8418 L108.0112,102.8418 C107.0452,102.8418 106.2612,102.0578 106.2612,101.0918 C106.2612,100.1258 107.0452,99.3418 108.0112,99.3418 L155.0142,99.3418 C155.9812,99.3418 156.7642,100.1258 156.7642,101.0918 C156.7642,102.0578 155.9812,102.8418 155.0142,102.8418" id="Fill-134" fill="#33526E"></path>
                    <path d="M142.9143,57.3813 L108.0113,57.3813 C107.0443,57.3813 106.2613,56.5973 106.2613,55.6313 C106.2613,54.6653 107.0443,53.8813 108.0113,53.8813 L142.9143,53.8813 C143.8813,53.8813 144.6643,54.6653 144.6643,55.6313 C144.6643,56.5973 143.8813,57.3813 142.9143,57.3813" id="Fill-136" fill="#33526E"></path>
                    <polyline id="Fill-138" fill="#FEFEFE" points="155.8733 34.1672 155.8733 55.6312 148.4773 47.2722 141.0813 55.6312 141.0813 34.1672"></polyline>
                    <path d="M155.8738,57.3813 C155.3818,57.3813 154.9018,57.1733 154.5628,56.7913 L148.4778,49.9133 L142.3918,56.7913 C141.9098,57.3363 141.1428,57.5253 140.4608,57.2683 C139.7808,57.0103 139.3318,56.3593 139.3318,55.6313 L139.3318,34.1673 C139.3318,33.2003 140.1148,32.4173 141.0818,32.4173 C142.0478,32.4173 142.8318,33.2003 142.8318,34.1673 L142.8318,51.0123 L147.1668,46.1123 C147.4988,45.7363 147.9758,45.5223 148.4778,45.5223 C148.9788,45.5223 149.4558,45.7363 149.7878,46.1123 L154.1238,51.0123 L154.1238,34.1673 C154.1238,33.2003 154.9068,32.4173 155.8738,32.4173 C156.8398,32.4173 157.6238,33.2003 157.6238,34.1673 L157.6238,55.6313 C157.6238,56.3593 157.1738,57.0103 156.4938,57.2683 C156.2908,57.3443 156.0818,57.3813 155.8738,57.3813" id="Fill-140" fill="#EC6A5A"></path>
                    <path d="M162.0015,184.5708 C159.4925,184.5708 156.9915,183.5578 155.1715,181.5618 C154.0355,180.3148 153.2625,178.7848 152.9365,177.1378 L156.3695,176.4588 C156.5715,177.4798 157.0515,178.4288 157.7575,179.2038 C159.8885,181.5408 163.5245,181.7098 165.8625,179.5778 C166.2815,179.1958 168.3015,176.9148 169.6015,175.4178 L172.2435,177.7128 C171.6985,178.3408 168.9425,181.5058 168.2205,182.1638 C166.4525,183.7758 164.2235,184.5708 162.0015,184.5708" id="Fill-142" fill="#F08650"></path>
                    <path d="M177.106,187.644 C176.97,187.644 176.833,187.641 176.696,187.634 C174.378,187.527 172.241,186.524 170.677,184.81 C168.573,182.501 167.87,179.222 168.841,176.251 L172.168,177.339 C171.587,179.114 172.007,181.073 173.264,182.452 C174.197,183.475 175.473,184.074 176.857,184.138 C178.243,184.207 179.567,183.724 180.591,182.79 L182.949,185.376 C181.336,186.847 179.274,187.644 177.106,187.644" id="Fill-144" fill="#F08650"></path>
                    <path d="M202.6101,200.9551 C201.3141,200.9551 199.9981,200.7781 198.6921,200.4051 C196.5051,199.7811 194.5551,198.6861 192.8981,197.1501 L195.2761,194.5831 C196.5271,195.7411 197.9991,196.5681 199.6521,197.0391 C205.3821,198.6721 211.3751,195.3401 213.0101,189.6091 C214.4121,184.6931 212.1441,179.4151 207.6171,177.0601 L209.2321,173.9551 C215.2271,177.0741 218.2321,184.0611 216.3761,190.5691 C214.5841,196.8501 208.8391,200.9551 202.6101,200.9551" id="Fill-146" fill="#F08650"></path>
                    <path d="M216.2639,191.1104 L212.8979,190.1504 C215.3349,181.6064 214.2989,172.6254 209.9809,164.8604 C205.6619,157.0964 198.5789,151.4784 190.0349,149.0424 C187.8949,148.4314 183.9109,147.8344 177.0919,148.4614 L176.7719,144.9754 C184.1299,144.2994 188.5669,144.9834 190.9949,145.6764 C200.4379,148.3694 208.2659,154.5784 213.0389,163.1594 C217.8119,171.7414 218.9569,181.6674 216.2639,191.1104" id="Fill-148" fill="#F08650"></path>
                    <g id="Group-152" transform="translate(214.000000, 166.000000)">
                        <mask id="mask-4" fill="white">
                            <use xlink:href="#path-3"></use>
                        </mask>
                        <g id="Clip-151"></g>
                        <polygon id="Fill-150" fill="#F08650" mask="url(#mask-4)" points="0.5701 4.416 0.5321 0.916 39.6501 0.49 39.6881 3.99"></polygon>
                    </g>
                    <polygon id="Fill-153" fill="#F08650" points="246.0139 207.1826 204.7239 200.7036 205.2669 197.2456 246.5559 203.7246"></polygon>
                    <path d="M198.6602,170.3667 C197.7622,170.3667 196.9982,169.6797 196.9192,168.7687 L196.3082,161.7807 L187.0962,162.5417 C186.1352,162.6167 185.2882,161.9057 185.2082,160.9417 C185.1282,159.9787 185.8452,159.1337 186.8082,159.0537 L197.7552,158.1487 C198.7162,158.0697 199.5592,158.7807 199.6432,159.7407 L200.4052,168.4647 C200.4902,169.4277 199.7772,170.2757 198.8142,170.3597 C198.7632,170.3647 198.7112,170.3667 198.6602,170.3667" id="Fill-155" fill="#80B9C2"></path>
                    <path d="M148.4631,180.3081 C147.5621,180.3081 146.7961,179.6171 146.7211,178.7021 L145.5241,164.2231 C145.4441,163.2601 146.1601,162.4141 147.1231,162.3351 L170.1171,160.4331 C171.0831,160.3631 171.9261,161.0701 172.0061,162.0341 C172.0851,162.9961 171.3691,163.8421 170.4061,163.9221 L149.1561,165.6791 L150.0651,176.6701 L174.3111,174.6651 C175.2791,174.5861 176.1201,175.3021 176.2001,176.2651 C176.2791,177.2281 175.5631,178.0741 174.6001,178.1531 L148.6091,180.3021 C148.5601,180.3061 148.5111,180.3081 148.4631,180.3081" id="Fill-157" fill="#80B9C2"></path>
                    <path d="M137.49,172.1763 L146.5,175.8583 L145.773,167.0653 L137.49,172.1763 Z M148.479,180.3073 C148.255,180.3073 148.031,180.2643 147.817,180.1773 L132.98,174.1143 C132.371,173.8653 131.952,173.2953 131.898,172.6383 C131.844,171.9823 132.163,171.3513 132.723,171.0053 L146.363,162.5883 C146.881,162.2683 147.528,162.2413 148.071,162.5153 C148.614,162.7903 148.976,163.3273 149.026,163.9333 L150.208,178.2253 C150.228,178.3323 150.239,178.4433 150.239,178.5573 C150.239,179.5233 149.456,180.3073 148.489,180.3073 L148.479,180.3073 L148.479,180.3073 Z" id="Fill-159" fill="#80B9C2"></path>
                    <path d="M147.8784,173.0674 C146.9774,173.0674 146.2114,172.3764 146.1364,171.4614 C146.0564,170.4984 146.7734,169.6524 147.7364,169.5734 L168.9834,167.8164 C169.9514,167.7384 170.7924,168.4534 170.8714,169.4164 C170.9514,170.3794 170.2354,171.2254 169.2724,171.3044 L148.0244,173.0614 C147.9754,173.0654 147.9264,173.0674 147.8784,173.0674" id="Fill-161" fill="#80B9C2"></path>
                    <polygon id="Fill-163" fill="#50B9A7" points="133.6421 172.4948 141.4641 167.5708 142.5811 176.1468"></polygon>
                    <path d="M137.4553,172.1621 L140.4573,173.3891 L140.0823,170.5091 L137.4553,172.1621 Z M142.5803,177.8971 C142.3573,177.8971 142.1323,177.8541 141.9193,177.7671 L132.9803,174.1151 C132.3733,173.8671 131.9553,173.3001 131.8983,172.6461 C131.8413,171.9931 132.1543,171.3631 132.7103,171.0141 L140.5323,166.0901 C141.0373,165.7711 141.6693,165.7331 142.2093,165.9871 C142.7493,166.2411 143.1223,166.7531 143.1993,167.3451 L144.2913,175.7341 C144.3233,175.8671 144.3403,176.0051 144.3403,176.1471 C144.3403,177.1131 143.5573,177.8971 142.5903,177.8971 C142.5873,177.8961 142.5833,177.8961 142.5803,177.8971 L142.5803,177.8971 Z" id="Fill-165" fill="#50B9A7"></path>
                    <path d="M152.6018,165.2817 C147.9158,165.2817 143.9118,161.6897 143.4908,156.9357 C143.2758,154.5007 144.0208,152.1267 145.5908,150.2527 C147.1598,148.3787 149.3648,147.2267 151.8008,147.0117 C153.6388,146.8487 176.3288,145.0507 177.2938,144.9737 L177.5698,148.4627 C177.3338,148.4817 153.9318,150.3367 152.1098,150.4977 C150.6048,150.6317 149.2428,151.3417 148.2738,152.4997 C147.3048,153.6567 146.8438,155.1227 146.9768,156.6277 C147.2528,159.7317 150.0048,162.0417 153.1068,161.7597 C157.1798,161.3987 170.2418,160.2657 170.2418,160.2657 L170.5438,163.7537 C170.5438,163.7537 157.4868,164.8847 153.4158,165.2457 C153.1428,165.2697 152.8708,165.2817 152.6018,165.2817" id="Fill-167" fill="#F08650"></path>
                    <path d="M156.8457,157.2534 L156.5367,153.7674 C157.0057,153.7254 157.4317,153.5034 157.7337,153.1424 C158.0367,152.7804 158.1797,152.3234 158.1387,151.8544 C158.0527,150.8854 157.1997,150.1684 156.2247,150.2524 L155.9167,146.7654 C158.8007,146.5174 161.3687,148.6544 161.6247,151.5454 C161.7487,152.9454 161.3197,154.3114 160.4177,155.3894 C159.5147,156.4674 158.2467,157.1294 156.8457,157.2534" id="Fill-169" fill="#F08650"></path>
                    <path d="M153.2327,157.5522 C152.0007,157.5522 150.8187,157.1242 149.8627,156.3232 C148.7847,155.4212 148.1227,154.1522 147.9987,152.7522 C147.8747,151.3512 148.3037,149.9862 149.2057,148.9072 C150.1087,147.8292 151.3777,147.1682 152.7777,147.0442 L155.9767,146.7602 L156.2857,150.2462 L153.0867,150.5302 C152.6167,150.5722 152.1917,150.7932 151.8897,151.1552 C151.5867,151.5162 151.4427,151.9732 151.4847,152.4432 C151.5257,152.9122 151.7477,153.3382 152.1097,153.6402 C152.4707,153.9432 152.9257,154.0882 153.3977,154.0452 L156.5977,153.7612 L156.9057,157.2482 L153.7067,157.5312 C153.5477,157.5452 153.3897,157.5522 153.2327,157.5522" id="Fill-171" fill="#F08650"></path>
                    <path d="M181.8313,176.127 C180.3723,176.127 178.9053,175.645 177.6883,174.654 L179.8993,171.94 C180.5343,172.458 181.3333,172.695 182.1503,172.614 C182.9653,172.53 183.7003,172.134 184.2183,171.499 C185.2873,170.186 185.0883,168.248 183.7763,167.179 L185.9863,164.465 C188.7953,166.753 189.2193,170.899 186.9323,173.709 C185.6353,175.301 183.7403,176.127 181.8313,176.127" id="Fill-173" fill="#F08650"></path>
                    <path d="M177.7534,174.7065 L174.3374,171.9245 C172.9764,170.8165 172.1284,169.2445 171.9504,167.4985 C171.7714,165.7525 172.2834,164.0415 173.3914,162.6815 C174.5004,161.3205 176.0714,160.4725 177.8174,160.2935 C179.5624,160.1185 181.2744,160.6275 182.6354,161.7355 L186.0514,164.5185 L183.8414,167.2315 L180.4244,164.4495 C179.7894,163.9325 178.9914,163.6945 178.1734,163.7755 C177.3574,163.8595 176.6234,164.2555 176.1054,164.8915 C175.5874,165.5275 175.3484,166.3265 175.4314,167.1425 C175.5154,167.9585 175.9114,168.6925 176.5474,169.2105 L179.9634,171.9925 L177.7534,174.7065 Z" id="Fill-175" fill="#F08650"></path>
                    <path d="M170.821,174.8325 C167.823,171.9415 166.669,167.6605 167.811,163.6595 C169.509,157.7035 175.736,154.2395 181.693,155.9385 C183.241,156.3795 184.645,157.1275 185.866,158.1615 L183.605,160.8325 C182.766,160.1235 181.8,159.6085 180.733,159.3045 C176.633,158.1335 172.346,160.5195 171.177,164.6195 C170.391,167.3745 171.185,170.3225 173.25,172.3125 L170.821,174.8325 Z" id="Fill-177" fill="#F08650"></path>
                    <polygon id="Fill-179" fill="#F08650" points="192.843 197.0952 173.337 177.3782 175.825 174.9162 195.331 194.6332"></polygon>
                    <polygon id="Fill-181" fill="#F08650" points="173.3367 177.3779 170.5687 174.5809 173.0577 172.1189 175.8247 174.9159"></polygon>
                    <polygon id="Fill-183" fill="#F08650" points="208.2478 177.4146 182.9588 160.3456 184.9168 157.4436 210.2058 174.5136"></polygon>
                    <polygon id="Fill-185" fill="#33526E" points="100.4465 128.475 84.5605 128.475 81.0575 123.518 102.9485 123.518"></polygon>
                    <path d="M85.4663,126.7251 L99.3693,126.7251 L100.1043,125.2681 L84.4373,125.2681 L85.4663,126.7251 Z M100.4463,130.2251 L84.5603,130.2251 C83.9913,130.2251 83.4583,129.9491 83.1313,129.4851 L79.6283,124.5281 C79.2513,123.9941 79.2033,123.2941 79.5043,122.7131 C79.8043,122.1331 80.4043,121.7681 81.0583,121.7681 L102.9483,121.7681 C103.5553,121.7681 104.1203,122.0831 104.4383,122.6001 C104.7573,123.1181 104.7843,123.7641 104.5103,124.3071 L102.0083,129.2641 C101.7113,129.8531 101.1073,130.2251 100.4463,130.2251 L100.4463,130.2251 Z" id="Fill-187" fill="#33526E"></path>
                    <path d="M123.5867,131.5063 L61.4977,131.5063 C60.5317,131.5063 59.7477,130.7223 59.7477,129.7563 C59.7477,128.7903 60.5317,128.0063 61.4977,128.0063 L123.5867,128.0063 C124.5537,128.0063 125.3367,128.7903 125.3367,129.7563 C125.3367,130.7223 124.5537,131.5063 123.5867,131.5063" id="Fill-189" fill="#33526E"></path>
                    <path d="M144.8511,31.1763 L148.4961,34.7023 L152.1421,31.1763 L157.1631,31.8863 L158.0391,26.8903 L162.5201,24.5133 L160.2921,19.9573 L162.5201,15.4013 L158.0391,13.0233 L157.1631,8.0283 L152.1421,8.7383 L148.4961,5.2123 L144.8511,8.7383 L139.8291,8.0283 L138.9531,13.0233 L134.4731,15.4013 L136.7001,19.9573 L134.4731,24.5133 L138.9531,26.8903 L139.8291,31.8863 L144.8511,31.1763 Z M148.4961,39.5723 L143.6471,34.8813 L136.9671,35.8263 L135.8011,29.1803 L129.8411,26.0183 L132.8041,19.9573 L129.8411,13.8963 L135.8011,10.7333 L136.9671,4.0883 L143.6471,5.0333 L148.4961,0.3433 L153.3451,5.0333 L160.0261,4.0883 L161.1911,10.7333 L167.1511,13.8963 L164.1881,19.9573 L167.1511,26.0183 L161.1911,29.1803 L160.0261,35.8263 L153.3451,34.8813 L148.4961,39.5723 Z" id="Fill-191" fill="#F08650"></path>
                    <path d="M47.339,101.5289 C50.455,114.1899 42.717,126.9809 30.056,130.0969 C17.394,133.2129 4.604,125.4749 1.488,112.8139 C-1.629,100.1519 6.109,87.3619 18.771,84.2459 C31.432,81.1289 44.223,88.8669 47.339,101.5289" id="Fill-193" fill="#FEFEFE"></path>
                </g>
                <g id="Group-208" transform="translate(71.000000, 83.657000)">
                    <g id="Group-198">
                        <mask id="mask-6" fill="white">
                            <use xlink:href="#path-5"></use>
                        </mask>
                        <g id="Clip-197"></g>
                        <path d="M85.0125,5.438 L3.3995,5.438 C2.0185,5.438 0.8995,4.319 0.8995,2.938 C0.8995,1.557 2.0185,0.438 3.3995,0.438 L85.0125,0.438 C86.3935,0.438 87.5125,1.557 87.5125,2.938 C87.5125,4.319 86.3935,5.438 85.0125,5.438" id="Fill-196" fill="#33526E" mask="url(#mask-6)"></path>
                    </g>
                    <g id="Group-201" transform="translate(0.000000, 9.000000)">
                        <mask id="mask-8" fill="white">
                            <use xlink:href="#path-7"></use>
                        </mask>
                        <g id="Clip-200"></g>
                        <path d="M58.5359,5.209 L3.3999,5.209 C2.0189,5.209 0.8999,4.09 0.8999,2.709 C0.8999,1.328 2.0189,0.209 3.3999,0.209 L58.5359,0.209 C59.9169,0.209 61.0359,1.328 61.0359,2.709 C61.0359,4.09 59.9169,5.209 58.5359,5.209" id="Fill-199" fill="#33526E" mask="url(#mask-8)"></path>
                    </g>
                    <g id="Group-204" transform="translate(0.000000, 17.000000)">
                        <mask id="mask-10" fill="white">
                            <use xlink:href="#path-9"></use>
                        </mask>
                        <g id="Clip-203"></g>
                        <path d="M85.0125,5.9795 L3.3995,5.9795 C2.0185,5.9795 0.8995,4.8605 0.8995,3.4795 C0.8995,2.0985 2.0185,0.9795 3.3995,0.9795 L85.0125,0.9795 C86.3935,0.9795 87.5125,2.0985 87.5125,3.4795 C87.5125,4.8605 86.3935,5.9795 85.0125,5.9795" id="Fill-202" fill="#33526E" mask="url(#mask-10)"></path>
                    </g>
                    <g id="Group-207" transform="translate(0.000000, 26.000000)">
                        <mask id="mask-12" fill="white">
                            <use xlink:href="#path-11"></use>
                        </mask>
                        <g id="Clip-206"></g>
                        <path d="M85.0125,5.75 L3.3995,5.75 C2.0185,5.75 0.8995,4.631 0.8995,3.25 C0.8995,1.869 2.0185,0.75 3.3995,0.75 L85.0125,0.75 C86.3935,0.75 87.5125,1.869 87.5125,3.25 C87.5125,4.631 86.3935,5.75 85.0125,5.75" id="Fill-205" fill="#33526E" mask="url(#mask-12)"></path>
                    </g>
                </g>
                <g id="Group-237" transform="translate(0.000000, 81.657000)">
                    <path d="M78.4319,4.3062 C76.6759,4.3062 74.9119,4.5212 73.1889,4.9452 C67.5199,6.3402 62.7329,9.8602 59.7099,14.8562 C56.6879,19.8522 55.7919,25.7252 57.1869,31.3952 C59.5989,41.1932 68.3189,48.0362 78.3949,48.0362 C80.1509,48.0362 81.9149,47.8222 83.6379,47.3982 C95.3419,44.5172 102.5199,32.6512 99.6399,20.9472 C97.2279,11.1492 88.5069,4.3062 78.4319,4.3062 M78.3949,51.5362 C66.7039,51.5362 56.5859,43.5982 53.7879,32.2322 C52.1699,25.6542 53.2089,18.8402 56.7149,13.0442 C60.2219,7.2482 65.7749,3.1652 72.3529,1.5462 C74.3489,1.0552 76.3939,0.8062 78.4319,0.8062 C90.1219,0.8062 100.2409,8.7442 103.0379,20.1102 C106.3799,33.6892 98.0519,47.4542 84.4739,50.7962 C82.4779,51.2872 80.4329,51.5362 78.3949,51.5362" id="Fill-209" fill="#9A67A8"></path>
                    <path d="M43.6836,63.0718 L40.2676,62.3078 C40.5626,60.9908 41.1806,59.7448 42.0536,58.7058 L44.7326,60.9588 C44.2116,61.5788 43.8586,62.2898 43.6836,63.0718" id="Fill-211" fill="#9A67A8"></path>
                    <polygon id="Fill-213" fill="#9A67A8" points="44.7818 60.9824 42.0108 58.8444 57.6408 38.5884 60.4118 40.7264"></polygon>
                    <polygon id="Fill-215" fill="#9A67A8" points="66.1965 54.9883 63.4185 52.8593 68.4245 46.3273 71.2025 48.4563"></polygon>
                    <path d="M63.8865,82.814 C61.9715,82.814 60.0495,82.178 58.4455,80.888 C57.6925,80.282 57.5735,79.18 58.1795,78.427 C58.7855,77.674 59.8875,77.556 60.6405,78.161 C62.7225,79.837 65.7085,79.661 67.5855,77.751 C68.5855,76.733 69.0165,74.986 68.7395,73.076 C68.5995,72.12 69.2625,71.231 70.2185,71.092 C71.1775,70.953 72.0635,71.616 72.2025,72.572 C72.6365,75.558 71.8445,78.411 70.0825,80.204 C68.3835,81.934 66.1395,82.814 63.8865,82.814" id="Fill-217" fill="#F08650"></path>
                    <path d="M54.9207,90.6724 C52.8767,90.6724 50.9517,89.8854 49.4927,88.4504 C49.4107,88.3714 49.3037,88.2534 49.1557,88.0864 C48.9147,87.8154 48.5127,87.3604 47.7967,86.6574 C47.1077,85.9804 47.0977,84.8724 47.7757,84.1834 C48.4527,83.4934 49.5607,83.4844 50.2507,84.1614 C51.0507,84.9484 51.5037,85.4594 51.7747,85.7644 C51.8487,85.8484 51.9037,85.9124 51.9477,85.9564 C52.7547,86.7494 53.8227,87.1774 54.9597,87.1724 C56.0947,87.1624 57.1567,86.7114 57.9517,85.9014 C59.4577,84.3704 59.5837,81.9534 58.2467,80.2794 C57.6437,79.5254 57.7667,78.4234 58.5217,77.8204 C59.2767,77.2164 60.3777,77.3404 60.9807,78.0954 C63.4227,81.1514 63.1937,85.5624 60.4487,88.3554 C58.9987,89.8314 57.0597,90.6544 54.9907,90.6724 L54.9207,90.6724 Z" id="Fill-219" fill="#F08650"></path>
                    <path d="M65.1082,70.9648 C64.3402,70.9648 63.5692,70.8278 62.8272,70.5538 C61.1812,69.9448 59.8702,68.7328 59.1372,67.1388 C58.4032,65.5448 58.3332,63.7598 58.9422,62.1138 C59.5502,60.4678 60.7632,59.1568 62.3572,58.4228 L63.8212,61.6028 C63.0762,61.9448 62.5092,62.5578 62.2252,63.3268 C61.9412,64.0958 61.9732,64.9298 62.3162,65.6748 C62.6592,66.4198 63.2712,66.9868 64.0402,67.2708 C64.8102,67.5548 65.6432,67.5228 66.3882,67.1798 L67.8522,70.3598 C66.9772,70.7618 66.0442,70.9648 65.1082,70.9648" id="Fill-221" fill="#F08650"></path>
                    <path d="M67.7761,70.394 L66.3131,67.214 L70.3141,65.372 C71.0591,65.029 71.6261,64.417 71.9111,63.648 C72.1951,62.879 72.1621,62.045 71.8191,61.3 C71.1111,59.762 69.2851,59.086 67.7461,59.795 L63.7451,61.637 L62.2811,58.457 L66.2831,56.615 C69.5751,55.1 73.4841,56.546 74.9991,59.837 C75.7331,61.431 75.8021,63.215 75.1931,64.861 C74.5851,66.507 73.3721,67.818 71.7781,68.552 L67.7761,70.394 Z" id="Fill-223" fill="#F08650"></path>
                    <path d="M74.458,72.2451 L72.734,69.1991 C75.23,67.7861 76.735,65.1291 76.661,62.2661 C76.607,60.2011 75.753,58.2811 74.256,56.8581 C72.759,55.4361 70.801,54.6831 68.732,54.7361 C67.623,54.7641 66.559,55.0211 65.569,55.4991 L64.046,52.3481 C65.487,51.6521 67.033,51.2781 68.642,51.2371 C71.642,51.1611 74.491,52.2541 76.666,54.3211 C78.842,56.3871 80.082,59.1761 80.16,62.1761 C80.267,66.3351 78.082,70.1931 74.458,72.2451" id="Fill-225" fill="#F08650"></path>
                    <path d="M40.7168,90.0635 C32.9958,90.0635 26.6178,83.8855 26.4178,76.1235 C26.2438,69.3575 30.8958,63.3405 37.4798,61.8155 L38.2688,65.2265 C33.2978,66.3775 29.7848,70.9225 29.9168,76.0335 C30.0708,81.9905 35.0408,86.7285 40.9998,86.5595 C42.7188,86.5155 44.3508,86.0825 45.8498,85.2725 L47.5128,88.3515 C45.5258,89.4255 43.3648,89.9995 41.0908,90.0585 C40.9658,90.0615 40.8408,90.0635 40.7168,90.0635" id="Fill-227" fill="#F08650"></path>
                    <polygon id="Fill-229" fill="#F08650" points="47.5798 88.3115 45.7838 85.3075 72.6988 69.2185 74.4948 72.2225"></polygon>
                    <polygon id="Fill-231" fill="#F08650" points="37.5701 65.4116 36.3971 62.1136 65.1441 51.8906 66.3171 55.1886"></polygon>
                    <polygon id="Fill-233" fill="#F08650" points="2.145 89.2852 0 86.5192 28.686 64.2722 30.831 67.0372"></polygon>
                    <polygon id="Fill-235" fill="#F08650" points="18.7356 119.4399 16.1726 117.0569 45.4006 85.6179 47.9636 88.0009"></polygon>
                </g>
            </g>
        </g>
    </g>
</svg>