<?xml version="1.0" encoding="UTF-8" standalone="no"?>
<svg width="374px" height="293px" viewBox="0 0 374 293" version="1.1" xmlns="http://www.w3.org/2000/svg" xmlns:xlink="http://www.w3.org/1999/xlink">
    <!-- Generator: Sketch 3.8.3 (29802) - http://www.bohemiancoding.com/sketch -->
    <title>Page 1</title>
    <desc>Created with Sketch.</desc>
    <defs>
        <polygon id="path-1" points="154.7355 0.704 0.7355 0.704 0.7355 143.1787 154.7355 143.1787 154.7355 0.704"></polygon>
        <polygon id="path-3" points="0 293.296 373.501 293.296 373.501 1 0 1"></polygon>
    </defs>
    <g id="Page-1" stroke="none" stroke-width="1" fill="none" fill-rule="evenodd">
        <g id="Home-Copy-14" transform="translate(-866.000000, -2352.000000)">
            <g id="Page-1" transform="translate(866.000000, 2351.000000)">
                <path d="M60.9606,196.9737 C59.4376,196.9737 58.0356,195.9707 57.5966,194.4327 C52.9166,178.0227 54.5446,160.5877 62.1816,145.3407 C69.7706,130.1897 82.6186,118.4877 98.3576,112.3907 C100.1606,111.6917 102.1876,112.5877 102.8856,114.3897 C103.5846,116.1927 102.6896,118.2197 100.8866,118.9177 C86.7716,124.3857 75.2486,134.8827 68.4406,148.4757 C61.5896,162.1527 60.1296,177.7917 64.3286,192.5127 C64.8586,194.3717 63.7816,196.3087 61.9226,196.8387 C61.6016,196.9297 61.2786,196.9737 60.9606,196.9737 L60.9606,196.9737 Z" id="Fill-1" fill="#34526E"></path>
                <path d="M267.7023,237.6671 C267.2733,237.6671 266.8373,237.5881 266.4143,237.4201 C264.6173,236.7081 263.7373,234.6751 264.4493,232.8771 C274.3063,207.9871 266.5183,179.0451 245.5113,162.4961 C243.9933,161.3001 243.7313,159.1001 244.9273,157.5811 C246.1243,156.0621 248.3243,155.8011 249.8433,156.9981 C273.2623,175.4461 281.9453,207.7091 270.9573,235.4551 C270.4133,236.8291 269.0963,237.6671 267.7023,237.6671" id="Fill-3" fill="#34526E"></path>
                <path d="M257.0646,157.0821 C255.1066,157.0821 253.1466,156.7051 251.2746,155.9521 C249.2566,155.1391 247.4706,153.9421 245.9636,152.3961 C244.6156,151.0111 244.6446,148.7951 246.0296,147.4461 C247.4146,146.0981 249.6296,146.1281 250.9786,147.5121 C251.8016,148.3571 252.7806,149.0121 253.8896,149.4591 C255.9946,150.3071 258.3026,150.2831 260.3906,149.3951 C262.4786,148.5051 264.0946,146.8561 264.9426,144.7511 L265.9826,142.1671 C266.7046,140.3731 268.7436,139.5091 270.5356,140.2271 C272.3296,140.9481 273.1986,142.9861 272.4766,144.7801 L271.4356,147.3661 C269.8896,151.2051 266.9406,154.2131 263.1336,155.8351 C261.1816,156.6661 259.1236,157.0821 257.0646,157.0821" id="Fill-5" fill="#34526E"></path>
                <path d="M244.8307,190.2062 L239.4887,185.6832 C242.8727,181.6872 244.7357,176.6012 244.7357,171.3572 L244.7357,136.2742 L251.7357,136.2742 L251.7357,171.3572 C251.7357,178.2562 249.2837,184.9492 244.8307,190.2062" id="Fill-7" fill="#9A67A8"></path>
                <path d="M284.6383,151.4064 C281.8213,151.4064 279.0313,150.9854 276.2973,150.1444 C274.4493,149.5764 273.4123,147.6184 273.9803,145.7704 C274.5483,143.9244 276.5053,142.8864 278.3543,143.4534 C281.6133,144.4564 284.9823,144.6664 288.3703,144.0824 C294.0603,143.1004 299.0273,139.9614 302.3563,135.2434 C305.6853,130.5244 306.9773,124.7934 305.9943,119.1034 C304.2553,109.0274 295.5883,101.4854 285.3873,101.1704 C283.4553,101.1104 281.9373,99.4964 281.9963,97.5634 C282.0563,95.6324 283.6963,94.1424 285.6033,94.1744 C299.1133,94.5914 310.5903,104.5744 312.8933,117.9124 C314.1933,125.4444 312.4823,133.0324 308.0753,139.2784 C303.6693,145.5244 297.0943,149.6794 289.5613,150.9804 C287.9153,151.2644 286.2723,151.4064 284.6383,151.4064" id="Fill-9" fill="#34526E"></path>
                <path d="M309.7072,123.0802 C308.0362,123.0802 306.5572,121.8782 306.2622,120.1752 C301.3692,91.8262 276.9832,70.5452 248.2792,69.5722 C246.3482,69.5072 244.8342,67.8882 244.9002,65.9562 C244.9652,64.0242 246.5692,62.5432 248.5172,62.5762 C280.5192,63.6612 307.7052,87.3842 313.1612,118.9832 C313.4892,120.8892 312.2112,122.6992 310.3072,123.0282 C310.1052,123.0622 309.9052,123.0802 309.7072,123.0802" id="Fill-11" fill="#34526E"></path>
                <path d="M369.9977,126.4532 C369.4977,126.4532 368.9887,126.3452 368.5057,126.1172 L294.2977,91.0882 C292.5497,90.2632 291.8017,88.1772 292.6267,86.4292 C293.4517,84.6812 295.5377,83.9332 297.2857,84.7582 L371.4947,119.7872 C373.2427,120.6122 373.9907,122.6982 373.1647,124.4462 C372.5677,125.7122 371.3097,126.4532 369.9977,126.4532" id="Fill-13" fill="#34526E"></path>
                <path d="M346.9396,200.5333 C346.2806,200.5333 345.6146,200.3473 345.0226,199.9603 L267.2256,148.9133 C265.6096,147.8523 265.1586,145.6823 266.2196,144.0663 C267.2796,142.4513 269.4496,142.0023 271.0656,143.0593 L348.8626,194.1063 C350.4796,195.1673 350.9296,197.3373 349.8696,198.9533 C349.1976,199.9773 348.0796,200.5333 346.9396,200.5333" id="Fill-15" fill="#34526E"></path>
                <g id="Group-19" transform="translate(97.000000, 0.296000)">
                    <mask id="mask-2" fill="white">
                        <use xlink:href="#path-1"></use>
                    </mask>
                    <g id="Clip-18"></g>
                    <path d="M7.7355,143.1787 L0.7355,143.1787 L0.7355,0.7037 L125.8455,0.7037 C141.7755,0.7037 154.7355,13.6637 154.7355,29.5947 L154.7355,91.3147 L147.7355,91.3147 L147.7355,29.5947 C147.7355,17.5247 137.9155,7.7037 125.8455,7.7037 L7.7355,7.7037 L7.7355,143.1787 Z" id="Fill-17" fill="#9A67A8" mask="url(#mask-2)"></path>
                </g>
                <path d="M131.102,54.0135 L134.201,54.0135 C135.494,54.0135 136.464,53.8325 137.111,53.4695 C137.758,53.1065 138.081,52.3915 138.081,51.3245 C138.081,50.2575 137.738,49.5535 137.053,49.2125 C136.368,48.8715 135.272,48.7015 133.767,48.7015 L131.102,48.7015 L131.102,54.0135 Z M131.102,44.6425 L133.245,44.6425 C134.5,44.6425 135.432,44.4885 136.039,44.1795 C136.648,43.8715 136.952,43.2065 136.952,42.1835 C136.952,41.1595 136.672,40.4845 136.112,40.1545 C135.552,39.8245 134.606,39.6595 133.274,39.6595 L131.102,39.6595 L131.102,44.6425 Z M135.446,58.3695 L126.584,58.3695 L126.584,35.3025 L134.461,35.3025 C135.832,35.3025 137.015,35.4905 138.009,35.8645 C139.003,36.2385 139.751,36.7435 140.253,37.3815 C141.161,38.5705 141.615,39.9115 141.615,41.4085 C141.615,43.2115 141.102,44.5545 140.08,45.4345 C139.732,45.7425 139.491,45.9345 139.355,46.0115 C139.22,46.0885 138.979,46.2145 138.632,46.3915 C139.886,46.6995 140.886,47.3425 141.629,48.3215 C142.372,49.3005 142.744,50.5165 142.744,51.9675 C142.744,53.5745 142.261,54.9925 141.296,56.2255 C140.176,57.6555 138.226,58.3695 135.446,58.3695 L135.446,58.3695 Z" id="Fill-20" fill="#9A67A8"></path>
                <path d="M131.6022,44.1427 L133.2452,44.1427 C134.4152,44.1427 135.2792,44.0047 135.8132,43.7337 C135.9722,43.6537 136.4522,43.4117 136.4522,42.1837 C136.4522,41.3557 136.2522,40.8177 135.8582,40.5847 C135.5292,40.3907 134.8122,40.1597 133.2742,40.1597 L131.6022,40.1597 L131.6022,44.1427 Z M133.2452,45.1427 L130.6022,45.1427 L130.6022,39.1597 L133.2742,39.1597 C134.7102,39.1597 135.7212,39.3437 136.3662,39.7237 C137.0872,40.1487 137.4522,40.9767 137.4522,42.1837 C137.4522,43.4067 137.0532,44.2277 136.2652,44.6257 C135.5812,44.9737 134.5922,45.1427 133.2452,45.1427 L133.2452,45.1427 Z M131.6022,53.5137 L134.2012,53.5137 C135.4022,53.5137 136.2992,53.3527 136.8672,53.0347 C137.3482,52.7637 137.5812,52.2047 137.5812,51.3247 C137.5812,50.0347 137.0162,49.7527 136.8312,49.6607 C136.2172,49.3557 135.1862,49.2017 133.7672,49.2017 L131.6022,49.2017 L131.6022,53.5137 Z M134.2012,54.5137 L130.6022,54.5137 L130.6022,48.2017 L133.7672,48.2017 C135.3652,48.2017 136.5122,48.3857 137.2762,48.7657 C138.1422,49.1967 138.5812,50.0577 138.5812,51.3247 C138.5812,52.5807 138.1692,53.4497 137.3562,53.9057 C136.6272,54.3147 135.5952,54.5137 134.2012,54.5137 L134.2012,54.5137 Z M127.0842,57.8707 L135.4462,57.8707 C138.0522,57.8707 139.8882,57.2127 140.9022,55.9167 C141.7922,54.7807 142.2442,53.4527 142.2442,51.9677 C142.2442,50.6347 141.9032,49.5097 141.2302,48.6227 C140.5532,47.7307 139.6642,47.1597 138.5132,46.8767 L137.2062,46.5567 L138.4052,45.9467 C138.7422,45.7747 138.9772,45.6527 139.1082,45.5777 C139.1552,45.5507 139.3122,45.4467 139.7482,45.0607 C140.6572,44.2787 141.1152,43.0517 141.1152,41.4087 C141.1152,40.0327 140.6912,38.7797 139.8562,37.6857 C139.4182,37.1287 138.7352,36.6717 137.8322,36.3317 C136.8992,35.9807 135.7652,35.8027 134.4612,35.8027 L127.0842,35.8027 L127.0842,57.8707 Z M135.4462,58.8707 L126.0842,58.8707 L126.0842,34.8027 L134.4612,34.8027 C135.8852,34.8027 137.1382,35.0017 138.1852,35.3967 C139.2612,35.8007 140.0892,36.3657 140.6462,37.0727 C141.6222,38.3507 142.1152,39.8077 142.1152,41.4087 C142.1152,43.3557 141.5402,44.8377 140.4062,45.8137 C140.1492,46.0397 139.9732,46.1857 139.8472,46.2807 C140.7152,46.6717 141.4462,47.2537 142.0272,48.0187 C142.8342,49.0827 143.2442,50.4127 143.2442,51.9677 C143.2442,53.6807 142.7212,55.2167 141.6892,56.5347 C140.4762,58.0837 138.3752,58.8707 135.4462,58.8707 L135.4462,58.8707 Z" id="Fill-22" fill="#9A67A8"></path>
                <path d="M153.4941,45.0379 L153.4941,48.4039 L161.7191,48.4039 L161.7191,45.2029 C161.7191,43.3549 161.3511,41.9199 160.6181,40.8959 C159.8841,39.8739 158.8751,39.3619 157.5921,39.3619 C156.3071,39.3619 155.3041,39.8509 154.5801,40.8309 C153.8561,41.8089 153.4941,43.2119 153.4941,45.0379 L153.4941,45.0379 Z M148.9761,58.3699 L148.9761,45.2029 C148.9761,41.7929 149.7391,39.2029 151.2641,37.4319 C152.7891,35.6609 154.9131,34.7749 157.6351,34.7749 C160.3571,34.7749 162.4761,35.6489 163.9921,37.3979 C165.5071,39.1469 166.2651,41.6839 166.2651,45.0049 L166.2651,58.3699 L161.7191,58.3699 L161.7191,52.9579 L153.4941,52.9579 L153.4941,58.3699 L148.9761,58.3699 Z" id="Fill-24" fill="#9A67A8"></path>
                <path d="M153.9943,47.9044 L161.2193,47.9044 L161.2193,45.2034 C161.2193,43.4704 160.8803,42.1204 160.2123,41.1874 C159.5723,40.2964 158.7143,39.8624 157.5923,39.8624 C156.4653,39.8624 155.6123,40.2764 154.9823,41.1284 C154.3273,42.0144 153.9943,43.3304 153.9943,45.0384 L153.9943,47.9044 Z M162.2193,48.9044 L152.9943,48.9044 L152.9943,45.0384 C152.9943,43.1104 153.3923,41.5954 154.1783,40.5334 C154.9983,39.4254 156.1463,38.8624 157.5923,38.8624 C159.0393,38.8624 160.1943,39.4484 161.0243,40.6044 C161.8173,41.7114 162.2193,43.2584 162.2193,45.2034 L162.2193,48.9044 Z M162.2193,57.8704 L165.7653,57.8704 L165.7653,45.0054 C165.7653,41.8224 165.0423,39.3744 163.6143,37.7254 C162.1853,36.0774 160.2293,35.2754 157.6353,35.2754 C155.0423,35.2754 153.0813,36.0884 151.6433,37.7584 C150.2053,39.4274 149.4763,41.9324 149.4763,45.2034 L149.4763,57.8704 L152.9943,57.8704 L152.9943,52.4584 L162.2193,52.4584 L162.2193,57.8704 Z M166.7653,58.8704 L161.2193,58.8704 L161.2193,53.4584 L153.9943,53.4584 L153.9943,58.8704 L148.4763,58.8704 L148.4763,45.2034 C148.4763,41.6864 149.2863,38.9624 150.8853,37.1054 C152.5023,35.2274 154.7733,34.2754 157.6353,34.2754 C160.4963,34.2754 162.7623,35.2164 164.3703,37.0714 C165.9593,38.9064 166.7653,41.5754 166.7653,45.0054 L166.7653,58.8704 Z" id="Fill-26" fill="#9A67A8"></path>
                <path d="M178.6801,39.906 C178.2451,40.313 178.0281,40.852 178.0281,41.523 C178.0281,42.195 178.2931,42.728 178.8251,43.124 C179.3551,43.52 180.5811,43.987 182.5031,44.526 C184.4241,45.066 185.9151,45.874 186.9771,46.952 C188.0381,48.03 188.5701,49.603 188.5701,51.671 C188.5701,53.739 187.8891,55.417 186.5281,56.704 C185.1671,57.99 183.3761,58.634 181.1561,58.634 C177.9511,58.634 175.0641,57.281 172.4971,54.575 L175.1901,50.813 C177.3721,52.991 179.3891,54.08 181.2431,54.08 C182.0731,54.08 182.7241,53.877 183.1981,53.469 C183.6711,53.062 183.9071,52.512 183.9071,51.819 C183.9071,51.127 183.6561,50.577 183.1541,50.17 C182.6521,49.762 181.6581,49.35 180.1711,48.931 C177.8161,48.294 176.0931,47.464 175.0021,46.44 C173.9111,45.418 173.3661,43.811 173.3661,41.623 C173.3661,39.433 174.0561,37.745 175.4361,36.556 C176.8171,35.369 178.5401,34.775 180.6061,34.775 C181.9571,34.775 183.3081,35.039 184.6601,35.567 C186.0121,36.094 187.1891,36.843 188.1931,37.811 L185.9061,41.573 C184.1481,40.054 182.3331,39.296 180.4611,39.296 C179.7081,39.296 179.1141,39.5 178.6801,39.906" id="Fill-28" fill="#9A67A8"></path>
                <path d="M173.1471,54.5265 C175.5341,56.9215 178.2261,58.1335 181.1561,58.1335 C183.2331,58.1335 184.9261,57.5305 186.1851,56.3405 C187.4531,55.1405 188.0701,53.6135 188.0701,51.6715 C188.0701,49.7495 187.5831,48.2795 186.6211,47.3025 C185.6271,46.2945 184.1961,45.5215 182.3681,45.0075 C180.3671,44.4465 179.1101,43.9615 178.5251,43.5245 C177.8641,43.0325 177.5281,42.3585 177.5281,41.5235 C177.5281,40.7125 177.8011,40.0455 178.3381,39.5415 C178.8671,39.0475 179.5811,38.7965 180.4611,38.7965 C182.2861,38.7965 184.0721,39.4765 185.7791,40.8205 L187.5541,37.9005 C186.6641,37.1105 185.6311,36.4835 184.4791,36.0335 C183.1921,35.5305 181.8891,35.2755 180.6061,35.2755 C178.6731,35.2755 177.0431,35.8345 175.7631,36.9355 C174.4861,38.0345 173.8661,39.5685 173.8661,41.6235 C173.8661,43.6585 174.3631,45.1565 175.3441,46.0755 C176.3691,47.0375 178.0371,47.8365 180.3021,48.4495 C181.8761,48.8925 182.9101,49.3285 183.4691,49.7815 C184.0921,50.2865 184.4071,50.9715 184.4071,51.8195 C184.4071,52.6615 184.1101,53.3435 183.5241,53.8485 C182.9601,54.3345 182.1931,54.5805 181.2431,54.5805 C179.3841,54.5805 177.3731,53.5705 175.2591,51.5775 L173.1471,54.5265 Z M181.1561,59.1335 C177.8231,59.1335 174.7881,57.7155 172.1341,54.9195 L171.8501,54.6205 L175.1271,50.0445 L175.5431,50.4605 C177.6181,52.5305 179.5361,53.5805 181.2431,53.5805 C181.9461,53.5805 182.4941,53.4155 182.8721,53.0905 C183.2321,52.7805 183.4071,52.3645 183.4071,51.8195 C183.4071,51.2815 183.2221,50.8685 182.8391,50.5585 C182.5331,50.3095 181.7981,49.9095 180.0361,49.4135 C177.6161,48.7575 175.8061,47.8805 174.6601,46.8045 C173.4691,45.6895 172.8661,43.9455 172.8661,41.6235 C172.8661,39.2925 173.6211,37.4605 175.1101,36.1775 C176.5781,34.9155 178.4271,34.2755 180.6061,34.2755 C182.0141,34.2755 183.4391,34.5535 184.8421,35.1015 C186.2471,35.6505 187.4921,36.4405 188.5411,37.4515 L188.8291,37.7295 L186.0261,42.3385 L185.5791,41.9515 C183.9231,40.5215 182.2021,39.7965 180.4611,39.7965 C179.8341,39.7965 179.3641,39.9515 179.0221,40.2715 C178.6901,40.5825 178.5281,40.9925 178.5281,41.5235 C178.5281,42.0405 178.7171,42.4215 179.1241,42.7225 C179.4521,42.9685 180.3281,43.3965 182.6381,44.0455 C184.6361,44.6065 186.2161,45.4665 187.3341,46.6015 C188.4851,47.7715 189.0701,49.4775 189.0701,51.6715 C189.0701,53.8725 188.3311,55.6875 186.8721,57.0675 C185.4201,58.4385 183.4981,59.1335 181.1561,59.1335 L181.1561,59.1335 Z" id="Fill-30" fill="#9A67A8"></path>
                <path d="M202.5923,39.5271 C200.6803,39.5271 199.7253,40.1651 199.7253,41.4411 C199.7253,43.1791 201.0093,44.0481 203.5763,44.0481 L206.8203,44.0481 L206.8203,48.4691 L203.6343,48.4691 C201.7233,48.4691 200.4393,48.6901 199.7833,49.1301 C199.0683,49.5701 198.7113,50.2971 198.7113,51.3081 C198.7113,53.0681 199.9863,53.9481 202.5343,53.9481 C203.4033,53.9481 204.3243,53.7721 205.3003,53.4201 C206.2743,53.0681 207.1003,52.6391 207.7763,52.1321 L208.9633,56.7191 C206.9553,57.9731 204.6813,58.6011 202.1433,58.6011 C199.6043,58.6011 197.6253,57.9791 196.2063,56.7361 C194.7873,55.4941 194.0783,53.7121 194.0783,51.3901 C194.0783,49.0691 195.0143,47.2601 196.8873,45.9621 C195.6133,44.6861 194.9753,43.0901 194.9753,41.1761 C194.9753,39.2621 195.6363,37.7171 196.9593,36.5411 C198.2813,35.3641 200.0533,34.7751 202.2733,34.7751 C203.1613,34.7751 204.1513,34.9131 205.2423,35.1871 C206.3323,35.4631 207.2443,35.8091 207.9783,36.2271 L207.1103,40.8801 C205.3533,39.9781 203.8473,39.5271 202.5923,39.5271" id="Fill-32" fill="#9A67A8"></path>
                <path d="M202.2736,35.2755 C200.1906,35.2755 198.5146,35.8275 197.2926,36.9145 C196.0696,38.0025 195.4756,39.3965 195.4756,41.1765 C195.4756,42.9695 196.0536,44.4205 197.2406,45.6085 L197.6646,46.0325 L197.1726,46.3735 C195.4266,47.5835 194.5786,49.2245 194.5786,51.3905 C194.5786,53.5815 195.2186,55.2075 196.5356,56.3605 C197.8556,57.5155 199.7416,58.1015 202.1436,58.1015 C204.4426,58.1015 206.5416,57.5575 208.3856,56.4845 L207.4696,52.9445 C206.8846,53.3045 206.2156,53.6215 205.4696,53.8905 C204.4456,54.2605 203.4586,54.4485 202.5346,54.4485 C198.9616,54.4485 198.2116,52.7415 198.2116,51.3085 C198.2116,50.1165 198.6516,49.2395 199.5216,48.7045 C200.2526,48.2135 201.6036,47.9695 203.6346,47.9695 L206.3206,47.9695 L206.3206,44.5475 L203.5766,44.5475 C199.9806,44.5475 199.2256,42.8585 199.2256,41.4415 C199.2256,40.3395 199.8096,39.0275 202.5926,39.0275 C203.7736,39.0275 205.1666,39.4015 206.7396,40.1405 L207.4196,36.4955 C206.7826,36.1735 206.0106,35.8975 205.1196,35.6715 C204.0726,35.4095 203.1146,35.2755 202.2736,35.2755 M202.1436,59.1015 C199.4916,59.1015 197.3836,58.4325 195.8776,57.1125 C194.3516,55.7775 193.5786,53.8515 193.5786,51.3905 C193.5786,49.1045 194.4406,47.2575 196.1436,45.8935 C195.0366,44.5985 194.4756,43.0145 194.4756,41.1765 C194.4756,39.1235 195.1996,37.4375 196.6276,36.1675 C198.0376,34.9125 199.9376,34.2755 202.2736,34.2755 C203.1966,34.2755 204.2366,34.4195 205.3646,34.7025 C206.4936,34.9885 207.4566,35.3545 208.2266,35.7935 L208.5356,35.9695 L207.4786,41.6305 L206.8816,41.3255 C205.2036,40.4635 203.7606,40.0275 202.5926,40.0275 C200.2256,40.0275 200.2256,41.0545 200.2256,41.4415 C200.2256,42.3455 200.5726,43.5475 203.5766,43.5475 L207.3206,43.5475 L207.3206,48.9695 L203.6346,48.9695 C201.3916,48.9695 200.4536,49.2825 200.0616,49.5455 C199.4846,49.9015 199.2116,50.4745 199.2116,51.3085 C199.2116,52.2275 199.5556,53.4485 202.5346,53.4485 C203.3416,53.4485 204.2146,53.2805 205.1296,52.9505 C206.0546,52.6165 206.8446,52.2075 207.4766,51.7325 L208.0726,51.2855 L209.5396,56.9495 L209.2286,57.1435 C207.1476,58.4435 204.7636,59.1015 202.1436,59.1015" id="Fill-34" fill="#9A67A8"></path>
                <path d="M219.8437,39.906 C219.4087,40.313 219.1917,40.852 219.1917,41.523 C219.1917,42.195 219.4567,42.728 219.9887,43.124 C220.5187,43.52 221.7447,43.987 223.6667,44.526 C225.5877,45.066 227.0787,45.874 228.1407,46.952 C229.2017,48.03 229.7337,49.603 229.7337,51.671 C229.7337,53.739 229.0527,55.417 227.6917,56.704 C226.3307,57.99 224.5397,58.634 222.3197,58.634 C219.1147,58.634 216.2277,57.281 213.6607,54.575 L216.3537,50.813 C218.5357,52.991 220.5527,54.08 222.4067,54.08 C223.2367,54.08 223.8877,53.877 224.3617,53.469 C224.8347,53.062 225.0707,52.512 225.0707,51.819 C225.0707,51.127 224.8197,50.577 224.3177,50.17 C223.8157,49.762 222.8217,49.35 221.3347,48.931 C218.9797,48.294 217.2567,47.464 216.1657,46.44 C215.0747,45.418 214.5297,43.811 214.5297,41.623 C214.5297,39.433 215.2197,37.745 216.5997,36.556 C217.9807,35.369 219.7037,34.775 221.7697,34.775 C223.1207,34.775 224.4717,35.039 225.8237,35.567 C227.1757,36.094 228.3527,36.843 229.3567,37.811 L227.0697,41.573 C225.3117,40.054 223.4967,39.296 221.6247,39.296 C220.8717,39.296 220.2777,39.5 219.8437,39.906" id="Fill-36" fill="#9A67A8"></path>
                <path d="M214.3107,54.5265 C216.6977,56.9215 219.3897,58.1335 222.3197,58.1335 C224.3977,58.1335 226.0897,57.5305 227.3487,56.3405 C228.6167,55.1405 229.2337,53.6135 229.2337,51.6715 C229.2337,49.7495 228.7467,48.2795 227.7847,47.3025 C226.7907,46.2945 225.3597,45.5215 223.5317,45.0075 C221.5307,44.4465 220.2737,43.9615 219.6887,43.5245 C219.0277,43.0325 218.6917,42.3585 218.6917,41.5235 C218.6917,40.7125 218.9647,40.0455 219.5017,39.5415 C220.0307,39.0475 220.7447,38.7965 221.6247,38.7965 C223.4497,38.7965 225.2357,39.4765 226.9427,40.8205 L228.7177,37.9005 C227.8277,37.1105 226.7947,36.4835 225.6427,36.0335 C224.3557,35.5305 223.0527,35.2755 221.7697,35.2755 C219.8367,35.2755 218.2067,35.8345 216.9267,36.9355 C215.6497,38.0345 215.0297,39.5685 215.0297,41.6235 C215.0297,43.6585 215.5267,45.1565 216.5077,46.0755 C217.5327,47.0375 219.2007,47.8365 221.4657,48.4495 C223.0397,48.8925 224.0737,49.3285 224.6327,49.7815 C225.2557,50.2865 225.5707,50.9715 225.5707,51.8195 C225.5707,52.6615 225.2737,53.3445 224.6877,53.8485 C224.1237,54.3345 223.3567,54.5805 222.4067,54.5805 C220.5477,54.5805 218.5367,53.5705 216.4227,51.5775 L214.3107,54.5265 Z M222.3197,59.1335 C218.9867,59.1335 215.9517,57.7155 213.2977,54.9195 L213.0137,54.6205 L216.2907,50.0445 L216.7067,50.4605 C218.7817,52.5305 220.6997,53.5805 222.4067,53.5805 C223.1097,53.5805 223.6577,53.4155 224.0357,53.0905 C224.3957,52.7805 224.5707,52.3645 224.5707,51.8195 C224.5707,51.2815 224.3857,50.8685 224.0027,50.5585 C223.6967,50.3095 222.9617,49.9095 221.1997,49.4135 C218.7797,48.7575 216.9697,47.8805 215.8237,46.8045 C214.6327,45.6895 214.0297,43.9455 214.0297,41.6235 C214.0297,39.2925 214.7847,37.4605 216.2737,36.1775 C217.7417,34.9155 219.5907,34.2755 221.7697,34.2755 C223.1777,34.2755 224.6027,34.5535 226.0057,35.1015 C227.4107,35.6505 228.6557,36.4405 229.7047,37.4515 L229.9927,37.7295 L227.1897,42.3385 L226.7427,41.9515 C225.0867,40.5215 223.3657,39.7965 221.6247,39.7965 C220.9977,39.7965 220.5277,39.9515 220.1857,40.2715 C219.8537,40.5825 219.6917,40.9925 219.6917,41.5235 C219.6917,42.0405 219.8807,42.4215 220.2867,42.7225 C220.6157,42.9685 221.4917,43.3965 223.8017,44.0455 C225.7997,44.6065 227.3797,45.4665 228.4977,46.6015 C229.6487,47.7715 230.2337,49.4775 230.2337,51.6715 C230.2337,53.8725 229.4947,55.6875 228.0357,57.0675 C226.5837,58.4385 224.6617,59.1335 222.3197,59.1335 L222.3197,59.1335 Z" id="Fill-38" fill="#9A67A8"></path>
                <path d="M135.8803,93.4168 C138.1003,93.4168 139.9153,92.4158 141.3243,90.4138 L144.2203,93.8128 C141.9233,96.7608 139.2153,98.2338 136.0973,98.2338 C132.9793,98.2338 130.4113,97.1118 128.3943,94.8688 C126.3763,92.6248 125.3683,89.7918 125.3683,86.3708 C125.3683,82.9498 126.3963,80.0958 128.4523,77.8078 C130.5083,75.5198 133.0233,74.3758 135.9963,74.3758 C139.3173,74.3758 142.0963,75.8158 144.3373,78.6978 L141.5273,82.3288 C140.0983,80.3048 138.3223,79.2928 136.1993,79.2928 C134.5003,79.2928 133.0473,79.9258 131.8403,81.1898 C130.6333,82.4548 130.0303,84.1598 130.0303,86.3058 C130.0303,88.4498 130.5993,90.1718 131.7393,91.4698 C132.8783,92.7678 134.2583,93.4168 135.8803,93.4168" id="Fill-40" fill="#9A67A8"></path>
                <path d="M135.9963,74.8761 C133.1453,74.8761 130.7993,75.9441 128.8243,78.1421 C126.8633,80.3241 125.8683,83.0931 125.8683,86.3711 C125.8683,89.6491 126.8433,92.3971 128.7663,94.5351 C130.6753,96.6581 133.1423,97.7341 136.0983,97.7341 C138.9263,97.7341 141.4393,96.4191 143.5723,93.8221 L141.3493,91.2131 C139.9013,93.0081 138.0643,93.9171 135.8803,93.9171 C134.1163,93.9171 132.5963,93.2041 131.3633,91.8001 C130.1473,90.4151 129.5313,88.5661 129.5313,86.3061 C129.5313,84.0371 130.1863,82.2001 131.4783,80.8461 C132.7783,79.4831 134.3663,78.7931 136.1993,78.7931 C138.2873,78.7931 140.0793,79.7051 141.5333,81.5061 L143.7013,78.7031 C141.5893,76.1291 139.0653,74.8761 135.9963,74.8761 M136.0983,98.7341 C132.8463,98.7341 130.1293,97.5471 128.0233,95.2031 C125.9303,92.8761 124.8683,89.9041 124.8683,86.3711 C124.8683,82.8391 125.9493,79.8461 128.0803,77.4741 C130.2253,75.0861 132.8893,73.8761 135.9963,73.8761 C139.4633,73.8761 142.4023,75.3961 144.7313,78.3921 L144.9703,78.6971 L141.5093,83.1701 L141.1193,82.6171 C139.7773,80.7171 138.1683,79.7931 136.1993,79.7931 C134.6283,79.7931 133.3213,80.3631 132.2023,81.5351 C131.0933,82.6981 130.5313,84.3031 130.5313,86.3061 C130.5313,88.3161 131.0643,89.9421 132.1153,91.1401 C133.1643,92.3361 134.3963,92.9171 135.8803,92.9171 C137.9473,92.9171 139.5943,92.0041 140.9163,90.1261 L141.2873,89.5991 L144.8663,93.7991 L144.6153,94.1201 C142.2293,97.1821 139.3633,98.7341 136.0983,98.7341" id="Fill-42" fill="#9A67A8"></path>
                <polygon id="Fill-44" fill="#9A67A8" points="159.6338 93.5486 159.6338 97.9706 148.0208 97.9706 148.0208 93.5486 151.4958 93.5486 151.4958 79.3256 148.0208 79.3256 148.0208 74.9026 159.6338 74.9026 159.6338 79.3256 156.0138 79.3256 156.0138 93.5486"></polygon>
                <path d="M148.5207,97.4708 L159.1337,97.4708 L159.1337,94.0488 L155.5137,94.0488 L155.5137,78.8258 L159.1337,78.8258 L159.1337,75.4038 L148.5207,75.4038 L148.5207,78.8258 L151.9957,78.8258 L151.9957,94.0488 L148.5207,94.0488 L148.5207,97.4708 Z M160.1337,98.4708 L147.5207,98.4708 L147.5207,93.0488 L150.9957,93.0488 L150.9957,79.8258 L147.5207,79.8258 L147.5207,74.4038 L160.1337,74.4038 L160.1337,79.8258 L156.5137,79.8258 L156.5137,93.0488 L160.1337,93.0488 L160.1337,98.4708 Z" id="Fill-46" fill="#9A67A8"></path>
                <path d="M170.2812,92.1297 C170.9472,93.0317 171.9222,93.4827 173.2062,93.4827 C174.4902,93.4827 175.5372,92.9277 176.3482,91.8167 C177.1592,90.7047 177.5652,89.1707 177.5652,87.2127 L177.5652,74.9027 L182.0822,74.9027 L182.0822,97.9707 L177.5652,97.9707 L177.5652,95.8587 C177.4292,96.0347 177.2322,96.2547 176.9712,96.5187 C176.7102,96.7817 176.1602,97.1347 175.3202,97.5737 C174.4802,98.0147 173.6262,98.2337 172.7572,98.2337 C170.4792,98.2337 168.5772,97.3597 167.0522,95.6107 C165.5272,93.8617 164.7642,91.4147 164.7642,88.2687 L164.7642,74.9027 L169.2822,74.9027 L169.2822,87.6417 C169.2822,89.7327 169.6152,91.2277 170.2812,92.1297" id="Fill-48" fill="#9A67A8"></path>
                <path d="M165.2648,75.4034 L165.2648,88.2684 C165.2648,91.2764 165.9928,93.6354 167.4298,95.2824 C168.8678,96.9324 170.6108,97.7344 172.7578,97.7344 C173.5408,97.7344 174.3258,97.5314 175.0878,97.1324 C176.0708,96.6174 176.4618,96.3234 176.6158,96.1674 C176.8578,95.9224 177.0428,95.7184 177.1678,95.5544 L178.0648,94.3824 L178.0648,97.4704 L181.5828,97.4704 L181.5828,75.4034 L178.0648,75.4034 L178.0648,87.2134 C178.0648,89.2694 177.6238,90.9174 176.7528,92.1114 C175.8468,93.3524 174.6538,93.9824 173.2068,93.9824 C171.7608,93.9824 170.6408,93.4594 169.8788,92.4264 C169.1408,91.4264 168.7828,89.8614 168.7828,87.6414 L168.7828,75.4034 L165.2648,75.4034 Z M172.7578,98.7344 C170.3388,98.7344 168.2918,97.7944 166.6758,95.9394 C165.0758,94.1054 164.2648,91.5244 164.2648,88.2684 L164.2648,74.4034 L169.7828,74.4034 L169.7828,87.6414 C169.7828,89.6124 170.0858,91.0224 170.6838,91.8334 C171.2548,92.6064 172.0798,92.9824 173.2068,92.9824 C174.3318,92.9824 175.2278,92.5054 175.9448,91.5214 C176.6878,90.5034 177.0648,89.0524 177.0648,87.2134 L177.0648,74.4034 L182.5828,74.4034 L182.5828,98.4704 L177.0648,98.4704 L177.0648,97.0984 C176.7328,97.3584 176.2338,97.6614 175.5528,98.0174 C174.6448,98.4934 173.7048,98.7344 172.7578,98.7344 L172.7578,98.7344 Z" id="Fill-50" fill="#9A67A8"></path>
                <path d="M200.666,91.6345 C201.776,90.4465 202.332,88.7195 202.332,86.4535 C202.332,84.1885 201.776,82.4445 200.666,81.2235 C199.556,80.0015 197.852,79.3915 195.555,79.3915 L193.035,79.3915 L193.035,93.4165 L195.902,93.4165 C197.968,93.4165 199.556,92.8215 200.666,91.6345 M203.982,77.9225 C205.913,79.9365 206.878,82.7365 206.878,86.3215 C206.878,89.9075 205.937,92.7455 204.054,94.8355 C202.172,96.9255 199.3,97.9705 195.439,97.9705 L188.518,97.9705 L188.518,74.9035 L195.67,74.9035 C199.281,74.9035 202.051,75.9095 203.982,77.9225" id="Fill-52" fill="#9A67A8"></path>
                <path d="M193.5353,92.9171 L195.9023,92.9171 C197.8133,92.9171 199.2933,92.3711 200.3013,91.2931 C201.3163,90.2061 201.8313,88.5771 201.8313,86.4541 C201.8313,84.3271 201.3153,82.6811 200.2963,81.5601 C199.2903,80.4531 197.6953,79.8921 195.5553,79.8921 L193.5353,79.8921 L193.5353,92.9171 Z M195.9023,93.9171 L192.5353,93.9171 L192.5353,78.8921 L195.5553,78.8921 C197.9883,78.8921 199.8323,79.5631 201.0363,80.8881 C202.2273,82.1971 202.8313,84.0701 202.8313,86.4541 C202.8313,88.8391 202.2263,90.6971 201.0313,91.9761 C199.8273,93.2641 198.1013,93.9171 195.9023,93.9171 L195.9023,93.9171 Z M189.0173,97.4711 L195.4393,97.4711 C199.1343,97.4711 201.9083,96.4721 203.6823,94.5011 C205.4713,92.5171 206.3783,89.7641 206.3783,86.3211 C206.3783,82.8861 205.4503,80.1771 203.6213,78.2691 C201.7973,76.3671 199.1223,75.4031 195.6703,75.4031 L189.0173,75.4031 L189.0173,97.4711 Z M195.4393,98.4711 L188.0173,98.4711 L188.0173,74.4031 L195.6703,74.4031 C199.4053,74.4031 202.3233,75.4711 204.3433,77.5771 C206.3573,79.6781 207.3783,82.6191 207.3783,86.3211 C207.3783,90.0191 206.3853,92.9961 204.4263,95.1711 C202.4533,97.3601 199.4303,98.4711 195.4393,98.4711 L195.4393,98.4711 Z" id="Fill-54" fill="#9A67A8"></path>
                <path d="M215.9189,84.6385 L215.9189,88.0045 L224.1439,88.0045 L224.1439,84.8035 C224.1439,82.9555 223.7759,81.5205 223.0429,80.4965 C222.3089,79.4745 221.2999,78.9625 220.0169,78.9625 C218.7319,78.9625 217.7289,79.4515 217.0049,80.4315 C216.2809,81.4095 215.9189,82.8125 215.9189,84.6385 L215.9189,84.6385 Z M211.4009,94.9685 L211.4009,84.8035 C211.4009,81.3935 212.1639,78.8035 213.6889,77.0325 C215.2139,75.2615 217.3379,74.3755 220.0599,74.3755 C222.7819,74.3755 224.9009,75.2495 226.4169,76.9985 C227.9319,78.7475 228.6899,81.2845 228.6899,84.6055 L228.6899,89.5565 L215.9189,92.5585 L211.4009,94.9685 Z" id="Fill-56" fill="#9A67A8"></path>
                <path d="M216.4191,87.505 L223.6441,87.505 L223.6441,84.804 C223.6441,83.071 223.3051,81.721 222.6371,80.788 C221.9971,79.897 221.1391,79.463 220.0171,79.463 C218.8901,79.463 218.0371,79.877 217.4071,80.729 C216.7521,81.615 216.4191,82.931 216.4191,84.639 L216.4191,87.505 Z M224.6441,88.505 L215.4191,88.505 L215.4191,84.639 C215.4191,82.711 215.8171,81.196 216.6031,80.134 C217.4231,79.026 218.5711,78.463 220.0171,78.463 C221.4641,78.463 222.6191,79.049 223.4491,80.205 C224.2421,81.312 224.6441,82.859 224.6441,84.804 L224.6441,88.505 Z M220.0601,74.876 C217.4671,74.876 215.5061,75.689 214.0681,77.359 C212.6301,79.028 211.9011,81.533 211.9011,84.804 L211.9011,94.136 L215.8051,92.072 L228.1901,89.16 L228.1901,84.606 C228.1901,81.424 227.4671,78.975 226.0391,77.326 C224.6101,75.678 222.6541,74.876 220.0601,74.876 L220.0601,74.876 Z M210.9011,95.802 L210.9011,84.804 C210.9011,81.287 211.7111,78.563 213.3101,76.706 C214.9271,74.828 217.1981,73.876 220.0601,73.876 C222.9211,73.876 225.1871,74.817 226.7951,76.672 C228.3841,78.507 229.1901,81.176 229.1901,84.606 L229.1901,89.953 L216.0971,93.03 L210.9011,95.802 Z" id="Fill-58" fill="#9A67A8"></path>
                <path d="M140.3984,126.0535 C140.3984,123.7875 139.8424,122.0435 138.7324,120.8235 C137.6224,119.6015 135.9194,118.9915 133.6214,118.9915 L131.1024,118.9915 L131.1024,126.0115 C131.1024,126.0115 140.3984,128.3195 140.3984,126.0535 M142.0484,117.5225 C143.9794,119.5355 144.9444,122.3355 144.9444,125.9205 C144.9444,127.5775 144.7444,129.0735 144.3424,130.4105 C143.8754,131.9695 126.5844,127.7845 126.5844,127.7845 L126.5844,114.5025 L133.7374,114.5025 C137.3474,114.5025 140.1184,115.5095 142.0484,117.5225" id="Fill-60" fill="#9A67A8"></path>
                <path d="M131.6022,125.6163 C132.6852,125.8663 135.8532,126.5503 138.0392,126.5503 C138.7072,126.5503 139.2162,126.4873 139.5522,126.3623 C139.8982,126.2343 139.8982,126.1073 139.8982,126.0533 C139.8982,123.9273 139.3822,122.2803 138.3632,121.1593 C137.3572,120.0533 135.7622,119.4913 133.6222,119.4913 L131.6022,119.4913 L131.6022,125.6163 Z M138.0392,127.5503 L138.0392,127.5503 C135.2552,127.5503 131.1552,126.5403 130.9812,126.4973 L130.6022,126.4023 L130.6022,118.4913 L133.6222,118.4913 C136.0552,118.4913 137.8992,119.1633 139.1032,120.4873 C140.2942,121.7973 140.8982,123.6703 140.8982,126.0533 C140.8982,126.3813 140.7692,126.9783 139.8992,127.3013 C139.4462,127.4693 138.8372,127.5503 138.0392,127.5503 L138.0392,127.5503 Z M127.0842,127.3893 C129.1902,127.8883 139.3882,130.2593 143.0122,130.2593 C143.5632,130.2593 143.8022,130.2013 143.8932,130.1703 C144.2592,128.9083 144.4452,127.4793 144.4452,125.9213 C144.4452,122.4853 143.5172,119.7763 141.6882,117.8683 C139.8642,115.9673 137.1892,115.0033 133.7372,115.0033 L127.0842,115.0033 L127.0842,127.3893 Z M143.0122,131.2593 C138.8632,131.2593 126.9712,128.3923 126.4672,128.2703 L126.0842,128.1783 L126.0842,114.0033 L133.7372,114.0033 C137.4722,114.0033 140.3902,115.0703 142.4102,117.1773 C144.4242,119.2773 145.4452,122.2193 145.4452,125.9213 C145.4452,127.6173 145.2352,129.1773 144.8222,130.5543 C144.6352,131.1753 143.8022,131.2593 143.0122,131.2593 L143.0122,131.2593 Z" id="Fill-62" fill="#9A67A8"></path>
                <path d="M153.1967,124.2381 L153.1967,127.6041 L161.4217,127.6041 L161.4217,124.4031 C161.4217,122.5551 161.0537,121.1201 160.3207,120.0961 C159.5867,119.0741 158.5777,118.5621 157.2947,118.5621 C156.0097,118.5621 155.0067,119.0511 154.2827,120.0311 C153.5587,121.0091 153.1967,122.4121 153.1967,124.2381 L153.1967,124.2381 Z M148.6787,137.5701 L148.6787,124.4031 C148.6787,120.9931 149.4417,118.4031 150.9667,116.6321 C152.4917,114.8611 154.6157,113.9751 157.3377,113.9751 C160.0597,113.9751 162.1787,114.8491 163.6947,116.5981 C165.2097,118.3471 165.9677,120.8841 165.9677,124.2051 L165.9677,137.5701 L161.4217,137.5701 L161.4217,132.1581 L153.1967,132.1581 L153.1967,137.5701 L148.6787,137.5701 Z" id="Fill-64" fill="#9A67A8"></path>
                <path d="M153.6969,127.1046 L160.9219,127.1046 L160.9219,124.4036 C160.9219,122.6706 160.5829,121.3206 159.9149,120.3876 C159.2749,119.4966 158.4169,119.0626 157.2949,119.0626 C156.1679,119.0626 155.3149,119.4766 154.6849,120.3286 C154.0299,121.2146 153.6969,122.5306 153.6969,124.2386 L153.6969,127.1046 Z M161.9219,128.1046 L152.6969,128.1046 L152.6969,124.2386 C152.6969,122.3106 153.0949,120.7956 153.8809,119.7336 C154.7009,118.6256 155.8489,118.0626 157.2949,118.0626 C158.7419,118.0626 159.8969,118.6486 160.7269,119.8046 C161.5199,120.9116 161.9219,122.4586 161.9219,124.4036 L161.9219,128.1046 Z M161.9219,137.0706 L165.4679,137.0706 L165.4679,124.2056 C165.4679,121.0236 164.7449,118.5746 163.3169,116.9256 C161.8879,115.2776 159.9319,114.4756 157.3379,114.4756 C154.7449,114.4756 152.7839,115.2886 151.3459,116.9586 C149.9079,118.6276 149.1789,121.1326 149.1789,124.4036 L149.1789,137.0706 L152.6969,137.0706 L152.6969,131.6586 L161.9219,131.6586 L161.9219,137.0706 Z M166.4679,138.0706 L160.9219,138.0706 L160.9219,132.6586 L153.6969,132.6586 L153.6969,138.0706 L148.1789,138.0706 L148.1789,124.4036 C148.1789,120.8866 148.9889,118.1626 150.5879,116.3056 C152.2049,114.4276 154.4759,113.4756 157.3379,113.4756 C160.1989,113.4756 162.4649,114.4166 164.0729,116.2716 C165.6619,118.1066 166.4679,120.7756 166.4679,124.2056 L166.4679,138.0706 Z" id="Fill-66" fill="#9A67A8"></path>
                <path d="M180.4467,118.7273 C179.1137,118.7273 178.0477,119.2393 177.2467,120.2613 C176.4457,121.2853 176.0447,122.7753 176.0447,124.7333 L176.0447,137.5703 L171.5267,137.5703 L171.5267,114.5023 L176.0447,114.5023 L176.0447,116.3513 C176.1797,116.1753 176.3777,115.9553 176.6377,115.6913 C176.8987,115.4273 177.4487,115.0753 178.2887,114.6353 C179.1287,114.1953 179.9837,113.9753 180.8517,113.9753 C183.1497,113.9753 185.0557,114.8283 186.5717,116.5333 C188.0867,118.2383 188.8447,120.6523 188.8447,123.7763 L188.8447,137.5703 L184.3267,137.5703 L184.3267,124.7333 C184.3267,120.7293 183.0337,118.7273 180.4467,118.7273" id="Fill-68" fill="#9A67A8"></path>
                <path d="M184.8273,137.0704 L188.3453,137.0704 L188.3453,123.7764 C188.3453,120.7944 187.6223,118.4684 186.1983,116.8654 C184.7683,115.2574 183.0193,114.4754 180.8523,114.4754 C180.0683,114.4754 179.2843,114.6784 178.5213,115.0784 C177.5383,115.5924 177.1483,115.8864 176.9943,116.0434 C176.7523,116.2884 176.5673,116.4924 176.4423,116.6564 L175.5453,117.8254 L175.5453,115.0034 L172.0273,115.0034 L172.0273,137.0704 L175.5453,137.0704 L175.5453,124.7334 C175.5453,122.6704 175.9853,121.0624 176.8533,119.9534 C177.7503,118.8084 178.9593,118.2274 180.4473,118.2274 C183.3533,118.2274 184.8273,120.4164 184.8273,124.7334 L184.8273,137.0704 Z M189.3453,138.0704 L183.8273,138.0704 L183.8273,124.7334 C183.8273,119.2274 181.2833,119.2274 180.4473,119.2274 C179.2653,119.2274 178.3483,119.6674 177.6403,120.5704 C176.9133,121.4984 176.5453,122.8994 176.5453,124.7334 L176.5453,138.0704 L171.0273,138.0704 L171.0273,114.0034 L176.5453,114.0034 L176.5453,115.1104 C176.8773,114.8514 177.3763,114.5494 178.0573,114.1924 C178.9643,113.7164 179.9053,113.4754 180.8523,113.4754 C183.2873,113.4754 185.3373,114.3924 186.9453,116.2014 C188.5383,117.9934 189.3453,120.5424 189.3453,123.7764 L189.3453,138.0704 Z" id="Fill-70" fill="#9A67A8"></path>
                <path d="M198.6606,124.2381 L198.6606,127.6041 L206.8856,127.6041 L206.8856,124.4031 C206.8856,122.5551 206.5176,121.1201 205.7846,120.0961 C205.0506,119.0741 204.0416,118.5621 202.7586,118.5621 C201.4736,118.5621 200.4706,119.0511 199.7466,120.0311 C199.0226,121.0091 198.6606,122.4121 198.6606,124.2381 L198.6606,124.2381 Z M194.1426,137.5701 L194.1426,124.4031 C194.1426,120.9931 194.9056,118.4031 196.4306,116.6321 C197.9556,114.8611 200.0796,113.9751 202.8016,113.9751 C205.5236,113.9751 207.6426,114.8491 209.1586,116.5981 C210.6736,118.3471 211.4316,120.8841 211.4316,124.2051 L211.4316,137.5701 L206.8856,137.5701 L206.8856,132.1581 L198.6606,132.1581 L198.6606,137.5701 L194.1426,137.5701 Z" id="Fill-72" fill="#9A67A8"></path>
                <path d="M199.1608,127.1046 L206.3858,127.1046 L206.3858,124.4036 C206.3858,122.6706 206.0468,121.3206 205.3788,120.3876 C204.7388,119.4966 203.8808,119.0626 202.7588,119.0626 C201.6318,119.0626 200.7788,119.4766 200.1488,120.3286 C199.4938,121.2146 199.1608,122.5306 199.1608,124.2386 L199.1608,127.1046 Z M207.3858,128.1046 L198.1608,128.1046 L198.1608,124.2386 C198.1608,122.3106 198.5588,120.7956 199.3448,119.7336 C200.1648,118.6256 201.3128,118.0626 202.7588,118.0626 C204.2058,118.0626 205.3608,118.6486 206.1908,119.8046 C206.9838,120.9116 207.3858,122.4586 207.3858,124.4036 L207.3858,128.1046 Z M207.3858,137.0706 L210.9318,137.0706 L210.9318,124.2056 C210.9318,121.0236 210.2088,118.5746 208.7808,116.9256 C207.3518,115.2776 205.3958,114.4756 202.8018,114.4756 C200.2088,114.4756 198.2478,115.2886 196.8098,116.9586 C195.3718,118.6276 194.6428,121.1326 194.6428,124.4036 L194.6428,137.0706 L198.1608,137.0706 L198.1608,131.6586 L207.3858,131.6586 L207.3858,137.0706 Z M211.9318,138.0706 L206.3858,138.0706 L206.3858,132.6586 L199.1608,132.6586 L199.1608,138.0706 L193.6428,138.0706 L193.6428,124.4036 C193.6428,120.8866 194.4528,118.1626 196.0518,116.3056 C197.6688,114.4276 199.9398,113.4756 202.8018,113.4756 C205.6628,113.4756 207.9288,114.4166 209.5368,116.2716 C211.1258,118.1066 211.9318,120.7756 211.9318,124.2056 L211.9318,138.0706 Z" id="Fill-74" fill="#9A67A8"></path>
                <path d="M231.4707,130.8709 C231.4707,132.9389 230.7897,134.6169 229.4287,135.9039 C228.0677,137.1899 226.2767,137.8339 224.0567,137.8339 C220.8517,137.8339 217.9657,136.4809 215.3977,133.7749 L218.0917,130.0139 C220.2727,132.1909 222.2907,133.2799 224.1437,133.2799 C224.9737,133.2799 225.6257,133.0769 226.0987,132.6699 C226.5717,132.2629 226.8077,131.7129 226.8077,131.0189 C226.8077,130.3269 226.5567,129.7769 226.0547,129.3699 C225.5537,128.9629 224.5587,128.5509 223.0727,128.1319 C220.7167,127.4939 218.9937,126.6639 217.9027,125.6409 C216.8117,124.6179 231.4707,128.8039 231.4707,130.8709" id="Fill-76" fill="#9A67A8"></path>
                <path d="M216.048,133.7267 C218.435,136.1217 221.127,137.3337 224.057,137.3337 C226.135,137.3337 227.827,136.7307 229.086,135.5407 C230.354,134.3407 230.971,132.8137 230.971,130.8717 C230.928,130.6117 229.792,129.5627 225.109,127.9117 C223.071,127.1927 221.013,126.5917 219.618,126.2607 C220.564,126.7947 221.763,127.2597 223.203,127.6497 C224.777,128.0927 225.811,128.5287 226.37,128.9817 C226.993,129.4867 227.308,130.1717 227.308,131.0197 C227.308,131.8617 227.011,132.5447 226.425,133.0487 C225.861,133.5347 225.094,133.7807 224.144,133.7807 C222.285,133.7807 220.274,132.7707 218.16,130.7777 L216.048,133.7267 Z M224.057,138.3337 C220.724,138.3337 217.689,136.9157 215.035,134.1197 L214.751,133.8207 L218.028,129.2447 L218.444,129.6607 C220.519,131.7307 222.437,132.7807 224.144,132.7807 C224.847,132.7807 225.395,132.6157 225.773,132.2907 C226.133,131.9807 226.308,131.5647 226.308,131.0197 C226.308,130.4817 226.123,130.0687 225.74,129.7587 C225.434,129.5097 224.699,129.1097 222.937,128.6137 C220.517,127.9577 218.707,127.0807 217.561,126.0047 C217.265,125.7287 217.35,125.4357 217.383,125.3517 C217.449,125.1837 217.62,124.9827 218.051,124.9827 C219.028,124.9827 222.47,125.9127 225.568,127.0127 C231.971,129.2877 231.971,130.4377 231.971,130.8717 C231.971,133.0727 231.232,134.8877 229.773,136.2677 C228.321,137.6387 226.399,138.3337 224.057,138.3337 L224.057,138.3337 Z" id="Fill-78" fill="#9A67A8"></path>
                <path d="M153.0578,210.9913 C147.4138,210.9913 141.8388,208.4223 138.2168,203.5573 C137.0738,202.0213 136.1808,200.3333 135.5618,198.5373 C134.9328,196.7093 135.9038,194.7183 137.7318,194.0883 C139.5618,193.4583 141.5518,194.4303 142.1808,196.2583 C142.5638,197.3713 143.1198,198.4213 143.8308,199.3773 C147.6088,204.4503 154.8118,205.5073 159.8868,201.7273 C160.4288,201.3243 162.7628,199.3033 167.6888,194.8443 C169.1228,193.5473 171.3358,193.6563 172.6328,195.0903 C173.9308,196.5223 173.8208,198.7353 172.3878,200.0333 C167.7888,204.1963 164.9898,206.6563 164.0668,207.3433 C160.7608,209.8043 156.8928,210.9913 153.0578,210.9913" id="Fill-80" fill="#34526E"></path>
                <path d="M178.1222,226.9552 C172.8142,226.9552 167.5722,224.5382 164.1662,219.9642 C159.6002,213.8312 159.9542,201.9462 167.7622,194.6972 C169.1792,193.3832 171.3932,193.4652 172.7082,194.8822 C174.0232,196.2982 173.9412,198.5132 172.5242,199.8282 C168.1612,203.8792 166.8022,211.7822 169.7812,215.7842 C173.1952,220.3692 179.7062,221.3262 184.2962,217.9092 L198.8012,207.1082 C200.3532,205.9562 202.5442,206.2762 203.6992,207.8262 C204.8532,209.3762 204.5322,211.5692 202.9822,212.7242 L188.4772,223.5232 C185.3672,225.8392 181.7292,226.9552 178.1222,226.9552" id="Fill-82" fill="#34526E"></path>
                <path d="M201.0099,240.1983 C196.2759,240.1983 191.5999,238.0423 188.5619,233.9623 C186.0899,230.6423 185.0589,226.5583 185.6589,222.4643 C186.2589,218.3683 188.4169,214.7523 191.7379,212.2803 L198.7589,207.0523 C200.3099,205.8953 202.5019,206.2193 203.6569,207.7673 C204.8109,209.3183 204.4909,211.5113 202.9409,212.6653 L195.9189,217.8943 C194.0969,219.2503 192.9139,221.2333 192.5849,223.4783 C192.2559,225.7233 192.8219,227.9623 194.1769,229.7823 C196.9739,233.5383 202.3069,234.3193 206.0639,231.5223 L213.5699,225.9333 C215.1209,224.7793 217.3129,225.1003 218.4679,226.6513 C219.6219,228.2013 219.3009,230.3943 217.7509,231.5493 L210.2439,237.1373 C207.4709,239.2023 204.2269,240.1983 201.0099,240.1983" id="Fill-84" fill="#34526E"></path>
                <path d="M206.7121,198.8839 C203.2151,198.8839 199.9261,197.5269 197.4471,195.0599 C196.0761,193.6969 196.0701,191.4809 197.4341,190.1099 C198.7981,188.7379 201.0141,188.7339 202.3831,190.0969 C203.5421,191.2489 205.0791,191.8839 206.7131,191.8839 L206.7301,191.8839 C208.3701,191.8789 209.9101,191.2369 211.0661,190.0729 C212.2231,188.9109 212.8581,187.3669 212.8531,185.7279 C212.8491,184.0869 212.2061,182.5469 211.0441,181.3909 C209.6731,180.0289 209.6671,177.8119 211.0291,176.4419 C212.3931,175.0719 214.6091,175.0649 215.9791,176.4279 C218.4681,178.9029 219.8441,182.1979 219.8531,185.7079 C219.8631,189.2189 218.5041,192.5229 216.0291,195.0109 C213.5541,197.4989 210.2581,198.8739 206.7491,198.8839 L206.7121,198.8839 Z" id="Fill-86" fill="#34526E"></path>
                <path d="M197.5651,195.1778 L191.3181,188.9638 C188.8291,186.4888 187.4541,183.1928 187.4441,179.6828 C187.4351,176.1728 188.7931,172.8688 191.2681,170.3808 C193.7431,167.8928 197.0391,166.5168 200.5491,166.5078 L200.5851,166.5078 C204.0821,166.5078 207.3711,167.8648 209.8511,170.3308 L216.0981,176.5448 C217.4681,177.9068 217.4751,180.1238 216.1121,181.4938 C214.7491,182.8648 212.5331,182.8718 211.1621,181.5078 L204.9141,175.2938 C203.7551,174.1418 202.2181,173.5078 200.5851,173.5078 L200.5681,173.5078 C198.9281,173.5118 197.3881,174.1548 196.2321,175.3178 C195.0741,176.4808 194.4401,178.0248 194.4441,179.6638 C194.4491,181.3038 195.0911,182.8438 196.2541,184.0008 L202.5021,190.2148 L197.5651,195.1778 Z" id="Fill-88" fill="#34526E"></path>
                <path d="M186.4123,195.2892 C185.4213,195.2892 184.4363,194.8702 183.7443,194.0562 C178.3503,187.7092 176.9033,178.9602 179.9673,171.2222 C182.1763,165.6432 186.4263,161.2592 191.9333,158.8762 C197.4403,156.4942 203.5453,156.3972 209.1243,158.6072 C212.1193,159.7932 214.7653,161.5602 216.9893,163.8572 C218.3343,165.2462 218.2983,167.4622 216.9093,168.8072 C215.5203,170.1512 213.3043,170.1142 211.9603,168.7272 C210.4323,167.1472 208.6103,165.9332 206.5463,165.1152 C202.7053,163.5932 198.5023,163.6602 194.7123,165.3002 C190.9213,166.9402 187.9963,169.9592 186.4753,173.8002 C184.3663,179.1272 185.3633,185.1512 189.0783,189.5222 C190.3293,190.9952 190.1503,193.2042 188.6773,194.4562 C188.0193,195.0162 187.2133,195.2892 186.4123,195.2892" id="Fill-90" fill="#34526E"></path>
                <path d="M244.6452,252.4815 C241.1452,252.4825 237.5902,251.8355 234.1442,250.4705 C229.9152,248.7955 226.2522,246.2305 223.2582,242.8455 C221.9772,241.3985 222.1122,239.1865 223.5602,237.9055 C225.0082,236.6255 227.2202,236.7585 228.5002,238.2075 C230.7592,240.7595 233.5252,242.6965 236.7212,243.9625 C247.8022,248.3495 260.3902,242.9065 264.7792,231.8235 C268.5432,222.3165 265.0752,211.3635 256.5312,205.7795 C254.9142,204.7215 254.4592,202.5525 255.5172,200.9345 C256.5742,199.3165 258.7432,198.8625 260.3612,199.9195 C271.6752,207.3145 276.2702,221.8165 271.2872,234.4015 C266.8412,245.6255 256.0432,252.4815 244.6452,252.4815" id="Fill-92" fill="#34526E"></path>
                <path d="M259.9513,207.4171 C259.1633,207.4171 258.3713,207.1521 257.7173,206.6091 L210.7713,167.6281 C209.2843,166.3941 209.0793,164.1871 210.3143,162.6991 C211.5493,161.2131 213.7553,161.0081 215.2433,162.2431 L262.1893,201.2251 C263.6763,202.4591 263.8813,204.6661 262.6463,206.1531 C261.9533,206.9861 260.9563,207.4171 259.9513,207.4171" id="Fill-94" fill="#34526E"></path>
                <path d="M352.2721,230.9112 C351.7941,230.9112 351.3091,230.8122 350.8451,230.6052 L267.5391,193.3422 C265.7741,192.5522 264.9841,190.4812 265.7731,188.7182 C266.5631,186.9532 268.6321,186.1652 270.3971,186.9512 L353.7031,224.2152 C355.4681,225.0052 356.2581,227.0752 355.4691,228.8392 C354.8871,230.1402 353.6101,230.9112 352.2721,230.9112" id="Fill-96" fill="#34526E"></path>
                <path d="M315.9108,293.296 C315.3038,293.296 314.6878,293.138 314.1278,292.805 L245.1858,251.884 C243.5238,250.898 242.9758,248.75 243.9628,247.088 C244.9498,245.425 247.0958,244.875 248.7598,245.864 L317.7008,286.785 C319.3628,287.772 319.9108,289.919 318.9238,291.581 C318.2698,292.684 317.1058,293.296 315.9108,293.296" id="Fill-98" fill="#34526E"></path>
                <path d="M118.4914,210.0314 C114.6234,210.0314 110.9464,208.6094 108.0684,205.9854 L106.0104,204.1094 C104.5814,202.8064 104.4794,200.5934 105.7814,199.1644 C107.0834,197.7364 109.2974,197.6344 110.7254,198.9354 L112.7834,200.8114 C114.4614,202.3434 116.6314,203.1424 118.9004,203.0214 C121.1674,202.9174 123.2574,201.9364 124.7854,200.2594 C125.7964,199.1504 126.4964,197.7964 126.8114,196.3424 C127.2194,194.4524 129.0844,193.2524 130.9714,193.6604 C132.8604,194.0684 134.0614,195.9304 133.6534,197.8204 C133.0784,200.4794 131.8014,202.9544 129.9594,204.9744 C127.1704,208.0344 123.3574,209.8234 119.2234,210.0144 C118.9784,210.0254 118.7344,210.0314 118.4914,210.0314" id="Fill-100" fill="#34526E"></path>
                <path d="M84.9045,214.1222 C72.4445,214.1232 60.9565,205.9132 57.3735,193.3512 C53.6615,180.3352 59.6705,166.3602 71.6605,160.1232 C73.3765,159.2302 75.4895,159.8972 76.3815,161.6122 C77.2735,163.3272 76.6065,165.4402 74.8915,166.3322 C65.8375,171.0432 61.3005,181.5992 64.1045,191.4312 C67.3735,202.8922 79.3575,209.5652 90.8215,206.2902 C94.1275,205.3482 97.0715,203.6942 99.5725,201.3782 C100.9905,200.0642 103.2055,200.1492 104.5185,201.5662 C105.8325,202.9852 105.7475,205.1992 104.3295,206.5132 C101.0135,209.5842 97.1145,211.7742 92.7415,213.0212 C90.1295,213.7672 87.4955,214.1222 84.9045,214.1222" id="Fill-102" fill="#34526E"></path>
                <g id="Group-106" transform="translate(0.000000, 155.296000)" fill="#34526E">
                    <path d="M3.4977,79.7549 C2.7487,79.7549 1.9947,79.5159 1.3567,79.0219 C-0.1713,77.8379 -0.4503,75.6399 0.7327,74.1109 L57.0027,1.4719 C58.1867,-0.0581 60.3847,-0.3351 61.9137,0.8489 C63.4407,2.0319 63.7207,4.2309 62.5367,5.7589 L6.2677,78.3989 C5.5777,79.2889 4.5427,79.7549 3.4977,79.7549" id="Fill-104"></path>
                </g>
                <path d="M61.0192,282.9112 C60.4052,282.9112 59.7842,282.7492 59.2192,282.4102 C57.5622,281.4142 57.0272,279.2642 58.0232,277.6062 L105.9692,197.8602 C106.9652,196.2042 109.1142,195.6682 110.7722,196.6642 C112.4292,197.6602 112.9642,199.8102 111.9682,201.4682 L64.0222,281.2142 C63.3652,282.3062 62.2072,282.9112 61.0192,282.9112" id="Fill-107" fill="#34526E"></path>
                <mask id="mask-4" fill="white">
                    <use xlink:href="#path-3"></use>
                </mask>
                <g id="Clip-110"></g>
                <polygon id="Fill-109" fill="#9A67A8" mask="url(#mask-4)" points="109.532 200.535 188.573 200.535 188.573 193.535 109.532 193.535"></polygon>
                <path d="M112.8488,29.0206 L92.2358,29.0206 C90.3028,29.0206 88.7358,27.4536 88.7358,25.5206 C88.7358,23.5876 90.3028,22.0206 92.2358,22.0206 L112.8488,22.0206 C114.7818,22.0206 116.3488,23.5876 116.3488,25.5206 C116.3488,27.4536 114.7818,29.0206 112.8488,29.0206" id="Fill-111" fill="#9A67A8" mask="url(#mask-4)"></path>
                <path d="M112.8488,49.4728 L92.2358,49.4728 C90.3028,49.4728 88.7358,47.9058 88.7358,45.9728 C88.7358,44.0398 90.3028,42.4728 92.2358,42.4728 L112.8488,42.4728 C114.7818,42.4728 116.3488,44.0398 116.3488,45.9728 C116.3488,47.9058 114.7818,49.4728 112.8488,49.4728" id="Fill-112" fill="#9A67A8" mask="url(#mask-4)"></path>
                <path d="M112.8488,69.9259 L92.2358,69.9259 C90.3028,69.9259 88.7358,68.3589 88.7358,66.4259 C88.7358,64.4929 90.3028,62.9259 92.2358,62.9259 L112.8488,62.9259 C114.7818,62.9259 116.3488,64.4929 116.3488,66.4259 C116.3488,68.3589 114.7818,69.9259 112.8488,69.9259" id="Fill-113" fill="#9A67A8" mask="url(#mask-4)"></path>
                <path d="M112.8488,90.379 L92.2358,90.379 C90.3028,90.379 88.7358,88.812 88.7358,86.879 C88.7358,84.946 90.3028,83.379 92.2358,83.379 L112.8488,83.379 C114.7818,83.379 116.3488,84.946 116.3488,86.879 C116.3488,88.812 114.7818,90.379 112.8488,90.379" id="Fill-114" fill="#9A67A8" mask="url(#mask-4)"></path>
                <path d="M112.8488,110.8312 L92.2358,110.8312 C90.3028,110.8312 88.7358,109.2642 88.7358,107.3312 C88.7358,105.3982 90.3028,103.8312 92.2358,103.8312 L112.8488,103.8312 C114.7818,103.8312 116.3488,105.3982 116.3488,107.3312 C116.3488,109.2642 114.7818,110.8312 112.8488,110.8312" id="Fill-115" fill="#9A67A8" mask="url(#mask-4)"></path>
                <path d="M112.8488,131.2843 L92.2358,131.2843 C90.3028,131.2843 88.7358,129.7173 88.7358,127.7843 C88.7358,125.8513 90.3028,124.2843 92.2358,124.2843 L112.8488,124.2843 C114.7818,124.2843 116.3488,125.8513 116.3488,127.7843 C116.3488,129.7173 114.7818,131.2843 112.8488,131.2843" id="Fill-116" fill="#9A67A8" mask="url(#mask-4)"></path>
                <path d="M92.8366,151.7374 L92.2356,151.7374 C90.3026,151.7374 88.7356,150.1704 88.7356,148.2374 C88.7356,146.3044 90.3026,144.7374 92.2356,144.7374 L92.8366,144.7374 C94.7696,144.7374 96.3366,146.3044 96.3366,148.2374 C96.3366,150.1704 94.7696,151.7374 92.8366,151.7374" id="Fill-117" fill="#9A67A8" mask="url(#mask-4)"></path>
                <path d="M232.4499,123.169 C231.4249,123.169 230.3919,123.048 229.3699,122.804 C227.4899,122.354 226.3299,120.466 226.7799,118.585 C227.2289,116.706 229.1179,115.544 230.9979,115.995 C232.5919,116.376 234.2409,116.114 235.6379,115.256 C237.0359,114.398 238.0159,113.046 238.3979,111.451 C239.1849,108.158 237.1459,104.839 233.8529,104.052 C231.9729,103.602 230.8139,101.714 231.2629,99.833 C231.7129,97.954 233.6029,96.794 235.4809,97.243 C242.5279,98.929 246.8899,106.032 245.2059,113.078 C244.3889,116.492 242.2929,119.384 239.3019,121.221 C237.2069,122.508 234.8479,123.169 232.4499,123.169" id="Fill-118" fill="#34526E" mask="url(#mask-4)"></path>
                <path d="M229.5324,122.8429 L220.9614,120.7929 C217.5494,119.9779 214.6574,117.8809 212.8214,114.8899 C210.9844,111.8989 210.4224,108.3709 211.2384,104.9579 C212.0544,101.5439 214.1514,98.6529 217.1424,96.8159 C220.1334,94.9789 223.6604,94.4179 227.0744,95.2339 L235.6444,97.2819 C237.5244,97.7329 238.6834,99.6209 238.2334,101.5009 C237.7834,103.3809 235.8974,104.5389 234.0154,104.0909 L225.4464,102.0419 C223.8514,101.6609 222.2024,101.9219 220.8044,102.7809 C219.4074,103.6389 218.4284,104.9899 218.0464,106.5849 C217.6654,108.1809 217.9284,109.8279 218.7854,111.2269 C219.6444,112.6239 220.9954,113.6039 222.5904,113.9849 L231.1604,116.0339 L229.5324,122.8429 Z" id="Fill-119" fill="#34526E" mask="url(#mask-4)"></path>
                <path d="M218.2463,129.2618 C217.8833,129.2618 217.5143,129.2048 217.1503,129.0848 C209.2403,126.4788 203.4463,119.7638 202.0303,111.5628 C199.9233,99.3578 208.1393,87.7128 220.3453,85.6048 C223.5193,85.0578 226.6983,85.1878 229.7943,85.9898 C231.6653,86.4738 232.7893,88.3838 232.3043,90.2548 C231.8193,92.1268 229.9103,93.2558 228.0383,92.7648 C225.9113,92.2138 223.7233,92.1248 221.5353,92.5028 C213.1343,93.9528 207.4783,101.9698 208.9293,110.3708 C209.9033,116.0188 213.8933,120.6418 219.3413,122.4368 C221.1773,123.0418 222.1753,125.0208 221.5703,126.8568 C221.0843,128.3278 219.7163,129.2618 218.2463,129.2618" id="Fill-120" fill="#34526E" mask="url(#mask-4)"></path>
                <path d="M277.3244,150.294 C276.9344,150.294 276.5384,150.229 276.1504,150.09 L217.0694,129.054 C215.2484,128.405 214.2974,126.404 214.9464,124.583 C215.5944,122.763 217.5964,121.811 219.4174,122.46 L278.4984,143.496 C280.3194,144.145 281.2704,146.146 280.6214,147.967 C280.1114,149.399 278.7624,150.294 277.3244,150.294" id="Fill-121" fill="#34526E" mask="url(#mask-4)"></path>
                <path d="M287.3415,101.298 C287.1735,101.298 287.0035,101.286 286.8315,101.261 L226.4505,92.446 C224.5375,92.167 223.2135,90.391 223.4925,88.478 C223.7725,86.566 225.5505,85.242 227.4615,85.521 L287.8425,94.335 C289.7555,94.614 291.0795,96.391 290.8005,98.304 C290.5465,100.045 289.0505,101.298 287.3415,101.298" id="Fill-122" fill="#34526E" mask="url(#mask-4)"></path>
                <path d="M126.4616,164.4659 C122.6436,164.4659 118.8556,162.8149 116.2606,159.6289 C111.6856,154.0099 112.5346,145.7169 118.1516,141.1429 C119.6506,139.9209 121.8556,140.1479 123.0756,141.6469 C124.2966,143.1459 124.0706,145.3499 122.5716,146.5699 C119.9466,148.7079 119.5506,152.5829 121.6896,155.2089 C123.8256,157.8349 127.7016,158.2319 130.3266,156.0919 C131.8256,154.8719 134.0306,155.0969 135.2516,156.5959 C136.4716,158.0939 136.2466,160.2989 134.7476,161.5199 C132.3146,163.5009 129.3786,164.4659 126.4616,164.4659" id="Fill-123" fill="#34526E" mask="url(#mask-4)"></path>
                <path d="M134.6178,161.6251 L130.1978,156.1971 L137.0298,150.6331 C139.6548,148.4951 140.0508,144.6201 137.9128,141.9941 C136.8778,140.7231 135.4088,139.9311 133.7778,139.7641 C132.1458,139.6031 130.5468,140.0761 129.2748,141.1111 L122.4428,146.6761 C120.9448,147.8971 118.7398,147.6721 117.5188,146.1721 C116.2978,144.6731 116.5238,142.4691 118.0228,141.2481 L124.8538,135.6841 C127.5758,133.4671 130.9958,132.4471 134.4898,132.8001 C137.9808,133.1571 141.1248,134.8531 143.3408,137.5741 C147.9158,143.1921 147.0678,151.4851 141.4508,156.0611 L134.6178,161.6251 Z" id="Fill-124" fill="#34526E" mask="url(#mask-4)"></path>
                <path d="M146.0539,162.8575 C145.1369,162.8575 144.2209,162.4995 143.5329,161.7865 C142.1919,160.3945 142.2329,158.1785 143.6239,156.8375 C147.7539,152.8565 149.3429,146.9615 147.7719,141.4505 C146.6389,137.4785 144.0269,134.1845 140.4169,132.1775 C136.8069,130.1695 132.6309,129.6845 128.6589,130.8215 C126.5249,131.4295 124.5929,132.4585 122.9149,133.8785 C121.4399,135.1255 119.2309,134.9425 117.9829,133.4675 C116.7339,131.9925 116.9169,129.7835 118.3929,128.5345 C120.8349,126.4675 123.6429,124.9715 126.7399,124.0885 C132.5089,122.4425 138.5749,123.1435 143.8199,126.0595 C149.0629,128.9765 152.8579,133.7595 154.5029,139.5305 C156.7859,147.5345 154.4789,156.0965 148.4829,161.8775 C147.8039,162.5325 146.9279,162.8575 146.0539,162.8575" id="Fill-125" fill="#34526E" mask="url(#mask-4)"></path>
                <path d="M101.9504,207.4405 C101.0604,207.4405 100.1714,207.1035 99.4894,206.4285 C98.1154,205.0695 98.1024,202.8535 99.4624,201.4795 L143.5654,156.8925 C144.9254,155.5175 147.1414,155.5055 148.5154,156.8655 C149.8894,158.2245 149.9014,160.4405 148.5424,161.8145 L104.4384,206.4015 C103.7544,207.0935 102.8524,207.4405 101.9504,207.4405" id="Fill-126" fill="#34526E" mask="url(#mask-4)"></path>
                <path d="M71.6745,167.6397 C70.5495,167.6397 69.4465,167.0997 68.7705,166.0977 C67.6885,164.4947 68.1115,162.3207 69.7135,161.2387 L120.2905,127.0997 C121.8935,126.0177 124.0685,126.4407 125.1495,128.0427 C126.2315,129.6457 125.8085,131.8207 124.2065,132.9027 L73.6295,167.0407 C73.0285,167.4467 72.3475,167.6397 71.6745,167.6397" id="Fill-127" fill="#34526E" mask="url(#mask-4)"></path>
                <path d="M225.882,244.0216 C224.862,244.0216 223.852,243.5786 223.16,242.7246 L183.691,193.9876 C182.474,192.4846 182.706,190.2816 184.208,189.0646 C185.71,187.8476 187.915,188.0806 189.131,189.5816 L228.6,238.3186 C229.817,239.8216 229.585,242.0256 228.083,243.2416 C227.435,243.7666 226.656,244.0216 225.882,244.0216" id="Fill-128" fill="#34526E" mask="url(#mask-4)"></path>
            </g>
        </g>
    </g>
</svg>