<?xml version="1.0" encoding="UTF-8" standalone="no"?>
<svg width="211px" height="60px" viewBox="0 0 211 60" version="1.1" xmlns="http://www.w3.org/2000/svg" xmlns:xlink="http://www.w3.org/1999/xlink">
    <!-- Generator: Sketch 3.8.3 (29802) - http://www.bohemiancoding.com/sketch -->
    <title>Artboard 32</title>
    <desc>Created with Sketch.</desc>
    <defs></defs>
    <g id="Page-1" stroke="none" stroke-width="1" fill="none" fill-rule="evenodd">
        <g id="Artboard-32" fill="#FFFFFF">
            <g id="fci" transform="translate(7.000000, 4.000000)">
                <path d="M9.73321467,40.4025057 C9.06260199,40.4025057 8.40703896,40.733931 8.02206875,41.3395517 C7.42429641,42.2791379 7.70722995,43.5335632 8.65881971,44.1281264 C8.99758747,44.3437471 9.37638732,44.4468506 9.75067227,44.4468506 C10.2771092,44.4468506 10.7943659,44.2427356 11.1772292,43.8608046 C11.2797173,43.7588966 11.3740787,43.6398046 11.4526379,43.5136897 C12.0535707,42.5687241 11.7665737,41.3196782 10.8201008,40.7186897 C10.4822361,40.5045632 10.1055432,40.4025057 9.73321467,40.4025057" id="Fill-1"></path>
                <path d="M3.89123911,31.7029655 C3.22092743,31.7029655 2.56581589,32.0346897 2.18144767,32.6395632 C1.58367532,33.5791494 1.86660886,34.8332759 2.81729565,35.4290345 C3.15576241,35.6445057 3.53441176,35.7476092 3.90854622,35.7476092 C4.4348327,35.7476092 4.95193888,35.5433448 5.33540413,35.1606667 C5.43924675,35.0586092 5.53255462,34.9407126 5.61096333,34.8145977 C6.2118961,33.8696322 5.92474866,32.6204368 4.97827578,32.0195977 C4.640411,31.8051724 4.26356761,31.7029655 3.89123911,31.7029655" id="Fill-2"></path>
                <path d="M2.13870665,21.8435862 C1.46824446,21.8435862 0.813283422,22.1748621 0.428313216,22.7795862 C-0.169308633,23.7203678 0.114828877,24.9735977 1.06551566,25.5702529 C1.40383193,25.7852759 1.78218029,25.8880805 2.15601375,25.8880805 C2.68245073,25.8880805 3.19985791,25.6839655 3.58362414,25.3018851 C3.6862628,25.198931 3.77972116,25.0808851 3.85812987,24.9546207 C4.45996562,24.0098046 4.17266769,22.7607586 3.2263453,22.1599195 C2.88802903,21.9456437 2.51103514,21.8435862 2.13870665,21.8435862" id="Fill-3"></path>
                <path d="M3.89093812,11.4035402 C3.22077693,11.4035402 2.56581589,11.7349655 2.18144767,12.3389425 C1.58367532,13.2797241 1.86660886,14.5338506 2.81729565,15.1296092 C3.15591291,15.3447816 3.53471276,15.4477356 3.90884721,15.4477356 C4.43498319,15.4477356 4.95208938,15.2439195 5.33540413,14.8613908 C5.43924675,14.7591839 5.53255462,14.6414368 5.61096333,14.5151724 C6.2118961,13.5703563 5.92474866,12.3199655 4.97827578,11.7201724 C4.6402605,11.5057471 4.26326662,11.4035402 3.89093812,11.4035402" id="Fill-4"></path>
                <path d="M9.73366616,3.28391954 C9.06290298,3.28391954 8.40718946,3.61534483 8.02206875,4.21977011 C7.42429641,5.1604023 7.70722995,6.41482759 8.65881971,7.01028736 C8.99728648,7.22531034 9.37578533,7.32811494 9.74976929,7.32811494 C10.2765073,7.32811494 10.7942154,7.12414943 11.1772292,6.74191954 C11.2797173,6.63986207 11.3740787,6.52106897 11.4526379,6.39585057 C12.0535707,5.45088506 11.7665737,4.2007931 10.8201008,3.59995402 C10.4823866,3.38582759 10.1056937,3.28391954 9.73366616,3.28391954" id="Fill-5"></path>
                <path d="M46.5345905,3.28391954 C45.8639778,3.28391954 45.2081138,3.61534483 44.8231436,4.21977011 C44.2262743,5.1604023 44.5081543,6.41482759 45.4598946,7.01028736 C45.7979099,7.22531034 46.1761077,7.32811494 46.5500917,7.32811494 C47.0766791,7.32811494 47.5945378,7.12414943 47.978304,6.74191954 C48.0812437,6.63986207 48.1741001,6.52106897 48.2526593,6.39585057 C48.8535921,5.45088506 48.5674981,4.2007931 47.6211757,3.59995402 C47.2833109,3.38582759 46.9067685,3.28391954 46.5345905,3.28391954" id="Fill-6"></path>
                <path d="M52.3750611,11.9833103 C51.7045989,11.9833103 51.0490359,12.3150345 50.6646677,12.919908 C50.0668953,13.8596437 50.3501299,15.1137701 51.3018701,15.7095287 C51.6404874,15.925 52.0191367,16.0281034 52.3932712,16.0281034 C52.9194072,16.0281034 53.4363629,15.8241379 53.8198281,15.4422069 C53.9217143,15.34 54.0160756,15.2212069 54.0931299,15.0937471 C54.6961696,14.148931 54.4081192,12.8998851 53.4616463,12.3002414 C53.124233,12.0856667 52.7472391,11.9833103 52.3750611,11.9833103" id="Fill-7"></path>
                <path d="M54.1274431,21.8435862 C53.4571314,21.8435862 52.8020199,22.1748621 52.4176516,22.7795862 C51.8188258,23.7203678 52.1017594,24.9735977 53.0533491,25.5702529 C53.3918159,25.7852759 53.7701642,25.8880805 54.1441482,25.8880805 C54.6707357,25.8880805 55.1885943,25.6839655 55.5728121,25.3018851 C55.6746982,25.198931 55.7687586,25.0808851 55.8462643,24.9546207 C56.4481001,24.0098046 56.1600497,22.7607586 55.2147807,22.1599195 C54.8767655,21.9456437 54.4997716,21.8435862 54.1274431,21.8435862" id="Fill-8"></path>
                <path d="M52.3752116,31.7029655 C51.7047494,31.7029655 51.0490359,32.0346897 50.6646677,32.6395632 C50.0668953,33.5791494 50.3501299,34.8332759 51.3018701,35.4290345 C51.6404874,35.6445057 52.0189862,35.7476092 52.3929702,35.7476092 C52.9191062,35.7476092 53.4362124,35.5433448 53.8198281,35.1606667 C53.9217143,35.0586092 54.0160756,34.9407126 54.0931299,34.8145977 C54.6961696,33.8696322 54.4081192,32.6204368 53.4616463,32.0195977 C53.124233,31.8051724 52.7473896,31.7029655 52.3752116,31.7029655" id="Fill-9"></path>
                <path d="M47.1182162,40.4025057 C46.447754,40.4025057 45.792492,40.733931 45.4081238,41.3395517 C44.8103514,42.2791379 45.093285,43.5335632 46.0427678,44.1281264 C46.3818365,44.3437471 46.7607869,44.4468506 47.1352223,44.4468506 C47.6616593,44.4468506 48.1787655,44.2427356 48.5622307,43.8608046 C48.6647189,43.7588966 48.7580267,43.6398046 48.8365859,43.5136897 C49.4385722,42.5687241 49.1515752,41.3196782 48.2049519,40.7186897 C47.8672376,40.5045632 47.4903942,40.4025057 47.1182162,40.4025057" id="Fill-10"></path>
                <path d="M38.3551024,46.202 C37.6849412,46.2021494 37.0296791,46.5334253 36.6454614,47.1375517 C36.0467861,48.0792299 36.3309236,49.3326092 37.2826639,49.9294138 C37.6203782,50.1442874 37.9984255,50.247092 38.372259,50.247092 C38.8988464,50.247092 39.4168556,50.0426782 39.8006218,49.66 C39.9023575,49.5588391 39.9965684,49.4398966 40.0751276,49.3136322 C40.6759099,48.3688161 40.3889129,47.1197701 39.44244,46.5187816 C39.1044248,46.3042069 38.7275814,46.202 38.3551024,46.202" id="Fill-11"></path>
                <path d="M27.8399076,47.9422069 C27.1700474,47.9423563 26.5153873,48.2736322 26.1313201,48.8780575 C25.5335477,49.8186897 25.8163308,51.0731149 26.7670176,51.6688736 C27.1059358,51.8841954 27.4842842,51.987 27.8581176,51.987 C28.3845546,51.987 28.9016608,51.7828851 29.2851261,51.4014023 C29.3879152,51.2981494 29.4822765,51.1805517 29.5608358,51.053092 C30.162822,50.1082759 29.8743201,48.8592299 28.9279977,48.2594368 C28.5896814,48.0445632 28.2125371,47.9422069 27.8399076,47.9422069" id="Fill-12"></path>
                <path d="M17.9105959,46.202 C17.2399832,46.2021494 16.5848717,46.5334253 16.2006539,47.1375517 C15.6030321,48.0792299 15.8858151,49.3326092 16.8365019,49.9294138 C17.1748182,50.1442874 17.5531665,50.247092 17.927,50.247092 C18.4538885,50.247092 18.9715966,50.0426782 19.3547609,49.66 C19.457249,49.5588391 19.5517609,49.4398966 19.6301696,49.3136322 C20.2312529,48.3688161 19.9438044,47.1197701 18.998686,46.5187816 C18.6603697,46.3042069 18.2830749,46.202 17.9105959,46.202" id="Fill-13"></path>
                <path d="M13.8456837,38.8351839 C13.113518,38.3754023 12.8951474,37.4104138 13.3550649,36.6854023 C13.8151329,35.9603908 14.7816218,35.7456667 15.5097242,36.2076897 C16.2387296,36.6707586 16.4602605,37.6335057 15.9970321,38.3606092 C15.936984,38.4586322 15.8647456,38.5500805 15.7861864,38.627931 C15.2806684,39.1319425 14.4731039,39.234 13.8456837,38.8351839" id="Fill-14"></path>
                <path d="M9.55878915,32.4521839 C8.82647288,31.9922529 8.60915584,31.0274138 9.07027731,30.3024023 C9.53019481,29.5772414 10.4945768,29.3616207 11.2237326,29.8246897 C11.9528885,30.2865632 12.1744194,31.2494598 11.711191,31.9776092 C11.6499389,32.0753333 11.578754,32.1658851 11.5003453,32.245977 C10.9948273,32.7489425 10.1871123,32.849954 9.55878915,32.4521839" id="Fill-15"></path>
                <path d="M8.27324752,25.217908 C7.54093125,24.7578276 7.32361421,23.7919425 7.7836822,23.066931 C8.24359969,22.3428161 9.20903514,22.1283908 9.93819099,22.5904138 C10.6671963,23.0531839 10.8878243,24.0150345 10.4245959,24.7431839 C10.3643972,24.8398621 10.2930619,24.9316092 10.2139007,25.0115517 C9.70808174,25.5145172 8.90157066,25.6156782 8.27324752,25.217908" id="Fill-16"></path>
                <path d="M9.55878915,17.5571724 C8.82647288,17.0973908 8.60915584,16.1324023 9.07027731,15.4084368 C9.53019481,14.6834253 10.4945768,14.4666092 11.2237326,14.9296782 C11.9528885,15.3928966 12.1744194,16.3565402 11.711191,17.0825977 C11.6499389,17.1804713 11.578754,17.2731149 11.5003453,17.3509655 C10.9948273,17.853931 10.1871123,17.9571839 9.55878915,17.5571724" id="Fill-17"></path>
                <path d="M13.8456837,11.6003333 C13.113518,11.1395057 12.8951474,10.1745172 13.3550649,9.45055172 C13.8151329,8.72554023 14.7816218,8.50872414 15.5097242,8.9717931 C16.2387296,9.43486207 16.4602605,10.3986552 15.9970321,11.1257586 C15.936984,11.2234828 15.8647456,11.3152299 15.7861864,11.3930805 C15.2806684,11.897092 14.4731039,11.9991494 13.8456837,11.6003333" id="Fill-18"></path>
                <path d="M40.8479274,11.6003333 C40.1141062,11.1395057 39.8972406,10.1745172 40.3568571,9.45055172 C40.8179786,8.72554023 41.7823606,8.50872414 42.5118174,8.9717931 C43.2408228,9.43486207 43.4634072,10.3986552 42.9992758,11.1257586 C42.9396791,11.2234828 42.8678923,11.3152299 42.7872261,11.3930805 C42.2827617,11.897092 41.4751971,11.9991494 40.8479274,11.6003333" id="Fill-19"></path>
                <path d="M45.133618,17.9824368 C44.4014523,17.5225057 44.1820283,16.5576667 44.6440527,15.8325057 C45.1038197,15.1085402 46.0685027,14.8929195 46.798712,15.3558391 C47.5278678,15.8177126 47.7481948,16.7807586 47.2851169,17.5087586 C47.2244668,17.6067816 47.1537334,17.6973333 47.0730672,17.7772759 C46.5687532,18.2791954 45.7620917,18.3811034 45.133618,17.9824368" id="Fill-20"></path>
                <path d="M46.4193102,25.217908 C45.6866929,24.7578276 45.4686234,23.7919425 45.9292934,23.066931 C46.3893613,22.3428161 47.3547968,22.1283908 48.0832002,22.5904138 C48.8134095,23.0531839 49.0349404,24.0150345 48.571712,24.7431839 C48.5112124,24.8398621 48.439275,24.9316092 48.3596623,25.0115517 C47.8532414,25.5145172 47.0476333,25.6156782 46.4193102,25.217908" id="Fill-21"></path>
                <path d="M45.133618,32.4521839 C44.4014523,31.9922529 44.1820283,31.0274138 44.6440527,30.3024023 C45.1038197,29.5772414 46.0685027,29.3616207 46.798712,29.8246897 C47.5278678,30.2865632 47.7481948,31.2505057 47.2851169,31.9786552 C47.2244668,32.0753333 47.1537334,32.1658851 47.0730672,32.245977 C46.5687532,32.7489425 45.7620917,32.849954 45.133618,32.4521839" id="Fill-22"></path>
                <path d="M41.2757892,38.8351839 C40.5434729,38.3754023 40.3261558,37.4104138 40.7862238,36.6854023 C41.2471948,35.9603908 42.2115768,35.7456667 42.9407326,36.2076897 C43.6698885,36.6707586 43.8903659,37.6335057 43.427288,38.3606092 C43.3679924,38.4586322 43.295754,38.5500805 43.2165928,38.627931 C42.7107739,39.1319425 41.9044133,39.234 41.2757892,38.8351839" id="Fill-23"></path>
                <path d="M34.8470275,43.0905172 C34.1136578,42.6307356 33.8964912,41.6647011 34.3564087,40.9396897 C34.8175302,40.2169195 35.7819121,40.0011494 36.5109175,40.463023 C37.2411268,40.925046 37.4626578,41.8889885 36.9983759,42.6171379 C36.9381772,42.7139655 36.8669924,42.8043678 36.7864767,42.8844598 C36.2820122,43.3872759 35.4742972,43.4903793 34.8470275,43.0905172" id="Fill-24"></path>
                <path d="M27.1315202,44.3681034 C26.4004079,43.9071264 26.1820374,42.9412414 26.6419549,42.2171264 C27.1020229,41.4922644 28.0674584,41.2763448 28.7966142,41.7395632 C29.5256196,42.2024828 29.7471505,43.1652299 29.2830191,43.8924828 C29.2238739,43.9903563 29.1516356,44.0818046 29.0730764,44.1596552 C28.566505,44.6647126 27.7589404,44.7658736 27.1315202,44.3681034" id="Fill-25"></path>
                <path d="M19.8465837,43.0905172 C19.1127624,42.6307356 18.8948434,41.6647011 19.3547609,40.9396897 C19.8166348,40.2169195 20.7823713,40.0011494 21.5104736,40.463023 C22.239479,40.925046 22.4622139,41.8889885 21.9968785,42.6171379 C21.9362284,42.7139655 21.865495,42.8043678 21.7858824,42.8844598 C21.2803644,43.3872759 20.4738533,43.4903793 19.8465837,43.0905172" id="Fill-26"></path>
                <path d="M74.377508,18.5478621 C73.4951467,19.3420575 72.3960703,19.9742759 70.7142712,19.9742759 C67.4340481,19.9742759 66.2017823,16.9431839 66.2017823,14.0903563 C66.2017823,11.2701034 67.6004973,8.48227586 70.7309763,8.48227586 C72.1629511,8.48227586 73.1620978,8.8388046 74.0611642,9.38988506 L73.3451016,10.4596207 C72.6291895,9.95725287 71.7966425,9.69770115 70.8142009,9.69770115 C68.4497494,9.69770115 67.6671673,12.1615747 67.6671673,14.0903563 C67.6671673,16.0031494 68.3665248,18.7748391 70.8641658,18.7748391 C71.8965722,18.7748391 72.8290489,18.3371724 73.611631,17.6239655 L74.377508,18.5478621" id="Fill-27"></path>
                <polygon id="Fill-28" points="77.6243209 8.75766667 79.0395905 8.75766667 79.0395905 19.7795747 77.6243209 19.7795747"></polygon>
                <path d="M83.0689855,8.75766667 L84.4677005,8.75766667 L84.4677005,16.0841379 C84.4677005,18.5964253 85.8996753,18.8235517 87.1984607,18.8235517 C89.0966738,18.8235517 89.7460665,17.7859425 89.7460665,16.6513563 L89.7460665,8.75766667 L91.1447815,8.75766667 L91.1447815,16.538092 C91.1447815,18.6451379 89.5129473,19.9742759 87.1484958,19.9742759 C85.0838335,19.9742759 83.0689855,19.4556207 83.0689855,16.0354253 L83.0689855,8.75766667" id="Fill-29"></path>
                <path d="M95.174026,8.75766667 L98.4711047,8.75766667 C99.2202765,8.75766667 103.233267,8.75766667 103.233267,14.2686207 C103.233267,19.7797241 99.2202765,19.7797241 98.4711047,19.7797241 L95.174026,19.7797241 L95.174026,8.75766667 L95.174026,8.75766667 Z M97.8882315,18.5964253 C99.4368411,18.5964253 101.767882,18.564 101.767882,14.2686207 C101.767882,10.0058161 99.4368411,9.94081609 97.8882315,9.94081609 L96.572741,9.94081609 L96.572741,18.5964253 L97.8882315,18.5964253 L97.8882315,18.5964253 Z" id="Fill-30"></path>
                <path d="M113.39013,19.7797241 L112.241239,16.5055172 L108.095059,16.5055172 L106.912908,19.7797241 L105.447674,19.7797241 C106.779719,16.1002759 108.228399,12.1130115 109.477219,8.74152874 L111.042383,8.74152874 C112.241239,12.1130115 113.639954,16.1002759 114.922185,19.7797241 L113.39013,19.7797241 L113.39013,19.7797241 Z M111.025678,12.6802299 C110.642815,11.5457931 110.426401,10.7837241 110.243096,10.2326437 L110.209837,10.2326437 C110.043387,10.7837241 109.810268,11.5457931 109.410549,12.6802299 L108.461367,15.370931 C109.010981,15.3546437 109.660374,15.3546437 110.193131,15.3546437 C110.72604,15.3546437 111.408692,15.3546437 111.924895,15.370931 L111.025678,12.6802299 L111.025678,12.6802299 Z" id="Fill-31"></path>
                <path d="M118.002398,8.75766667 L121.299326,8.75766667 C122.048649,8.75766667 126.061639,8.75766667 126.061639,14.2686207 C126.061639,19.7797241 122.048649,19.7797241 121.299326,19.7797241 L118.002398,19.7797241 L118.002398,8.75766667 L118.002398,8.75766667 Z M120.716604,18.5964253 C122.265063,18.5964253 124.596254,18.564 124.596254,14.2686207 C124.596254,10.0058161 122.265063,9.94081609 120.716604,9.94081609 L119.401113,9.94081609 L119.401113,18.5964253 L120.716604,18.5964253 L120.716604,18.5964253 Z" id="Fill-32"></path>
                <path d="M136.218502,19.7797241 L135.069461,16.5055172 L130.92328,16.5055172 L129.74113,19.7797241 L128.275895,19.7797241 C129.60794,16.1002759 131.05662,12.1130115 132.305441,8.74152874 L133.870605,8.74152874 C135.069461,12.1130115 136.468176,16.1002759 137.750406,19.7797241 L136.218502,19.7797241 L136.218502,19.7797241 Z M133.8539,12.6802299 C133.471037,11.5457931 133.254623,10.7837241 133.071468,10.2326437 L133.038058,10.2326437 C132.871609,10.7837241 132.63849,11.5457931 132.238921,12.6802299 L131.289739,15.370931 C131.839202,15.3546437 132.488595,15.3546437 133.021503,15.3546437 C133.554261,15.3546437 134.236914,15.3546437 134.753267,15.370931 L133.8539,12.6802299 L133.8539,12.6802299 Z" id="Fill-33"></path>
                <path d="M140.83062,8.75766667 L142.445749,8.75766667 L146.458739,15.4357816 C146.825048,16.0354253 147.258027,16.845908 147.574371,17.6239655 L147.624335,17.6239655 C147.590925,16.3758161 147.574371,15.3546437 147.574371,14.2850575 L147.574371,8.75766667 L148.95638,8.75766667 L148.95638,19.7797241 L147.391216,19.7797241 L143.378225,13.1178966 C142.995212,12.4858276 142.645608,11.7724713 142.196075,10.8324368 L142.14611,10.8324368 C142.196075,12.0480115 142.196075,13.1178966 142.196075,14.1714943 L142.212629,19.7797241 L140.83062,19.7797241 L140.83062,8.75766667" id="Fill-34"></path>
                <path d="M152.436312,14.1066437 C152.436312,11.2539655 153.868137,8.48227586 157.081991,8.48227586 C160.295544,8.48227586 161.760929,11.2539655 161.760929,14.1066437 C161.760929,16.9431839 160.478698,19.9742759 157.081991,19.9742759 C153.701688,19.9742759 152.436312,16.9431839 152.436312,14.1066437 L152.436312,14.1066437 Z M160.278989,14.1066437 C160.278989,12.1615747 159.496407,9.66542529 157.081991,9.66542529 C154.700834,9.66542529 153.901547,12.1615747 153.901547,14.1066437 C153.901547,15.9867126 154.634164,18.8235517 157.081991,18.8235517 C159.562927,18.8235517 160.278989,15.9867126 160.278989,14.1066437 L160.278989,14.1066437 Z" id="Fill-35"></path>
                <polygon id="Fill-36" points="67.658288 25.3815287 69.0460168 25.3815287 69.0460168 36.4034368 67.658288 36.4034368"></polygon>
                <path d="M72.0821345,25.3815287 L73.6656593,25.3815287 L77.5999404,32.0596437 C77.9591757,32.6592874 78.383576,33.4697701 78.6937494,34.2476782 L78.7426608,34.2476782 C78.7100031,32.9996782 78.6937494,31.9785057 78.6937494,30.9086207 L78.6937494,25.3815287 L80.04867,25.3815287 L80.04867,36.4034368 L78.514207,36.4034368 L74.5797754,29.7417586 C74.204437,29.1096897 73.8616058,28.3963333 73.4206509,27.4562989 L73.3717395,27.4562989 C73.4206509,28.6718736 73.4206509,29.7417586 73.4206509,30.7953563 L73.437055,36.4034368 L72.0821345,36.4034368 L72.0821345,25.3815287" id="Fill-37"></path>
                <path d="M85.5007089,26.5809655 C83.835615,26.6135402 82.1541169,26.6135402 81.9908281,26.6135402 L81.9908281,25.3815287 L90.3656608,25.3815287 L90.3656608,26.6135402 C90.202372,26.6135402 88.5535317,26.6135402 86.8720336,26.5809655 L86.8720336,36.4034368 L85.5007089,36.4034368 L85.5007089,26.5809655" id="Fill-38"></path>
                <path d="M92.3403262,25.3815287 L98.8214607,25.3815287 L98.8214607,26.6295287 C98.6581719,26.6295287 95.4258067,26.6295287 93.7116509,26.6135402 C93.7116509,26.7755172 93.7116509,29.2716667 93.6952468,30.082 C95.262518,30.0658621 98.0704828,30.0658621 98.2336211,30.0658621 L98.2336211,31.2491609 C98.0704828,31.2491609 95.262518,31.2491609 93.6952468,31.2328736 C93.7116509,32.9672529 93.7116509,35.0095977 93.7116509,35.1715747 C95.4911222,35.1554368 98.8214607,35.1554368 98.9845989,35.1554368 L98.9845989,36.4034368 L92.3403262,36.4034368 L92.3403262,25.3815287" id="Fill-39"></path>
                <path d="M101.383815,25.3815287 L102.75514,25.3815287 C102.75514,25.5435057 102.738736,33.6156092 102.722482,35.1878621 C104.501803,35.1554368 107.228199,35.1554368 107.391487,35.1554368 L107.391487,36.4034368 L101.383815,36.4034368 L101.383815,25.3815287" id="Fill-40"></path>
                <polygon id="Fill-41" points="109.366303 25.3815287 110.754032 25.3815287 110.754032 36.4034368 109.366303 36.4034368"></polygon>
                <path d="M118.589485,36.5331379 C115.014289,36.5331379 113.136995,34.1991149 113.136995,30.7303563 C113.136995,27.5534253 114.736924,25.1059885 118.116173,25.1059885 C119.160921,25.1059885 120.238325,25.348954 121.18525,25.8353333 L120.613965,26.9537816 C119.944556,26.5646782 118.916063,26.3215632 117.952885,26.3215632 C115.487751,26.3215632 114.573635,28.3151954 114.573635,30.7303563 C114.573635,33.4210575 115.749013,35.3822644 118.671205,35.3822644 C119.193578,35.3822644 119.66704,35.3498391 120.075187,35.1554368 C120.075187,35.0257356 120.075187,33.4210575 120.107845,31.2328736 C118.769178,31.2651494 118.426347,31.2651494 118.263058,31.2651494 L118.263058,30.0658621 L121.446512,30.0658621 L121.446512,36.0793333 C120.777103,36.355023 119.683294,36.5331379 118.589485,36.5331379" id="Fill-42"></path>
                <path d="M124.351697,25.3815287 L130.832681,25.3815287 L130.832681,26.6295287 C130.669543,26.6295287 127.437028,26.6295287 125.723022,26.6135402 C125.723022,26.7755172 125.723022,29.2716667 125.706618,30.082 C127.273739,30.0658621 130.081854,30.0658621 130.244992,30.0658621 L130.244992,31.2491609 C130.081854,31.2491609 127.273739,31.2491609 125.706618,31.2328736 C125.723022,32.9672529 125.723022,35.0095977 125.723022,35.1715747 C127.502343,35.1554368 130.832681,35.1554368 130.99597,35.1554368 L130.99597,36.4034368 L124.351697,36.4034368 L124.351697,25.3815287" id="Fill-43"></path>
                <path d="M133.395036,25.3815287 L134.978711,25.3815287 L138.912992,32.0596437 C139.272077,32.6592874 139.696477,33.4697701 140.006801,34.2476782 L140.055713,34.2476782 C140.023055,32.9996782 140.006801,31.9785057 140.006801,30.9086207 L140.006801,25.3815287 L141.361722,25.3815287 L141.361722,36.4034368 L139.827108,36.4034368 L135.892827,29.7417586 C135.517338,29.1096897 135.174507,28.3963333 134.733853,27.4562989 L134.684791,27.4562989 C134.733853,28.6718736 134.733853,29.7417586 134.733853,30.7953563 L134.750107,36.4034368 L133.395036,36.4034368 L133.395036,25.3815287" id="Fill-44"></path>
                <path d="M146.813761,26.5809655 C145.148667,26.6135402 143.467169,26.6135402 143.30388,26.6135402 L143.30388,25.3815287 L151.678562,25.3815287 L151.678562,26.6135402 C151.515424,26.6135402 149.866433,26.6135402 148.185086,26.5809655 L148.185086,36.4034368 L146.813761,36.4034368 L146.813761,26.5809655" id="Fill-45"></path>
                <path d="M153.653378,25.3815287 L160.134362,25.3815287 L160.134362,26.6295287 C159.971073,26.6295287 156.738859,26.6295287 155.024703,26.6135402 C155.024703,26.7755172 155.024703,29.2716667 155.008299,30.082 C156.57557,30.0658621 159.383535,30.0658621 159.546673,30.0658621 L159.546673,31.2491609 C159.383535,31.2491609 156.57557,31.2491609 155.008299,31.2328736 C155.024703,32.9672529 155.024703,35.0095977 155.024703,35.1715747 C156.804024,35.1554368 160.134362,35.1554368 160.297651,35.1554368 L160.297651,36.4034368 L153.653378,36.4034368 L153.653378,25.3815287" id="Fill-46"></path>
                <path d="M163.219241,36.6465517 C162.451859,36.6465517 161.880574,36.0631954 161.880574,35.3174138 C161.880574,34.5882184 162.451859,33.9884253 163.219241,33.9884253 C163.970068,33.9884253 164.557908,34.5882184 164.557908,35.3174138 C164.557908,36.0631954 163.970068,36.6465517 163.219241,36.6465517" id="Fill-47"></path>
                <path d="M166.500216,30.697931 C166.500216,27.6669885 167.936856,25.025 171.283448,25.025 C174.646445,25.025 176.099338,27.6669885 176.099338,30.697931 C176.099338,33.5507586 174.825987,36.6141264 171.283448,36.6141264 C167.773568,36.6141264 166.500216,33.5507586 166.500216,30.697931 L166.500216,30.697931 Z M173.715774,30.697931 C173.715774,28.8988506 173.209804,27.0184828 171.283448,27.0184828 C169.406004,27.0184828 168.88363,28.8988506 168.88363,30.697931 C168.88363,32.4647356 169.356942,34.6853448 171.283448,34.6853448 C173.258716,34.6853448 173.715774,32.4647356 173.715774,30.697931 L173.715774,30.697931 Z" id="Fill-48"></path>
                <path d="M178.56372,25.3003908 L182.351267,25.3003908 C183.118498,25.3003908 186.236486,25.3003908 186.236486,28.5098966 C186.236486,30.2765517 185.24065,31.0384713 184.359192,31.395 L184.359192,31.4435632 C185.093916,31.6705402 185.550974,32.6917126 185.730516,33.3074943 L186.67729,36.4034368 L184.244965,36.4034368 L183.37976,33.3399195 C183.08584,32.3351839 182.612378,32.0596437 181.926866,32.0596437 C181.812489,32.0596437 181.404342,32.0596437 180.800249,32.0432069 C180.816653,33.8100115 180.849311,36.2575977 180.849311,36.4034368 L178.56372,36.4034368 L178.56372,25.3003908 L178.56372,25.3003908 Z M180.816653,30.2441264 C181.388089,30.2279885 182.122662,30.2279885 182.236889,30.2279885 C182.792071,30.2279885 184.049018,30.2279885 184.049018,28.7367241 C184.049018,27.2615977 182.792071,27.2615977 182.236889,27.2615977 C182.122662,27.2615977 181.306519,27.2615977 180.832907,27.2456092 C180.832907,27.4075862 180.832907,29.0122644 180.816653,30.2441264 L180.816653,30.2441264 Z" id="Fill-49"></path>
                <path d="M193.729409,36.5494253 C190.252186,36.5494253 188.391145,34.1991149 188.391145,30.697931 C188.391145,27.5047126 190.056239,25.025 193.56627,25.025 C194.643675,25.025 195.737334,25.2842529 196.716916,25.7866207 L195.786396,27.6345632 C195.231364,27.294023 194.366009,27.0833333 193.582524,27.0833333 C191.427564,27.0833333 190.774559,28.6233103 190.774559,30.697931 C190.774559,33.6641724 191.949937,34.6204943 193.794724,34.6204943 C194.137405,34.6204943 194.463982,34.6043563 194.774156,34.5233678 C194.774156,34.3773793 194.774156,33.3886322 194.806964,31.6381149 C193.745662,31.6542529 193.533462,31.6542529 193.370324,31.6542529 C193.370324,31.6218276 193.35392,29.8388851 193.35392,29.8227471 L196.961774,29.8227471 L196.961774,35.9172069 C196.178138,36.3874483 194.855875,36.5494253 193.729409,36.5494253" id="Fill-50"></path>
                <path d="M21.12445,25.8048506 C21.4836853,25.8048506 21.821851,26.0237586 21.9521811,26.3772989 C22.0922934,26.751908 22.2649129,27.1127701 22.4716952,27.4507701 C23.6460199,29.4036092 25.7167021,30.5674828 28.0025943,30.5674828 C28.4926112,30.5674828 28.8866112,30.957931 28.8866112,31.4408736 C28.8857082,31.9239655 28.4926112,32.3153103 28.0025943,32.3153103 C25.1348824,32.3153103 22.4342215,30.795954 20.9581513,28.3524023 C20.6995982,27.9210115 20.4749068,27.4601839 20.3022872,26.9814253 C20.1325271,26.5300115 20.3656463,26.027046 20.8215004,25.8596897 C20.9200756,25.822931 21.0228648,25.8048506 21.12445,25.8048506" id="Fill-51"></path>
                <path d="M21.5061092,24.1569885 C21.5061092,24.6463563 21.1074439,25.0420345 20.6157716,25.0420345 C20.1230458,25.0420345 19.7246814,24.6463563 19.7246814,24.1569885 C19.7246814,23.6698621 20.1230458,23.2731379 20.6157716,23.2731379 C21.1074439,23.2731379 21.5061092,23.6698621 21.5061092,24.1569885" id="Fill-52"></path>
                <path d="M37.6393407,17.9365632 L37.1873995,17.2684828 L37.1740053,17.2684828 C36.7356089,16.6364138 36.2782498,16.0671034 35.8341345,15.5145287 L34.6670336,16.4391724 C35.1460642,17.0353793 35.6436058,17.6542989 36.0950955,18.3311954 L36.3822429,18.750931 L36.3917242,18.750931 C37.4430932,20.3387241 37.9943621,22.1992184 37.9943621,24.168046 C37.9922552,29.6092184 33.5365034,34.0371379 28.0552681,34.0499885 C22.5771933,34.0371379 18.1226455,29.6092184 18.1247525,24.168046 C18.1247525,22.1992184 18.6800848,20.3387241 19.7316043,18.750931 L19.7463529,18.750931 L20.0259756,18.3311954 C20.4818296,17.6513103 20.9813277,17.0295517 21.4677326,16.4285632 C22.7054163,14.8858966 23.8765806,13.4285517 23.8765806,11.4787011 L23.8765806,10.8348276 C23.8997571,9.59205747 24.3935363,9.13093103 25.6992445,9.13093103 L30.4293514,9.13093103 C31.7359626,9.13093103 32.2298923,9.59205747 32.2500588,10.8168966 L32.2500588,11.4766092 C32.2500588,13.4285517 33.4210726,14.8858966 34.6602613,16.4306552 L34.6670336,16.4391724 L35.8232987,15.5010805 C34.6611642,14.0522529 33.7431352,12.9078046 33.7431352,11.4766092 L33.7428342,10.7926897 C33.7095745,8.76513793 32.5326914,7.64863218 30.4293514,7.64863218 L25.6992445,7.64863218 C23.0076134,7.64863218 22.4105936,9.36627586 22.3836547,10.8071839 L22.3835042,11.4787011 C22.3835042,12.9078046 21.4200252,14.1087356 20.3039427,15.4998851 C19.8161833,16.1023678 19.37267,16.6577816 18.9478182,17.2684828 L18.9262972,17.2684828 L18.4839878,17.9365632 C17.2721895,19.7664253 16.6316761,21.9212874 16.6316761,24.1674483 C16.6291176,30.4194023 21.7521711,35.5177931 28.0519572,35.5324368 L28.0587296,35.5324368 C34.3580642,35.5177931 39.4850306,30.42 39.4874385,24.168046 C39.4874385,21.9172529 38.8484301,19.7623908 37.6393407,17.9365632" id="Fill-53"></path>
                <path d="M32.001589,3.5643908 L24.2826203,3.56513793 C23.9116463,3.56513793 23.6080947,3.95244828 23.6080947,4.42941379 C23.6080947,4.90742529 23.9116463,5.29637931 24.2826203,5.29637931 L32.0008365,5.29548276 C32.374068,5.29548276 32.6774691,4.90667816 32.6774691,4.42941379 C32.6774691,3.95185057 32.374068,3.5643908 32.001589,3.5643908" id="Fill-54"></path>
                <path d="M32.001589,0.0047816092 L24.2826203,0.00552873563 C23.9116463,0.00552873563 23.6080947,0.392988506 23.6080947,0.869655172 C23.6080947,1.34781609 23.9116463,1.73677011 24.2826203,1.73677011 L32.0008365,1.73587356 C32.374068,1.73587356 32.6774691,1.34721839 32.6774691,0.869655172 C32.6774691,0.392241379 32.374068,0.0047816092 32.001589,0.0047816092" id="Fill-55"></path>
            </g>
        </g>
    </g>
</svg>