<?xml version="1.0" encoding="UTF-8" standalone="no"?>
<svg width="196px" height="25px" viewBox="0 0 196 25" version="1.1" xmlns="http://www.w3.org/2000/svg" xmlns:xlink="http://www.w3.org/1999/xlink">
    <!-- Generator: Sketch 3.8.2 (29753) - http://www.bohemiancoding.com/sketch -->
    <title>Group 103</title>
    <desc>Created with Sketch.</desc>
    <defs>
        <polygon id="path-1" points="6.58840748 0.194009217 0.39151028 0.194009217 0.39151028 6.02119816 6.58840748 6.02119816 6.58840748 0.194009217"></polygon>
        <polygon id="path-3" points="0.391327103 8.29493088 11.8884673 8.29493088 11.8884673 0.0961290323 0.391327103 0.0961290323 0.391327103 8.29493088"></polygon>
        <polygon id="path-5" points="0 24.4815668 195.877271 24.4815668 195.877271 0.194009217 0 0.194009217"></polygon>
    </defs>
    <g id="Page-1" stroke="none" stroke-width="1" fill="none" fill-rule="evenodd">
        <g id="Home-Copy-14" transform="translate(-112.000000, -31.000000)">
            <g id="Group-103" transform="translate(112.000000, 31.000000)">
                <path d="M19.4485121,3.3964977 C19.4283626,3.37898618 19.4100449,3.35963134 19.3898953,3.34211982 L10.7796336,4.41400922 L11.577372,6.40387097 C11.6222505,6.40294931 11.6634654,6.3964977 11.7092598,6.3964977 C12.1443065,6.3964977 12.5949234,6.44073733 13.0629421,6.52829493 C13.5300449,6.61585253 13.9806617,6.76976959 14.4157084,6.98820276 C14.8507551,7.20663594 15.2482505,7.50248848 15.6063626,7.87391705 C15.9653907,8.24626728 16.2538953,8.71631336 16.4709607,9.28497696 L21.3306617,5.80663594 C20.8525682,4.89603687 20.2224374,4.09419355 19.4485121,3.3964977 L19.4485121,3.3964977 Z" id="Fill-34" fill="#F08650"></path>
                <path d="M21.5590841,18.9348387 L16.3733271,15.8168664 C16.1773271,16.342212 15.9108037,16.78553 15.573757,17.1458986 C15.2367103,17.5071889 14.8566168,17.8030415 14.4325607,18.0325346 C14.0085047,18.2620276 13.5679626,18.4260829 13.1118505,18.5247005 C12.6548224,18.623318 12.208785,18.6721659 11.7746542,18.6721659 C10.9476075,18.6721659 10.2029907,18.5025806 9.53988785,18.1634101 C8.87678505,17.8242396 8.31717757,17.3707834 7.86014953,16.8011982 C7.40403738,16.2325346 7.056,15.5763134 6.81695327,14.8325346 C6.57699065,14.0887558 6.45792523,13.3117972 6.45792523,12.501659 C6.45792523,11.78 6.56050467,11.0528111 6.76749533,10.3191705 C6.97448598,9.58645161 7.2895514,8.93023041 7.71360748,8.35050691 C7.90502804,8.08875576 8.12392523,7.85281106 8.36388785,7.63529954 L1.41779439,6.78829493 C1.18790654,7.21317972 0.975420561,7.64820276 0.798654206,8.1035023 C0.265607477,9.48230415 0,10.8832258 0,12.3053456 C0,13.7929032 0.282093458,15.2592627 0.84811215,16.7025806 C1.41321495,18.1468203 2.21186916,19.4389862 3.24499065,20.5763134 C3.40618692,20.7532719 3.58020561,20.9154839 3.75056075,21.0823041 L21.4281121,19.2122581 C21.4711589,19.1191705 21.5206168,19.0297696 21.5590841,18.9348387" id="Fill-36" fill="#80B9C2"></path>
                <path d="M19.3901701,3.34193548 C18.8772729,2.8875576 18.3020953,2.4764977 17.6618897,2.11428571 C16.0197028,1.1843318 14.0789364,0.718894009 11.8395907,0.718894009 C9.96934766,0.718894009 8.30609533,1.05806452 6.84891776,1.73640553 C5.39174019,2.41474654 4.15254393,3.30138249 3.13132897,4.39447005 C2.45540374,5.11889401 1.89671215,5.91059908 1.43510467,6.75852535 C1.42960935,6.76866359 1.42319813,6.77788018 1.4177028,6.78801843 L8.36379626,7.6359447 C8.38760935,7.61382488 8.40959065,7.58894009 8.43431963,7.56682028 C8.70725421,7.32995392 9.01041308,7.11981567 9.34471215,6.93824885 C9.9739271,6.59539171 10.7212916,6.4202765 11.5776467,6.40368664 L10.7789925,4.41382488 L19.3901701,3.34193548 Z" id="Fill-38" fill="#50B9A7"></path>
                <path d="M3.7509271,21.0819355 C3.77474019,21.104977 3.7967215,21.1289401 3.82053458,21.1519816 C4.72726355,22.0220276 5.75946916,22.7492166 6.93088972,23.3169585 C8.35509533,24.0054378 9.92584299,24.3501382 11.6440486,24.3501382 C12.6222168,24.3501382 13.6278617,24.2303226 14.6609832,23.9897696 C15.6931888,23.7492166 16.6612822,23.3980645 17.5634318,22.9390783 C18.4655813,22.4791705 19.2706467,21.9105069 19.9767963,21.2321659 C20.5996,20.6349309 21.0749458,19.9648848 21.4193196,19.2303226 C21.4220673,19.223871 21.424815,19.218341 21.4284785,19.2118894 L3.7509271,21.0819355 Z" id="Fill-40" fill="#9A67A8"></path>
                <path id="Fill-42" fill="#1D1C1B"></path>
                <path d="M33.3007664,17.9404608 L33.3007664,17.956129 L39.4994953,17.2999078 C39.4994953,17.2962212 39.4994953,17.2934562 39.4985794,17.2897696 L33.3007664,17.9404608 Z" id="Fill-44" fill="#1D1C1B"></path>
                <path d="M39.4978467,13.9129954 C39.4978467,11.5563134 38.8063514,9.77198157 37.4389308,8.54894009 L32.7532486,11.5203687 C33.1113607,11.9102304 33.3009495,12.4503226 33.3009495,13.1581567 L33.3009495,13.6835023 C32.5920523,13.3434101 31.7347813,13.1397235 30.7373794,13.0632258 L31.2814168,16.4291244 C31.5351178,16.4484793 31.8007252,16.4798157 32.0938093,16.5388018 C32.5288561,16.6263594 32.9309308,16.7360369 33.3009495,16.8669124 L33.3009495,17.9406452 L39.4987626,17.2899539 C39.4987626,17.278894 39.4978467,17.2715207 39.4978467,17.2604608 L39.4978467,13.9129954 Z" id="Fill-46" fill="#EC6A5A"></path>
                <path d="M37.4229028,8.53327189 C37.3734449,8.48995392 37.3303981,8.44110599 37.2800243,8.39870968 C35.8008654,7.17382488 33.6924916,6.56092166 30.9521551,6.56092166 C28.0597813,6.56092166 25.4833888,7.29456221 23.2220617,8.76 L25.016286,12.6328111 C25.9294262,12.0208295 26.7986037,11.5553917 27.6256505,11.238341 C28.4517813,10.9212903 29.3539308,10.7618433 30.333015,10.7618433 C31.3762112,10.7618433 32.1318187,10.9590783 32.5998374,11.3526267 C32.6465477,11.3922581 32.6804355,11.443871 32.7225664,11.4871889 C32.733557,11.4982488 32.7436318,11.5093088 32.7537065,11.5203687 L37.4393888,8.54894009 C37.4338935,8.54341014 37.4283981,8.53788018 37.4229028,8.53327189" id="Fill-48" fill="#F08650"></path>
                <path d="M28.2778542,18.3769585 C28.2778542,17.8082949 28.5278916,17.3382488 29.0279664,16.964977 C29.5280411,16.5935484 30.158172,16.4073733 30.9201907,16.4073733 C31.0337607,16.4073733 31.1592374,16.4193548 31.2819664,16.4294931 L30.7370131,13.0635945 C30.4503402,13.0414747 30.1545084,13.0267281 29.8440224,13.0267281 C28.7559477,13.0267281 27.7612935,13.1695853 26.8591439,13.4534562 C25.9569944,13.7382488 25.1794056,14.1428571 24.5272935,14.6682028 C23.8751813,15.1935484 23.3632,15.8165899 22.9940972,16.5391705 C22.6240785,17.2608295 22.439985,18.0599078 22.439985,18.9345622 C22.439985,18.9917051 22.4463963,19.0470046 22.448228,19.1041475 L26.6100224,18.6635945 L28.2888449,18.4801843 C28.2860972,18.4451613 28.2778542,18.4129032 28.2778542,18.3769585" id="Fill-50" fill="#80B9C2"></path>
                <path d="M39.7586916,18.4917051 C39.5883364,18.2677419 39.5031589,17.8686636 39.4994953,17.3 L33.3007664,17.9562212 L33.3007664,18.1470046 C33.3007664,18.3663594 33.2247477,18.5792627 33.0727103,18.7866359 C32.919757,18.9958525 32.7246729,19.1866359 32.4856262,19.3617512 C32.1806355,19.5589862 31.833514,19.7175115 31.441514,19.8373272 C31.0504299,19.9580645 30.6694206,20.0179724 30.3003178,20.0179724 C29.7132336,20.0179724 29.228729,19.864977 28.8486355,19.5589862 C28.4978505,19.2769585 28.3165047,18.9165899 28.289028,18.4861751 L26.6102056,18.6640553 L22.4484112,19.1036866 L22.4484112,19.1184332 C22.4703925,19.8354839 22.6160187,20.5092166 22.8962804,21.1341014 C23.2003551,21.8124424 23.6189159,22.3976959 24.1519626,22.8898618 C24.6850093,23.3820276 25.3206355,23.7709677 26.059757,24.0548387 C26.7988785,24.3387097 27.5929533,24.4815668 28.4410654,24.4815668 C29.571271,24.4815668 30.6373645,24.224424 31.637514,23.7101382 C32.6367477,23.1967742 33.5178318,22.4465438 34.2789346,21.462212 L34.4099065,22.0852535 C34.5839252,22.8732719 34.9585234,23.4695853 35.5355327,23.8741935 C36.1107103,24.2788018 36.9533271,24.4815668 38.0624673,24.4815668 C38.4105047,24.4815668 38.8070841,24.4539171 39.2531215,24.3995392 C39.698243,24.3451613 40.171757,24.2631336 40.6718318,24.1534562 L40.6718318,18.9018433 C40.236785,18.8585253 39.9327103,18.7211982 39.7586916,18.4917051" id="Fill-52" fill="#50B9A7"></path>
                <polygon id="Fill-54" fill="#1D1C1B" points="49.1192486 6.01854378 49.1192486 6.01854378 42.9223514 5.71225806 42.9223514 5.71225806"></polygon>
                <polygon id="Fill-56" fill="#1D1C1B" points="49.1192486 16.2795392 42.9223514 16.9302304 42.9223514 16.9376037 49.1192486 16.2823041"></polygon>
                <g id="Group-60" transform="translate(42.530841, 0.000000)">
                    <mask id="mask-2" fill="white">
                        <use xlink:href="#path-1"></use>
                    </mask>
                    <g id="Clip-59"></g>
                    <polygon id="Fill-58" fill="#50B9A7" mask="url(#mask-2)" points="6.58840748 0.193548387 0.39151028 0.193548387 0.39151028 5.7124424 6.58840748 6.02119816"></polygon>
                </g>
                <path d="M42.9221682,16.9302304 L49.1190654,16.2795392 L49.1190654,14.3726267 C49.4231402,13.6067281 49.8691776,12.9892166 50.4571776,12.5182488 C51.0433458,12.0482028 51.6634019,11.8122581 52.315514,11.8122581 C52.7725421,11.8122581 53.1911028,11.9108756 53.5711963,12.1081106 C53.9512897,12.3053456 54.2782617,12.5790783 54.5502804,12.9283871 C54.8213832,13.2786175 55.0393645,13.6832258 55.2023925,14.1431336 C55.3599252,14.5882949 55.4377757,15.0657143 55.443271,15.5726267 L61.7784673,14.8122581 C61.7189346,13.8141014 61.5467477,12.8730876 61.2527477,11.9929032 C60.882729,10.8887558 60.3716636,9.93668203 59.7195514,9.13760369 C59.0674393,8.339447 58.2898505,7.70995392 57.3877009,7.25004608 C56.4846355,6.79105991 55.5119626,6.56064516 54.4678505,6.56064516 C53.2286542,6.56064516 52.152486,6.80764977 51.2393458,7.29981567 C50.3262056,7.79198157 49.6191402,8.50903226 49.1190654,9.44912442 L49.1190654,6.020553 L42.9221682,5.71271889 L42.9221682,16.9302304 Z" id="Fill-61" fill="#EC6A5A"></path>
                <path d="M61.7786505,14.8122581 L55.4425383,15.5726267 C55.4434542,15.5892166 55.4471178,15.6039631 55.4471178,15.6196313 C55.4471178,16.7145622 55.1375477,17.5892166 54.5174916,18.2454378 C54.1621271,18.6214747 53.7334916,18.8767742 53.2471551,19.0380645 L54.4194916,24.4528111 C55.3344636,24.3892166 56.2018093,24.1809217 57.0123701,23.8085714 C57.9905383,23.3606452 58.8331551,22.742212 59.5402206,21.9541935 C60.2463701,21.1670968 60.8013981,20.2316129 61.2034729,19.1486636 C61.6055477,18.0647926 61.807043,16.8786175 61.807043,15.5873733 C61.807043,15.3237788 61.7942206,15.0675576 61.7786505,14.8122581" id="Fill-63" fill="#80B9C2"></path>
                <g id="Group-67" transform="translate(42.530841, 16.186636)">
                    <mask id="mask-4" fill="white">
                        <use xlink:href="#path-3"></use>
                    </mask>
                    <g id="Clip-66"></g>
                    <path d="M10.7161308,2.85096774 C10.7142991,2.8518894 10.7115514,2.8518894 10.7097196,2.85281106 C10.3479439,2.97170507 9.9577757,3.04359447 9.52364486,3.04359447 C8.37145794,3.04359447 7.39237383,2.45281106 6.5882243,1.27124424 L6.5882243,0.0961290323 L0.391327103,0.751428571 L0.391327103,7.96709677 L5.77308411,7.96709677 L5.77308411,5.27493088 C6.8822243,7.28875576 8.72957009,8.29520737 11.3178692,8.29520737 C11.5047103,8.29520737 11.6860561,8.27953917 11.8692336,8.2675576 C11.8756449,8.26663594 11.8820561,8.26663594 11.8884673,8.26571429 L10.7161308,2.85096774 Z" id="Fill-65" fill="#9A67A8" mask="url(#mask-4)"></path>
                </g>
                <polygon id="Fill-68" fill="#F08650" points="70.2214879 6.88940092 64.0245907 6.88940092 64.0245907 14.5428571 70.2214879 13.7990783"></polygon>
                <mask id="mask-6" fill="white">
                    <use xlink:href="#path-5"></use>
                </mask>
                <g id="Clip-71"></g>
                <polygon id="Fill-70" fill="#50B9A7" mask="url(#mask-6)" points="64.0242243 5.44470046 70.2211215 5.44470046 70.2211215 0.193087558 64.0242243 0.193087558"></polygon>
                <polygon id="Fill-72" fill="#80B9C2" mask="url(#mask-6)" points="64.0244075 14.542765 64.0244075 24.1538249 70.2213047 24.1538249 70.2213047 13.7989862"></polygon>
                <path d="M77.5100318,24.4336406 C77.5182748,24.4345622 77.5265178,24.4354839 77.5338449,24.4364055 L76.0812467,13.0963134 L77.5100318,24.4336406 Z" id="Fill-73" fill="#1D1C1B" mask="url(#mask-6)"></path>
                <path d="M76.0811551,13.0959447 L79.4195664,12.1272811 L76.0811551,13.0959447 Z" id="Fill-74" fill="#1D1C1B" mask="url(#mask-6)"></path>
                <polygon id="Fill-75" fill="#9A67A8" mask="url(#mask-6)" points="73.2222112 0.193548387 73.2222112 5.86635945 73.2222112 5.87465438 73.2222112 13.4387097 76.0816131 13.0958525 79.4191084 12.1271889 79.4191084 5.38801843 79.4191084 5.37695853 79.4191084 0.193548387"></polygon>
                <path d="M81.0011215,24.1862673 C81.9252523,23.9890323 82.7568785,23.7162212 83.496,23.3659908 L82.7138318,18.7705991 C82.4528037,18.9245161 82.1697944,19.0443318 81.8657196,19.1318894 C81.560729,19.219447 81.2786355,19.262765 81.0176075,19.262765 C79.951514,19.262765 79.4193832,18.6065438 79.4193832,17.2941014 L79.4193832,12.1272811 L76.080972,13.0959447 L77.534486,24.4360369 C77.803757,24.462765 78.081271,24.4811982 78.375271,24.4811982 C79.2023178,24.4811982 80.0769907,24.3835023 81.0011215,24.1862673" id="Fill-76" fill="#EC6A5A" mask="url(#mask-6)"></path>
                <path d="M76.0811551,13.0959447 L73.2217533,13.4388018 L73.2217533,19.4931797 C73.2217533,21.1125346 73.6677907,22.3484793 74.5598654,23.2019355 C75.2879963,23.8987097 76.2744075,24.3060829 77.5099402,24.4332719 L76.0811551,13.0959447 Z" id="Fill-77" fill="#80B9C2" mask="url(#mask-6)"></path>
                <path d="M116.355034,19.8699539 L118.729931,23.9335484 C118.735426,23.9317051 118.740006,23.9298618 118.745501,23.9280184 L116.359613,19.8681106 C116.358697,19.8690323 116.356865,19.8699539 116.355034,19.8699539" id="Fill-78" fill="#1D1C1B" mask="url(#mask-6)"></path>
                <path d="M124.298437,17.4251613 C124.341484,17.1624885 124.379951,16.8620276 124.412923,16.5219355 C124.444979,16.1836866 124.461465,15.8491244 124.461465,15.5210138 C124.461465,14.339447 124.25997,13.2076498 123.857895,12.1247005 C123.812101,12.0011982 123.755316,11.8859908 123.704026,11.7661751 L116.960344,11.7901382 C117.418288,12.2647926 117.704045,12.8924424 117.80754,13.6832258 L112.132699,13.6832258 C112.235279,12.8998157 112.517372,12.2776959 112.967989,11.8048848 L106.435877,11.8279263 C106.383671,11.9541935 106.325054,12.0758525 106.278344,12.2067281 C105.875353,13.3228571 105.674774,14.504424 105.674774,15.7514286 C105.674774,16.3357604 105.727895,16.9053456 105.832307,17.461106 L112.327783,17.8371429 C112.303054,17.7025806 112.273746,17.5726267 112.263671,17.4251613 L124.298437,17.4251613 Z" id="Fill-79" fill="#F08650" mask="url(#mask-6)"></path>
                <path d="M123.672611,11.6928111 C123.278779,10.7886636 122.749396,9.97668203 122.064312,9.26884793 C121.270237,8.44857143 120.286574,7.79235023 119.112406,7.30018433 C117.938237,6.80709677 116.59005,6.56101382 115.067845,6.56101382 C113.523658,6.56101382 112.169976,6.80709677 111.007714,7.30018433 C109.844536,7.79235023 108.865452,8.45410138 108.072293,9.28543779 C107.383546,10.0070968 106.851415,10.8411982 106.457583,11.7757604 C106.450256,11.7932719 106.443845,11.8107834 106.436518,11.8282949 L112.96863,11.8043318 C112.986032,11.784977 113.001602,11.7628571 113.01992,11.744424 C113.029079,11.7352074 113.036406,11.7232258 113.04648,11.7140092 C113.545639,11.2329032 114.187677,10.9923502 114.969845,10.9923502 C115.752929,10.9923502 116.39405,11.2329032 116.894125,11.7140092 C116.897789,11.7176959 116.900536,11.7223041 116.9042,11.7259908 C116.925265,11.7453456 116.93992,11.7702304 116.960069,11.7905069 L123.703751,11.7656221 C123.693677,11.741659 123.683602,11.7167742 123.672611,11.6928111" id="Fill-80" fill="#EC6A5A" mask="url(#mask-6)"></path>
                <path d="M115.263936,20.0178802 C114.54588,20.0178802 113.882778,19.8160369 113.274628,19.4105069 C112.763563,19.0713364 112.454908,18.5386175 112.3276,17.8363134 L105.832123,17.4611982 C105.935619,18.0095853 106.089488,18.5450691 106.294647,19.0658065 C106.707712,20.1164977 107.310366,21.0464516 108.104441,21.8556682 C108.898516,22.6658065 109.882179,23.3054378 111.056348,23.7754839 C112.230516,24.2464516 113.567712,24.4814747 115.067936,24.4814747 C116.427114,24.4814747 117.646161,24.2971429 118.730572,23.9340092 L116.354759,19.8694931 C116.002142,19.9653456 115.63945,20.0178802 115.263936,20.0178802" id="Fill-81" fill="#80B9C2" mask="url(#mask-6)"></path>
                <path d="M123.61372,19.7882028 L118.362935,18.2785253 C118.166935,18.8250691 117.769439,19.2527189 117.17228,19.5587097 C116.909421,19.6932719 116.637402,19.7928111 116.359888,19.8683871 L118.745776,23.9282949 C119.337439,23.7282949 119.891551,23.4776037 120.400785,23.1688479 C121.846972,22.2941935 122.917645,21.1670046 123.61372,19.7882028" id="Fill-82" fill="#9A67A8" mask="url(#mask-6)"></path>
                <polygon id="Fill-83" fill="#1D1C1B" mask="url(#mask-6)" points="138.659559 11.712247 142.347839 11.699447 138.656811 11.712247"></polygon>
                <path d="M137.511493,19.6043318 L143.769755,20.2882028 L143.769755,18.9020276 C143.334708,18.8587097 143.030634,18.7213825 142.856615,18.4918894 C142.682596,18.2623963 142.595587,17.8513364 142.595587,17.260553 L142.595587,13.9130876 C142.595587,13.1066359 142.507662,12.3729954 142.347381,11.6992627 L138.660017,11.7121659 L137.511493,19.6043318 Z" id="Fill-84" fill="#50B9A7" mask="url(#mask-6)"></path>
                <path d="M136.398781,13.158341 L136.398781,13.6836866 C135.485641,13.2458986 134.332538,13.0265438 132.941305,13.0265438 C131.854146,13.0265438 130.859492,13.1694009 129.957342,13.4532719 C129.054277,13.7380645 128.277604,14.1426728 127.625492,14.6680184 C126.972464,15.1933641 126.461398,15.8164055 126.092295,16.5389862 C125.813865,17.0818433 125.640763,17.6698618 125.572071,18.2993548 L131.488707,18.9463594 C131.418183,18.7712442 131.376052,18.5841475 131.376052,18.3767742 C131.376052,17.8081106 131.625174,17.3380645 132.126164,16.9657143 C132.626239,16.5933641 133.25637,16.4071889 134.017473,16.4071889 C134.36551,16.4071889 134.756594,16.4514286 135.191641,16.5389862 C135.626688,16.6265438 136.028763,16.7362212 136.398781,16.8670968 L136.398781,18.1472811 C136.398781,18.3657143 136.322763,18.5795392 136.170725,18.7869124 C136.017772,18.9952074 135.822688,19.1869124 135.583641,19.361106 C135.568071,19.3712442 135.549753,19.3786175 135.534183,19.3887558 L137.511585,19.604424 L138.659193,11.7122581 L138.657361,11.7122581 L136.022351,11.7214747 C136.271473,12.0910599 136.398781,12.5684793 136.398781,13.158341" id="Fill-85" fill="#F08650" mask="url(#mask-6)"></path>
                <path d="M140.378039,8.39907834 C138.89888,7.17419355 136.790507,6.56129032 134.05017,6.56129032 C131.157796,6.56129032 128.581404,7.29400922 126.320077,8.76036866 L127.676507,11.6884793 L127.705815,11.7520737 L128.114301,12.6331797 C128.628114,12.2884793 129.126357,11.9963134 129.612693,11.7447005 C129.647497,11.7271889 129.681385,11.7105991 129.716189,11.6930876 C130.057815,11.5207373 130.394862,11.3640553 130.723665,11.237788 C131.549796,10.921659 132.451946,10.762212 133.43103,10.762212 C134.474226,10.762212 135.229834,10.959447 135.697852,11.3529954 C135.819665,11.4562212 135.924077,11.5751152 136.01475,11.7069124 C136.017497,11.7115207 136.019329,11.7170507 136.022993,11.721659 L138.657086,11.7124424 L142.347198,11.6995392 C142.021142,10.3253456 141.369946,9.22119816 140.378039,8.39907834" id="Fill-86" fill="#EC6A5A" mask="url(#mask-6)"></path>
                <path d="M137.511493,19.6043318 L135.534092,19.3886636 L135.534092,19.3886636 C135.240092,19.5720737 134.911288,19.7232258 134.539437,19.8375115 C134.148353,19.9582488 133.767344,20.0181567 133.398241,20.0181567 C132.811157,20.0181567 132.326652,19.8651613 131.946559,19.5582488 C131.729493,19.3840553 131.582036,19.1776037 131.488615,18.9462673 L125.571979,18.3001843 C125.549082,18.5066359 125.538092,18.7186175 125.538092,18.9352074 C125.538092,19.7223041 125.689213,20.4559447 125.994204,21.1333641 C126.298279,21.8126267 126.716839,22.3978802 127.249886,22.8900461 C127.782933,23.382212 128.418559,23.7711521 129.15768,24.055023 C129.896802,24.338894 130.690877,24.4817512 131.538989,24.4817512 C132.669194,24.4817512 133.735288,24.2246083 134.735437,23.7103226 C135.735587,23.1969585 136.615755,22.4467281 137.377774,21.4614747 L137.50783,22.0854378 C137.681849,22.8734562 138.056447,23.4697696 138.633456,23.8743779 C139.208634,24.2789862 140.05125,24.4817512 141.160391,24.4817512 C141.508428,24.4817512 141.905007,24.4541014 142.351045,24.3997235 C142.796166,24.344424 143.26968,24.2623963 143.769755,24.1536406 L143.769755,20.2882028 L143.769755,20.2882028 L137.511493,19.6043318 Z" id="Fill-87" fill="#80B9C2" mask="url(#mask-6)"></path>
                <polygon id="Fill-88" fill="#1D1C1B" mask="url(#mask-6)" points="159.017822 22.2634101 159.017822 22.2634101 153.715748 21.3749309"></polygon>
                <path d="M160.240624,18.7379724 C160.240624,18.0384332 160.13255,17.42 159.915484,16.8835945 C159.697503,16.3481106 159.332979,15.8660829 158.82283,15.4393548 C158.310849,15.0126267 157.632176,14.6190783 156.784064,14.257788 C156.262007,14.0356682 155.657521,13.82 154.987092,13.6107834 L153.079297,18.1803687 C153.376045,18.2964977 153.609596,18.4061751 153.767129,18.5084793 C154.104176,18.7269124 154.272699,18.9895853 154.272699,19.295576 C154.272699,19.8430415 153.837652,20.1167742 152.967559,20.1167742 C152.747746,20.1167742 152.521521,20.1001843 152.289802,20.0725346 L151.733858,21.4872811 L153.715839,21.8937327 L159.017914,22.263318 C159.310998,21.9195392 159.56012,21.5462673 159.75154,21.1342857 C160.078512,20.4338249 160.240624,19.6356682 160.240624,18.7379724" id="Fill-89" fill="#EC6A5A" mask="url(#mask-6)"></path>
                <path d="M153.652918,13.2239631 C152.630787,12.9612903 151.945703,12.7262673 151.597665,12.5179724 C151.249628,12.3105991 151.075609,12.0423963 151.075609,11.7142857 C151.075609,11.5824885 151.10217,11.4691244 151.147049,11.3677419 L146.275441,9.4359447 C146.121572,9.67096774 145.978693,9.91336406 145.857796,10.1714286 C145.509759,10.9152074 145.33574,11.7253456 145.33574,12.6 C145.33574,13.2571429 145.443815,13.8258065 145.661796,14.3069124 C145.878862,14.7889401 146.243385,15.2258065 146.75445,15.6202765 C147.265516,16.0138249 147.928619,16.3806452 148.744675,16.718894 C149.559815,17.0589862 150.575535,17.4036866 151.793665,17.7529954 C152.316637,17.9050691 152.739778,18.0470046 153.079572,18.1806452 L154.987366,13.6110599 C154.56789,13.4792627 154.129179,13.3502304 153.652918,13.2239631" id="Fill-90" fill="#50B9A7" mask="url(#mask-6)"></path>
                <path d="M152.289985,20.0723502 C151.651611,19.9958525 150.970191,19.8152074 150.244807,19.5258065 C149.254733,19.1313364 148.227107,18.5737327 147.161929,17.8520737 L145.664452,20.4953917 L151.868677,21.5718894 L152.289985,20.0723502 Z" id="Fill-91" fill="#50B9A7" mask="url(#mask-6)"></path>
                <path d="M155.952071,7.02064516 C154.810875,6.69253456 153.60923,6.52847926 152.348052,6.52847926 C151.325921,6.52847926 150.385305,6.6759447 149.527118,6.97087558 C148.667099,7.26672811 147.928893,7.68792627 147.308837,8.23539171 C146.904931,8.59207373 146.564221,8.99483871 146.275716,9.43539171 L146.275716,9.43631336 L151.146407,11.3681106 C151.147323,11.3662673 151.148239,11.364424 151.148239,11.3625806 C151.206856,11.2307834 151.300277,11.121106 151.434912,11.0409217 C151.673959,10.8989862 151.978034,10.8280184 152.348052,10.8280184 C152.979099,10.8280184 153.653193,10.9754839 154.370333,11.2704147 C155.087473,11.5662673 155.978632,12.0639631 157.044725,12.764424 L159.393062,9.02248848 C158.240875,8.01695853 157.094183,7.34875576 155.952071,7.02064516" id="Fill-92" fill="#80B9C2" mask="url(#mask-6)"></path>
                <path d="M145.664544,20.4952995 L145.042656,21.5939171 C146.04189,22.5340092 147.260021,23.2510599 148.695217,23.7432258 C150.130413,24.2353917 151.597665,24.4814747 153.09789,24.4814747 C154.20703,24.4814747 155.2026,24.3505991 156.082768,24.0879263 C156.962936,23.8252535 157.713049,23.442765 158.333105,22.9395392 C158.588637,22.7321659 158.812114,22.5035945 159.018189,22.2630415 L145.664544,20.4952995 Z" id="Fill-93" fill="#9A67A8" mask="url(#mask-6)"></path>
                <path d="M95.0168617,7.60156682 L85.222357,10.4439631 L95.0168617,7.60156682 Z" id="Fill-94" fill="#1D1C1B" mask="url(#mask-6)"></path>
                <path d="M94.5690841,7.3159447 C93.6449533,6.81271889 92.6283178,6.56110599 91.5191776,6.56110599 C90.4109533,6.56110599 89.3998131,6.78599078 88.4866729,7.23391705 C87.5726168,7.68276498 86.7849533,8.30580645 86.1218505,9.10488479 C85.782972,9.51225806 85.4834766,9.95926267 85.2224486,10.4431336 L95.0169533,7.60165899 C94.8713271,7.50304147 94.7275327,7.40258065 94.5690841,7.3159447" id="Fill-95" fill="#F08650" mask="url(#mask-6)"></path>
                <polygon id="Fill-96" fill="#F08650" mask="url(#mask-6)" points="102.902748 0.193548387 96.7058505 0.193548387 96.7058505 7.08847926 102.902748 5.11705069"></polygon>
                <path d="M97.3429421,10.922765 L95.7456336,12.6647005 C96.722886,13.3863594 97.3429421,14.441659 97.3429421,15.6213825 C97.3429421,17.795576 95.2464748,19.557788 92.6609234,19.557788 C91.9346243,19.557788 91.2467925,19.4186175 90.6340636,19.1706912 L89.5652224,19.403871 L86.775428,22.4462673 C87.3863252,23.0167742 88.0796523,23.479447 88.8618206,23.8250691 C89.8509794,24.2628571 90.932643,24.4812903 92.1068112,24.4812903 C93.2370168,24.4812903 94.3031103,24.2407373 95.3032598,23.7596313 C96.3024935,23.2785253 97.0965682,22.5126267 97.6845682,21.4619355 L97.8146243,22.0858986 C98.1406804,23.6831336 99.3578953,24.4812903 101.467185,24.4812903 C101.599073,24.4812903 101.744699,24.4739171 101.891241,24.4656221 C101.903148,24.4647005 101.914138,24.4647005 101.926045,24.4637788 L97.3429421,10.922765 Z" id="Fill-97" fill="#50B9A7" mask="url(#mask-6)"></path>
                <path d="M103.163593,18.4917051 C102.989574,18.262212 102.902564,17.8520737 102.902564,17.2603687 L102.902564,5.44285714 L102.902564,5.11751152 L96.7056673,7.08894009 L96.7056673,7.12672811 L96.7056673,9.34147465 L97.3431252,10.9230415 L101.926228,24.4640553 C102.523387,24.4271889 103.236864,24.3258065 104.076733,24.1534562 L104.076733,18.9018433 C103.641686,18.8585253 103.337611,18.7211982 103.163593,18.4917051" id="Fill-98" fill="#80B9C2" mask="url(#mask-6)"></path>
                <path d="M96.7056673,9.34184332 L96.7056673,9.44967742 C96.2907701,8.68746544 95.7220037,8.07732719 95.0167701,7.60175115 L85.2222654,10.4432258 C84.9703963,10.9086636 84.7533308,11.4082028 84.571985,11.9436866 C84.2028822,13.0386175 84.0178729,14.2201843 84.0178729,15.4883871 C84.0178729,16.8017512 84.2184523,18.0109677 84.621443,19.1151152 C85.0235178,20.2201843 85.5831252,21.1722581 86.3011813,21.9704147 C86.4458916,22.1317051 86.5997607,22.2800922 86.7563776,22.4266359 C86.7627888,22.4330876 86.7682841,22.4404608 86.7746953,22.4459908 L89.5644897,19.4045161 L89.5315178,19.4118894 L88.0972374,19.7243318 C88.0972374,19.7243318 88.9829009,18.064424 88.843686,17.9003687 C88.737443,17.775023 88.639443,17.6441475 88.5506019,17.5077419 C88.1860785,16.9473733 87.978172,16.304977 87.978172,15.621106 C87.978172,13.4469124 90.0746393,11.6837788 92.6601907,11.6837788 C93.841686,11.6837788 94.9187701,12.0552074 95.7421533,12.661659 C95.7430692,12.6625806 95.7449009,12.6635023 95.7458168,12.664424 L97.3431252,10.9224885 L96.7056673,9.34184332 Z" id="Fill-99" fill="#EC6A5A" mask="url(#mask-6)"></path>
                <polygon id="Fill-100" fill="#80B9C4" mask="url(#mask-6)" points="162.846692 24.1368664 166.711738 24.1368664 166.711738 19.940553 162.846692 19.940553"></polygon>
                <path d="M168.840536,15.5481106 C168.840536,14.3462673 169.047527,13.2098618 169.459677,12.138894 C169.871826,11.0697696 170.464406,10.1287558 171.235583,9.32046083 C172.005845,8.51308756 172.934555,7.87253456 174.019882,7.40341014 C175.105209,6.93336406 176.320593,6.69834101 177.668779,6.69834101 C179.4282,6.69834101 180.941247,7.08728111 182.212499,7.86147465 C183.48192,8.63843318 184.432611,9.67069124 185.061826,10.9591705 L181.577789,12.0734562 C181.163807,11.3517972 180.609695,10.7905069 179.915452,10.384977 C179.221209,9.98129032 178.450032,9.779447 177.602836,9.779447 C176.886611,9.779447 176.218929,9.92138249 175.599789,10.2052535 C174.980649,10.4891244 174.443938,10.8882028 173.98691,11.4015668 C173.530798,11.9149309 173.173602,12.5223041 172.912574,13.2209217 C172.652462,13.9213825 172.522406,14.695576 172.522406,15.5481106 C172.522406,16.379447 172.657957,17.1490323 172.92906,17.8596313 C173.200163,18.5693088 173.569265,19.1868203 174.036368,19.7103226 C174.502555,20.2347465 175.045677,20.6458065 175.664817,20.9407373 C176.283957,21.2347465 176.939733,21.3831336 177.635807,21.3831336 C178.070854,21.3831336 178.504069,21.3232258 178.939116,21.2015668 C179.373247,21.0835945 179.769826,20.9121659 180.127938,20.6946544 C180.485135,20.4762212 180.801116,20.2246083 181.072219,19.9398157 C181.343321,19.657788 181.544817,19.3508756 181.673957,19.022765 L185.192798,20.0725346 C184.627695,21.3610138 183.683415,22.4153917 182.358125,23.2347465 C181.033751,24.055023 179.470331,24.4642396 177.668779,24.4642396 C176.34349,24.4642396 175.139097,24.222765 174.052854,23.7425806 C172.966611,23.2623963 172.038817,22.6117051 171.267639,21.7923502 C170.497378,20.9720737 169.899303,20.0282949 169.477079,18.9573272 C169.053022,17.8863594 168.840536,16.7499539 168.840536,15.5481106" id="Fill-101" fill="#80B9C4" mask="url(#mask-6)"></path>
                <path d="M188.18995,0.20875576 L191.772903,0.20875576 L191.772903,19.1866359 C191.772903,19.8198157 191.935931,20.3175115 192.261987,20.6778802 C192.586211,21.0391705 193.042323,21.218894 193.629407,21.218894 C193.867538,21.218894 194.145052,21.175576 194.459202,21.0870968 C194.774267,21.0004608 195.072847,20.9018433 195.35494,20.7921659 L195.876996,23.6115207 C195.35494,23.8520737 194.7358,24.0428571 194.020492,24.1857143 C193.303351,24.3267281 192.663146,24.3986175 192.098959,24.3986175 C190.860679,24.3986175 189.899912,24.0603687 189.215744,23.3829493 C188.531576,22.7046083 188.18995,21.743318 188.18995,20.497235 L188.18995,0.20875576 Z" id="Fill-102" fill="#80B9C4" mask="url(#mask-6)"></path>
            </g>
        </g>
    </g>
</svg>