<?xml version="1.0" encoding="UTF-8" standalone="no"?>
<svg width="211px" height="60px" viewBox="0 0 211 60" version="1.1" xmlns="http://www.w3.org/2000/svg" xmlns:xlink="http://www.w3.org/1999/xlink">
    <!-- Generator: Sketch 3.8.3 (29802) - http://www.bohemiancoding.com/sketch -->
    <title>Artboard 32</title>
    <desc>Created with Sketch.</desc>
    <defs>
        <polygon id="path-1" points="19.0129204 19.1110303 19.0129204 0.0443636364 0.0789522124 0.0443636364 0.0789522124 19.1110303 19.0129204 19.1110303"></polygon>
    </defs>
    <g id="Page-1" stroke="none" stroke-width="1" fill="none" fill-rule="evenodd">
        <g id="Artboard-32">
            <g id="Page-1" transform="translate(3.000000, 20.000000)">
                <polygon id="Fill-1" fill="#FFFFFF" points="176.349274 19.2695758 184.102478 19.2695758 184.102478 0.772606061 176.349274 0.772606061"></polygon>
                <g id="Group-25" transform="translate(0.000000, 0.561697)">
                    <g id="Group-4" transform="translate(184.743363, 0.000000)">
                        <mask id="mask-2" fill="white">
                            <use xlink:href="#path-1"></use>
                        </mask>
                        <g id="Clip-3"></g>
                        <path d="M9.54599646,0.0443636364 C4.3172177,0.0443636364 0.0789522124,4.31163636 0.0789522124,9.57769697 C0.0789522124,14.8431515 4.3172177,19.1110303 9.54599646,19.1110303 C14.7741735,19.1110303 19.0130407,14.8431515 19.0130407,9.57769697 C19.0130407,4.31163636 14.7741735,0.0443636364 9.54599646,0.0443636364" id="Fill-2" fill="#FFFFFF" mask="url(#mask-2)"></path>
                    </g>
                    <path d="M175.492896,18.7109091 L172.547232,12.7139394 C174.094984,11.4175758 175.080081,9.46484848 175.080081,7.28 C175.080081,3.37757576 171.940648,0.214545455 168.067055,0.214545455 L166.774453,0.214545455 L166.03548,0.214545455 L159.02125,0.214545455 L159.02125,18.7127273 L166.774453,18.7127273 L166.774453,16.8884848 L167.819727,18.7109091 L175.492896,18.7109091 Z" id="Fill-5" fill="#FFFFFF"></path>
                    <path d="M25.9345381,0.0443636364 C20.7057593,0.0443636364 16.4686973,4.31224242 16.4686973,9.57769697 C16.4686973,14.8437576 20.7057593,19.1116364 25.9345381,19.1116364 C31.162715,19.1116364 35.4015823,14.8437576 35.4015823,9.57769697 C35.4015823,4.31224242 31.162715,0.0443636364 25.9345381,0.0443636364" id="Fill-7" fill="#FFFFFF"></path>
                    <path d="M9.04418053,0.210121212 L7.75338407,0.210121212 L7.01380885,0.210121212 L0.000180530973,0.210121212 L0.000180530973,18.7089091 L7.75338407,18.7089091 L7.75338407,14.3392121 L9.04418053,14.3392121 C12.9177735,14.3392121 16.0590124,11.1767879 16.0590124,7.2749697 C16.0590124,3.37315152 12.9177735,0.210121212 9.04418053,0.210121212" id="Fill-9" fill="#FFFFFF"></path>
                    <path d="M45.2376319,0.210121212 L43.9450301,0.210121212 L43.2060566,0.210121212 L36.1936319,0.210121212 L36.1936319,18.7089091 L43.9450301,18.7089091 L43.9450301,14.3392121 L45.2376319,14.3392121 C49.1112248,14.3392121 52.2530655,11.1767879 52.2530655,7.2749697 C52.2530655,3.37315152 49.1112248,0.210121212 45.2376319,0.210121212" id="Fill-11" fill="#FFFFFF"></path>
                    <path d="M62.6680779,0.209515152 L62.6680779,5.69981818 L61.8268035,5.69981818 L61.8268035,0.209515152 L52.8556177,0.209515152 L52.8556177,10.1428485 C52.8556177,15.2513333 56.968715,19.3937576 62.0410336,19.3937576 C67.113954,19.3937576 71.2270513,15.2513333 71.2270513,10.1428485 L71.2270513,0.209515152 L62.6680779,0.209515152 Z" id="Fill-13" fill="#FFFFFF"></path>
                    <polygon id="Fill-15" fill="#FFFFFF" points="80.126446 0.210121212 72.3738442 0.210121212 72.3738442 10.9004242 72.3738442 18.708303 80.126446 18.708303 86.4937735 18.708303 86.4937735 10.9004242 80.126446 10.9004242"></polygon>
                    <path d="M118.811345,8.03678788 L120.191805,8.03678788 L120.191805,0.229515152 L111.137575,0.229515152 L111.137575,0.239212121 C110.354673,0.278 109.569363,0.498606061 108.845434,0.924666667 C106.448584,2.34042424 105.643416,5.44284848 107.047947,7.85678788 L108.716655,10.7246667 L106.357717,10.7246667 L106.357717,18.728303 L116.465044,18.728303 L116.465044,18.7210303 C117.260584,18.6870909 118.060336,18.4640606 118.796301,18.0307273 C121.19315,16.6161818 121.998319,13.5143636 120.592584,11.0986061 L118.811345,8.03678788 Z" id="Fill-17" fill="#FFFFFF"></path>
                    <path d="M97.0823965,0.210121212 L97.0823965,5.7010303 L96.2423257,5.7010303 L96.2423257,0.210121212 L87.2717416,0.210121212 L87.2717416,10.1428485 C87.2717416,15.2513333 91.3842372,19.3937576 96.4571575,19.3937576 C101.529476,19.3937576 105.642573,15.2513333 105.642573,10.1428485 L105.642573,0.210121212 L97.0823965,0.210121212 Z" id="Fill-19" fill="#FFFFFF"></path>
                    <path d="M149.045589,0.210121212 L149.045589,5.7010303 L148.204315,5.7010303 L148.204315,0.210121212 L139.234333,0.210121212 L139.234333,10.1428485 C139.234333,15.2513333 143.346227,19.3937576 148.419749,19.3937576 C153.492669,19.3937576 157.604563,15.2513333 157.604563,10.1428485 L157.604563,0.210121212 L149.045589,0.210121212 Z" id="Fill-21" fill="#FFFFFF"></path>
                    <polygon id="Fill-23" fill="#FFFFFF" points="132.655002 18.7186061 141.110471 18.7186061 134.028241 0.211333333 127.304064 0.213757576 120.394542 18.7186061 128.849409 18.7186061 129.228524 17.2464848 132.275887 17.2464848"></polygon>
                </g>
            </g>
        </g>
    </g>
</svg>