<?xml version="1.0" encoding="UTF-8" standalone="no"?>
<svg width="356px" height="319px" viewBox="0 0 356 319" version="1.1" xmlns="http://www.w3.org/2000/svg" xmlns:xlink="http://www.w3.org/1999/xlink">
    <!-- Generator: Sketch 3.8.3 (29802) - http://www.bohemiancoding.com/sketch -->
    <title>Page 1 Copy</title>
    <desc>Created with Sketch.</desc>
    <defs></defs>
    <g id="Page-1" stroke="none" stroke-width="1" fill="none" fill-rule="evenodd">
        <g id="Home-Copy-14" transform="translate(-147.000000, -2045.000000)" stroke-width="5.25">
            <g id="Page-1-Copy" transform="translate(149.000000, 2048.000000)">
                <g id="Group-135" transform="translate(0.000000, 0.091500)">
                    <path d="M139.240601,261.728175 C134.688958,263.447925 129.753251,265.109175 124.597327,265.109175 C101.757939,265.109175 83.2432127,244.475925 83.2432127,221.684175" id="Stroke-3" stroke="#33526E"></path>
                    <path d="M60.9881121,223.7745 L60.9881121,196.68825 C60.9881121,190.5555 65.9704178,185.5845 72.1154369,185.5845 C78.2612076,185.5845 83.2435134,190.5555 83.2435134,196.68825 L83.2435134,221.52975" id="Stroke-5" stroke="#33526E"></path>
                    <path d="M105.416991,207.20985 L105.416991,182.5356 C105.416991,176.40285 110.399297,171.43185 116.544316,171.43185 C122.690087,171.43185 127.672392,176.40285 127.672392,182.5356 L127.672392,207.20985" id="Stroke-7" stroke="#33526E"></path>
                    <path d="M127.672017,207.20985 L127.672017,184.34985 C127.672017,178.66785 132.287545,174.0621 137.981609,174.0621 C143.674921,174.0621 148.291201,178.66785 148.291201,184.34985 L148.291201,207.20985" id="Stroke-9" stroke="#33526E"></path>
                    <path d="M148.124348,207.227175 L148.124348,187.461675 C148.124348,182.549175 152.115303,178.566675 157.038233,178.566675 C161.961163,178.566675 165.952118,182.549175 165.952118,187.461675 L165.952118,223.523925" id="Stroke-11" stroke="#33526E"></path>
                    <path d="M78.1601185,253.87875 L72.9981822,310.971" id="Stroke-13" stroke="#33526E"></path>
                    <path d="M153.008496,255.761625 L157.082126,315.571875" id="Stroke-15" stroke="#33526E"></path>
                    <path d="M165.951968,221.8458 C165.951968,250.7778 142.448172,267.0393 113.455497,267.0393 C84.4620701,267.0393 60.9582739,250.7778 60.9582739,221.8458" id="Stroke-17" stroke="#33526E"></path>
                    <path d="M99.504665,153.09645 C99.504665,156.00795 97.1394038,158.3682 94.2217223,158.3682 C91.3047924,158.3682 88.9395312,156.00795 88.9395312,153.09645" id="Stroke-19" stroke="#33526E"></path>
                    <path d="M88.9393809,153.1878 L88.9393809,148.3698 C88.9393809,145.4583 91.304642,143.09805 94.2223236,143.09805 C97.1392535,143.09805 99.5045146,145.4583 99.5045146,148.3698 L99.5045146,153.1878" id="Stroke-21" stroke="#33526E"></path>
                    <path d="M75.6488229,204.537825 C75.6488229,208.585575 72.3606064,211.867575 68.3035108,211.867575 C64.2471669,211.867575 60.9589503,208.585575 60.9589503,204.537825" id="Stroke-23" stroke="#33526E"></path>
                    <path d="M60.9586497,204.6648 L60.9586497,197.9658 C60.9586497,193.9173 64.2468662,190.63605 68.3039618,190.63605 C72.3603057,190.63605 75.6485223,193.9173 75.6485223,197.9658 L75.6485223,204.6648" id="Stroke-25" stroke="#33526E"></path>
                    <path d="M194.777264,182.2587 C193.927213,185.7627 194.78027,189.6117 197.398066,192.4767 C201.585187,197.05995 208.703518,197.3877 213.296499,193.20945 C214.323926,192.27495 218.809429,188.1942 223.104028,184.28745" id="Stroke-27" stroke="#33526E"></path>
                    <path d="M223.007373,184.182 C221.272698,185.76 219.737946,187.1565 218.707513,188.094 C214.451997,191.9655 214.147603,198.546 218.027322,202.7925 C221.907042,207.039 228.501513,207.3435 232.757029,203.472 C233.785208,202.536 238.556316,198.19575 242.802061,194.334" id="Stroke-29" stroke="#33526E"></path>
                    <path d="M251.584042,145.945725 C254.796348,146.189475 258.031953,146.758725 261.250271,147.674475 C286.999074,155.002725 301.918934,181.772475 294.575876,207.466725" id="Stroke-31" stroke="#33526E"></path>
                    <polyline id="Stroke-33" stroke="#9A67A8" points="233.498625 184.56765 171.358473 181.07115 175.691403 104.3874 252.537963 108.7119 249.588715 160.90815"></polyline>
                    <path d="M242.76621,194.29395 C240.806809,196.0767 239.015013,197.70645 237.903408,198.7182 C234.223611,202.06545 233.960554,207.7557 237.314911,211.42695 C240.669268,215.09895 246.371599,215.36145 250.051395,212.0142 C250.513624,211.59345 252.783433,209.52795 255.827382,206.7597" id="Stroke-35" stroke="#33526E"></path>
                    <path d="M249.93129,170.254725 C253.033864,172.776225 253.500603,177.330225 250.973749,180.426225 C248.446896,183.522975 243.883227,183.988725 240.780654,181.467225" id="Stroke-37" stroke="#33526E"></path>
                    <path d="M240.877759,181.545975 C240.877759,181.545975 237.534676,178.829475 235.74288,177.372975 C232.640307,174.851475 232.173568,170.297475 234.700422,167.200725 C237.227275,164.104725 241.790944,163.638975 244.893517,166.160475 C247.99609,168.681975 250.028396,170.333475 250.028396,170.333475" id="Stroke-39" stroke="#33526E"></path>
                    <polyline id="Stroke-1" stroke="#9A67A8" points="77.2312255 99.465075 146.870767 96.835575 149.817009 174.538575 141.088767 174.538575"></polyline>
                    <polyline id="Stroke-2" stroke="#9A67A8" points="83.1765465 177.0546 71.9492599 177.47835 69.4840369 112.4466"></polyline>
                    <path d="M230.621831,181.881 C226.951805,178.35 225.305066,172.96425 226.800735,167.73075 C228.96006,160.17675 236.846518,155.79975 244.416557,157.95375 C246.427066,158.526 248.213601,159.50175 249.712276,160.76775" id="Stroke-41" stroke="#33526E"></path>
                    <path d="M285.320693,184.7832 C293.110196,188.82645 297.245457,197.90145 294.743406,206.65545 C291.884349,216.66045 281.437967,222.45795 271.412476,219.6042 C268.461725,218.76495 265.875496,217.26945 263.768782,215.3217" id="Stroke-43" stroke="#33526E"></path>
                    <path d="M230.621605,181.877475 L263.769834,215.317725" id="Stroke-45" stroke="#33526E"></path>
                    <path d="M248.513336,159.863475 L286.527375,185.467725" id="Stroke-47" stroke="#33526E"></path>
                    <polygon id="Stroke-49" stroke="#9A67A8" points="242.529383 84.3198 164.617817 82.94205 165.998492 5.19555 243.910059 6.5733"></polygon>
                    <path d="M294.530405,174.5208 L353.331233,173.88105" id="Stroke-51" stroke="#33526E"></path>
                    <path d="M280.166573,219.984225 L342.232318,229.701975" id="Stroke-53" stroke="#2F4D67"></path>
                    <path d="M117.499364,79.00935 C117.108536,80.6871 116.294562,82.2906 115.049173,83.6541 C111.169454,87.9006 104.574231,88.20435 100.318715,84.33285 C99.5851605,83.6661 96.9470713,81.26535 93.953479,78.5421" id="Stroke-55" stroke="#2F4D67"></path>
                    <path d="M72.8212573,32.216025 C49.7225694,41.144775 36.8372701,66.341025 43.7646968,90.579525" id="Stroke-57" stroke="#2F4D67"></path>
                    <path d="M93.9900815,78.5034 C94.437279,78.9099 94.8356229,79.2729 95.1723363,79.5789 C98.8521325,82.9269 99.1151898,88.6164 95.7608331,92.2884 C92.4064764,95.9604 86.7041452,96.2229 83.0251006,92.87565 C82.8236739,92.69265 82.279521,92.1969 81.477572,91.4679" id="Stroke-59" stroke="#2F4D67"></path>
                    <polyline id="Stroke-61" stroke="#9A67A8" points="91.6494726 80.30655 152.679524 77.1108 148.345842 0.42705 71.4992815 4.75155 74.4492815 53.9463"></polyline>
                    <path d="M88.4092076,53.36745 C85.3066344,55.88895 84.8398955,60.44295 87.366749,63.53895 C89.8936025,66.6357 94.4572713,67.10145 97.5598446,64.57995" id="Stroke-63" stroke="#2F4D67"></path>
                    <path d="M97.4627389,64.658775 C97.4627389,64.658775 100.805822,61.942275 102.597618,60.485775 C105.700191,57.964275 106.16693,53.410275 103.640076,50.313525 C101.113223,47.217525 96.5495541,46.751775 93.4469809,49.273275 C90.3444076,51.794775 88.3121019,53.446275 88.3121019,53.446275" id="Stroke-65" stroke="#2F4D67"></path>
                    <path d="M53.0197299,67.895925 C45.2302268,71.939175 41.0949656,81.014175 43.5970166,89.768175 C46.4568255,99.773175 56.9024561,105.570675 66.9279465,102.716925 C69.8786981,101.877675 72.4649274,100.382175 74.5716408,98.434425" id="Stroke-67" stroke="#2F4D67"></path>
                    <path d="M107.718818,64.990275 L74.5705885,98.430525" id="Stroke-69" stroke="#2F4D67"></path>
                    <path d="M89.8270866,42.976275 L51.8130484,68.580525" id="Stroke-71" stroke="#2F4D67"></path>
                    <path d="M42.8681975,64.658775 L0.576095541,119.138775" id="Stroke-73" stroke="#2F4D67"></path>
                    <path d="M79.8460904,95.22375 L43.8102433,155.0325" id="Stroke-75" stroke="#2F4D67"></path>
                    <polygon id="Stroke-77" stroke="#9A67A8" points="334.712411 82.538175 256.800845 81.160425 258.18152 3.413925 336.093087 4.791675"></polygon>
                    <path d="M185.718997,120.3957 L239.001634,123.3147" id="Stroke-79" stroke="#9A67A8" stroke-linecap="round"></path>
                    <path d="M185.302766,127.961025 L238.585403,130.880025" id="Stroke-81" stroke="#9A67A8" stroke-linecap="round"></path>
                    <path d="M183.852869,152.162625 L227.754882,154.567875" id="Stroke-83" stroke="#9A67A8" stroke-linecap="round"></path>
                    <path d="M183.436637,159.72795 L210.078331,161.18745" id="Stroke-85" stroke="#9A67A8" stroke-linecap="round"></path>
                    <path d="M184.894425,135.382575 L214.903254,137.026575" id="Stroke-87" stroke="#9A67A8" stroke-linecap="round"></path>
                    <path d="M83.1051452,115.916775 L136.435884,114.063525" id="Stroke-89" stroke="#9A67A8" stroke-linecap="round"></path>
                    <path d="M83.1051452,123.488925 L109.770139,122.561925" id="Stroke-91" stroke="#9A67A8" stroke-linecap="round"></path>
                    <path d="M83.1051452,131.06115 L129.176254,129.2079" id="Stroke-93" stroke="#9A67A8" stroke-linecap="round"></path>
                    <path d="M101.840464,137.88285 L136.435508,136.7796" id="Stroke-95" stroke="#9A67A8" stroke-linecap="round"></path>
                    <path d="M107.230583,145.36695 L129.176329,144.3522" id="Stroke-97" stroke="#9A67A8" stroke-linecap="round"></path>
                    <path d="M107.230583,153.09645 L136.435959,151.9242" id="Stroke-99" stroke="#9A67A8" stroke-linecap="round"></path>
                    <path d="M84.0507236,18.71835 L137.302545,15.2796" id="Stroke-101" stroke="#9A67A8" stroke-linecap="round"></path>
                    <path d="M84.2768777,26.287125 L121.833196,23.862375" id="Stroke-103" stroke="#9A67A8" stroke-linecap="round"></path>
                    <path d="M100.75554,40.51755 L137.980406,37.9863" id="Stroke-105" stroke="#9A67A8" stroke-linecap="round"></path>
                    <path d="M110.902713,47.64915 L131.113783,46.0989" id="Stroke-107" stroke="#9A67A8" stroke-linecap="round"></path>
                    <path d="M177.257871,20.28915 L207.271961,20.8044" id="Stroke-109" stroke="#9A67A8" stroke-linecap="round"></path>
                    <path d="M176.847051,27.8502 L230.200338,28.8807" id="Stroke-111" stroke="#9A67A8" stroke-linecap="round"></path>
                    <path d="M176.436155,35.41125 L219.474589,36.243" id="Stroke-113" stroke="#9A67A8" stroke-linecap="round"></path>
                    <path d="M176.02526,42.9723 L229.378546,44.0028" id="Stroke-115" stroke="#9A67A8" stroke-linecap="round"></path>
                    <path d="M175.203469,58.094475 L228.556755,59.124975" id="Stroke-117" stroke="#9A67A8" stroke-linecap="round"></path>
                    <path d="M270.671932,21.115575 L324.03048,21.800325" id="Stroke-119" stroke="#9A67A8" stroke-linecap="round"></path>
                    <path d="M270.310266,28.679175 L323.668814,29.363925" id="Stroke-121" stroke="#9A67A8" stroke-linecap="round"></path>
                    <path d="M269.9486,36.2427 L295.543326,36.92745" id="Stroke-123" stroke="#9A67A8" stroke-linecap="round"></path>
                    <path d="M269.586934,43.8063 L311.199596,43.8063" id="Stroke-125" stroke="#9A67A8" stroke-linecap="round"></path>
                    <path d="M269.225268,51.3699 L322.583815,52.05465" id="Stroke-127" stroke="#9A67A8" stroke-linecap="round"></path>
                    <path d="M268.863676,58.933425 L307.047575,59.785425" id="Stroke-129" stroke="#9A67A8" stroke-linecap="round"></path>
                    <path d="M83.1619656,222.500925 L83.1619656,147.420675 C83.1619656,141.287925 88.1442713,136.316925 94.2892904,136.316925 C100.435061,136.316925 105.417367,141.287925 105.417367,147.420675 L105.417367,207.209925" id="Stroke-131" stroke="#33526E"></path>
                    <path d="M107.718592,64.993725 C111.388618,61.462725 113.035357,56.076975 111.539688,50.843475 C109.380363,43.289475 101.493904,38.912475 93.9238662,41.066475 C91.9133567,41.638725 90.1268217,42.614475 88.6281465,43.880475" id="Stroke-133" stroke="#33526E"></path>
                </g>
            </g>
        </g>
    </g>
</svg>